<?xml version="1.0" standalone="no"?>
<!DOCTYPE svg PUBLIC "-//W3C//DTD SVG 20010904//EN"
 "http://www.w3.org/TR/2001/REC-SVG-20010904/DTD/svg10.dtd">
<svg version="1.0" xmlns="http://www.w3.org/2000/svg"
 width="1440.000000pt" height="154.000000pt" viewBox="0 0 1440.000000 154.000000"
 preserveAspectRatio="xMidYMid meet">

<g transform="translate(0.000000,154.000000) scale(0.100000,-0.100000)"
fill="#FFF" stroke="none">
<path d="M379 1450 c-102 -26 -220 -106 -280 -190 -34 -47 -81 -148 -76 -163
2 -7 -3 -32 -10 -57 -11 -37 -11 -54 -1 -94 11 -43 13 -46 20 -25 5 15 6 5 3
-26 -2 -30 -1 -42 4 -30 7 18 9 17 19 -10 l10 -30 1 29 c1 24 3 26 15 16 8 -6
16 -28 18 -48 3 -42 32 -57 43 -23 3 12 10 21 15 21 5 0 6 -7 3 -17 -5 -12 -3
-14 7 -8 8 5 11 4 7 -2 -8 -12 29 -53 47 -53 8 0 17 -7 20 -16 8 -22 8 -26 -4
-19 -6 3 -7 -1 -4 -10 4 -10 13 -14 22 -10 8 3 19 0 24 -7 6 -9 7 -6 4 7 -3
12 1 48 10 80 14 55 14 67 -2 148 l-18 89 28 51 c45 80 36 78 136 43 78 -27
91 -35 101 -61 28 -71 61 -135 70 -135 5 0 90 39 189 87 206 100 194 83 140
201 -41 89 -132 177 -233 227 -74 36 -84 39 -185 41 -59 2 -123 -1 -143 -6z
m-109 -720 c0 -5 -4 -10 -10 -10 -5 0 -10 5 -10 10 0 6 5 10 10 10 6 0 10 -4
10 -10z"/>
<path d="M7252 1144 c-30 -21 -45 -60 -37 -96 5 -22 12 -28 32 -28 14 0 32 8
39 17 12 17 16 17 81 0 37 -9 78 -17 90 -17 32 0 63 45 63 91 0 37 -2 39 -31
39 -18 0 -37 -7 -43 -16 -11 -14 -19 -13 -86 5 -89 25 -80 25 -108 5z"/>
<path d="M355 1023 c-18 -33 -18 -36 0 -108 16 -67 17 -82 5 -144 -7 -38 -9
-77 -5 -88 8 -19 14 -51 18 -95 1 -14 5 -30 10 -34 11 -11 9 -26 -3 -19 -5 3
-10 2 -10 -4 0 -15 22 -26 45 -23 17 2 18 1 5 -8 -13 -10 -13 -11 2 -7 9 3 19
-1 22 -9 3 -8 13 -14 22 -14 11 0 3 11 -22 31 -22 17 -41 32 -43 34 -2 3 -5
21 -7 42 -2 21 -7 66 -12 100 -5 35 -6 66 -3 69 3 3 11 22 16 42 9 29 7 54 -7
115 -23 101 -15 122 39 103 31 -11 40 -20 57 -67 12 -30 39 -77 61 -104 21
-28 40 -51 41 -53 1 -2 97 44 213 102 203 102 211 105 221 85 7 -11 9 -27 6
-36 -5 -11 2 -9 28 6 69 43 95 12 47 -55 l-31 -42 25 -16 c34 -22 31 -39 -12
-82 -21 -20 -28 -30 -15 -23 19 12 24 12 32 -1 5 -8 10 -18 10 -22 0 -4 -31
-44 -69 -90 -65 -78 -118 -128 -219 -207 -23 -18 -39 -38 -36 -43 5 -7 2 -8
-5 -3 -14 8 -64 -33 -56 -46 9 -14 -33 3 -54 22 -12 11 -26 17 -33 13 -7 -4
-8 -3 -4 4 4 7 3 12 -3 12 -6 0 -22 12 -36 27 -14 15 -25 26 -26 23 -10 -52 2
-83 24 -61 16 16 27 14 21 -4 -4 -8 -2 -15 2 -16 26 -2 58 -10 63 -16 3 -3 -4
-3 -16 0 -30 7 -30 -11 0 -23 l22 -9 -24 0 c-13 -1 -21 -4 -18 -8 4 -3 0 -15
-10 -25 -9 -11 -11 -18 -5 -18 7 0 12 4 12 10 0 5 16 17 37 25 34 14 37 14 55
-4 10 -11 18 -24 18 -28 -1 -4 -9 2 -20 15 -10 12 -21 18 -24 13 -3 -5 1 -14
9 -21 8 -7 13 -16 10 -20 -3 -5 -1 -11 4 -15 6 -3 15 4 21 16 9 16 8 24 -4 38
-15 17 -13 51 3 51 6 0 98 71 185 143 21 17 43 33 47 35 4 2 34 36 66 75 32
40 60 74 63 77 3 3 16 17 29 32 24 27 24 28 6 48 -14 16 -16 23 -7 32 15 15
15 81 0 96 -9 9 -8 16 5 30 42 46 -2 149 -51 123 -30 -16 -38 -14 -50 14 l-12
25 -216 -107 -216 -108 -33 38 c-18 21 -43 64 -55 97 -22 58 -23 59 -79 78
l-58 20 -18 -35z m245 -658 c0 -2 -6 -5 -13 -8 -8 -3 -14 1 -14 8 0 7 6 11 14
8 7 -3 13 -6 13 -8z"/>
<path d="M3157 966 c-64 -18 -113 -67 -132 -130 -10 -32 -15 -92 -15 -165 1
-201 47 -271 180 -271 56 0 73 4 113 30 l47 29 6 -24 c6 -23 10 -25 70 -25
l64 0 0 160 0 160 -80 0 -79 0 -3 -92 c-3 -89 -4 -93 -27 -96 -13 -2 -38 -1
-56 2 -47 9 -58 43 -53 161 4 124 5 125 150 125 120 0 113 -4 122 76 5 50 4
52 -22 58 -64 14 -238 16 -285 2z"/>
<path d="M4978 973 l-98 -4 0 -278 0 -279 23 -6 c47 -13 293 -6 344 9 93 28
133 108 133 266 0 122 -14 178 -56 228 -51 59 -126 73 -346 64z m190 -132 c30
-18 43 -186 21 -264 -12 -43 -41 -60 -98 -55 l-36 3 -3 163 -2 162 52 0 c29 0
59 -4 66 -9z"/>
<path d="M6221 970 c-83 -18 -121 -65 -121 -150 0 -92 47 -141 190 -201 76
-32 97 -50 84 -70 -3 -5 -63 -9 -135 -9 l-129 0 0 -59 0 -59 52 -12 c66 -14
235 -14 286 -1 88 24 127 128 86 230 -19 47 -57 75 -177 126 -64 28 -87 42
-85 54 3 13 22 16 126 19 118 3 122 3 128 26 3 13 4 38 2 56 -2 28 -8 35 -33
42 -47 13 -225 18 -274 8z"/>
<path d="M8370 969 c-28 -6 -55 -20 -75 -39 -28 -29 -30 -35 -30 -108 0 -107
10 -120 150 -188 88 -42 115 -60 115 -75 0 -18 -8 -19 -130 -19 l-130 0 0 -29
c0 -16 -3 -42 -6 -58 -6 -29 -5 -30 52 -41 75 -15 259 -14 304 2 66 24 101
113 79 200 -15 60 -49 89 -165 140 -76 33 -100 49 -102 65 -3 20 0 21 121 21
l124 0 7 51 c4 29 3 56 -1 60 -24 24 -224 36 -313 18z"/>
<path d="M9087 967 c-112 -28 -152 -101 -152 -282 0 -83 5 -122 18 -157 22
-56 72 -103 124 -117 50 -14 188 -14 254 0 l51 11 -6 45 c-3 25 -6 54 -6 63 0
16 -10 17 -104 13 -95 -5 -105 -4 -124 15 -25 25 -37 108 -27 184 11 82 20 88
140 88 l102 0 6 62 c3 35 4 64 3 65 -6 6 -146 23 -186 22 -25 -1 -66 -6 -93
-12z"/>
<path d="M9589 971 c-60 -12 -101 -43 -128 -95 -20 -39 -25 -66 -29 -155 -6
-139 9 -211 54 -260 42 -47 87 -61 200 -61 209 0 259 56 259 290 0 117 -2 129
-29 184 -24 49 -36 61 -74 79 -50 22 -189 32 -253 18z m158 -147 c21 -33 25
-213 5 -261 -24 -56 -117 -52 -133 7 -11 39 -10 191 1 229 12 42 24 51 72 51
29 0 41 -6 55 -26z"/>
<path d="M10612 968 c-27 -6 -57 -23 -81 -46 -50 -48 -64 -113 -60 -266 5
-137 30 -198 94 -231 49 -24 217 -33 285 -15 57 15 103 64 121 127 17 60 17
242 0 303 -19 64 -73 114 -139 129 -62 13 -159 13 -220 -1z m164 -132 c17 -13
19 -29 22 -140 4 -124 3 -126 -23 -152 -21 -21 -32 -25 -58 -20 -54 11 -62 27
-65 132 -4 109 2 157 24 179 19 19 74 20 100 1z"/>
<path d="M1470 726 l0 -244 26 -31 c37 -45 83 -53 240 -45 l134 7 0 63 0 64
-103 0 c-67 0 -107 4 -115 12 -9 9 -12 70 -12 215 l0 203 -85 0 -85 0 0 -244z"/>
<path d="M1991 957 c-13 -6 -34 -25 -45 -40 -20 -27 -21 -41 -21 -232 0 -191
1 -205 21 -232 35 -47 79 -55 247 -47 l147 7 0 58 0 59 -87 1 c-91 0 -142 5
-149 12 -3 3 -6 24 -7 48 l-2 44 108 3 107 3 0 54 0 54 -107 3 -108 3 2 29 c4
56 4 56 128 56 l115 0 0 59 0 58 -37 7 c-69 11 -286 6 -312 -7z"/>
<path d="M2438 959 c-16 -9 -18 -33 -18 -279 l0 -270 75 0 75 0 1 173 0 172
20 -50 c11 -27 55 -104 97 -170 l78 -120 69 -3 c57 -2 72 0 82 14 10 13 13 84
13 281 l0 263 -82 0 -81 0 5 -172 6 -173 -24 52 c-32 72 -162 271 -185 283
-23 13 -109 12 -131 -1z"/>
<path d="M3570 758 c0 -185 3 -218 19 -253 36 -80 90 -104 231 -104 71 -1 105
4 135 18 92 42 105 85 105 347 l0 204 -84 0 -85 0 -3 -206 c-3 -205 -3 -206
-28 -226 -26 -21 -82 -20 -104 2 -7 7 -12 87 -14 220 l-3 210 -85 0 -84 0 0
-212z"/>
<path d="M4270 952 c-16 -13 -38 -75 -89 -257 -38 -132 -71 -250 -75 -262 -7
-23 -6 -23 82 -23 l89 0 13 60 13 61 81 -3 80 -3 14 -57 14 -58 88 0 87 0 -74
263 c-54 189 -80 267 -95 280 -30 25 -196 25 -228 -1z m137 -174 c7 -35 15
-78 19 -95 l7 -33 -51 0 -50 0 13 58 c7 31 16 74 19 95 10 57 30 45 43 -25z"/>
<path d="M5512 950 c-54 -33 -62 -67 -62 -265 0 -190 8 -228 51 -256 41 -27
79 -31 226 -23 l143 7 0 58 c0 33 -3 59 -7 59 -5 0 -56 1 -115 3 -58 1 -109 4
-111 7 -3 3 -7 25 -8 50 l-4 45 108 3 107 3 0 54 0 54 -107 3 -108 3 3 35 c2
19 6 38 9 43 2 4 56 7 119 7 l114 0 0 59 c0 58 -1 59 -31 65 -17 3 -91 6 -163
6 -114 0 -135 -3 -164 -20z"/>
<path d="M6679 956 c-60 -34 -64 -53 -64 -268 0 -222 4 -234 79 -272 33 -16
52 -17 191 -11 l153 7 -5 57 c-3 31 -7 58 -9 60 -2 2 -46 3 -99 2 -120 -2
-135 5 -135 64 l0 45 105 0 105 0 0 55 0 55 -106 0 -105 0 3 43 3 42 116 3
117 3 5 57 c2 31 2 59 0 62 -3 3 -77 6 -166 8 -128 2 -167 -1 -188 -12z"/>
<path d="M7140 963 c-8 -3 -18 -11 -22 -17 -4 -6 -8 -129 -8 -273 l0 -263 81
0 82 0 -5 171 -4 170 26 -58 c15 -32 59 -109 99 -170 l73 -113 67 0 c39 0 72
5 79 12 9 9 12 85 12 280 l0 268 -75 0 -75 0 0 -172 0 -173 -24 51 c-28 60
-139 239 -169 272 -16 17 -31 22 -71 21 -28 0 -58 -3 -66 -6z"/>
<path d="M7832 953 c-14 -13 -35 -70 -67 -188 -26 -93 -58 -208 -71 -254 -13
-46 -24 -87 -24 -93 0 -5 38 -8 87 -6 79 3 88 5 91 23 2 11 8 37 13 58 l10 37
78 0 79 0 14 -57 14 -58 88 -3 c81 -3 88 -1 83 15 -7 28 -107 380 -127 451
-10 35 -26 69 -36 77 -30 22 -205 20 -232 -2z m133 -140 c4 -16 13 -56 21 -90
8 -34 14 -65 14 -68 0 -3 -22 -5 -50 -5 -57 0 -57 0 -35 80 8 30 15 67 15 83
0 17 5 27 15 27 8 0 17 -12 20 -27z"/>
<path d="M10020 739 c0 -270 5 -289 77 -321 40 -17 58 -19 184 -12 77 4 142
10 144 15 3 4 2 33 -1 63 l-7 56 -93 0 c-51 0 -99 3 -108 6 -14 5 -16 32 -16
193 0 102 -3 196 -6 209 -6 21 -12 22 -90 22 l-84 0 0 -231z"/>
<path d="M11092 952 c-18 -18 -20 -39 -26 -213 -4 -107 -9 -224 -12 -261 l-6
-68 79 0 80 0 7 212 c10 279 11 281 55 59 17 -84 36 -160 42 -167 8 -10 36
-14 95 -14 76 0 85 2 98 23 7 12 26 88 41 170 16 81 31 147 35 147 8 0 20
-152 20 -260 0 -43 3 -98 6 -124 l7 -46 73 0 74 0 0 48 c0 26 -5 144 -10 262
-11 263 -4 250 -151 250 -82 0 -102 -3 -117 -18 -13 -13 -25 -59 -41 -158 -34
-212 -35 -214 -50 -114 -20 136 -48 261 -60 273 -7 7 -55 13 -116 15 -92 3
-105 2 -123 -16z"/>
<path d="M11840 691 l0 -278 31 -7 c53 -10 297 -7 345 5 28 7 54 23 70 42 24
28 26 37 22 103 -4 85 -27 119 -87 130 l-36 7 42 18 c23 10 47 27 53 40 19 34
16 133 -4 164 -31 47 -68 55 -261 55 l-175 0 0 -279z m278 157 c13 -13 16 -56
6 -82 -5 -12 -20 -16 -60 -16 l-54 0 0 55 0 55 48 0 c26 0 53 -5 60 -12z m6
-211 c13 -10 17 -24 14 -62 l-3 -50 -58 -5 c-32 -3 -60 -3 -63 -1 -2 2 -4 33
-4 68 l0 63 48 0 c27 0 56 -6 66 -13z"/>
<path d="M12390 690 l0 -280 85 0 85 0 0 280 0 280 -85 0 -85 0 0 -280z"/>
<path d="M12770 952 c-16 -13 -38 -76 -91 -262 -38 -135 -72 -253 -75 -262 -5
-16 3 -18 84 -18 l89 0 13 60 13 61 81 -3 80 -3 14 -57 14 -58 88 0 89 0 -14
42 c-8 24 -41 142 -75 263 -44 159 -67 225 -82 238 -30 25 -196 25 -228 -1z
m137 -174 c7 -35 15 -78 19 -95 l7 -33 -51 0 -50 0 13 58 c7 31 16 74 19 95
10 57 30 45 43 -25z"/>
<path d="M13232 954 c-22 -15 -22 -18 -22 -280 l0 -264 81 0 81 0 -4 170 -3
169 26 -57 c27 -59 155 -261 173 -274 20 -14 133 -9 145 6 11 13 13 123 11
519 l0 27 -75 0 -75 0 0 -167 -1 -168 -37 70 c-46 85 -127 212 -155 243 -16
17 -31 22 -72 22 -30 0 -60 -6 -73 -16z"/>
<path d="M13936 955 c-13 -10 -41 -91 -93 -272 -40 -142 -73 -262 -73 -266 0
-4 39 -6 87 -5 79 3 88 5 91 23 2 11 8 37 13 58 l10 37 78 0 79 0 14 -57 14
-58 87 -3 c48 -1 87 1 87 5 0 4 -34 125 -74 267 -50 174 -80 264 -92 273 -26
19 -203 17 -228 -2z m145 -211 c10 -49 19 -90 19 -91 0 -2 -23 -3 -51 -3 -48
0 -51 1 -45 23 3 12 11 49 17 82 15 80 17 87 31 83 6 -2 19 -44 29 -94z"/>
<path d="M41 824 c0 -11 3 -14 6 -6 3 7 2 16 -1 19 -3 4 -6 -2 -5 -13z"/>
<path d="M130 681 c0 -5 7 -11 14 -14 10 -4 13 -1 9 9 -6 15 -23 19 -23 5z"/>
<path d="M231 651 c-8 -5 -9 -11 -3 -15 5 -3 12 1 16 9 6 17 6 18 -13 6z"/>
<path d="M270 650 c0 -6 7 -18 15 -26 9 -10 15 -11 15 -4 0 6 -7 18 -15 26 -9
10 -15 11 -15 4z"/>
<path d="M251 624 c0 -11 3 -14 6 -6 3 7 2 16 -1 19 -3 4 -6 -2 -5 -13z"/>
<path d="M284 569 c0 -10 4 -19 8 -19 4 0 8 6 8 14 0 8 -4 17 -8 20 -4 2 -8
-4 -8 -15z"/>
<path d="M337 493 c-4 -3 -7 -11 -7 -17 0 -6 5 -5 12 2 6 6 9 14 7 17 -3 3 -9
2 -12 -2z"/>
<path d="M361 464 c0 -11 3 -14 6 -6 3 7 2 16 -1 19 -3 4 -6 -2 -5 -13z"/>
<path d="M505 451 c8 -12 5 -13 -17 -8 -14 4 -34 10 -44 14 -12 4 -15 3 -10
-5 4 -7 16 -12 27 -12 10 0 19 -4 19 -10 0 -5 7 -7 15 -4 9 4 23 -4 35 -17 13
-17 19 -19 20 -9 0 8 -5 22 -10 30 -5 8 -10 11 -10 6 0 -4 -8 0 -17 11 -10 10
-13 12 -8 4z"/>
<path d="M675 169 c-4 -6 -4 -13 -1 -16 3 -4 6 -1 6 6 0 8 6 11 16 7 8 -3 12
-2 9 4 -8 13 -22 13 -30 -1z"/>
<path d="M679 133 c-13 -16 -12 -17 4 -4 16 13 21 21 13 21 -2 0 -10 -8 -17
-17z"/>
</g>
</svg>
