<?xml version="1.0" encoding="utf-8" standalone="no"?>
<!DOCTYPE svg PUBLIC "-//W3C//DTD SVG 1.1//EN"
  "http://www.w3.org/Graphics/SVG/1.1/DTD/svg11.dtd">
<svg xmlns:xlink="http://www.w3.org/1999/xlink" width="627.513125pt" height="344.278125pt" viewBox="0 0 627.513125 344.278125" xmlns="http://www.w3.org/2000/svg" version="1.1">
 <metadata>
  <rdf:RDF xmlns:dc="http://purl.org/dc/elements/1.1/" xmlns:cc="http://creativecommons.org/ns#" xmlns:rdf="http://www.w3.org/1999/02/22-rdf-syntax-ns#">
   <cc:Work>
    <dc:type rdf:resource="http://purl.org/dc/dcmitype/StillImage"/>
    <dc:date>2022-09-15T15:01:23.558787</dc:date>
    <dc:format>image/svg+xml</dc:format>
    <dc:creator>
     <cc:Agent>
      <dc:title>Matplotlib v3.5.3, https://matplotlib.org/</dc:title>
     </cc:Agent>
    </dc:creator>
   </cc:Work>
  </rdf:RDF>
 </metadata>
 <defs>
  <style type="text/css">*{stroke-linejoin: round; stroke-linecap: butt}</style>
 </defs>
 <g id="figure_1">
  <g id="patch_1">
   <path d="M 0 344.278125 
L 627.513125 344.278125 
L 627.513125 0 
L 0 0 
z
" style="fill: #ffffff"/>
  </g>
  <g id="axes_1">
   <g id="patch_2">
    <path d="M 62.313125 320.4 
L 315.949489 320.4 
L 315.949489 43.2 
L 62.313125 43.2 
z
" style="fill: #ffffff"/>
   </g>
   <g id="matplotlib.axis_1">
    <g id="xtick_1">
     <g id="line2d_1">
      <defs>
       <path id="m3bf64ba64f" d="M 0 0 
L 0 3.5 
" style="stroke: #000000; stroke-width: 0.8"/>
      </defs>
      <g>
       <use xlink:href="#m3bf64ba64f" x="73.842051" y="320.4" style="stroke: #000000; stroke-width: 0.8"/>
      </g>
     </g>
     <g id="text_1">
      <!-- 0 -->
      <g transform="translate(70.660801 334.998437)scale(0.1 -0.1)">
       <defs>
        <path id="DejaVuSans-30" d="M 2034 4250 
Q 1547 4250 1301 3770 
Q 1056 3291 1056 2328 
Q 1056 1369 1301 889 
Q 1547 409 2034 409 
Q 2525 409 2770 889 
Q 3016 1369 3016 2328 
Q 3016 3291 2770 3770 
Q 2525 4250 2034 4250 
z
M 2034 4750 
Q 2819 4750 3233 4129 
Q 3647 3509 3647 2328 
Q 3647 1150 3233 529 
Q 2819 -91 2034 -91 
Q 1250 -91 836 529 
Q 422 1150 422 2328 
Q 422 3509 836 4129 
Q 1250 4750 2034 4750 
z
" transform="scale(0.015625)"/>
       </defs>
       <use xlink:href="#DejaVuSans-30"/>
      </g>
     </g>
    </g>
    <g id="xtick_2">
     <g id="line2d_2">
      <g>
       <use xlink:href="#m3bf64ba64f" x="131.77635" y="320.4" style="stroke: #000000; stroke-width: 0.8"/>
      </g>
     </g>
     <g id="text_2">
      <!-- 50 -->
      <g transform="translate(125.41385 334.998437)scale(0.1 -0.1)">
       <defs>
        <path id="DejaVuSans-35" d="M 691 4666 
L 3169 4666 
L 3169 4134 
L 1269 4134 
L 1269 2991 
Q 1406 3038 1543 3061 
Q 1681 3084 1819 3084 
Q 2600 3084 3056 2656 
Q 3513 2228 3513 1497 
Q 3513 744 3044 326 
Q 2575 -91 1722 -91 
Q 1428 -91 1123 -41 
Q 819 9 494 109 
L 494 744 
Q 775 591 1075 516 
Q 1375 441 1709 441 
Q 2250 441 2565 725 
Q 2881 1009 2881 1497 
Q 2881 1984 2565 2268 
Q 2250 2553 1709 2553 
Q 1456 2553 1204 2497 
Q 953 2441 691 2322 
L 691 4666 
z
" transform="scale(0.015625)"/>
       </defs>
       <use xlink:href="#DejaVuSans-35"/>
       <use xlink:href="#DejaVuSans-30" x="63.623047"/>
      </g>
     </g>
    </g>
    <g id="xtick_3">
     <g id="line2d_3">
      <g>
       <use xlink:href="#m3bf64ba64f" x="189.71065" y="320.4" style="stroke: #000000; stroke-width: 0.8"/>
      </g>
     </g>
     <g id="text_3">
      <!-- 100 -->
      <g transform="translate(180.1669 334.998437)scale(0.1 -0.1)">
       <defs>
        <path id="DejaVuSans-31" d="M 794 531 
L 1825 531 
L 1825 4091 
L 703 3866 
L 703 4441 
L 1819 4666 
L 2450 4666 
L 2450 531 
L 3481 531 
L 3481 0 
L 794 0 
L 794 531 
z
" transform="scale(0.015625)"/>
       </defs>
       <use xlink:href="#DejaVuSans-31"/>
       <use xlink:href="#DejaVuSans-30" x="63.623047"/>
       <use xlink:href="#DejaVuSans-30" x="127.246094"/>
      </g>
     </g>
    </g>
    <g id="xtick_4">
     <g id="line2d_4">
      <g>
       <use xlink:href="#m3bf64ba64f" x="247.644949" y="320.4" style="stroke: #000000; stroke-width: 0.8"/>
      </g>
     </g>
     <g id="text_4">
      <!-- 150 -->
      <g transform="translate(238.101199 334.998437)scale(0.1 -0.1)">
       <use xlink:href="#DejaVuSans-31"/>
       <use xlink:href="#DejaVuSans-35" x="63.623047"/>
       <use xlink:href="#DejaVuSans-30" x="127.246094"/>
      </g>
     </g>
    </g>
    <g id="xtick_5">
     <g id="line2d_5">
      <g>
       <use xlink:href="#m3bf64ba64f" x="305.579249" y="320.4" style="stroke: #000000; stroke-width: 0.8"/>
      </g>
     </g>
     <g id="text_5">
      <!-- 200 -->
      <g transform="translate(296.035499 334.998437)scale(0.1 -0.1)">
       <defs>
        <path id="DejaVuSans-32" d="M 1228 531 
L 3431 531 
L 3431 0 
L 469 0 
L 469 531 
Q 828 903 1448 1529 
Q 2069 2156 2228 2338 
Q 2531 2678 2651 2914 
Q 2772 3150 2772 3378 
Q 2772 3750 2511 3984 
Q 2250 4219 1831 4219 
Q 1534 4219 1204 4116 
Q 875 4013 500 3803 
L 500 4441 
Q 881 4594 1212 4672 
Q 1544 4750 1819 4750 
Q 2544 4750 2975 4387 
Q 3406 4025 3406 3419 
Q 3406 3131 3298 2873 
Q 3191 2616 2906 2266 
Q 2828 2175 2409 1742 
Q 1991 1309 1228 531 
z
" transform="scale(0.015625)"/>
       </defs>
       <use xlink:href="#DejaVuSans-32"/>
       <use xlink:href="#DejaVuSans-30" x="63.623047"/>
       <use xlink:href="#DejaVuSans-30" x="127.246094"/>
      </g>
     </g>
    </g>
   </g>
   <g id="matplotlib.axis_2">
    <g id="ytick_1">
     <g id="line2d_6">
      <defs>
       <path id="m5b72aecf00" d="M 0 0 
L -3.5 0 
" style="stroke: #000000; stroke-width: 0.8"/>
      </defs>
      <g>
       <use xlink:href="#m5b72aecf00" x="62.313125" y="296.053679" style="stroke: #000000; stroke-width: 0.8"/>
      </g>
     </g>
     <g id="text_6">
      <!-- 0.005 -->
      <g transform="translate(26.685 299.852898)scale(0.1 -0.1)">
       <defs>
        <path id="DejaVuSans-2e" d="M 684 794 
L 1344 794 
L 1344 0 
L 684 0 
L 684 794 
z
" transform="scale(0.015625)"/>
       </defs>
       <use xlink:href="#DejaVuSans-30"/>
       <use xlink:href="#DejaVuSans-2e" x="63.623047"/>
       <use xlink:href="#DejaVuSans-30" x="95.410156"/>
       <use xlink:href="#DejaVuSans-30" x="159.033203"/>
       <use xlink:href="#DejaVuSans-35" x="222.65625"/>
      </g>
     </g>
    </g>
    <g id="ytick_2">
     <g id="line2d_7">
      <g>
       <use xlink:href="#m5b72aecf00" x="62.313125" y="263.786237" style="stroke: #000000; stroke-width: 0.8"/>
      </g>
     </g>
     <g id="text_7">
      <!-- 0.010 -->
      <g transform="translate(26.685 267.585455)scale(0.1 -0.1)">
       <use xlink:href="#DejaVuSans-30"/>
       <use xlink:href="#DejaVuSans-2e" x="63.623047"/>
       <use xlink:href="#DejaVuSans-30" x="95.410156"/>
       <use xlink:href="#DejaVuSans-31" x="159.033203"/>
       <use xlink:href="#DejaVuSans-30" x="222.65625"/>
      </g>
     </g>
    </g>
    <g id="ytick_3">
     <g id="line2d_8">
      <g>
       <use xlink:href="#m5b72aecf00" x="62.313125" y="231.518794" style="stroke: #000000; stroke-width: 0.8"/>
      </g>
     </g>
     <g id="text_8">
      <!-- 0.015 -->
      <g transform="translate(26.685 235.318013)scale(0.1 -0.1)">
       <use xlink:href="#DejaVuSans-30"/>
       <use xlink:href="#DejaVuSans-2e" x="63.623047"/>
       <use xlink:href="#DejaVuSans-30" x="95.410156"/>
       <use xlink:href="#DejaVuSans-31" x="159.033203"/>
       <use xlink:href="#DejaVuSans-35" x="222.65625"/>
      </g>
     </g>
    </g>
    <g id="ytick_4">
     <g id="line2d_9">
      <g>
       <use xlink:href="#m5b72aecf00" x="62.313125" y="199.251352" style="stroke: #000000; stroke-width: 0.8"/>
      </g>
     </g>
     <g id="text_9">
      <!-- 0.020 -->
      <g transform="translate(26.685 203.050571)scale(0.1 -0.1)">
       <use xlink:href="#DejaVuSans-30"/>
       <use xlink:href="#DejaVuSans-2e" x="63.623047"/>
       <use xlink:href="#DejaVuSans-30" x="95.410156"/>
       <use xlink:href="#DejaVuSans-32" x="159.033203"/>
       <use xlink:href="#DejaVuSans-30" x="222.65625"/>
      </g>
     </g>
    </g>
    <g id="ytick_5">
     <g id="line2d_10">
      <g>
       <use xlink:href="#m5b72aecf00" x="62.313125" y="166.98391" style="stroke: #000000; stroke-width: 0.8"/>
      </g>
     </g>
     <g id="text_10">
      <!-- 0.025 -->
      <g transform="translate(26.685 170.783129)scale(0.1 -0.1)">
       <use xlink:href="#DejaVuSans-30"/>
       <use xlink:href="#DejaVuSans-2e" x="63.623047"/>
       <use xlink:href="#DejaVuSans-30" x="95.410156"/>
       <use xlink:href="#DejaVuSans-32" x="159.033203"/>
       <use xlink:href="#DejaVuSans-35" x="222.65625"/>
      </g>
     </g>
    </g>
    <g id="ytick_6">
     <g id="line2d_11">
      <g>
       <use xlink:href="#m5b72aecf00" x="62.313125" y="134.716468" style="stroke: #000000; stroke-width: 0.8"/>
      </g>
     </g>
     <g id="text_11">
      <!-- 0.030 -->
      <g transform="translate(26.685 138.515686)scale(0.1 -0.1)">
       <defs>
        <path id="DejaVuSans-33" d="M 2597 2516 
Q 3050 2419 3304 2112 
Q 3559 1806 3559 1356 
Q 3559 666 3084 287 
Q 2609 -91 1734 -91 
Q 1441 -91 1130 -33 
Q 819 25 488 141 
L 488 750 
Q 750 597 1062 519 
Q 1375 441 1716 441 
Q 2309 441 2620 675 
Q 2931 909 2931 1356 
Q 2931 1769 2642 2001 
Q 2353 2234 1838 2234 
L 1294 2234 
L 1294 2753 
L 1863 2753 
Q 2328 2753 2575 2939 
Q 2822 3125 2822 3475 
Q 2822 3834 2567 4026 
Q 2313 4219 1838 4219 
Q 1578 4219 1281 4162 
Q 984 4106 628 3988 
L 628 4550 
Q 988 4650 1302 4700 
Q 1616 4750 1894 4750 
Q 2613 4750 3031 4423 
Q 3450 4097 3450 3541 
Q 3450 3153 3228 2886 
Q 3006 2619 2597 2516 
z
" transform="scale(0.015625)"/>
       </defs>
       <use xlink:href="#DejaVuSans-30"/>
       <use xlink:href="#DejaVuSans-2e" x="63.623047"/>
       <use xlink:href="#DejaVuSans-30" x="95.410156"/>
       <use xlink:href="#DejaVuSans-33" x="159.033203"/>
       <use xlink:href="#DejaVuSans-30" x="222.65625"/>
      </g>
     </g>
    </g>
    <g id="ytick_7">
     <g id="line2d_12">
      <g>
       <use xlink:href="#m5b72aecf00" x="62.313125" y="102.449026" style="stroke: #000000; stroke-width: 0.8"/>
      </g>
     </g>
     <g id="text_12">
      <!-- 0.035 -->
      <g transform="translate(26.685 106.248244)scale(0.1 -0.1)">
       <use xlink:href="#DejaVuSans-30"/>
       <use xlink:href="#DejaVuSans-2e" x="63.623047"/>
       <use xlink:href="#DejaVuSans-30" x="95.410156"/>
       <use xlink:href="#DejaVuSans-33" x="159.033203"/>
       <use xlink:href="#DejaVuSans-35" x="222.65625"/>
      </g>
     </g>
    </g>
    <g id="ytick_8">
     <g id="line2d_13">
      <g>
       <use xlink:href="#m5b72aecf00" x="62.313125" y="70.181583" style="stroke: #000000; stroke-width: 0.8"/>
      </g>
     </g>
     <g id="text_13">
      <!-- 0.040 -->
      <g transform="translate(26.685 73.980802)scale(0.1 -0.1)">
       <defs>
        <path id="DejaVuSans-34" d="M 2419 4116 
L 825 1625 
L 2419 1625 
L 2419 4116 
z
M 2253 4666 
L 3047 4666 
L 3047 1625 
L 3713 1625 
L 3713 1100 
L 3047 1100 
L 3047 0 
L 2419 0 
L 2419 1100 
L 313 1100 
L 313 1709 
L 2253 4666 
z
" transform="scale(0.015625)"/>
       </defs>
       <use xlink:href="#DejaVuSans-30"/>
       <use xlink:href="#DejaVuSans-2e" x="63.623047"/>
       <use xlink:href="#DejaVuSans-30" x="95.410156"/>
       <use xlink:href="#DejaVuSans-34" x="159.033203"/>
       <use xlink:href="#DejaVuSans-30" x="222.65625"/>
      </g>
     </g>
    </g>
    <g id="text_14">
     <!-- Loss -->
     <g transform="translate(19.3575 199.3475)rotate(-90)scale(0.16 -0.16)">
      <defs>
       <path id="DejaVuSans-4c" d="M 628 4666 
L 1259 4666 
L 1259 531 
L 3531 531 
L 3531 0 
L 628 0 
L 628 4666 
z
" transform="scale(0.015625)"/>
       <path id="DejaVuSans-6f" d="M 1959 3097 
Q 1497 3097 1228 2736 
Q 959 2375 959 1747 
Q 959 1119 1226 758 
Q 1494 397 1959 397 
Q 2419 397 2687 759 
Q 2956 1122 2956 1747 
Q 2956 2369 2687 2733 
Q 2419 3097 1959 3097 
z
M 1959 3584 
Q 2709 3584 3137 3096 
Q 3566 2609 3566 1747 
Q 3566 888 3137 398 
Q 2709 -91 1959 -91 
Q 1206 -91 779 398 
Q 353 888 353 1747 
Q 353 2609 779 3096 
Q 1206 3584 1959 3584 
z
" transform="scale(0.015625)"/>
       <path id="DejaVuSans-73" d="M 2834 3397 
L 2834 2853 
Q 2591 2978 2328 3040 
Q 2066 3103 1784 3103 
Q 1356 3103 1142 2972 
Q 928 2841 928 2578 
Q 928 2378 1081 2264 
Q 1234 2150 1697 2047 
L 1894 2003 
Q 2506 1872 2764 1633 
Q 3022 1394 3022 966 
Q 3022 478 2636 193 
Q 2250 -91 1575 -91 
Q 1294 -91 989 -36 
Q 684 19 347 128 
L 347 722 
Q 666 556 975 473 
Q 1284 391 1588 391 
Q 1994 391 2212 530 
Q 2431 669 2431 922 
Q 2431 1156 2273 1281 
Q 2116 1406 1581 1522 
L 1381 1569 
Q 847 1681 609 1914 
Q 372 2147 372 2553 
Q 372 3047 722 3315 
Q 1072 3584 1716 3584 
Q 2034 3584 2315 3537 
Q 2597 3491 2834 3397 
z
" transform="scale(0.015625)"/>
      </defs>
      <use xlink:href="#DejaVuSans-4c"/>
      <use xlink:href="#DejaVuSans-6f" x="53.962891"/>
      <use xlink:href="#DejaVuSans-73" x="115.144531"/>
      <use xlink:href="#DejaVuSans-73" x="167.244141"/>
     </g>
    </g>
   </g>
   <g id="line2d_14">
    <path d="M 73.842051 55.8 
L 75.000737 129.735765 
L 76.159423 172.008754 
L 77.318109 200.532711 
L 78.476795 219.214787 
L 79.635481 230.938714 
L 80.794167 239.230244 
L 81.952853 245.429829 
L 83.111539 250.715389 
L 84.270225 253.363836 
L 85.428911 258.142483 
L 86.587597 260.77849 
L 87.746283 263.728023 
L 88.904969 264.855869 
L 90.063655 267.004448 
L 91.22234 269.392771 
L 92.381026 269.604369 
L 93.539712 272.802511 
L 94.698398 271.180324 
L 95.857084 274.747383 
L 98.174456 275.088935 
L 99.333142 278.07501 
L 101.650514 277.4798 
L 102.8092 279.408658 
L 103.967886 280.793388 
L 105.126572 279.690222 
L 106.285258 281.806246 
L 107.443944 282.743546 
L 110.920002 283.503964 
L 112.078688 284.662833 
L 113.237374 284.151319 
L 114.39606 286.076516 
L 115.554746 286.768883 
L 116.713432 286.436226 
L 117.872118 285.763766 
L 119.030804 287.13984 
L 120.18949 287.419598 
L 121.348176 287.344517 
L 122.506862 288.265202 
L 123.665548 290.550902 
L 124.824234 290.249793 
L 125.98292 288.586905 
L 127.141606 290.042081 
L 128.300292 289.645508 
L 129.458978 291.737881 
L 130.617664 290.788831 
L 131.77635 290.798691 
L 134.093722 291.567216 
L 135.252408 291.13511 
L 136.411094 291.255331 
L 137.56978 293.205646 
L 138.728466 292.490062 
L 139.887152 292.666337 
L 141.045838 292.076383 
L 142.204524 293.72698 
L 143.36321 294.644188 
L 144.521896 293.565839 
L 145.680582 293.080277 
L 146.839268 295.702117 
L 147.997954 293.984665 
L 150.315326 295.677646 
L 151.474012 295.55601 
L 152.632698 294.686858 
L 153.791384 294.68638 
L 154.95007 296.77128 
L 156.108756 296.182209 
L 157.267442 297.186906 
L 158.426128 297.036093 
L 160.7435 295.854337 
L 161.902186 296.691265 
L 163.060872 298.282487 
L 164.219558 296.24905 
L 165.378244 297.473882 
L 166.53693 295.424148 
L 167.695616 297.835328 
L 168.854302 297.183327 
L 170.012988 298.197594 
L 171.171674 297.023011 
L 172.33036 298.224136 
L 173.489046 298.116501 
L 174.647732 299.354814 
L 175.806418 298.001707 
L 176.965104 298.846046 
L 178.12379 298.702827 
L 179.282476 297.736576 
L 180.441162 299.233556 
L 181.599848 299.797945 
L 182.758534 299.837301 
L 183.91722 298.208407 
L 185.075906 300.166736 
L 186.234592 298.347752 
L 188.551964 300.516435 
L 189.71065 298.88523 
L 190.869336 300.399629 
L 192.028022 300.398682 
L 193.186708 300.526205 
L 194.345394 298.900007 
L 195.50408 301.087421 
L 196.662766 300.626159 
L 197.821452 300.451536 
L 198.980138 300.503973 
L 200.138824 300.893238 
L 201.29751 299.914434 
L 202.456196 300.682644 
L 203.614882 300.871129 
L 204.773568 301.933605 
L 205.932254 301.204949 
L 207.09094 300.683623 
L 208.249626 302.679871 
L 209.408312 300.761153 
L 210.566998 302.111356 
L 211.725684 300.989102 
L 212.88437 302.241926 
L 214.043056 301.992521 
L 215.201742 302.58215 
L 216.360428 301.093876 
L 217.519114 302.079655 
L 218.6778 300.949425 
L 219.836486 301.764692 
L 220.995172 303.166059 
L 222.153858 301.676137 
L 223.312544 302.245995 
L 224.47123 303.246411 
L 225.629916 302.9957 
L 226.788602 302.043353 
L 227.947288 301.998318 
L 229.105974 302.863678 
L 230.26466 302.205558 
L 231.423346 303.421158 
L 232.582032 303.025604 
L 233.740718 303.462165 
L 234.899403 302.086299 
L 236.058089 304.399811 
L 238.375461 303.136959 
L 239.534147 303.343179 
L 240.692833 303.924871 
L 241.851519 301.15565 
L 243.010205 303.470839 
L 244.168891 305.216291 
L 245.327577 302.847095 
L 246.486263 303.739349 
L 247.644949 302.63053 
L 248.803635 305.012013 
L 249.962321 302.773031 
L 251.121007 305.06391 
L 252.279693 302.967644 
L 253.438379 305.009483 
L 254.597065 303.343764 
L 255.755751 305.154446 
L 256.914437 305.146391 
L 258.073123 303.628968 
L 259.231809 303.413606 
L 260.390495 304.203202 
L 261.549181 304.12535 
L 262.707867 304.776774 
L 263.866553 305.014163 
L 265.025239 303.591091 
L 266.183925 305.520083 
L 267.342611 305.271037 
L 268.501297 305.197106 
L 269.659983 305.279066 
L 270.818669 305.906116 
L 271.977355 304.3483 
L 273.136041 305.566496 
L 274.294727 305.346066 
L 275.453413 304.849797 
L 276.612099 304.845163 
L 277.770785 306.123856 
L 278.929471 304.363457 
L 280.088157 306.692205 
L 281.246843 304.903069 
L 282.405529 305.437437 
L 283.564215 306.179747 
L 284.722901 305.648502 
L 285.881587 306.012098 
L 287.040273 305.584286 
L 288.198959 306.815488 
L 289.357645 305.7084 
L 290.516331 305.608461 
L 291.675017 305.77796 
L 292.833703 305.45611 
L 293.992389 305.450029 
L 295.151075 304.692196 
L 296.309761 307.116547 
L 297.468447 305.823814 
L 298.627133 306.198943 
L 299.785819 305.654894 
L 302.103191 307.8 
L 303.261877 306.019934 
L 304.420563 304.942438 
L 304.420563 304.942438 
" clip-path="url(#p99ce2ff717)" style="fill: none; stroke: #1f77b4; stroke-width: 1.5; stroke-linecap: square"/>
   </g>
   <g id="line2d_15">
    <path d="M 73.842051 104.904224 
L 75.000737 142.027088 
L 76.159423 182.940839 
L 77.318109 194.175578 
L 78.476795 225.556125 
L 79.635481 234.61171 
L 80.794167 226.488355 
L 81.952853 239.495309 
L 83.111539 240.455938 
L 84.270225 245.737297 
L 85.428911 259.207541 
L 86.587597 256.582527 
L 87.746283 257.39692 
L 88.904969 254.245244 
L 90.063655 260.843491 
L 91.22234 263.360999 
L 92.381026 266.271963 
L 93.539712 266.043705 
L 94.698398 260.482273 
L 95.857084 267.990044 
L 97.01577 272.404408 
L 98.174456 265.543391 
L 99.333142 262.405539 
L 100.491828 268.200007 
L 101.650514 265.972694 
L 102.8092 263.308295 
L 103.967886 274.288582 
L 106.285258 271.587419 
L 107.443944 273.344301 
L 108.60263 279.17149 
L 109.761316 268.406136 
L 110.920002 272.406878 
L 112.078688 274.281364 
L 113.237374 275.446883 
L 114.39606 277.689559 
L 115.554746 273.70142 
L 116.713432 282.238995 
L 117.872118 272.074948 
L 119.030804 277.197582 
L 120.18949 280.379745 
L 121.348176 275.857656 
L 122.506862 278.487748 
L 123.665548 264.78585 
L 124.824234 272.95153 
L 125.98292 279.458411 
L 128.300292 278.142097 
L 129.458978 273.972045 
L 130.617664 269.28931 
L 131.77635 282.016918 
L 132.935036 281.500082 
L 134.093722 278.299419 
L 135.252408 274.559874 
L 136.411094 275.974592 
L 137.56978 279.172106 
L 138.728466 273.674759 
L 139.887152 279.305651 
L 141.045838 282.842061 
L 142.204524 284.961006 
L 143.36321 273.853847 
L 144.521896 276.326812 
L 145.680582 280.610489 
L 146.839268 285.40869 
L 147.997954 283.287212 
L 149.15664 287.024557 
L 150.315326 288.31769 
L 151.474012 281.615744 
L 152.632698 278.09482 
L 153.791384 278.368393 
L 154.95007 285.492164 
L 156.108756 275.314495 
L 157.267442 283.32499 
L 158.426128 285.184345 
L 159.584814 278.88913 
L 160.7435 286.884019 
L 161.902186 283.561701 
L 163.060872 282.650925 
L 164.219558 282.106195 
L 165.378244 281.97179 
L 166.53693 269.566366 
L 167.695616 280.541473 
L 168.854302 283.090559 
L 170.012988 284.146802 
L 171.171674 283.915439 
L 172.33036 281.781955 
L 173.489046 287.133021 
L 174.647732 280.239976 
L 175.806418 286.145067 
L 176.965104 286.013042 
L 178.12379 285.250972 
L 179.282476 270.722443 
L 180.441162 290.110986 
L 181.599848 277.156736 
L 182.758534 286.066618 
L 183.91722 277.480546 
L 185.075906 283.404049 
L 186.234592 285.747138 
L 187.393278 289.586303 
L 188.551964 278.136745 
L 189.71065 278.120902 
L 190.869336 288.18928 
L 192.028022 283.436177 
L 193.186708 290.319627 
L 194.345394 288.365601 
L 195.50408 279.4185 
L 196.662766 283.616398 
L 197.821452 281.543374 
L 198.980138 279.963539 
L 200.138824 284.934329 
L 201.29751 284.728609 
L 202.456196 281.925373 
L 203.614882 286.223504 
L 204.773568 280.316496 
L 205.932254 284.777235 
L 207.09094 277.831907 
L 208.249626 288.357901 
L 209.408312 282.997228 
L 210.566998 284.323402 
L 211.725684 286.293596 
L 212.88437 285.631434 
L 214.043056 277.790285 
L 215.201742 285.277242 
L 216.360428 281.294609 
L 217.519114 287.533961 
L 218.6778 282.799895 
L 219.836486 287.06357 
L 220.995172 284.237888 
L 222.153858 285.600061 
L 223.312544 286.748944 
L 224.47123 289.076103 
L 225.629916 285.922999 
L 226.788602 283.3031 
L 227.947288 285.902489 
L 229.105974 287.685537 
L 230.26466 286.796293 
L 231.423346 273.646841 
L 232.582032 289.014392 
L 233.740718 285.088829 
L 234.899403 282.564749 
L 236.058089 281.136253 
L 237.216775 285.748415 
L 238.375461 282.125948 
L 239.534147 288.514791 
L 240.692833 272.491401 
L 241.851519 284.857728 
L 243.010205 287.274597 
L 244.168891 287.259817 
L 245.327577 286.345377 
L 246.486263 281.484531 
L 247.644949 288.042701 
L 248.803635 273.447895 
L 249.962321 288.598466 
L 251.121007 281.102559 
L 252.279693 278.984203 
L 253.438379 278.388329 
L 254.597065 289.093445 
L 255.755751 284.037625 
L 256.914437 282.81814 
L 258.073123 282.633342 
L 259.231809 285.990485 
L 260.390495 284.89943 
L 261.549181 283.079656 
L 262.707867 277.814615 
L 263.866553 284.618122 
L 265.025239 288.579657 
L 266.183925 280.889059 
L 267.342611 285.658054 
L 268.501297 287.071191 
L 269.659983 273.989102 
L 270.818669 287.325735 
L 271.977355 274.871519 
L 273.136041 275.802728 
L 274.294727 279.757456 
L 275.453413 288.395934 
L 276.612099 286.732481 
L 277.770785 279.848896 
L 278.929471 285.967135 
L 280.088157 279.787706 
L 281.246843 285.158314 
L 282.405529 277.14965 
L 283.564215 282.880932 
L 284.722901 285.872458 
L 285.881587 285.29985 
L 287.040273 283.18666 
L 288.198959 290.355592 
L 289.357645 288.23979 
L 290.516331 281.886754 
L 291.675017 284.072972 
L 292.833703 284.874301 
L 293.992389 281.520481 
L 295.151075 272.326605 
L 296.309761 284.404328 
L 297.468447 284.602102 
L 298.627133 288.169425 
L 299.785819 286.317544 
L 300.944505 288.968594 
L 302.103191 287.243235 
L 303.261877 289.02983 
L 304.420563 287.845113 
L 304.420563 287.845113 
" clip-path="url(#p99ce2ff717)" style="fill: none; stroke: #ff7f0e; stroke-width: 1.5; stroke-linecap: square"/>
   </g>
   <g id="line2d_16">
    <path d="M 288.198959 290.355592 
" clip-path="url(#p99ce2ff717)" style="fill: none; stroke: #ff0000; stroke-width: 1.5; stroke-linecap: square"/>
    <defs>
     <path id="m93ad1957e7" d="M -3 3 
L 3 -3 
M -3 -3 
L 3 3 
" style="stroke: #ff0000"/>
    </defs>
    <g clip-path="url(#p99ce2ff717)">
     <use xlink:href="#m93ad1957e7" x="288.198959" y="290.355592" style="fill: #ff0000; stroke: #ff0000"/>
    </g>
   </g>
   <g id="patch_3">
    <path d="M 62.313125 320.4 
L 62.313125 43.2 
" style="fill: none; stroke: #000000; stroke-width: 0.8; stroke-linejoin: miter; stroke-linecap: square"/>
   </g>
   <g id="patch_4">
    <path d="M 315.949489 320.4 
L 315.949489 43.2 
" style="fill: none; stroke: #000000; stroke-width: 0.8; stroke-linejoin: miter; stroke-linecap: square"/>
   </g>
   <g id="patch_5">
    <path d="M 62.313125 320.4 
L 315.949489 320.4 
" style="fill: none; stroke: #000000; stroke-width: 0.8; stroke-linejoin: miter; stroke-linecap: square"/>
   </g>
   <g id="patch_6">
    <path d="M 62.313125 43.2 
L 315.949489 43.2 
" style="fill: none; stroke: #000000; stroke-width: 0.8; stroke-linejoin: miter; stroke-linecap: square"/>
   </g>
   <g id="text_15">
    <!-- Best epoch: 185 with loss: 0.006 -->
    <g transform="translate(91.047244 37.2)scale(0.12 -0.12)">
     <defs>
      <path id="DejaVuSans-42" d="M 1259 2228 
L 1259 519 
L 2272 519 
Q 2781 519 3026 730 
Q 3272 941 3272 1375 
Q 3272 1813 3026 2020 
Q 2781 2228 2272 2228 
L 1259 2228 
z
M 1259 4147 
L 1259 2741 
L 2194 2741 
Q 2656 2741 2882 2914 
Q 3109 3088 3109 3444 
Q 3109 3797 2882 3972 
Q 2656 4147 2194 4147 
L 1259 4147 
z
M 628 4666 
L 2241 4666 
Q 2963 4666 3353 4366 
Q 3744 4066 3744 3513 
Q 3744 3084 3544 2831 
Q 3344 2578 2956 2516 
Q 3422 2416 3680 2098 
Q 3938 1781 3938 1306 
Q 3938 681 3513 340 
Q 3088 0 2303 0 
L 628 0 
L 628 4666 
z
" transform="scale(0.015625)"/>
      <path id="DejaVuSans-65" d="M 3597 1894 
L 3597 1613 
L 953 1613 
Q 991 1019 1311 708 
Q 1631 397 2203 397 
Q 2534 397 2845 478 
Q 3156 559 3463 722 
L 3463 178 
Q 3153 47 2828 -22 
Q 2503 -91 2169 -91 
Q 1331 -91 842 396 
Q 353 884 353 1716 
Q 353 2575 817 3079 
Q 1281 3584 2069 3584 
Q 2775 3584 3186 3129 
Q 3597 2675 3597 1894 
z
M 3022 2063 
Q 3016 2534 2758 2815 
Q 2500 3097 2075 3097 
Q 1594 3097 1305 2825 
Q 1016 2553 972 2059 
L 3022 2063 
z
" transform="scale(0.015625)"/>
      <path id="DejaVuSans-74" d="M 1172 4494 
L 1172 3500 
L 2356 3500 
L 2356 3053 
L 1172 3053 
L 1172 1153 
Q 1172 725 1289 603 
Q 1406 481 1766 481 
L 2356 481 
L 2356 0 
L 1766 0 
Q 1100 0 847 248 
Q 594 497 594 1153 
L 594 3053 
L 172 3053 
L 172 3500 
L 594 3500 
L 594 4494 
L 1172 4494 
z
" transform="scale(0.015625)"/>
      <path id="DejaVuSans-20" transform="scale(0.015625)"/>
      <path id="DejaVuSans-70" d="M 1159 525 
L 1159 -1331 
L 581 -1331 
L 581 3500 
L 1159 3500 
L 1159 2969 
Q 1341 3281 1617 3432 
Q 1894 3584 2278 3584 
Q 2916 3584 3314 3078 
Q 3713 2572 3713 1747 
Q 3713 922 3314 415 
Q 2916 -91 2278 -91 
Q 1894 -91 1617 61 
Q 1341 213 1159 525 
z
M 3116 1747 
Q 3116 2381 2855 2742 
Q 2594 3103 2138 3103 
Q 1681 3103 1420 2742 
Q 1159 2381 1159 1747 
Q 1159 1113 1420 752 
Q 1681 391 2138 391 
Q 2594 391 2855 752 
Q 3116 1113 3116 1747 
z
" transform="scale(0.015625)"/>
      <path id="DejaVuSans-63" d="M 3122 3366 
L 3122 2828 
Q 2878 2963 2633 3030 
Q 2388 3097 2138 3097 
Q 1578 3097 1268 2742 
Q 959 2388 959 1747 
Q 959 1106 1268 751 
Q 1578 397 2138 397 
Q 2388 397 2633 464 
Q 2878 531 3122 666 
L 3122 134 
Q 2881 22 2623 -34 
Q 2366 -91 2075 -91 
Q 1284 -91 818 406 
Q 353 903 353 1747 
Q 353 2603 823 3093 
Q 1294 3584 2113 3584 
Q 2378 3584 2631 3529 
Q 2884 3475 3122 3366 
z
" transform="scale(0.015625)"/>
      <path id="DejaVuSans-68" d="M 3513 2113 
L 3513 0 
L 2938 0 
L 2938 2094 
Q 2938 2591 2744 2837 
Q 2550 3084 2163 3084 
Q 1697 3084 1428 2787 
Q 1159 2491 1159 1978 
L 1159 0 
L 581 0 
L 581 4863 
L 1159 4863 
L 1159 2956 
Q 1366 3272 1645 3428 
Q 1925 3584 2291 3584 
Q 2894 3584 3203 3211 
Q 3513 2838 3513 2113 
z
" transform="scale(0.015625)"/>
      <path id="DejaVuSans-3a" d="M 750 794 
L 1409 794 
L 1409 0 
L 750 0 
L 750 794 
z
M 750 3309 
L 1409 3309 
L 1409 2516 
L 750 2516 
L 750 3309 
z
" transform="scale(0.015625)"/>
      <path id="DejaVuSans-38" d="M 2034 2216 
Q 1584 2216 1326 1975 
Q 1069 1734 1069 1313 
Q 1069 891 1326 650 
Q 1584 409 2034 409 
Q 2484 409 2743 651 
Q 3003 894 3003 1313 
Q 3003 1734 2745 1975 
Q 2488 2216 2034 2216 
z
M 1403 2484 
Q 997 2584 770 2862 
Q 544 3141 544 3541 
Q 544 4100 942 4425 
Q 1341 4750 2034 4750 
Q 2731 4750 3128 4425 
Q 3525 4100 3525 3541 
Q 3525 3141 3298 2862 
Q 3072 2584 2669 2484 
Q 3125 2378 3379 2068 
Q 3634 1759 3634 1313 
Q 3634 634 3220 271 
Q 2806 -91 2034 -91 
Q 1263 -91 848 271 
Q 434 634 434 1313 
Q 434 1759 690 2068 
Q 947 2378 1403 2484 
z
M 1172 3481 
Q 1172 3119 1398 2916 
Q 1625 2713 2034 2713 
Q 2441 2713 2670 2916 
Q 2900 3119 2900 3481 
Q 2900 3844 2670 4047 
Q 2441 4250 2034 4250 
Q 1625 4250 1398 4047 
Q 1172 3844 1172 3481 
z
" transform="scale(0.015625)"/>
      <path id="DejaVuSans-77" d="M 269 3500 
L 844 3500 
L 1563 769 
L 2278 3500 
L 2956 3500 
L 3675 769 
L 4391 3500 
L 4966 3500 
L 4050 0 
L 3372 0 
L 2619 2869 
L 1863 0 
L 1184 0 
L 269 3500 
z
" transform="scale(0.015625)"/>
      <path id="DejaVuSans-69" d="M 603 3500 
L 1178 3500 
L 1178 0 
L 603 0 
L 603 3500 
z
M 603 4863 
L 1178 4863 
L 1178 4134 
L 603 4134 
L 603 4863 
z
" transform="scale(0.015625)"/>
      <path id="DejaVuSans-6c" d="M 603 4863 
L 1178 4863 
L 1178 0 
L 603 0 
L 603 4863 
z
" transform="scale(0.015625)"/>
      <path id="DejaVuSans-36" d="M 2113 2584 
Q 1688 2584 1439 2293 
Q 1191 2003 1191 1497 
Q 1191 994 1439 701 
Q 1688 409 2113 409 
Q 2538 409 2786 701 
Q 3034 994 3034 1497 
Q 3034 2003 2786 2293 
Q 2538 2584 2113 2584 
z
M 3366 4563 
L 3366 3988 
Q 3128 4100 2886 4159 
Q 2644 4219 2406 4219 
Q 1781 4219 1451 3797 
Q 1122 3375 1075 2522 
Q 1259 2794 1537 2939 
Q 1816 3084 2150 3084 
Q 2853 3084 3261 2657 
Q 3669 2231 3669 1497 
Q 3669 778 3244 343 
Q 2819 -91 2113 -91 
Q 1303 -91 875 529 
Q 447 1150 447 2328 
Q 447 3434 972 4092 
Q 1497 4750 2381 4750 
Q 2619 4750 2861 4703 
Q 3103 4656 3366 4563 
z
" transform="scale(0.015625)"/>
     </defs>
     <use xlink:href="#DejaVuSans-42"/>
     <use xlink:href="#DejaVuSans-65" x="68.603516"/>
     <use xlink:href="#DejaVuSans-73" x="130.126953"/>
     <use xlink:href="#DejaVuSans-74" x="182.226562"/>
     <use xlink:href="#DejaVuSans-20" x="221.435547"/>
     <use xlink:href="#DejaVuSans-65" x="253.222656"/>
     <use xlink:href="#DejaVuSans-70" x="314.746094"/>
     <use xlink:href="#DejaVuSans-6f" x="378.222656"/>
     <use xlink:href="#DejaVuSans-63" x="439.404297"/>
     <use xlink:href="#DejaVuSans-68" x="494.384766"/>
     <use xlink:href="#DejaVuSans-3a" x="557.763672"/>
     <use xlink:href="#DejaVuSans-20" x="591.455078"/>
     <use xlink:href="#DejaVuSans-31" x="623.242188"/>
     <use xlink:href="#DejaVuSans-38" x="686.865234"/>
     <use xlink:href="#DejaVuSans-35" x="750.488281"/>
     <use xlink:href="#DejaVuSans-20" x="814.111328"/>
     <use xlink:href="#DejaVuSans-77" x="845.898438"/>
     <use xlink:href="#DejaVuSans-69" x="927.685547"/>
     <use xlink:href="#DejaVuSans-74" x="955.46875"/>
     <use xlink:href="#DejaVuSans-68" x="994.677734"/>
     <use xlink:href="#DejaVuSans-20" x="1058.056641"/>
     <use xlink:href="#DejaVuSans-6c" x="1089.84375"/>
     <use xlink:href="#DejaVuSans-6f" x="1117.626953"/>
     <use xlink:href="#DejaVuSans-73" x="1178.808594"/>
     <use xlink:href="#DejaVuSans-73" x="1230.908203"/>
     <use xlink:href="#DejaVuSans-3a" x="1283.007812"/>
     <use xlink:href="#DejaVuSans-20" x="1316.699219"/>
     <use xlink:href="#DejaVuSans-30" x="1348.486328"/>
     <use xlink:href="#DejaVuSans-2e" x="1412.109375"/>
     <use xlink:href="#DejaVuSans-30" x="1443.896484"/>
     <use xlink:href="#DejaVuSans-30" x="1507.519531"/>
     <use xlink:href="#DejaVuSans-36" x="1571.142578"/>
    </g>
   </g>
   <g id="legend_1">
    <g id="patch_7">
     <path d="M 202.455739 95.234375 
L 308.949489 95.234375 
Q 310.949489 95.234375 310.949489 93.234375 
L 310.949489 50.2 
Q 310.949489 48.2 308.949489 48.2 
L 202.455739 48.2 
Q 200.455739 48.2 200.455739 50.2 
L 200.455739 93.234375 
Q 200.455739 95.234375 202.455739 95.234375 
z
" style="fill: #ffffff; opacity: 0.8; stroke: #cccccc; stroke-linejoin: miter"/>
    </g>
    <g id="line2d_17">
     <path d="M 204.455739 56.298437 
L 214.455739 56.298437 
L 224.455739 56.298437 
" style="fill: none; stroke: #1f77b4; stroke-width: 1.5; stroke-linecap: square"/>
    </g>
    <g id="text_16">
     <!-- Training Loss -->
     <g transform="translate(232.455739 59.798437)scale(0.1 -0.1)">
      <defs>
       <path id="DejaVuSans-54" d="M -19 4666 
L 3928 4666 
L 3928 4134 
L 2272 4134 
L 2272 0 
L 1638 0 
L 1638 4134 
L -19 4134 
L -19 4666 
z
" transform="scale(0.015625)"/>
       <path id="DejaVuSans-72" d="M 2631 2963 
Q 2534 3019 2420 3045 
Q 2306 3072 2169 3072 
Q 1681 3072 1420 2755 
Q 1159 2438 1159 1844 
L 1159 0 
L 581 0 
L 581 3500 
L 1159 3500 
L 1159 2956 
Q 1341 3275 1631 3429 
Q 1922 3584 2338 3584 
Q 2397 3584 2469 3576 
Q 2541 3569 2628 3553 
L 2631 2963 
z
" transform="scale(0.015625)"/>
       <path id="DejaVuSans-61" d="M 2194 1759 
Q 1497 1759 1228 1600 
Q 959 1441 959 1056 
Q 959 750 1161 570 
Q 1363 391 1709 391 
Q 2188 391 2477 730 
Q 2766 1069 2766 1631 
L 2766 1759 
L 2194 1759 
z
M 3341 1997 
L 3341 0 
L 2766 0 
L 2766 531 
Q 2569 213 2275 61 
Q 1981 -91 1556 -91 
Q 1019 -91 701 211 
Q 384 513 384 1019 
Q 384 1609 779 1909 
Q 1175 2209 1959 2209 
L 2766 2209 
L 2766 2266 
Q 2766 2663 2505 2880 
Q 2244 3097 1772 3097 
Q 1472 3097 1187 3025 
Q 903 2953 641 2809 
L 641 3341 
Q 956 3463 1253 3523 
Q 1550 3584 1831 3584 
Q 2591 3584 2966 3190 
Q 3341 2797 3341 1997 
z
" transform="scale(0.015625)"/>
       <path id="DejaVuSans-6e" d="M 3513 2113 
L 3513 0 
L 2938 0 
L 2938 2094 
Q 2938 2591 2744 2837 
Q 2550 3084 2163 3084 
Q 1697 3084 1428 2787 
Q 1159 2491 1159 1978 
L 1159 0 
L 581 0 
L 581 3500 
L 1159 3500 
L 1159 2956 
Q 1366 3272 1645 3428 
Q 1925 3584 2291 3584 
Q 2894 3584 3203 3211 
Q 3513 2838 3513 2113 
z
" transform="scale(0.015625)"/>
       <path id="DejaVuSans-67" d="M 2906 1791 
Q 2906 2416 2648 2759 
Q 2391 3103 1925 3103 
Q 1463 3103 1205 2759 
Q 947 2416 947 1791 
Q 947 1169 1205 825 
Q 1463 481 1925 481 
Q 2391 481 2648 825 
Q 2906 1169 2906 1791 
z
M 3481 434 
Q 3481 -459 3084 -895 
Q 2688 -1331 1869 -1331 
Q 1566 -1331 1297 -1286 
Q 1028 -1241 775 -1147 
L 775 -588 
Q 1028 -725 1275 -790 
Q 1522 -856 1778 -856 
Q 2344 -856 2625 -561 
Q 2906 -266 2906 331 
L 2906 616 
Q 2728 306 2450 153 
Q 2172 0 1784 0 
Q 1141 0 747 490 
Q 353 981 353 1791 
Q 353 2603 747 3093 
Q 1141 3584 1784 3584 
Q 2172 3584 2450 3431 
Q 2728 3278 2906 2969 
L 2906 3500 
L 3481 3500 
L 3481 434 
z
" transform="scale(0.015625)"/>
      </defs>
      <use xlink:href="#DejaVuSans-54"/>
      <use xlink:href="#DejaVuSans-72" x="46.333984"/>
      <use xlink:href="#DejaVuSans-61" x="87.447266"/>
      <use xlink:href="#DejaVuSans-69" x="148.726562"/>
      <use xlink:href="#DejaVuSans-6e" x="176.509766"/>
      <use xlink:href="#DejaVuSans-69" x="239.888672"/>
      <use xlink:href="#DejaVuSans-6e" x="267.671875"/>
      <use xlink:href="#DejaVuSans-67" x="331.050781"/>
      <use xlink:href="#DejaVuSans-20" x="394.527344"/>
      <use xlink:href="#DejaVuSans-4c" x="426.314453"/>
      <use xlink:href="#DejaVuSans-6f" x="480.277344"/>
      <use xlink:href="#DejaVuSans-73" x="541.458984"/>
      <use xlink:href="#DejaVuSans-73" x="593.558594"/>
     </g>
    </g>
    <g id="line2d_18">
     <path d="M 204.455739 70.976562 
L 214.455739 70.976562 
L 224.455739 70.976562 
" style="fill: none; stroke: #ff7f0e; stroke-width: 1.5; stroke-linecap: square"/>
    </g>
    <g id="text_17">
     <!-- Validation Loss -->
     <g transform="translate(232.455739 74.476562)scale(0.1 -0.1)">
      <defs>
       <path id="DejaVuSans-56" d="M 1831 0 
L 50 4666 
L 709 4666 
L 2188 738 
L 3669 4666 
L 4325 4666 
L 2547 0 
L 1831 0 
z
" transform="scale(0.015625)"/>
       <path id="DejaVuSans-64" d="M 2906 2969 
L 2906 4863 
L 3481 4863 
L 3481 0 
L 2906 0 
L 2906 525 
Q 2725 213 2448 61 
Q 2172 -91 1784 -91 
Q 1150 -91 751 415 
Q 353 922 353 1747 
Q 353 2572 751 3078 
Q 1150 3584 1784 3584 
Q 2172 3584 2448 3432 
Q 2725 3281 2906 2969 
z
M 947 1747 
Q 947 1113 1208 752 
Q 1469 391 1925 391 
Q 2381 391 2643 752 
Q 2906 1113 2906 1747 
Q 2906 2381 2643 2742 
Q 2381 3103 1925 3103 
Q 1469 3103 1208 2742 
Q 947 2381 947 1747 
z
" transform="scale(0.015625)"/>
      </defs>
      <use xlink:href="#DejaVuSans-56"/>
      <use xlink:href="#DejaVuSans-61" x="60.658203"/>
      <use xlink:href="#DejaVuSans-6c" x="121.9375"/>
      <use xlink:href="#DejaVuSans-69" x="149.720703"/>
      <use xlink:href="#DejaVuSans-64" x="177.503906"/>
      <use xlink:href="#DejaVuSans-61" x="240.980469"/>
      <use xlink:href="#DejaVuSans-74" x="302.259766"/>
      <use xlink:href="#DejaVuSans-69" x="341.46875"/>
      <use xlink:href="#DejaVuSans-6f" x="369.251953"/>
      <use xlink:href="#DejaVuSans-6e" x="430.433594"/>
      <use xlink:href="#DejaVuSans-20" x="493.8125"/>
      <use xlink:href="#DejaVuSans-4c" x="525.599609"/>
      <use xlink:href="#DejaVuSans-6f" x="579.5625"/>
      <use xlink:href="#DejaVuSans-73" x="640.744141"/>
      <use xlink:href="#DejaVuSans-73" x="692.84375"/>
     </g>
    </g>
    <g id="line2d_19">
     <path d="M 204.455739 85.654687 
L 214.455739 85.654687 
L 224.455739 85.654687 
" style="fill: none; stroke: #ff0000; stroke-width: 1.5; stroke-linecap: square"/>
     <g>
      <use xlink:href="#m93ad1957e7" x="214.455739" y="85.654687" style="fill: #ff0000; stroke: #ff0000"/>
     </g>
    </g>
    <g id="text_18">
     <!-- best model -->
     <g transform="translate(232.455739 89.154687)scale(0.1 -0.1)">
      <defs>
       <path id="DejaVuSans-62" d="M 3116 1747 
Q 3116 2381 2855 2742 
Q 2594 3103 2138 3103 
Q 1681 3103 1420 2742 
Q 1159 2381 1159 1747 
Q 1159 1113 1420 752 
Q 1681 391 2138 391 
Q 2594 391 2855 752 
Q 3116 1113 3116 1747 
z
M 1159 2969 
Q 1341 3281 1617 3432 
Q 1894 3584 2278 3584 
Q 2916 3584 3314 3078 
Q 3713 2572 3713 1747 
Q 3713 922 3314 415 
Q 2916 -91 2278 -91 
Q 1894 -91 1617 61 
Q 1341 213 1159 525 
L 1159 0 
L 581 0 
L 581 4863 
L 1159 4863 
L 1159 2969 
z
" transform="scale(0.015625)"/>
       <path id="DejaVuSans-6d" d="M 3328 2828 
Q 3544 3216 3844 3400 
Q 4144 3584 4550 3584 
Q 5097 3584 5394 3201 
Q 5691 2819 5691 2113 
L 5691 0 
L 5113 0 
L 5113 2094 
Q 5113 2597 4934 2840 
Q 4756 3084 4391 3084 
Q 3944 3084 3684 2787 
Q 3425 2491 3425 1978 
L 3425 0 
L 2847 0 
L 2847 2094 
Q 2847 2600 2669 2842 
Q 2491 3084 2119 3084 
Q 1678 3084 1418 2786 
Q 1159 2488 1159 1978 
L 1159 0 
L 581 0 
L 581 3500 
L 1159 3500 
L 1159 2956 
Q 1356 3278 1631 3431 
Q 1906 3584 2284 3584 
Q 2666 3584 2933 3390 
Q 3200 3197 3328 2828 
z
" transform="scale(0.015625)"/>
      </defs>
      <use xlink:href="#DejaVuSans-62"/>
      <use xlink:href="#DejaVuSans-65" x="63.476562"/>
      <use xlink:href="#DejaVuSans-73" x="125"/>
      <use xlink:href="#DejaVuSans-74" x="177.099609"/>
      <use xlink:href="#DejaVuSans-20" x="216.308594"/>
      <use xlink:href="#DejaVuSans-6d" x="248.095703"/>
      <use xlink:href="#DejaVuSans-6f" x="345.507812"/>
      <use xlink:href="#DejaVuSans-64" x="406.689453"/>
      <use xlink:href="#DejaVuSans-65" x="470.166016"/>
      <use xlink:href="#DejaVuSans-6c" x="531.689453"/>
     </g>
    </g>
   </g>
  </g>
  <g id="axes_2">
   <g id="patch_8">
    <path d="M 366.676761 320.4 
L 620.313125 320.4 
L 620.313125 43.2 
L 366.676761 43.2 
z
" style="fill: #ffffff"/>
   </g>
   <g id="matplotlib.axis_3">
    <g id="xtick_6">
     <g id="line2d_20">
      <g>
       <use xlink:href="#m3bf64ba64f" x="378.205687" y="320.4" style="stroke: #000000; stroke-width: 0.8"/>
      </g>
     </g>
     <g id="text_19">
      <!-- 0 -->
      <g transform="translate(375.024437 334.998437)scale(0.1 -0.1)">
       <use xlink:href="#DejaVuSans-30"/>
      </g>
     </g>
    </g>
    <g id="xtick_7">
     <g id="line2d_21">
      <g>
       <use xlink:href="#m3bf64ba64f" x="436.139987" y="320.4" style="stroke: #000000; stroke-width: 0.8"/>
      </g>
     </g>
     <g id="text_20">
      <!-- 50 -->
      <g transform="translate(429.777487 334.998437)scale(0.1 -0.1)">
       <use xlink:href="#DejaVuSans-35"/>
       <use xlink:href="#DejaVuSans-30" x="63.623047"/>
      </g>
     </g>
    </g>
    <g id="xtick_8">
     <g id="line2d_22">
      <g>
       <use xlink:href="#m3bf64ba64f" x="494.074286" y="320.4" style="stroke: #000000; stroke-width: 0.8"/>
      </g>
     </g>
     <g id="text_21">
      <!-- 100 -->
      <g transform="translate(484.530536 334.998437)scale(0.1 -0.1)">
       <use xlink:href="#DejaVuSans-31"/>
       <use xlink:href="#DejaVuSans-30" x="63.623047"/>
       <use xlink:href="#DejaVuSans-30" x="127.246094"/>
      </g>
     </g>
    </g>
    <g id="xtick_9">
     <g id="line2d_23">
      <g>
       <use xlink:href="#m3bf64ba64f" x="552.008586" y="320.4" style="stroke: #000000; stroke-width: 0.8"/>
      </g>
     </g>
     <g id="text_22">
      <!-- 150 -->
      <g transform="translate(542.464836 334.998437)scale(0.1 -0.1)">
       <use xlink:href="#DejaVuSans-31"/>
       <use xlink:href="#DejaVuSans-35" x="63.623047"/>
       <use xlink:href="#DejaVuSans-30" x="127.246094"/>
      </g>
     </g>
    </g>
    <g id="xtick_10">
     <g id="line2d_24">
      <g>
       <use xlink:href="#m3bf64ba64f" x="609.942885" y="320.4" style="stroke: #000000; stroke-width: 0.8"/>
      </g>
     </g>
     <g id="text_23">
      <!-- 200 -->
      <g transform="translate(600.399135 334.998437)scale(0.1 -0.1)">
       <use xlink:href="#DejaVuSans-32"/>
       <use xlink:href="#DejaVuSans-30" x="63.623047"/>
       <use xlink:href="#DejaVuSans-30" x="127.246094"/>
      </g>
     </g>
    </g>
   </g>
   <g id="matplotlib.axis_4">
    <g id="ytick_9">
     <g id="line2d_25">
      <g>
       <use xlink:href="#m5b72aecf00" x="366.676761" y="314.572674" style="stroke: #000000; stroke-width: 0.8"/>
      </g>
     </g>
     <g id="text_24">
      <!-- 0.3 -->
      <g transform="translate(343.773636 318.371893)scale(0.1 -0.1)">
       <use xlink:href="#DejaVuSans-30"/>
       <use xlink:href="#DejaVuSans-2e" x="63.623047"/>
       <use xlink:href="#DejaVuSans-33" x="95.410156"/>
      </g>
     </g>
    </g>
    <g id="ytick_10">
     <g id="line2d_26">
      <g>
       <use xlink:href="#m5b72aecf00" x="366.676761" y="275.509511" style="stroke: #000000; stroke-width: 0.8"/>
      </g>
     </g>
     <g id="text_25">
      <!-- 0.4 -->
      <g transform="translate(343.773636 279.30873)scale(0.1 -0.1)">
       <use xlink:href="#DejaVuSans-30"/>
       <use xlink:href="#DejaVuSans-2e" x="63.623047"/>
       <use xlink:href="#DejaVuSans-34" x="95.410156"/>
      </g>
     </g>
    </g>
    <g id="ytick_11">
     <g id="line2d_27">
      <g>
       <use xlink:href="#m5b72aecf00" x="366.676761" y="236.446349" style="stroke: #000000; stroke-width: 0.8"/>
      </g>
     </g>
     <g id="text_26">
      <!-- 0.5 -->
      <g transform="translate(343.773636 240.245568)scale(0.1 -0.1)">
       <use xlink:href="#DejaVuSans-30"/>
       <use xlink:href="#DejaVuSans-2e" x="63.623047"/>
       <use xlink:href="#DejaVuSans-35" x="95.410156"/>
      </g>
     </g>
    </g>
    <g id="ytick_12">
     <g id="line2d_28">
      <g>
       <use xlink:href="#m5b72aecf00" x="366.676761" y="197.383186" style="stroke: #000000; stroke-width: 0.8"/>
      </g>
     </g>
     <g id="text_27">
      <!-- 0.6 -->
      <g transform="translate(343.773636 201.182405)scale(0.1 -0.1)">
       <use xlink:href="#DejaVuSans-30"/>
       <use xlink:href="#DejaVuSans-2e" x="63.623047"/>
       <use xlink:href="#DejaVuSans-36" x="95.410156"/>
      </g>
     </g>
    </g>
    <g id="ytick_13">
     <g id="line2d_29">
      <g>
       <use xlink:href="#m5b72aecf00" x="366.676761" y="158.320024" style="stroke: #000000; stroke-width: 0.8"/>
      </g>
     </g>
     <g id="text_28">
      <!-- 0.7 -->
      <g transform="translate(343.773636 162.119242)scale(0.1 -0.1)">
       <defs>
        <path id="DejaVuSans-37" d="M 525 4666 
L 3525 4666 
L 3525 4397 
L 1831 0 
L 1172 0 
L 2766 4134 
L 525 4134 
L 525 4666 
z
" transform="scale(0.015625)"/>
       </defs>
       <use xlink:href="#DejaVuSans-30"/>
       <use xlink:href="#DejaVuSans-2e" x="63.623047"/>
       <use xlink:href="#DejaVuSans-37" x="95.410156"/>
      </g>
     </g>
    </g>
    <g id="ytick_14">
     <g id="line2d_30">
      <g>
       <use xlink:href="#m5b72aecf00" x="366.676761" y="119.256861" style="stroke: #000000; stroke-width: 0.8"/>
      </g>
     </g>
     <g id="text_29">
      <!-- 0.8 -->
      <g transform="translate(343.773636 123.05608)scale(0.1 -0.1)">
       <use xlink:href="#DejaVuSans-30"/>
       <use xlink:href="#DejaVuSans-2e" x="63.623047"/>
       <use xlink:href="#DejaVuSans-38" x="95.410156"/>
      </g>
     </g>
    </g>
    <g id="ytick_15">
     <g id="line2d_31">
      <g>
       <use xlink:href="#m5b72aecf00" x="366.676761" y="80.193698" style="stroke: #000000; stroke-width: 0.8"/>
      </g>
     </g>
     <g id="text_30">
      <!-- 0.9 -->
      <g transform="translate(343.773636 83.992917)scale(0.1 -0.1)">
       <defs>
        <path id="DejaVuSans-39" d="M 703 97 
L 703 672 
Q 941 559 1184 500 
Q 1428 441 1663 441 
Q 2288 441 2617 861 
Q 2947 1281 2994 2138 
Q 2813 1869 2534 1725 
Q 2256 1581 1919 1581 
Q 1219 1581 811 2004 
Q 403 2428 403 3163 
Q 403 3881 828 4315 
Q 1253 4750 1959 4750 
Q 2769 4750 3195 4129 
Q 3622 3509 3622 2328 
Q 3622 1225 3098 567 
Q 2575 -91 1691 -91 
Q 1453 -91 1209 -44 
Q 966 3 703 97 
z
M 1959 2075 
Q 2384 2075 2632 2365 
Q 2881 2656 2881 3163 
Q 2881 3666 2632 3958 
Q 2384 4250 1959 4250 
Q 1534 4250 1286 3958 
Q 1038 3666 1038 3163 
Q 1038 2656 1286 2365 
Q 1534 2075 1959 2075 
z
" transform="scale(0.015625)"/>
       </defs>
       <use xlink:href="#DejaVuSans-30"/>
       <use xlink:href="#DejaVuSans-2e" x="63.623047"/>
       <use xlink:href="#DejaVuSans-39" x="95.410156"/>
      </g>
     </g>
    </g>
    <g id="text_31">
     <!-- Accuracy -->
     <g transform="translate(336.446136 218.325)rotate(-90)scale(0.16 -0.16)">
      <defs>
       <path id="DejaVuSans-41" d="M 2188 4044 
L 1331 1722 
L 3047 1722 
L 2188 4044 
z
M 1831 4666 
L 2547 4666 
L 4325 0 
L 3669 0 
L 3244 1197 
L 1141 1197 
L 716 0 
L 50 0 
L 1831 4666 
z
" transform="scale(0.015625)"/>
       <path id="DejaVuSans-75" d="M 544 1381 
L 544 3500 
L 1119 3500 
L 1119 1403 
Q 1119 906 1312 657 
Q 1506 409 1894 409 
Q 2359 409 2629 706 
Q 2900 1003 2900 1516 
L 2900 3500 
L 3475 3500 
L 3475 0 
L 2900 0 
L 2900 538 
Q 2691 219 2414 64 
Q 2138 -91 1772 -91 
Q 1169 -91 856 284 
Q 544 659 544 1381 
z
M 1991 3584 
L 1991 3584 
z
" transform="scale(0.015625)"/>
       <path id="DejaVuSans-79" d="M 2059 -325 
Q 1816 -950 1584 -1140 
Q 1353 -1331 966 -1331 
L 506 -1331 
L 506 -850 
L 844 -850 
Q 1081 -850 1212 -737 
Q 1344 -625 1503 -206 
L 1606 56 
L 191 3500 
L 800 3500 
L 1894 763 
L 2988 3500 
L 3597 3500 
L 2059 -325 
z
" transform="scale(0.015625)"/>
      </defs>
      <use xlink:href="#DejaVuSans-41"/>
      <use xlink:href="#DejaVuSans-63" x="66.658203"/>
      <use xlink:href="#DejaVuSans-63" x="121.638672"/>
      <use xlink:href="#DejaVuSans-75" x="176.619141"/>
      <use xlink:href="#DejaVuSans-72" x="239.998047"/>
      <use xlink:href="#DejaVuSans-61" x="281.111328"/>
      <use xlink:href="#DejaVuSans-63" x="342.390625"/>
      <use xlink:href="#DejaVuSans-79" x="397.371094"/>
     </g>
    </g>
   </g>
   <g id="line2d_32">
    <path d="M 378.205687 307.8 
L 379.364373 210.852029 
L 380.523059 168.314989 
L 381.681745 141.653914 
L 382.840431 125.719087 
L 385.157803 109.651824 
L 387.475175 100.676516 
L 388.633861 99.572997 
L 389.792547 95.76217 
L 390.951233 93.49627 
L 392.109919 90.494706 
L 393.268605 90.524113 
L 394.427291 88.552493 
L 395.585977 86.831007 
L 396.744663 87.125287 
L 397.903349 83.82942 
L 399.062035 85.521499 
L 400.220721 82.299208 
L 401.379407 82.799476 
L 402.538093 82.18151 
L 403.696779 79.577208 
L 406.014151 80.327588 
L 407.172837 78.812091 
L 408.331523 77.855699 
L 409.490209 78.488381 
L 410.648895 77.10532 
L 411.807581 76.825755 
L 412.966267 75.604515 
L 414.124953 76.090068 
L 416.442325 74.677577 
L 417.601011 75.339689 
L 418.759697 73.574034 
L 419.918383 73.309208 
L 421.077069 73.426906 
L 422.235755 74.030157 
L 423.394441 72.926637 
L 424.553127 72.57352 
L 425.711813 72.735364 
L 426.870499 72.190973 
L 428.029185 70.057487 
L 429.187871 70.057487 
L 430.346557 72.132113 
L 431.505243 70.24876 
L 432.663929 71.043308 
L 433.822615 69.145241 
L 434.981301 70.028056 
L 436.139987 69.998649 
L 437.298673 69.262962 
L 438.457359 68.865699 
L 439.616045 69.76323 
L 440.774731 69.674939 
L 441.933417 67.644459 
L 444.250789 68.27714 
L 445.409475 68.792124 
L 446.568161 67.659174 
L 447.726847 66.30552 
L 448.885532 67.791587 
L 450.044218 68.071151 
L 451.202904 65.555118 
L 452.36159 67.364894 
L 453.520276 66.511509 
L 454.678962 65.922973 
L 455.837648 66.01124 
L 456.996334 66.555654 
L 458.15502 66.5998 
L 459.313706 64.657587 
L 460.472392 65.452135 
L 461.631078 64.613465 
L 462.789764 64.569319 
L 463.94845 65.290291 
L 465.107136 65.407989 
L 466.265822 64.481028 
L 467.424508 63.730649 
L 468.583194 65.275576 
L 469.74188 64.569319 
L 470.900566 65.922973 
L 472.059252 64.569319 
L 473.217938 64.62818 
L 474.376624 63.818917 
L 475.53531 64.62818 
L 476.693996 63.49523 
L 477.852682 63.818917 
L 479.011368 62.906671 
L 480.170054 63.980783 
L 481.32874 63.068537 
L 482.487426 63.52466 
L 483.646112 64.157342 
L 484.804798 63.097944 
L 487.12217 62.509408 
L 488.280856 63.774771 
L 489.439542 61.862012 
L 490.598228 63.730649 
L 492.9156 61.626593 
L 494.074286 63.274526 
L 495.232972 61.641308 
L 496.391658 62.156291 
L 497.550344 61.670738 
L 498.70903 63.49523 
L 499.867716 61.273476 
L 501.026402 61.950302 
L 503.343774 61.744314 
L 504.50246 61.405889 
L 505.661146 62.126861 
L 506.819832 61.582447 
L 507.978518 61.479464 
L 509.137204 60.537788 
L 510.29589 61.1999 
L 511.454576 61.435319 
L 512.613262 60.022805 
L 513.771948 61.729599 
L 514.930634 60.331799 
L 516.08932 61.714883 
L 517.248006 60.258224 
L 518.406692 60.493643 
L 519.565378 59.934537 
L 520.724064 61.273476 
L 521.88275 60.464212 
L 523.041436 61.347028 
L 524.200122 60.640771 
L 525.358808 59.669688 
L 526.517494 60.640771 
L 527.67618 60.199363 
L 528.834866 59.610827 
L 529.993552 59.890392 
L 531.152238 60.935051 
L 532.310924 60.655486 
L 533.46961 60.008089 
L 534.628296 60.36123 
L 535.786982 59.316547 
L 536.945668 59.860961 
L 538.104354 59.448984 
L 539.26304 60.478928 
L 540.421726 58.551453 
L 541.580412 59.169419 
L 542.739098 59.640257 
L 543.897784 59.684403 
L 545.05647 58.992861 
L 546.215156 61.082202 
L 547.373842 59.331263 
L 548.532528 57.948202 
L 549.691214 59.890392 
L 550.8499 59.125274 
L 552.008586 59.905107 
L 553.167272 58.110045 
L 554.325958 59.978659 
L 555.484644 58.374894 
L 556.64333 59.596112 
L 557.802016 58.227743 
L 558.960702 59.375408 
L 560.119388 57.918772 
L 561.278074 57.889341 
L 562.43676 58.948715 
L 563.595446 59.551966 
L 564.754132 58.610314 
L 567.071504 58.580883 
L 568.23019 57.977609 
L 569.388876 59.331263 
L 570.547562 57.447933 
L 571.706248 57.727498 
L 572.864934 57.80105 
L 574.02362 58.09533 
L 575.182306 57.25666 
L 576.340992 58.566168 
L 577.499678 57.624492 
L 579.81705 58.38961 
L 582.134422 57.197799 
L 583.293108 58.522023 
L 584.451794 56.756391 
L 585.61048 57.918772 
L 586.769166 57.756905 
L 587.927852 56.90352 
L 589.086538 57.580346 
L 590.245224 57.389073 
L 591.40391 57.536201 
L 592.562595 56.447397 
L 593.721281 57.698068 
L 594.879967 57.668637 
L 596.038653 57.212514 
L 598.356025 57.609777 
L 599.514711 58.448447 
L 600.673397 56.005989 
L 601.832083 57.330212 
L 602.990769 57.138939 
L 604.149455 57.521486 
L 605.308141 56.844682 
L 606.466827 55.8 
L 607.625513 57.109508 
L 608.784199 57.948202 
L 608.784199 57.948202 
" clip-path="url(#p51ef76b522)" style="fill: none; stroke: #1f77b4; stroke-width: 1.5; stroke-linecap: square"/>
   </g>
   <g id="line2d_33">
    <path d="M 378.205687 243.823387 
L 379.364373 194.174763 
L 380.523059 159.163122 
L 381.681745 152.83994 
L 382.840431 120.755683 
L 383.999117 115.48638 
L 385.157803 122.629209 
L 386.316489 110.919632 
L 387.475175 110.568354 
L 388.633861 106.938393 
L 389.792547 93.940751 
L 390.951233 96.516856 
L 392.109919 97.45362 
L 393.268605 99.327147 
L 394.427291 93.238173 
L 395.585977 90.544975 
L 396.744663 88.320147 
L 397.903349 89.022726 
L 399.062035 93.238173 
L 400.220721 88.203055 
L 401.379407 84.924371 
L 403.696779 92.535594 
L 404.855465 89.022726 
L 406.014151 89.959489 
L 407.172837 91.481738 
L 408.331523 81.996965 
L 409.490209 85.392741 
L 410.648895 85.978227 
L 411.807581 84.807279 
L 412.966267 79.186675 
L 414.124953 87.266291 
L 415.283639 85.275649 
L 416.442325 82.699544 
L 417.601011 82.348266 
L 418.759697 79.537952 
L 419.918383 82.933752 
L 421.077069 77.196056 
L 422.235755 83.519214 
L 424.553127 77.781518 
L 425.711813 80.591832 
L 426.870499 79.655068 
L 428.029185 89.491096 
L 429.187871 83.519214 
L 430.346557 79.186675 
L 431.505243 78.718282 
L 432.663929 79.42086 
L 433.822615 81.645688 
L 434.981301 87.149199 
L 436.139987 75.673806 
L 437.298673 77.07894 
L 438.457359 78.249911 
L 439.616045 80.591832 
L 440.774731 80.474739 
L 441.933417 77.898611 
L 443.092103 82.465358 
L 444.250789 77.664426 
L 446.568161 73.566071 
L 447.726847 81.76278 
L 448.885532 79.069582 
L 450.044218 77.547333 
L 451.202904 73.331886 
L 452.36159 74.268649 
L 453.520276 72.395123 
L 454.678962 70.755781 
L 455.837648 74.971228 
L 456.996334 79.655068 
L 458.15502 79.186675 
L 459.313706 74.619927 
L 460.472392 80.474739 
L 461.631078 74.854135 
L 462.789764 72.7464 
L 463.94845 78.95249 
L 465.107136 71.692544 
L 466.265822 74.619927 
L 467.424508 74.502835 
L 468.583194 76.025084 
L 469.74188 76.61057 
L 470.900566 86.797898 
L 472.059252 76.61057 
L 473.217938 73.331886 
L 474.376624 74.268649 
L 475.53531 73.917372 
L 476.693996 75.790899 
L 477.852682 72.160914 
L 479.011368 77.430241 
L 480.170054 72.395123 
L 481.32874 73.331886 
L 482.487426 73.566071 
L 483.646112 83.519214 
L 484.804798 68.413861 
L 485.963484 79.772161 
L 487.12217 73.800256 
L 488.280856 77.898611 
L 489.439542 74.268649 
L 491.756914 70.053202 
L 492.9156 78.367004 
L 494.074286 77.430241 
L 495.232972 70.872873 
L 496.391658 75.439598 
L 497.550344 68.530953 
L 498.70903 70.287387 
L 499.867716 76.961847 
L 501.026402 73.800256 
L 503.343774 76.61057 
L 504.50246 73.683164 
L 505.661146 73.566071 
L 506.819832 74.151557 
L 507.978518 71.224151 
L 509.137204 74.737043 
L 510.29589 72.629308 
L 511.454576 78.95249 
L 512.613262 70.053202 
L 513.771948 73.331886 
L 514.930634 73.448979 
L 516.08932 71.341267 
L 517.248006 70.755781 
L 518.406692 77.781518 
L 519.565378 71.692544 
L 520.724064 74.854135 
L 521.88275 70.170295 
L 523.041436 73.448979 
L 524.200122 70.170295 
L 525.358808 72.629308 
L 526.517494 72.863493 
L 527.67618 71.575452 
L 528.834866 68.999347 
L 529.993552 70.40448 
L 531.152238 73.214794 
L 532.310924 71.575452 
L 533.46961 71.458359 
L 534.628296 70.989966 
L 535.786982 80.826017 
L 536.945668 69.467717 
L 538.104354 72.27803 
L 539.26304 73.097701 
L 540.421726 74.971228 
L 541.580412 71.575452 
L 542.739098 74.034464 
L 543.897784 68.530953 
L 545.05647 81.177294 
L 546.215156 72.395123 
L 547.373842 69.467717 
L 548.532528 70.287387 
L 549.691214 70.521596 
L 550.8499 74.268649 
L 552.008586 69.584809 
L 553.167272 79.186675 
L 554.325958 69.701925 
L 555.484644 74.385742 
L 556.64333 75.673806 
L 557.802016 76.376385 
L 558.960702 69.819017 
L 560.119388 71.926729 
L 561.278074 73.097701 
L 562.43676 73.917372 
L 563.595446 71.926729 
L 564.754132 70.755781 
L 565.912818 73.097701 
L 567.071504 76.025084 
L 568.23019 72.043822 
L 569.388876 70.170295 
L 570.547562 75.322505 
L 571.706248 70.521596 
L 572.864934 69.584809 
L 574.02362 79.069582 
L 575.182306 70.521596 
L 576.340992 79.186675 
L 577.499678 77.664426 
L 578.658364 74.971228 
L 579.81705 69.350624 
L 580.975736 70.287387 
L 582.134422 74.619927 
L 583.293108 71.809637 
L 584.451794 74.034464 
L 585.61048 70.755781 
L 586.769166 78.835397 
L 587.927852 73.448979 
L 589.086538 71.458359 
L 590.245224 71.224151 
L 591.40391 71.575452 
L 592.562595 67.711282 
L 593.721281 69.233532 
L 594.879967 72.629308 
L 597.197339 71.809637 
L 598.356025 73.214794 
L 599.514711 80.357623 
L 600.673397 72.043822 
L 601.832083 72.7464 
L 602.990769 69.93611 
L 604.149455 70.755781 
L 605.308141 68.530953 
L 606.466827 70.053202 
L 607.625513 68.062583 
L 608.784199 69.233532 
L 608.784199 69.233532 
" clip-path="url(#p51ef76b522)" style="fill: none; stroke: #ff7f0e; stroke-width: 1.5; stroke-linecap: square"/>
   </g>
   <g id="line2d_34">
    <path d="M 592.562595 67.711282 
" clip-path="url(#p51ef76b522)" style="fill: none; stroke: #ff0000; stroke-width: 1.5; stroke-linecap: square"/>
    <g clip-path="url(#p51ef76b522)">
     <use xlink:href="#m93ad1957e7" x="592.562595" y="67.711282" style="fill: #ff0000; stroke: #ff0000"/>
    </g>
   </g>
   <g id="patch_9">
    <path d="M 366.676761 320.4 
L 366.676761 43.2 
" style="fill: none; stroke: #000000; stroke-width: 0.8; stroke-linejoin: miter; stroke-linecap: square"/>
   </g>
   <g id="patch_10">
    <path d="M 620.313125 320.4 
L 620.313125 43.2 
" style="fill: none; stroke: #000000; stroke-width: 0.8; stroke-linejoin: miter; stroke-linecap: square"/>
   </g>
   <g id="patch_11">
    <path d="M 366.676761 320.4 
L 620.313125 320.4 
" style="fill: none; stroke: #000000; stroke-width: 0.8; stroke-linejoin: miter; stroke-linecap: square"/>
   </g>
   <g id="patch_12">
    <path d="M 366.676761 43.2 
L 620.313125 43.2 
" style="fill: none; stroke: #000000; stroke-width: 0.8; stroke-linejoin: miter; stroke-linecap: square"/>
   </g>
   <g id="text_32">
    <!-- Best epoch: 185 with accuracy: 93.2% -->
    <g transform="translate(378.480568 37.2)scale(0.12 -0.12)">
     <defs>
      <path id="DejaVuSans-25" d="M 4653 2053 
Q 4381 2053 4226 1822 
Q 4072 1591 4072 1178 
Q 4072 772 4226 539 
Q 4381 306 4653 306 
Q 4919 306 5073 539 
Q 5228 772 5228 1178 
Q 5228 1588 5073 1820 
Q 4919 2053 4653 2053 
z
M 4653 2450 
Q 5147 2450 5437 2106 
Q 5728 1763 5728 1178 
Q 5728 594 5436 251 
Q 5144 -91 4653 -91 
Q 4153 -91 3862 251 
Q 3572 594 3572 1178 
Q 3572 1766 3864 2108 
Q 4156 2450 4653 2450 
z
M 1428 4353 
Q 1159 4353 1004 4120 
Q 850 3888 850 3481 
Q 850 3069 1003 2837 
Q 1156 2606 1428 2606 
Q 1700 2606 1854 2837 
Q 2009 3069 2009 3481 
Q 2009 3884 1853 4118 
Q 1697 4353 1428 4353 
z
M 4250 4750 
L 4750 4750 
L 1831 -91 
L 1331 -91 
L 4250 4750 
z
M 1428 4750 
Q 1922 4750 2215 4408 
Q 2509 4066 2509 3481 
Q 2509 2891 2217 2550 
Q 1925 2209 1428 2209 
Q 931 2209 642 2551 
Q 353 2894 353 3481 
Q 353 4063 643 4406 
Q 934 4750 1428 4750 
z
" transform="scale(0.015625)"/>
     </defs>
     <use xlink:href="#DejaVuSans-42"/>
     <use xlink:href="#DejaVuSans-65" x="68.603516"/>
     <use xlink:href="#DejaVuSans-73" x="130.126953"/>
     <use xlink:href="#DejaVuSans-74" x="182.226562"/>
     <use xlink:href="#DejaVuSans-20" x="221.435547"/>
     <use xlink:href="#DejaVuSans-65" x="253.222656"/>
     <use xlink:href="#DejaVuSans-70" x="314.746094"/>
     <use xlink:href="#DejaVuSans-6f" x="378.222656"/>
     <use xlink:href="#DejaVuSans-63" x="439.404297"/>
     <use xlink:href="#DejaVuSans-68" x="494.384766"/>
     <use xlink:href="#DejaVuSans-3a" x="557.763672"/>
     <use xlink:href="#DejaVuSans-20" x="591.455078"/>
     <use xlink:href="#DejaVuSans-31" x="623.242188"/>
     <use xlink:href="#DejaVuSans-38" x="686.865234"/>
     <use xlink:href="#DejaVuSans-35" x="750.488281"/>
     <use xlink:href="#DejaVuSans-20" x="814.111328"/>
     <use xlink:href="#DejaVuSans-77" x="845.898438"/>
     <use xlink:href="#DejaVuSans-69" x="927.685547"/>
     <use xlink:href="#DejaVuSans-74" x="955.46875"/>
     <use xlink:href="#DejaVuSans-68" x="994.677734"/>
     <use xlink:href="#DejaVuSans-20" x="1058.056641"/>
     <use xlink:href="#DejaVuSans-61" x="1089.84375"/>
     <use xlink:href="#DejaVuSans-63" x="1151.123047"/>
     <use xlink:href="#DejaVuSans-63" x="1206.103516"/>
     <use xlink:href="#DejaVuSans-75" x="1261.083984"/>
     <use xlink:href="#DejaVuSans-72" x="1324.462891"/>
     <use xlink:href="#DejaVuSans-61" x="1365.576172"/>
     <use xlink:href="#DejaVuSans-63" x="1426.855469"/>
     <use xlink:href="#DejaVuSans-79" x="1481.835938"/>
     <use xlink:href="#DejaVuSans-3a" x="1533.765625"/>
     <use xlink:href="#DejaVuSans-20" x="1567.457031"/>
     <use xlink:href="#DejaVuSans-39" x="1599.244141"/>
     <use xlink:href="#DejaVuSans-33" x="1662.867188"/>
     <use xlink:href="#DejaVuSans-2e" x="1726.490234"/>
     <use xlink:href="#DejaVuSans-32" x="1758.277344"/>
     <use xlink:href="#DejaVuSans-25" x="1821.900391"/>
    </g>
   </g>
   <g id="legend_2">
    <g id="patch_13">
     <path d="M 483.0975 315.4 
L 613.313125 315.4 
Q 615.313125 315.4 615.313125 313.4 
L 615.313125 270.365625 
Q 615.313125 268.365625 613.313125 268.365625 
L 483.0975 268.365625 
Q 481.0975 268.365625 481.0975 270.365625 
L 481.0975 313.4 
Q 481.0975 315.4 483.0975 315.4 
z
" style="fill: #ffffff; opacity: 0.8; stroke: #cccccc; stroke-linejoin: miter"/>
    </g>
    <g id="line2d_35">
     <path d="M 485.0975 276.464062 
L 495.0975 276.464062 
L 505.0975 276.464062 
" style="fill: none; stroke: #1f77b4; stroke-width: 1.5; stroke-linecap: square"/>
    </g>
    <g id="text_33">
     <!-- Training Accuracy -->
     <g transform="translate(513.0975 279.964062)scale(0.1 -0.1)">
      <use xlink:href="#DejaVuSans-54"/>
      <use xlink:href="#DejaVuSans-72" x="46.333984"/>
      <use xlink:href="#DejaVuSans-61" x="87.447266"/>
      <use xlink:href="#DejaVuSans-69" x="148.726562"/>
      <use xlink:href="#DejaVuSans-6e" x="176.509766"/>
      <use xlink:href="#DejaVuSans-69" x="239.888672"/>
      <use xlink:href="#DejaVuSans-6e" x="267.671875"/>
      <use xlink:href="#DejaVuSans-67" x="331.050781"/>
      <use xlink:href="#DejaVuSans-20" x="394.527344"/>
      <use xlink:href="#DejaVuSans-41" x="426.314453"/>
      <use xlink:href="#DejaVuSans-63" x="492.972656"/>
      <use xlink:href="#DejaVuSans-63" x="547.953125"/>
      <use xlink:href="#DejaVuSans-75" x="602.933594"/>
      <use xlink:href="#DejaVuSans-72" x="666.3125"/>
      <use xlink:href="#DejaVuSans-61" x="707.425781"/>
      <use xlink:href="#DejaVuSans-63" x="768.705078"/>
      <use xlink:href="#DejaVuSans-79" x="823.685547"/>
     </g>
    </g>
    <g id="line2d_36">
     <path d="M 485.0975 291.142187 
L 495.0975 291.142187 
L 505.0975 291.142187 
" style="fill: none; stroke: #ff7f0e; stroke-width: 1.5; stroke-linecap: square"/>
    </g>
    <g id="text_34">
     <!-- Validation Accuracy -->
     <g transform="translate(513.0975 294.642187)scale(0.1 -0.1)">
      <use xlink:href="#DejaVuSans-56"/>
      <use xlink:href="#DejaVuSans-61" x="60.658203"/>
      <use xlink:href="#DejaVuSans-6c" x="121.9375"/>
      <use xlink:href="#DejaVuSans-69" x="149.720703"/>
      <use xlink:href="#DejaVuSans-64" x="177.503906"/>
      <use xlink:href="#DejaVuSans-61" x="240.980469"/>
      <use xlink:href="#DejaVuSans-74" x="302.259766"/>
      <use xlink:href="#DejaVuSans-69" x="341.46875"/>
      <use xlink:href="#DejaVuSans-6f" x="369.251953"/>
      <use xlink:href="#DejaVuSans-6e" x="430.433594"/>
      <use xlink:href="#DejaVuSans-20" x="493.8125"/>
      <use xlink:href="#DejaVuSans-41" x="525.599609"/>
      <use xlink:href="#DejaVuSans-63" x="592.257812"/>
      <use xlink:href="#DejaVuSans-63" x="647.238281"/>
      <use xlink:href="#DejaVuSans-75" x="702.21875"/>
      <use xlink:href="#DejaVuSans-72" x="765.597656"/>
      <use xlink:href="#DejaVuSans-61" x="806.710938"/>
      <use xlink:href="#DejaVuSans-63" x="867.990234"/>
      <use xlink:href="#DejaVuSans-79" x="922.970703"/>
     </g>
    </g>
    <g id="line2d_37">
     <path d="M 485.0975 305.820312 
L 495.0975 305.820312 
L 505.0975 305.820312 
" style="fill: none; stroke: #ff0000; stroke-width: 1.5; stroke-linecap: square"/>
     <g>
      <use xlink:href="#m93ad1957e7" x="495.0975" y="305.820312" style="fill: #ff0000; stroke: #ff0000"/>
     </g>
    </g>
    <g id="text_35">
     <!-- best model -->
     <g transform="translate(513.0975 309.320312)scale(0.1 -0.1)">
      <use xlink:href="#DejaVuSans-62"/>
      <use xlink:href="#DejaVuSans-65" x="63.476562"/>
      <use xlink:href="#DejaVuSans-73" x="125"/>
      <use xlink:href="#DejaVuSans-74" x="177.099609"/>
      <use xlink:href="#DejaVuSans-20" x="216.308594"/>
      <use xlink:href="#DejaVuSans-6d" x="248.095703"/>
      <use xlink:href="#DejaVuSans-6f" x="345.507812"/>
      <use xlink:href="#DejaVuSans-64" x="406.689453"/>
      <use xlink:href="#DejaVuSans-65" x="470.166016"/>
      <use xlink:href="#DejaVuSans-6c" x="531.689453"/>
     </g>
    </g>
   </g>
  </g>
  <g id="text_36">
   <!-- Optimizer : Adam -->
   <g transform="translate(288.534219 14.798437)scale(0.1 -0.1)">
    <defs>
     <path id="DejaVuSans-4f" d="M 2522 4238 
Q 1834 4238 1429 3725 
Q 1025 3213 1025 2328 
Q 1025 1447 1429 934 
Q 1834 422 2522 422 
Q 3209 422 3611 934 
Q 4013 1447 4013 2328 
Q 4013 3213 3611 3725 
Q 3209 4238 2522 4238 
z
M 2522 4750 
Q 3503 4750 4090 4092 
Q 4678 3434 4678 2328 
Q 4678 1225 4090 567 
Q 3503 -91 2522 -91 
Q 1538 -91 948 565 
Q 359 1222 359 2328 
Q 359 3434 948 4092 
Q 1538 4750 2522 4750 
z
" transform="scale(0.015625)"/>
     <path id="DejaVuSans-7a" d="M 353 3500 
L 3084 3500 
L 3084 2975 
L 922 459 
L 3084 459 
L 3084 0 
L 275 0 
L 275 525 
L 2438 3041 
L 353 3041 
L 353 3500 
z
" transform="scale(0.015625)"/>
    </defs>
    <use xlink:href="#DejaVuSans-4f"/>
    <use xlink:href="#DejaVuSans-70" x="78.710938"/>
    <use xlink:href="#DejaVuSans-74" x="142.1875"/>
    <use xlink:href="#DejaVuSans-69" x="181.396484"/>
    <use xlink:href="#DejaVuSans-6d" x="209.179688"/>
    <use xlink:href="#DejaVuSans-69" x="306.591797"/>
    <use xlink:href="#DejaVuSans-7a" x="334.375"/>
    <use xlink:href="#DejaVuSans-65" x="386.865234"/>
    <use xlink:href="#DejaVuSans-72" x="448.388672"/>
    <use xlink:href="#DejaVuSans-20" x="489.501953"/>
    <use xlink:href="#DejaVuSans-3a" x="521.289062"/>
    <use xlink:href="#DejaVuSans-20" x="554.980469"/>
    <use xlink:href="#DejaVuSans-41" x="586.767578"/>
    <use xlink:href="#DejaVuSans-64" x="653.425781"/>
    <use xlink:href="#DejaVuSans-61" x="716.902344"/>
    <use xlink:href="#DejaVuSans-6d" x="778.181641"/>
   </g>
  </g>
 </g>
 <defs>
  <clipPath id="p99ce2ff717">
   <rect x="62.313125" y="43.2" width="253.636364" height="277.2"/>
  </clipPath>
  <clipPath id="p51ef76b522">
   <rect x="366.676761" y="43.2" width="253.636364" height="277.2"/>
  </clipPath>
 </defs>
</svg>
