<?xml version="1.0" encoding="utf-8" standalone="no"?>
<!DOCTYPE svg PUBLIC "-//W3C//DTD SVG 1.1//EN"
  "http://www.w3.org/Graphics/SVG/1.1/DTD/svg11.dtd">
<svg xmlns:xlink="http://www.w3.org/1999/xlink" width="627.513125pt" height="344.278125pt" viewBox="0 0 627.513125 344.278125" xmlns="http://www.w3.org/2000/svg" version="1.1">
 <metadata>
  <rdf:RDF xmlns:dc="http://purl.org/dc/elements/1.1/" xmlns:cc="http://creativecommons.org/ns#" xmlns:rdf="http://www.w3.org/1999/02/22-rdf-syntax-ns#">
   <cc:Work>
    <dc:type rdf:resource="http://purl.org/dc/dcmitype/StillImage"/>
    <dc:date>2022-09-15T22:55:31.713442</dc:date>
    <dc:format>image/svg+xml</dc:format>
    <dc:creator>
     <cc:Agent>
      <dc:title>Matplotlib v3.5.3, https://matplotlib.org/</dc:title>
     </cc:Agent>
    </dc:creator>
   </cc:Work>
  </rdf:RDF>
 </metadata>
 <defs>
  <style type="text/css">*{stroke-linejoin: round; stroke-linecap: butt}</style>
 </defs>
 <g id="figure_1">
  <g id="patch_1">
   <path d="M 0 344.278125 
L 627.513125 344.278125 
L 627.513125 0 
L 0 0 
z
" style="fill: #ffffff"/>
  </g>
  <g id="axes_1">
   <g id="patch_2">
    <path d="M 62.313125 320.4 
L 315.949489 320.4 
L 315.949489 43.2 
L 62.313125 43.2 
z
" style="fill: #ffffff"/>
   </g>
   <g id="matplotlib.axis_1">
    <g id="xtick_1">
     <g id="line2d_1">
      <defs>
       <path id="m77416f4a60" d="M 0 0 
L 0 3.5 
" style="stroke: #000000; stroke-width: 0.8"/>
      </defs>
      <g>
       <use xlink:href="#m77416f4a60" x="73.842051" y="320.4" style="stroke: #000000; stroke-width: 0.8"/>
      </g>
     </g>
     <g id="text_1">
      <!-- 0 -->
      <g transform="translate(70.660801 334.998437)scale(0.1 -0.1)">
       <defs>
        <path id="DejaVuSans-30" d="M 2034 4250 
Q 1547 4250 1301 3770 
Q 1056 3291 1056 2328 
Q 1056 1369 1301 889 
Q 1547 409 2034 409 
Q 2525 409 2770 889 
Q 3016 1369 3016 2328 
Q 3016 3291 2770 3770 
Q 2525 4250 2034 4250 
z
M 2034 4750 
Q 2819 4750 3233 4129 
Q 3647 3509 3647 2328 
Q 3647 1150 3233 529 
Q 2819 -91 2034 -91 
Q 1250 -91 836 529 
Q 422 1150 422 2328 
Q 422 3509 836 4129 
Q 1250 4750 2034 4750 
z
" transform="scale(0.015625)"/>
       </defs>
       <use xlink:href="#DejaVuSans-30"/>
      </g>
     </g>
    </g>
    <g id="xtick_2">
     <g id="line2d_2">
      <g>
       <use xlink:href="#m77416f4a60" x="131.77635" y="320.4" style="stroke: #000000; stroke-width: 0.8"/>
      </g>
     </g>
     <g id="text_2">
      <!-- 50 -->
      <g transform="translate(125.41385 334.998437)scale(0.1 -0.1)">
       <defs>
        <path id="DejaVuSans-35" d="M 691 4666 
L 3169 4666 
L 3169 4134 
L 1269 4134 
L 1269 2991 
Q 1406 3038 1543 3061 
Q 1681 3084 1819 3084 
Q 2600 3084 3056 2656 
Q 3513 2228 3513 1497 
Q 3513 744 3044 326 
Q 2575 -91 1722 -91 
Q 1428 -91 1123 -41 
Q 819 9 494 109 
L 494 744 
Q 775 591 1075 516 
Q 1375 441 1709 441 
Q 2250 441 2565 725 
Q 2881 1009 2881 1497 
Q 2881 1984 2565 2268 
Q 2250 2553 1709 2553 
Q 1456 2553 1204 2497 
Q 953 2441 691 2322 
L 691 4666 
z
" transform="scale(0.015625)"/>
       </defs>
       <use xlink:href="#DejaVuSans-35"/>
       <use xlink:href="#DejaVuSans-30" x="63.623047"/>
      </g>
     </g>
    </g>
    <g id="xtick_3">
     <g id="line2d_3">
      <g>
       <use xlink:href="#m77416f4a60" x="189.71065" y="320.4" style="stroke: #000000; stroke-width: 0.8"/>
      </g>
     </g>
     <g id="text_3">
      <!-- 100 -->
      <g transform="translate(180.1669 334.998437)scale(0.1 -0.1)">
       <defs>
        <path id="DejaVuSans-31" d="M 794 531 
L 1825 531 
L 1825 4091 
L 703 3866 
L 703 4441 
L 1819 4666 
L 2450 4666 
L 2450 531 
L 3481 531 
L 3481 0 
L 794 0 
L 794 531 
z
" transform="scale(0.015625)"/>
       </defs>
       <use xlink:href="#DejaVuSans-31"/>
       <use xlink:href="#DejaVuSans-30" x="63.623047"/>
       <use xlink:href="#DejaVuSans-30" x="127.246094"/>
      </g>
     </g>
    </g>
    <g id="xtick_4">
     <g id="line2d_4">
      <g>
       <use xlink:href="#m77416f4a60" x="247.644949" y="320.4" style="stroke: #000000; stroke-width: 0.8"/>
      </g>
     </g>
     <g id="text_4">
      <!-- 150 -->
      <g transform="translate(238.101199 334.998437)scale(0.1 -0.1)">
       <use xlink:href="#DejaVuSans-31"/>
       <use xlink:href="#DejaVuSans-35" x="63.623047"/>
       <use xlink:href="#DejaVuSans-30" x="127.246094"/>
      </g>
     </g>
    </g>
    <g id="xtick_5">
     <g id="line2d_5">
      <g>
       <use xlink:href="#m77416f4a60" x="305.579249" y="320.4" style="stroke: #000000; stroke-width: 0.8"/>
      </g>
     </g>
     <g id="text_5">
      <!-- 200 -->
      <g transform="translate(296.035499 334.998437)scale(0.1 -0.1)">
       <defs>
        <path id="DejaVuSans-32" d="M 1228 531 
L 3431 531 
L 3431 0 
L 469 0 
L 469 531 
Q 828 903 1448 1529 
Q 2069 2156 2228 2338 
Q 2531 2678 2651 2914 
Q 2772 3150 2772 3378 
Q 2772 3750 2511 3984 
Q 2250 4219 1831 4219 
Q 1534 4219 1204 4116 
Q 875 4013 500 3803 
L 500 4441 
Q 881 4594 1212 4672 
Q 1544 4750 1819 4750 
Q 2544 4750 2975 4387 
Q 3406 4025 3406 3419 
Q 3406 3131 3298 2873 
Q 3191 2616 2906 2266 
Q 2828 2175 2409 1742 
Q 1991 1309 1228 531 
z
" transform="scale(0.015625)"/>
       </defs>
       <use xlink:href="#DejaVuSans-32"/>
       <use xlink:href="#DejaVuSans-30" x="63.623047"/>
       <use xlink:href="#DejaVuSans-30" x="127.246094"/>
      </g>
     </g>
    </g>
   </g>
   <g id="matplotlib.axis_2">
    <g id="ytick_1">
     <g id="line2d_6">
      <defs>
       <path id="mffb29371a8" d="M 0 0 
L -3.5 0 
" style="stroke: #000000; stroke-width: 0.8"/>
      </defs>
      <g>
       <use xlink:href="#mffb29371a8" x="62.313125" y="308.628376" style="stroke: #000000; stroke-width: 0.8"/>
      </g>
     </g>
     <g id="text_6">
      <!-- 0.010 -->
      <g transform="translate(26.685 312.427595)scale(0.1 -0.1)">
       <defs>
        <path id="DejaVuSans-2e" d="M 684 794 
L 1344 794 
L 1344 0 
L 684 0 
L 684 794 
z
" transform="scale(0.015625)"/>
       </defs>
       <use xlink:href="#DejaVuSans-30"/>
       <use xlink:href="#DejaVuSans-2e" x="63.623047"/>
       <use xlink:href="#DejaVuSans-30" x="95.410156"/>
       <use xlink:href="#DejaVuSans-31" x="159.033203"/>
       <use xlink:href="#DejaVuSans-30" x="222.65625"/>
      </g>
     </g>
    </g>
    <g id="ytick_2">
     <g id="line2d_7">
      <g>
       <use xlink:href="#mffb29371a8" x="62.313125" y="274.931202" style="stroke: #000000; stroke-width: 0.8"/>
      </g>
     </g>
     <g id="text_7">
      <!-- 0.015 -->
      <g transform="translate(26.685 278.730421)scale(0.1 -0.1)">
       <use xlink:href="#DejaVuSans-30"/>
       <use xlink:href="#DejaVuSans-2e" x="63.623047"/>
       <use xlink:href="#DejaVuSans-30" x="95.410156"/>
       <use xlink:href="#DejaVuSans-31" x="159.033203"/>
       <use xlink:href="#DejaVuSans-35" x="222.65625"/>
      </g>
     </g>
    </g>
    <g id="ytick_3">
     <g id="line2d_8">
      <g>
       <use xlink:href="#mffb29371a8" x="62.313125" y="241.234027" style="stroke: #000000; stroke-width: 0.8"/>
      </g>
     </g>
     <g id="text_8">
      <!-- 0.020 -->
      <g transform="translate(26.685 245.033246)scale(0.1 -0.1)">
       <use xlink:href="#DejaVuSans-30"/>
       <use xlink:href="#DejaVuSans-2e" x="63.623047"/>
       <use xlink:href="#DejaVuSans-30" x="95.410156"/>
       <use xlink:href="#DejaVuSans-32" x="159.033203"/>
       <use xlink:href="#DejaVuSans-30" x="222.65625"/>
      </g>
     </g>
    </g>
    <g id="ytick_4">
     <g id="line2d_9">
      <g>
       <use xlink:href="#mffb29371a8" x="62.313125" y="207.536853" style="stroke: #000000; stroke-width: 0.8"/>
      </g>
     </g>
     <g id="text_9">
      <!-- 0.025 -->
      <g transform="translate(26.685 211.336072)scale(0.1 -0.1)">
       <use xlink:href="#DejaVuSans-30"/>
       <use xlink:href="#DejaVuSans-2e" x="63.623047"/>
       <use xlink:href="#DejaVuSans-30" x="95.410156"/>
       <use xlink:href="#DejaVuSans-32" x="159.033203"/>
       <use xlink:href="#DejaVuSans-35" x="222.65625"/>
      </g>
     </g>
    </g>
    <g id="ytick_5">
     <g id="line2d_10">
      <g>
       <use xlink:href="#mffb29371a8" x="62.313125" y="173.839678" style="stroke: #000000; stroke-width: 0.8"/>
      </g>
     </g>
     <g id="text_10">
      <!-- 0.030 -->
      <g transform="translate(26.685 177.638897)scale(0.1 -0.1)">
       <defs>
        <path id="DejaVuSans-33" d="M 2597 2516 
Q 3050 2419 3304 2112 
Q 3559 1806 3559 1356 
Q 3559 666 3084 287 
Q 2609 -91 1734 -91 
Q 1441 -91 1130 -33 
Q 819 25 488 141 
L 488 750 
Q 750 597 1062 519 
Q 1375 441 1716 441 
Q 2309 441 2620 675 
Q 2931 909 2931 1356 
Q 2931 1769 2642 2001 
Q 2353 2234 1838 2234 
L 1294 2234 
L 1294 2753 
L 1863 2753 
Q 2328 2753 2575 2939 
Q 2822 3125 2822 3475 
Q 2822 3834 2567 4026 
Q 2313 4219 1838 4219 
Q 1578 4219 1281 4162 
Q 984 4106 628 3988 
L 628 4550 
Q 988 4650 1302 4700 
Q 1616 4750 1894 4750 
Q 2613 4750 3031 4423 
Q 3450 4097 3450 3541 
Q 3450 3153 3228 2886 
Q 3006 2619 2597 2516 
z
" transform="scale(0.015625)"/>
       </defs>
       <use xlink:href="#DejaVuSans-30"/>
       <use xlink:href="#DejaVuSans-2e" x="63.623047"/>
       <use xlink:href="#DejaVuSans-30" x="95.410156"/>
       <use xlink:href="#DejaVuSans-33" x="159.033203"/>
       <use xlink:href="#DejaVuSans-30" x="222.65625"/>
      </g>
     </g>
    </g>
    <g id="ytick_6">
     <g id="line2d_11">
      <g>
       <use xlink:href="#mffb29371a8" x="62.313125" y="140.142504" style="stroke: #000000; stroke-width: 0.8"/>
      </g>
     </g>
     <g id="text_11">
      <!-- 0.035 -->
      <g transform="translate(26.685 143.941723)scale(0.1 -0.1)">
       <use xlink:href="#DejaVuSans-30"/>
       <use xlink:href="#DejaVuSans-2e" x="63.623047"/>
       <use xlink:href="#DejaVuSans-30" x="95.410156"/>
       <use xlink:href="#DejaVuSans-33" x="159.033203"/>
       <use xlink:href="#DejaVuSans-35" x="222.65625"/>
      </g>
     </g>
    </g>
    <g id="ytick_7">
     <g id="line2d_12">
      <g>
       <use xlink:href="#mffb29371a8" x="62.313125" y="106.445329" style="stroke: #000000; stroke-width: 0.8"/>
      </g>
     </g>
     <g id="text_12">
      <!-- 0.040 -->
      <g transform="translate(26.685 110.244548)scale(0.1 -0.1)">
       <defs>
        <path id="DejaVuSans-34" d="M 2419 4116 
L 825 1625 
L 2419 1625 
L 2419 4116 
z
M 2253 4666 
L 3047 4666 
L 3047 1625 
L 3713 1625 
L 3713 1100 
L 3047 1100 
L 3047 0 
L 2419 0 
L 2419 1100 
L 313 1100 
L 313 1709 
L 2253 4666 
z
" transform="scale(0.015625)"/>
       </defs>
       <use xlink:href="#DejaVuSans-30"/>
       <use xlink:href="#DejaVuSans-2e" x="63.623047"/>
       <use xlink:href="#DejaVuSans-30" x="95.410156"/>
       <use xlink:href="#DejaVuSans-34" x="159.033203"/>
       <use xlink:href="#DejaVuSans-30" x="222.65625"/>
      </g>
     </g>
    </g>
    <g id="ytick_8">
     <g id="line2d_13">
      <g>
       <use xlink:href="#mffb29371a8" x="62.313125" y="72.748155" style="stroke: #000000; stroke-width: 0.8"/>
      </g>
     </g>
     <g id="text_13">
      <!-- 0.045 -->
      <g transform="translate(26.685 76.547374)scale(0.1 -0.1)">
       <use xlink:href="#DejaVuSans-30"/>
       <use xlink:href="#DejaVuSans-2e" x="63.623047"/>
       <use xlink:href="#DejaVuSans-30" x="95.410156"/>
       <use xlink:href="#DejaVuSans-34" x="159.033203"/>
       <use xlink:href="#DejaVuSans-35" x="222.65625"/>
      </g>
     </g>
    </g>
    <g id="text_14">
     <!-- Loss -->
     <g transform="translate(19.3575 199.3475)rotate(-90)scale(0.16 -0.16)">
      <defs>
       <path id="DejaVuSans-4c" d="M 628 4666 
L 1259 4666 
L 1259 531 
L 3531 531 
L 3531 0 
L 628 0 
L 628 4666 
z
" transform="scale(0.015625)"/>
       <path id="DejaVuSans-6f" d="M 1959 3097 
Q 1497 3097 1228 2736 
Q 959 2375 959 1747 
Q 959 1119 1226 758 
Q 1494 397 1959 397 
Q 2419 397 2687 759 
Q 2956 1122 2956 1747 
Q 2956 2369 2687 2733 
Q 2419 3097 1959 3097 
z
M 1959 3584 
Q 2709 3584 3137 3096 
Q 3566 2609 3566 1747 
Q 3566 888 3137 398 
Q 2709 -91 1959 -91 
Q 1206 -91 779 398 
Q 353 888 353 1747 
Q 353 2609 779 3096 
Q 1206 3584 1959 3584 
z
" transform="scale(0.015625)"/>
       <path id="DejaVuSans-73" d="M 2834 3397 
L 2834 2853 
Q 2591 2978 2328 3040 
Q 2066 3103 1784 3103 
Q 1356 3103 1142 2972 
Q 928 2841 928 2578 
Q 928 2378 1081 2264 
Q 1234 2150 1697 2047 
L 1894 2003 
Q 2506 1872 2764 1633 
Q 3022 1394 3022 966 
Q 3022 478 2636 193 
Q 2250 -91 1575 -91 
Q 1294 -91 989 -36 
Q 684 19 347 128 
L 347 722 
Q 666 556 975 473 
Q 1284 391 1588 391 
Q 1994 391 2212 530 
Q 2431 669 2431 922 
Q 2431 1156 2273 1281 
Q 2116 1406 1581 1522 
L 1381 1569 
Q 847 1681 609 1914 
Q 372 2147 372 2553 
Q 372 3047 722 3315 
Q 1072 3584 1716 3584 
Q 2034 3584 2315 3537 
Q 2597 3491 2834 3397 
z
" transform="scale(0.015625)"/>
      </defs>
      <use xlink:href="#DejaVuSans-4c"/>
      <use xlink:href="#DejaVuSans-6f" x="53.962891"/>
      <use xlink:href="#DejaVuSans-73" x="115.144531"/>
      <use xlink:href="#DejaVuSans-73" x="167.244141"/>
     </g>
    </g>
   </g>
   <g id="line2d_14">
    <path d="M 73.842051 55.8 
L 75.000737 91.496838 
L 76.159423 113.854094 
L 77.318109 131.9796 
L 80.794167 173.474486 
L 81.952853 184.349603 
L 83.111539 193.147635 
L 84.270225 203.060225 
L 85.428911 210.832323 
L 86.587597 215.919183 
L 87.746283 219.765062 
L 88.904969 222.087525 
L 90.063655 229.275097 
L 91.22234 231.650208 
L 92.381026 231.12964 
L 93.539712 233.683132 
L 94.698398 236.672282 
L 95.857084 240.94645 
L 97.01577 242.59546 
L 98.174456 241.391661 
L 99.333142 245.436746 
L 100.491828 247.427692 
L 101.650514 248.606774 
L 102.8092 250.958925 
L 103.967886 254.019955 
L 105.126572 253.536996 
L 106.285258 254.07972 
L 107.443944 254.33116 
L 108.60263 256.14945 
L 109.761316 255.845086 
L 110.920002 257.863373 
L 112.078688 257.491397 
L 113.237374 261.337351 
L 114.39606 260.739431 
L 116.713432 263.409127 
L 117.872118 263.205364 
L 119.030804 264.696179 
L 120.18949 265.081512 
L 121.348176 266.307267 
L 122.506862 264.129027 
L 123.665548 268.986441 
L 124.824234 268.690675 
L 125.98292 269.263313 
L 127.141606 272.573228 
L 128.300292 270.389333 
L 129.458978 269.092251 
L 130.617664 273.977721 
L 131.77635 271.565955 
L 132.935036 272.017562 
L 134.093722 274.494718 
L 135.252408 276.111071 
L 136.411094 272.027698 
L 137.56978 273.122568 
L 138.728466 273.199374 
L 139.887152 276.574973 
L 141.045838 274.50434 
L 142.204524 274.82346 
L 143.36321 273.978167 
L 144.521896 275.535144 
L 145.680582 275.53891 
L 146.839268 277.827441 
L 147.997954 276.79107 
L 149.15664 278.163641 
L 150.315326 280.69443 
L 151.474012 278.818402 
L 152.632698 279.965492 
L 154.95007 280.488307 
L 156.108756 282.786065 
L 157.267442 281.065521 
L 159.584814 283.115278 
L 160.7435 281.218042 
L 161.902186 282.358943 
L 163.060872 283.779329 
L 164.219558 283.879811 
L 165.378244 285.096816 
L 166.53693 282.97381 
L 167.695616 286.43233 
L 168.854302 283.919767 
L 170.012988 286.643336 
L 171.171674 284.746068 
L 172.33036 286.857085 
L 173.489046 286.141046 
L 174.647732 287.465707 
L 175.806418 287.442672 
L 176.965104 286.142458 
L 178.12379 287.460045 
L 180.441162 289.352663 
L 181.599848 287.414226 
L 182.758534 288.133078 
L 183.91722 288.991859 
L 185.075906 289.67789 
L 186.234592 287.894793 
L 187.393278 288.736333 
L 188.551964 290.752756 
L 189.71065 291.395202 
L 190.869336 288.996805 
L 192.028022 291.770411 
L 193.186708 292.114424 
L 194.345394 290.371158 
L 195.50408 292.607224 
L 196.662766 291.494598 
L 197.821452 290.952113 
L 198.980138 292.455362 
L 200.138824 292.829848 
L 201.29751 291.621134 
L 202.456196 292.124316 
L 203.614882 291.348461 
L 204.773568 292.731934 
L 205.932254 291.12369 
L 208.249626 293.751823 
L 209.408312 292.746583 
L 210.566998 293.419892 
L 211.725684 294.843127 
L 212.88437 295.156837 
L 214.043056 296.888943 
L 215.201742 295.457843 
L 216.360428 293.680163 
L 217.519114 293.387787 
L 218.6778 296.178364 
L 219.836486 294.691283 
L 220.995172 295.652009 
L 222.153858 297.842331 
L 224.47123 296.055538 
L 225.629916 294.471283 
L 226.788602 294.683833 
L 227.947288 295.455489 
L 229.105974 295.377829 
L 230.26466 297.208785 
L 231.423346 296.719312 
L 232.582032 295.217136 
L 233.740718 296.623387 
L 236.058089 298.253624 
L 238.375461 297.319849 
L 239.534147 296.121366 
L 240.692833 299.935128 
L 241.851519 299.445868 
L 243.010205 297.660838 
L 244.168891 298.887942 
L 245.327577 298.251308 
L 246.486263 295.740986 
L 247.644949 299.041781 
L 248.803635 295.045886 
L 249.962321 298.366433 
L 251.121007 300.482415 
L 252.279693 300.63685 
L 253.438379 299.714192 
L 254.597065 300.946205 
L 255.755751 299.281471 
L 256.914437 301.140685 
L 258.073123 300.112843 
L 259.231809 301.933901 
L 260.390495 300.361459 
L 261.549181 299.357123 
L 262.707867 297.031321 
L 263.866553 298.958836 
L 265.025239 302.471792 
L 266.183925 302.804213 
L 267.342611 300.801065 
L 268.501297 301.526582 
L 269.659983 300.124524 
L 270.818669 299.264387 
L 271.977355 301.038357 
L 273.136041 302.150042 
L 274.294727 299.632596 
L 275.453413 301.225437 
L 276.612099 301.238311 
L 277.770785 301.402851 
L 278.929471 301.744618 
L 280.088157 301.161874 
L 281.246843 302.254691 
L 282.405529 298.79835 
L 283.564215 300.964714 
L 284.722901 302.094331 
L 285.881587 304.853864 
L 287.040273 302.080258 
L 288.198959 302.143307 
L 289.357645 301.794234 
L 291.675017 302.419571 
L 292.833703 303.790742 
L 293.992389 301.994075 
L 295.151075 302.557072 
L 296.309761 302.168488 
L 297.468447 302.665939 
L 298.627133 303.658224 
L 299.785819 304.139619 
L 300.944505 303.616849 
L 302.103191 303.969028 
L 303.261877 305.232581 
L 304.420563 304.606629 
L 304.420563 304.606629 
" clip-path="url(#pb21c8bcd5d)" style="fill: none; stroke: #1f77b4; stroke-width: 1.5; stroke-linecap: square"/>
   </g>
   <g id="line2d_15">
    <path d="M 73.842051 84.42591 
L 75.000737 112.111437 
L 76.159423 129.347751 
L 77.318109 152.887014 
L 78.476795 162.087538 
L 79.635481 180.726292 
L 80.794167 192.099507 
L 81.952853 208.775422 
L 83.111539 213.48103 
L 84.270225 223.704098 
L 85.428911 214.297752 
L 86.587597 231.965016 
L 87.746283 247.006458 
L 88.904969 244.128542 
L 90.063655 245.905908 
L 91.22234 244.070446 
L 92.381026 253.128089 
L 93.539712 255.452058 
L 94.698398 245.42772 
L 97.01577 263.408475 
L 98.174456 256.110021 
L 99.333142 265.083708 
L 100.491828 261.284364 
L 101.650514 270.140203 
L 102.8092 263.512063 
L 103.967886 264.849416 
L 106.285258 273.006683 
L 107.443944 262.984667 
L 108.60263 270.949243 
L 109.761316 267.977529 
L 110.920002 273.478023 
L 112.078688 272.857451 
L 113.237374 277.211457 
L 114.39606 273.322709 
L 115.554746 268.403182 
L 116.713432 278.897549 
L 117.872118 275.647438 
L 119.030804 278.534191 
L 120.18949 278.868489 
L 121.348176 278.612417 
L 122.506862 275.028924 
L 123.665548 279.729065 
L 124.824234 281.766772 
L 125.98292 285.75223 
L 127.141606 277.125857 
L 128.300292 284.990472 
L 129.458978 278.199549 
L 130.617664 272.879162 
L 131.77635 287.161456 
L 132.935036 283.660726 
L 134.093722 287.284408 
L 135.252408 285.992855 
L 136.411094 282.299416 
L 137.56978 260.261293 
L 138.728466 280.414456 
L 139.887152 290.522474 
L 141.045838 279.078899 
L 142.204524 280.035476 
L 143.36321 287.250056 
L 144.521896 275.134114 
L 145.680582 284.104061 
L 146.839268 289.895336 
L 147.997954 286.87444 
L 149.15664 288.396864 
L 150.315326 289.024749 
L 151.474012 283.901961 
L 152.632698 278.022317 
L 153.791384 286.546557 
L 154.95007 289.611917 
L 156.108756 284.222707 
L 157.267442 289.636628 
L 158.426128 289.048185 
L 159.584814 292.789565 
L 160.7435 287.383371 
L 161.902186 282.773154 
L 163.060872 293.008593 
L 164.219558 292.295284 
L 165.378244 290.454455 
L 166.53693 292.565033 
L 167.695616 295.143399 
L 168.854302 290.672711 
L 170.012988 293.276151 
L 171.171674 291.809037 
L 172.33036 288.206865 
L 173.489046 296.572986 
L 174.647732 295.647471 
L 175.806418 288.527455 
L 176.965104 291.543405 
L 178.12379 290.368409 
L 179.282476 296.44768 
L 180.441162 294.577282 
L 181.599848 298.678837 
L 182.758534 288.623367 
L 183.91722 288.989782 
L 185.075906 290.514007 
L 186.234592 294.773733 
L 187.393278 287.76692 
L 188.551964 298.626083 
L 189.71065 294.780863 
L 190.869336 294.565833 
L 192.028022 298.123642 
L 193.186708 297.015699 
L 194.345394 291.710262 
L 195.50408 290.357143 
L 196.662766 291.245286 
L 197.821452 296.765959 
L 198.980138 289.010915 
L 200.138824 288.569288 
L 201.29751 296.912147 
L 202.456196 298.478012 
L 203.614882 300.526797 
L 204.773568 296.341273 
L 205.932254 296.476069 
L 207.09094 293.757861 
L 208.249626 295.559838 
L 210.566998 295.92757 
L 211.725684 300.424181 
L 212.88437 297.460043 
L 214.043056 299.487049 
L 215.201742 297.814049 
L 216.360428 291.96533 
L 217.519114 292.899977 
L 218.6778 300.031743 
L 219.836486 294.825565 
L 220.995172 297.546171 
L 222.153858 299.904448 
L 223.312544 294.985706 
L 224.47123 293.504462 
L 225.629916 300.550259 
L 226.788602 283.15966 
L 227.947288 296.328149 
L 229.105974 297.045186 
L 230.26466 292.81877 
L 231.423346 294.270363 
L 232.582032 293.973625 
L 233.740718 299.18377 
L 236.058089 295.46702 
L 237.216775 301.531534 
L 238.375461 300.943801 
L 239.534147 300.79969 
L 240.692833 301.677358 
L 241.851519 297.028534 
L 243.010205 297.95536 
L 244.168891 300.983632 
L 245.327577 300.033181 
L 246.486263 298.114905 
L 247.644949 293.300473 
L 248.803635 299.124952 
L 249.962321 303.222353 
L 251.121007 303.213948 
L 252.279693 303.694729 
L 253.438379 301.792659 
L 254.597065 301.370678 
L 255.755751 306.535719 
L 256.914437 303.541856 
L 258.073123 299.845153 
L 259.231809 302.623547 
L 260.390495 305.703839 
L 261.549181 304.691501 
L 262.707867 302.049246 
L 263.866553 302.034471 
L 265.025239 307.8 
L 266.183925 307.330593 
L 267.342611 301.32263 
L 268.501297 298.675015 
L 269.659983 302.224708 
L 270.818669 298.503551 
L 271.977355 301.929871 
L 273.136041 299.113284 
L 274.294727 279.915242 
L 275.453413 303.931456 
L 276.612099 307.169285 
L 277.770785 305.933945 
L 278.929471 289.269021 
L 280.088157 301.191952 
L 281.246843 305.56733 
L 282.405529 303.274166 
L 283.564215 301.719179 
L 284.722901 304.770222 
L 285.881587 304.022768 
L 287.040273 305.072741 
L 288.198959 303.799805 
L 289.357645 299.042409 
L 290.516331 298.735647 
L 291.675017 306.293437 
L 292.833703 301.692434 
L 293.992389 298.89049 
L 295.151075 300.538465 
L 296.309761 301.453026 
L 297.468447 302.172066 
L 298.627133 304.357153 
L 299.785819 302.823808 
L 300.944505 306.127377 
L 302.103191 302.679679 
L 303.261877 300.346966 
L 304.420563 306.112113 
L 304.420563 306.112113 
" clip-path="url(#pb21c8bcd5d)" style="fill: none; stroke: #ff7f0e; stroke-width: 1.5; stroke-linecap: square"/>
   </g>
   <g id="line2d_16">
    <path d="M 265.025239 307.8 
" clip-path="url(#pb21c8bcd5d)" style="fill: none; stroke: #ff0000; stroke-width: 1.5; stroke-linecap: square"/>
    <defs>
     <path id="m0f917a6fed" d="M -3 3 
L 3 -3 
M -3 -3 
L 3 3 
" style="stroke: #ff0000"/>
    </defs>
    <g clip-path="url(#pb21c8bcd5d)">
     <use xlink:href="#m0f917a6fed" x="265.025239" y="307.8" style="fill: #ff0000; stroke: #ff0000"/>
    </g>
   </g>
   <g id="patch_3">
    <path d="M 62.313125 320.4 
L 62.313125 43.2 
" style="fill: none; stroke: #000000; stroke-width: 0.8; stroke-linejoin: miter; stroke-linecap: square"/>
   </g>
   <g id="patch_4">
    <path d="M 315.949489 320.4 
L 315.949489 43.2 
" style="fill: none; stroke: #000000; stroke-width: 0.8; stroke-linejoin: miter; stroke-linecap: square"/>
   </g>
   <g id="patch_5">
    <path d="M 62.313125 320.4 
L 315.949489 320.4 
" style="fill: none; stroke: #000000; stroke-width: 0.8; stroke-linejoin: miter; stroke-linecap: square"/>
   </g>
   <g id="patch_6">
    <path d="M 62.313125 43.2 
L 315.949489 43.2 
" style="fill: none; stroke: #000000; stroke-width: 0.8; stroke-linejoin: miter; stroke-linecap: square"/>
   </g>
   <g id="text_15">
    <!-- Best epoch: 165 with loss: 0.010 -->
    <g transform="translate(91.047244 37.2)scale(0.12 -0.12)">
     <defs>
      <path id="DejaVuSans-42" d="M 1259 2228 
L 1259 519 
L 2272 519 
Q 2781 519 3026 730 
Q 3272 941 3272 1375 
Q 3272 1813 3026 2020 
Q 2781 2228 2272 2228 
L 1259 2228 
z
M 1259 4147 
L 1259 2741 
L 2194 2741 
Q 2656 2741 2882 2914 
Q 3109 3088 3109 3444 
Q 3109 3797 2882 3972 
Q 2656 4147 2194 4147 
L 1259 4147 
z
M 628 4666 
L 2241 4666 
Q 2963 4666 3353 4366 
Q 3744 4066 3744 3513 
Q 3744 3084 3544 2831 
Q 3344 2578 2956 2516 
Q 3422 2416 3680 2098 
Q 3938 1781 3938 1306 
Q 3938 681 3513 340 
Q 3088 0 2303 0 
L 628 0 
L 628 4666 
z
" transform="scale(0.015625)"/>
      <path id="DejaVuSans-65" d="M 3597 1894 
L 3597 1613 
L 953 1613 
Q 991 1019 1311 708 
Q 1631 397 2203 397 
Q 2534 397 2845 478 
Q 3156 559 3463 722 
L 3463 178 
Q 3153 47 2828 -22 
Q 2503 -91 2169 -91 
Q 1331 -91 842 396 
Q 353 884 353 1716 
Q 353 2575 817 3079 
Q 1281 3584 2069 3584 
Q 2775 3584 3186 3129 
Q 3597 2675 3597 1894 
z
M 3022 2063 
Q 3016 2534 2758 2815 
Q 2500 3097 2075 3097 
Q 1594 3097 1305 2825 
Q 1016 2553 972 2059 
L 3022 2063 
z
" transform="scale(0.015625)"/>
      <path id="DejaVuSans-74" d="M 1172 4494 
L 1172 3500 
L 2356 3500 
L 2356 3053 
L 1172 3053 
L 1172 1153 
Q 1172 725 1289 603 
Q 1406 481 1766 481 
L 2356 481 
L 2356 0 
L 1766 0 
Q 1100 0 847 248 
Q 594 497 594 1153 
L 594 3053 
L 172 3053 
L 172 3500 
L 594 3500 
L 594 4494 
L 1172 4494 
z
" transform="scale(0.015625)"/>
      <path id="DejaVuSans-20" transform="scale(0.015625)"/>
      <path id="DejaVuSans-70" d="M 1159 525 
L 1159 -1331 
L 581 -1331 
L 581 3500 
L 1159 3500 
L 1159 2969 
Q 1341 3281 1617 3432 
Q 1894 3584 2278 3584 
Q 2916 3584 3314 3078 
Q 3713 2572 3713 1747 
Q 3713 922 3314 415 
Q 2916 -91 2278 -91 
Q 1894 -91 1617 61 
Q 1341 213 1159 525 
z
M 3116 1747 
Q 3116 2381 2855 2742 
Q 2594 3103 2138 3103 
Q 1681 3103 1420 2742 
Q 1159 2381 1159 1747 
Q 1159 1113 1420 752 
Q 1681 391 2138 391 
Q 2594 391 2855 752 
Q 3116 1113 3116 1747 
z
" transform="scale(0.015625)"/>
      <path id="DejaVuSans-63" d="M 3122 3366 
L 3122 2828 
Q 2878 2963 2633 3030 
Q 2388 3097 2138 3097 
Q 1578 3097 1268 2742 
Q 959 2388 959 1747 
Q 959 1106 1268 751 
Q 1578 397 2138 397 
Q 2388 397 2633 464 
Q 2878 531 3122 666 
L 3122 134 
Q 2881 22 2623 -34 
Q 2366 -91 2075 -91 
Q 1284 -91 818 406 
Q 353 903 353 1747 
Q 353 2603 823 3093 
Q 1294 3584 2113 3584 
Q 2378 3584 2631 3529 
Q 2884 3475 3122 3366 
z
" transform="scale(0.015625)"/>
      <path id="DejaVuSans-68" d="M 3513 2113 
L 3513 0 
L 2938 0 
L 2938 2094 
Q 2938 2591 2744 2837 
Q 2550 3084 2163 3084 
Q 1697 3084 1428 2787 
Q 1159 2491 1159 1978 
L 1159 0 
L 581 0 
L 581 4863 
L 1159 4863 
L 1159 2956 
Q 1366 3272 1645 3428 
Q 1925 3584 2291 3584 
Q 2894 3584 3203 3211 
Q 3513 2838 3513 2113 
z
" transform="scale(0.015625)"/>
      <path id="DejaVuSans-3a" d="M 750 794 
L 1409 794 
L 1409 0 
L 750 0 
L 750 794 
z
M 750 3309 
L 1409 3309 
L 1409 2516 
L 750 2516 
L 750 3309 
z
" transform="scale(0.015625)"/>
      <path id="DejaVuSans-36" d="M 2113 2584 
Q 1688 2584 1439 2293 
Q 1191 2003 1191 1497 
Q 1191 994 1439 701 
Q 1688 409 2113 409 
Q 2538 409 2786 701 
Q 3034 994 3034 1497 
Q 3034 2003 2786 2293 
Q 2538 2584 2113 2584 
z
M 3366 4563 
L 3366 3988 
Q 3128 4100 2886 4159 
Q 2644 4219 2406 4219 
Q 1781 4219 1451 3797 
Q 1122 3375 1075 2522 
Q 1259 2794 1537 2939 
Q 1816 3084 2150 3084 
Q 2853 3084 3261 2657 
Q 3669 2231 3669 1497 
Q 3669 778 3244 343 
Q 2819 -91 2113 -91 
Q 1303 -91 875 529 
Q 447 1150 447 2328 
Q 447 3434 972 4092 
Q 1497 4750 2381 4750 
Q 2619 4750 2861 4703 
Q 3103 4656 3366 4563 
z
" transform="scale(0.015625)"/>
      <path id="DejaVuSans-77" d="M 269 3500 
L 844 3500 
L 1563 769 
L 2278 3500 
L 2956 3500 
L 3675 769 
L 4391 3500 
L 4966 3500 
L 4050 0 
L 3372 0 
L 2619 2869 
L 1863 0 
L 1184 0 
L 269 3500 
z
" transform="scale(0.015625)"/>
      <path id="DejaVuSans-69" d="M 603 3500 
L 1178 3500 
L 1178 0 
L 603 0 
L 603 3500 
z
M 603 4863 
L 1178 4863 
L 1178 4134 
L 603 4134 
L 603 4863 
z
" transform="scale(0.015625)"/>
      <path id="DejaVuSans-6c" d="M 603 4863 
L 1178 4863 
L 1178 0 
L 603 0 
L 603 4863 
z
" transform="scale(0.015625)"/>
     </defs>
     <use xlink:href="#DejaVuSans-42"/>
     <use xlink:href="#DejaVuSans-65" x="68.603516"/>
     <use xlink:href="#DejaVuSans-73" x="130.126953"/>
     <use xlink:href="#DejaVuSans-74" x="182.226562"/>
     <use xlink:href="#DejaVuSans-20" x="221.435547"/>
     <use xlink:href="#DejaVuSans-65" x="253.222656"/>
     <use xlink:href="#DejaVuSans-70" x="314.746094"/>
     <use xlink:href="#DejaVuSans-6f" x="378.222656"/>
     <use xlink:href="#DejaVuSans-63" x="439.404297"/>
     <use xlink:href="#DejaVuSans-68" x="494.384766"/>
     <use xlink:href="#DejaVuSans-3a" x="557.763672"/>
     <use xlink:href="#DejaVuSans-20" x="591.455078"/>
     <use xlink:href="#DejaVuSans-31" x="623.242188"/>
     <use xlink:href="#DejaVuSans-36" x="686.865234"/>
     <use xlink:href="#DejaVuSans-35" x="750.488281"/>
     <use xlink:href="#DejaVuSans-20" x="814.111328"/>
     <use xlink:href="#DejaVuSans-77" x="845.898438"/>
     <use xlink:href="#DejaVuSans-69" x="927.685547"/>
     <use xlink:href="#DejaVuSans-74" x="955.46875"/>
     <use xlink:href="#DejaVuSans-68" x="994.677734"/>
     <use xlink:href="#DejaVuSans-20" x="1058.056641"/>
     <use xlink:href="#DejaVuSans-6c" x="1089.84375"/>
     <use xlink:href="#DejaVuSans-6f" x="1117.626953"/>
     <use xlink:href="#DejaVuSans-73" x="1178.808594"/>
     <use xlink:href="#DejaVuSans-73" x="1230.908203"/>
     <use xlink:href="#DejaVuSans-3a" x="1283.007812"/>
     <use xlink:href="#DejaVuSans-20" x="1316.699219"/>
     <use xlink:href="#DejaVuSans-30" x="1348.486328"/>
     <use xlink:href="#DejaVuSans-2e" x="1412.109375"/>
     <use xlink:href="#DejaVuSans-30" x="1443.896484"/>
     <use xlink:href="#DejaVuSans-31" x="1507.519531"/>
     <use xlink:href="#DejaVuSans-30" x="1571.142578"/>
    </g>
   </g>
   <g id="legend_1">
    <g id="patch_7">
     <path d="M 202.455739 95.234375 
L 308.949489 95.234375 
Q 310.949489 95.234375 310.949489 93.234375 
L 310.949489 50.2 
Q 310.949489 48.2 308.949489 48.2 
L 202.455739 48.2 
Q 200.455739 48.2 200.455739 50.2 
L 200.455739 93.234375 
Q 200.455739 95.234375 202.455739 95.234375 
z
" style="fill: #ffffff; opacity: 0.8; stroke: #cccccc; stroke-linejoin: miter"/>
    </g>
    <g id="line2d_17">
     <path d="M 204.455739 56.298437 
L 214.455739 56.298437 
L 224.455739 56.298437 
" style="fill: none; stroke: #1f77b4; stroke-width: 1.5; stroke-linecap: square"/>
    </g>
    <g id="text_16">
     <!-- Training Loss -->
     <g transform="translate(232.455739 59.798437)scale(0.1 -0.1)">
      <defs>
       <path id="DejaVuSans-54" d="M -19 4666 
L 3928 4666 
L 3928 4134 
L 2272 4134 
L 2272 0 
L 1638 0 
L 1638 4134 
L -19 4134 
L -19 4666 
z
" transform="scale(0.015625)"/>
       <path id="DejaVuSans-72" d="M 2631 2963 
Q 2534 3019 2420 3045 
Q 2306 3072 2169 3072 
Q 1681 3072 1420 2755 
Q 1159 2438 1159 1844 
L 1159 0 
L 581 0 
L 581 3500 
L 1159 3500 
L 1159 2956 
Q 1341 3275 1631 3429 
Q 1922 3584 2338 3584 
Q 2397 3584 2469 3576 
Q 2541 3569 2628 3553 
L 2631 2963 
z
" transform="scale(0.015625)"/>
       <path id="DejaVuSans-61" d="M 2194 1759 
Q 1497 1759 1228 1600 
Q 959 1441 959 1056 
Q 959 750 1161 570 
Q 1363 391 1709 391 
Q 2188 391 2477 730 
Q 2766 1069 2766 1631 
L 2766 1759 
L 2194 1759 
z
M 3341 1997 
L 3341 0 
L 2766 0 
L 2766 531 
Q 2569 213 2275 61 
Q 1981 -91 1556 -91 
Q 1019 -91 701 211 
Q 384 513 384 1019 
Q 384 1609 779 1909 
Q 1175 2209 1959 2209 
L 2766 2209 
L 2766 2266 
Q 2766 2663 2505 2880 
Q 2244 3097 1772 3097 
Q 1472 3097 1187 3025 
Q 903 2953 641 2809 
L 641 3341 
Q 956 3463 1253 3523 
Q 1550 3584 1831 3584 
Q 2591 3584 2966 3190 
Q 3341 2797 3341 1997 
z
" transform="scale(0.015625)"/>
       <path id="DejaVuSans-6e" d="M 3513 2113 
L 3513 0 
L 2938 0 
L 2938 2094 
Q 2938 2591 2744 2837 
Q 2550 3084 2163 3084 
Q 1697 3084 1428 2787 
Q 1159 2491 1159 1978 
L 1159 0 
L 581 0 
L 581 3500 
L 1159 3500 
L 1159 2956 
Q 1366 3272 1645 3428 
Q 1925 3584 2291 3584 
Q 2894 3584 3203 3211 
Q 3513 2838 3513 2113 
z
" transform="scale(0.015625)"/>
       <path id="DejaVuSans-67" d="M 2906 1791 
Q 2906 2416 2648 2759 
Q 2391 3103 1925 3103 
Q 1463 3103 1205 2759 
Q 947 2416 947 1791 
Q 947 1169 1205 825 
Q 1463 481 1925 481 
Q 2391 481 2648 825 
Q 2906 1169 2906 1791 
z
M 3481 434 
Q 3481 -459 3084 -895 
Q 2688 -1331 1869 -1331 
Q 1566 -1331 1297 -1286 
Q 1028 -1241 775 -1147 
L 775 -588 
Q 1028 -725 1275 -790 
Q 1522 -856 1778 -856 
Q 2344 -856 2625 -561 
Q 2906 -266 2906 331 
L 2906 616 
Q 2728 306 2450 153 
Q 2172 0 1784 0 
Q 1141 0 747 490 
Q 353 981 353 1791 
Q 353 2603 747 3093 
Q 1141 3584 1784 3584 
Q 2172 3584 2450 3431 
Q 2728 3278 2906 2969 
L 2906 3500 
L 3481 3500 
L 3481 434 
z
" transform="scale(0.015625)"/>
      </defs>
      <use xlink:href="#DejaVuSans-54"/>
      <use xlink:href="#DejaVuSans-72" x="46.333984"/>
      <use xlink:href="#DejaVuSans-61" x="87.447266"/>
      <use xlink:href="#DejaVuSans-69" x="148.726562"/>
      <use xlink:href="#DejaVuSans-6e" x="176.509766"/>
      <use xlink:href="#DejaVuSans-69" x="239.888672"/>
      <use xlink:href="#DejaVuSans-6e" x="267.671875"/>
      <use xlink:href="#DejaVuSans-67" x="331.050781"/>
      <use xlink:href="#DejaVuSans-20" x="394.527344"/>
      <use xlink:href="#DejaVuSans-4c" x="426.314453"/>
      <use xlink:href="#DejaVuSans-6f" x="480.277344"/>
      <use xlink:href="#DejaVuSans-73" x="541.458984"/>
      <use xlink:href="#DejaVuSans-73" x="593.558594"/>
     </g>
    </g>
    <g id="line2d_18">
     <path d="M 204.455739 70.976562 
L 214.455739 70.976562 
L 224.455739 70.976562 
" style="fill: none; stroke: #ff7f0e; stroke-width: 1.5; stroke-linecap: square"/>
    </g>
    <g id="text_17">
     <!-- Validation Loss -->
     <g transform="translate(232.455739 74.476562)scale(0.1 -0.1)">
      <defs>
       <path id="DejaVuSans-56" d="M 1831 0 
L 50 4666 
L 709 4666 
L 2188 738 
L 3669 4666 
L 4325 4666 
L 2547 0 
L 1831 0 
z
" transform="scale(0.015625)"/>
       <path id="DejaVuSans-64" d="M 2906 2969 
L 2906 4863 
L 3481 4863 
L 3481 0 
L 2906 0 
L 2906 525 
Q 2725 213 2448 61 
Q 2172 -91 1784 -91 
Q 1150 -91 751 415 
Q 353 922 353 1747 
Q 353 2572 751 3078 
Q 1150 3584 1784 3584 
Q 2172 3584 2448 3432 
Q 2725 3281 2906 2969 
z
M 947 1747 
Q 947 1113 1208 752 
Q 1469 391 1925 391 
Q 2381 391 2643 752 
Q 2906 1113 2906 1747 
Q 2906 2381 2643 2742 
Q 2381 3103 1925 3103 
Q 1469 3103 1208 2742 
Q 947 2381 947 1747 
z
" transform="scale(0.015625)"/>
      </defs>
      <use xlink:href="#DejaVuSans-56"/>
      <use xlink:href="#DejaVuSans-61" x="60.658203"/>
      <use xlink:href="#DejaVuSans-6c" x="121.9375"/>
      <use xlink:href="#DejaVuSans-69" x="149.720703"/>
      <use xlink:href="#DejaVuSans-64" x="177.503906"/>
      <use xlink:href="#DejaVuSans-61" x="240.980469"/>
      <use xlink:href="#DejaVuSans-74" x="302.259766"/>
      <use xlink:href="#DejaVuSans-69" x="341.46875"/>
      <use xlink:href="#DejaVuSans-6f" x="369.251953"/>
      <use xlink:href="#DejaVuSans-6e" x="430.433594"/>
      <use xlink:href="#DejaVuSans-20" x="493.8125"/>
      <use xlink:href="#DejaVuSans-4c" x="525.599609"/>
      <use xlink:href="#DejaVuSans-6f" x="579.5625"/>
      <use xlink:href="#DejaVuSans-73" x="640.744141"/>
      <use xlink:href="#DejaVuSans-73" x="692.84375"/>
     </g>
    </g>
    <g id="line2d_19">
     <path d="M 204.455739 85.654687 
L 214.455739 85.654687 
L 224.455739 85.654687 
" style="fill: none; stroke: #ff0000; stroke-width: 1.5; stroke-linecap: square"/>
     <g>
      <use xlink:href="#m0f917a6fed" x="214.455739" y="85.654687" style="fill: #ff0000; stroke: #ff0000"/>
     </g>
    </g>
    <g id="text_18">
     <!-- best model -->
     <g transform="translate(232.455739 89.154687)scale(0.1 -0.1)">
      <defs>
       <path id="DejaVuSans-62" d="M 3116 1747 
Q 3116 2381 2855 2742 
Q 2594 3103 2138 3103 
Q 1681 3103 1420 2742 
Q 1159 2381 1159 1747 
Q 1159 1113 1420 752 
Q 1681 391 2138 391 
Q 2594 391 2855 752 
Q 3116 1113 3116 1747 
z
M 1159 2969 
Q 1341 3281 1617 3432 
Q 1894 3584 2278 3584 
Q 2916 3584 3314 3078 
Q 3713 2572 3713 1747 
Q 3713 922 3314 415 
Q 2916 -91 2278 -91 
Q 1894 -91 1617 61 
Q 1341 213 1159 525 
L 1159 0 
L 581 0 
L 581 4863 
L 1159 4863 
L 1159 2969 
z
" transform="scale(0.015625)"/>
       <path id="DejaVuSans-6d" d="M 3328 2828 
Q 3544 3216 3844 3400 
Q 4144 3584 4550 3584 
Q 5097 3584 5394 3201 
Q 5691 2819 5691 2113 
L 5691 0 
L 5113 0 
L 5113 2094 
Q 5113 2597 4934 2840 
Q 4756 3084 4391 3084 
Q 3944 3084 3684 2787 
Q 3425 2491 3425 1978 
L 3425 0 
L 2847 0 
L 2847 2094 
Q 2847 2600 2669 2842 
Q 2491 3084 2119 3084 
Q 1678 3084 1418 2786 
Q 1159 2488 1159 1978 
L 1159 0 
L 581 0 
L 581 3500 
L 1159 3500 
L 1159 2956 
Q 1356 3278 1631 3431 
Q 1906 3584 2284 3584 
Q 2666 3584 2933 3390 
Q 3200 3197 3328 2828 
z
" transform="scale(0.015625)"/>
      </defs>
      <use xlink:href="#DejaVuSans-62"/>
      <use xlink:href="#DejaVuSans-65" x="63.476562"/>
      <use xlink:href="#DejaVuSans-73" x="125"/>
      <use xlink:href="#DejaVuSans-74" x="177.099609"/>
      <use xlink:href="#DejaVuSans-20" x="216.308594"/>
      <use xlink:href="#DejaVuSans-6d" x="248.095703"/>
      <use xlink:href="#DejaVuSans-6f" x="345.507812"/>
      <use xlink:href="#DejaVuSans-64" x="406.689453"/>
      <use xlink:href="#DejaVuSans-65" x="470.166016"/>
      <use xlink:href="#DejaVuSans-6c" x="531.689453"/>
     </g>
    </g>
   </g>
  </g>
  <g id="axes_2">
   <g id="patch_8">
    <path d="M 366.676761 320.4 
L 620.313125 320.4 
L 620.313125 43.2 
L 366.676761 43.2 
z
" style="fill: #ffffff"/>
   </g>
   <g id="matplotlib.axis_3">
    <g id="xtick_6">
     <g id="line2d_20">
      <g>
       <use xlink:href="#m77416f4a60" x="378.205687" y="320.4" style="stroke: #000000; stroke-width: 0.8"/>
      </g>
     </g>
     <g id="text_19">
      <!-- 0 -->
      <g transform="translate(375.024437 334.998437)scale(0.1 -0.1)">
       <use xlink:href="#DejaVuSans-30"/>
      </g>
     </g>
    </g>
    <g id="xtick_7">
     <g id="line2d_21">
      <g>
       <use xlink:href="#m77416f4a60" x="436.139987" y="320.4" style="stroke: #000000; stroke-width: 0.8"/>
      </g>
     </g>
     <g id="text_20">
      <!-- 50 -->
      <g transform="translate(429.777487 334.998437)scale(0.1 -0.1)">
       <use xlink:href="#DejaVuSans-35"/>
       <use xlink:href="#DejaVuSans-30" x="63.623047"/>
      </g>
     </g>
    </g>
    <g id="xtick_8">
     <g id="line2d_22">
      <g>
       <use xlink:href="#m77416f4a60" x="494.074286" y="320.4" style="stroke: #000000; stroke-width: 0.8"/>
      </g>
     </g>
     <g id="text_21">
      <!-- 100 -->
      <g transform="translate(484.530536 334.998437)scale(0.1 -0.1)">
       <use xlink:href="#DejaVuSans-31"/>
       <use xlink:href="#DejaVuSans-30" x="63.623047"/>
       <use xlink:href="#DejaVuSans-30" x="127.246094"/>
      </g>
     </g>
    </g>
    <g id="xtick_9">
     <g id="line2d_23">
      <g>
       <use xlink:href="#m77416f4a60" x="552.008586" y="320.4" style="stroke: #000000; stroke-width: 0.8"/>
      </g>
     </g>
     <g id="text_22">
      <!-- 150 -->
      <g transform="translate(542.464836 334.998437)scale(0.1 -0.1)">
       <use xlink:href="#DejaVuSans-31"/>
       <use xlink:href="#DejaVuSans-35" x="63.623047"/>
       <use xlink:href="#DejaVuSans-30" x="127.246094"/>
      </g>
     </g>
    </g>
    <g id="xtick_10">
     <g id="line2d_24">
      <g>
       <use xlink:href="#m77416f4a60" x="609.942885" y="320.4" style="stroke: #000000; stroke-width: 0.8"/>
      </g>
     </g>
     <g id="text_23">
      <!-- 200 -->
      <g transform="translate(600.399135 334.998437)scale(0.1 -0.1)">
       <use xlink:href="#DejaVuSans-32"/>
       <use xlink:href="#DejaVuSans-30" x="63.623047"/>
       <use xlink:href="#DejaVuSans-30" x="127.246094"/>
      </g>
     </g>
    </g>
   </g>
   <g id="matplotlib.axis_4">
    <g id="ytick_9">
     <g id="line2d_25">
      <g>
       <use xlink:href="#mffb29371a8" x="366.676761" y="294.089614" style="stroke: #000000; stroke-width: 0.8"/>
      </g>
     </g>
     <g id="text_24">
      <!-- 0.2 -->
      <g transform="translate(343.773636 297.888833)scale(0.1 -0.1)">
       <use xlink:href="#DejaVuSans-30"/>
       <use xlink:href="#DejaVuSans-2e" x="63.623047"/>
       <use xlink:href="#DejaVuSans-32" x="95.410156"/>
      </g>
     </g>
    </g>
    <g id="ytick_10">
     <g id="line2d_26">
      <g>
       <use xlink:href="#mffb29371a8" x="366.676761" y="258.506381" style="stroke: #000000; stroke-width: 0.8"/>
      </g>
     </g>
     <g id="text_25">
      <!-- 0.3 -->
      <g transform="translate(343.773636 262.3056)scale(0.1 -0.1)">
       <use xlink:href="#DejaVuSans-30"/>
       <use xlink:href="#DejaVuSans-2e" x="63.623047"/>
       <use xlink:href="#DejaVuSans-33" x="95.410156"/>
      </g>
     </g>
    </g>
    <g id="ytick_11">
     <g id="line2d_27">
      <g>
       <use xlink:href="#mffb29371a8" x="366.676761" y="222.923148" style="stroke: #000000; stroke-width: 0.8"/>
      </g>
     </g>
     <g id="text_26">
      <!-- 0.4 -->
      <g transform="translate(343.773636 226.722366)scale(0.1 -0.1)">
       <use xlink:href="#DejaVuSans-30"/>
       <use xlink:href="#DejaVuSans-2e" x="63.623047"/>
       <use xlink:href="#DejaVuSans-34" x="95.410156"/>
      </g>
     </g>
    </g>
    <g id="ytick_12">
     <g id="line2d_28">
      <g>
       <use xlink:href="#mffb29371a8" x="366.676761" y="187.339914" style="stroke: #000000; stroke-width: 0.8"/>
      </g>
     </g>
     <g id="text_27">
      <!-- 0.5 -->
      <g transform="translate(343.773636 191.139133)scale(0.1 -0.1)">
       <use xlink:href="#DejaVuSans-30"/>
       <use xlink:href="#DejaVuSans-2e" x="63.623047"/>
       <use xlink:href="#DejaVuSans-35" x="95.410156"/>
      </g>
     </g>
    </g>
    <g id="ytick_13">
     <g id="line2d_29">
      <g>
       <use xlink:href="#mffb29371a8" x="366.676761" y="151.756681" style="stroke: #000000; stroke-width: 0.8"/>
      </g>
     </g>
     <g id="text_28">
      <!-- 0.6 -->
      <g transform="translate(343.773636 155.5559)scale(0.1 -0.1)">
       <use xlink:href="#DejaVuSans-30"/>
       <use xlink:href="#DejaVuSans-2e" x="63.623047"/>
       <use xlink:href="#DejaVuSans-36" x="95.410156"/>
      </g>
     </g>
    </g>
    <g id="ytick_14">
     <g id="line2d_30">
      <g>
       <use xlink:href="#mffb29371a8" x="366.676761" y="116.173448" style="stroke: #000000; stroke-width: 0.8"/>
      </g>
     </g>
     <g id="text_29">
      <!-- 0.7 -->
      <g transform="translate(343.773636 119.972666)scale(0.1 -0.1)">
       <defs>
        <path id="DejaVuSans-37" d="M 525 4666 
L 3525 4666 
L 3525 4397 
L 1831 0 
L 1172 0 
L 2766 4134 
L 525 4134 
L 525 4666 
z
" transform="scale(0.015625)"/>
       </defs>
       <use xlink:href="#DejaVuSans-30"/>
       <use xlink:href="#DejaVuSans-2e" x="63.623047"/>
       <use xlink:href="#DejaVuSans-37" x="95.410156"/>
      </g>
     </g>
    </g>
    <g id="ytick_15">
     <g id="line2d_31">
      <g>
       <use xlink:href="#mffb29371a8" x="366.676761" y="80.590214" style="stroke: #000000; stroke-width: 0.8"/>
      </g>
     </g>
     <g id="text_30">
      <!-- 0.8 -->
      <g transform="translate(343.773636 84.389433)scale(0.1 -0.1)">
       <defs>
        <path id="DejaVuSans-38" d="M 2034 2216 
Q 1584 2216 1326 1975 
Q 1069 1734 1069 1313 
Q 1069 891 1326 650 
Q 1584 409 2034 409 
Q 2484 409 2743 651 
Q 3003 894 3003 1313 
Q 3003 1734 2745 1975 
Q 2488 2216 2034 2216 
z
M 1403 2484 
Q 997 2584 770 2862 
Q 544 3141 544 3541 
Q 544 4100 942 4425 
Q 1341 4750 2034 4750 
Q 2731 4750 3128 4425 
Q 3525 4100 3525 3541 
Q 3525 3141 3298 2862 
Q 3072 2584 2669 2484 
Q 3125 2378 3379 2068 
Q 3634 1759 3634 1313 
Q 3634 634 3220 271 
Q 2806 -91 2034 -91 
Q 1263 -91 848 271 
Q 434 634 434 1313 
Q 434 1759 690 2068 
Q 947 2378 1403 2484 
z
M 1172 3481 
Q 1172 3119 1398 2916 
Q 1625 2713 2034 2713 
Q 2441 2713 2670 2916 
Q 2900 3119 2900 3481 
Q 2900 3844 2670 4047 
Q 2441 4250 2034 4250 
Q 1625 4250 1398 4047 
Q 1172 3844 1172 3481 
z
" transform="scale(0.015625)"/>
       </defs>
       <use xlink:href="#DejaVuSans-30"/>
       <use xlink:href="#DejaVuSans-2e" x="63.623047"/>
       <use xlink:href="#DejaVuSans-38" x="95.410156"/>
      </g>
     </g>
    </g>
    <g id="ytick_16">
     <g id="line2d_32">
      <g>
       <use xlink:href="#mffb29371a8" x="366.676761" y="45.006981" style="stroke: #000000; stroke-width: 0.8"/>
      </g>
     </g>
     <g id="text_31">
      <!-- 0.9 -->
      <g transform="translate(343.773636 48.8062)scale(0.1 -0.1)">
       <defs>
        <path id="DejaVuSans-39" d="M 703 97 
L 703 672 
Q 941 559 1184 500 
Q 1428 441 1663 441 
Q 2288 441 2617 861 
Q 2947 1281 2994 2138 
Q 2813 1869 2534 1725 
Q 2256 1581 1919 1581 
Q 1219 1581 811 2004 
Q 403 2428 403 3163 
Q 403 3881 828 4315 
Q 1253 4750 1959 4750 
Q 2769 4750 3195 4129 
Q 3622 3509 3622 2328 
Q 3622 1225 3098 567 
Q 2575 -91 1691 -91 
Q 1453 -91 1209 -44 
Q 966 3 703 97 
z
M 1959 2075 
Q 2384 2075 2632 2365 
Q 2881 2656 2881 3163 
Q 2881 3666 2632 3958 
Q 2384 4250 1959 4250 
Q 1534 4250 1286 3958 
Q 1038 3666 1038 3163 
Q 1038 2656 1286 2365 
Q 1534 2075 1959 2075 
z
" transform="scale(0.015625)"/>
       </defs>
       <use xlink:href="#DejaVuSans-30"/>
       <use xlink:href="#DejaVuSans-2e" x="63.623047"/>
       <use xlink:href="#DejaVuSans-39" x="95.410156"/>
      </g>
     </g>
    </g>
    <g id="text_32">
     <!-- Accuracy -->
     <g transform="translate(336.446136 218.325)rotate(-90)scale(0.16 -0.16)">
      <defs>
       <path id="DejaVuSans-41" d="M 2188 4044 
L 1331 1722 
L 3047 1722 
L 2188 4044 
z
M 1831 4666 
L 2547 4666 
L 4325 0 
L 3669 0 
L 3244 1197 
L 1141 1197 
L 716 0 
L 50 0 
L 1831 4666 
z
" transform="scale(0.015625)"/>
       <path id="DejaVuSans-75" d="M 544 1381 
L 544 3500 
L 1119 3500 
L 1119 1403 
Q 1119 906 1312 657 
Q 1506 409 1894 409 
Q 2359 409 2629 706 
Q 2900 1003 2900 1516 
L 2900 3500 
L 3475 3500 
L 3475 0 
L 2900 0 
L 2900 538 
Q 2691 219 2414 64 
Q 2138 -91 1772 -91 
Q 1169 -91 856 284 
Q 544 659 544 1381 
z
M 1991 3584 
L 1991 3584 
z
" transform="scale(0.015625)"/>
       <path id="DejaVuSans-79" d="M 2059 -325 
Q 1816 -950 1584 -1140 
Q 1353 -1331 966 -1331 
L 506 -1331 
L 506 -850 
L 844 -850 
Q 1081 -850 1212 -737 
Q 1344 -625 1503 -206 
L 1606 56 
L 191 3500 
L 800 3500 
L 1894 763 
L 2988 3500 
L 3597 3500 
L 2059 -325 
z
" transform="scale(0.015625)"/>
      </defs>
      <use xlink:href="#DejaVuSans-41"/>
      <use xlink:href="#DejaVuSans-63" x="66.658203"/>
      <use xlink:href="#DejaVuSans-63" x="121.638672"/>
      <use xlink:href="#DejaVuSans-75" x="176.619141"/>
      <use xlink:href="#DejaVuSans-72" x="239.998047"/>
      <use xlink:href="#DejaVuSans-61" x="281.111328"/>
      <use xlink:href="#DejaVuSans-63" x="342.390625"/>
      <use xlink:href="#DejaVuSans-79" x="397.371094"/>
     </g>
    </g>
   </g>
   <g id="line2d_33">
    <path d="M 378.205687 307.8 
L 379.364373 254.552684 
L 380.523059 226.600502 
L 381.681745 205.280329 
L 382.840431 190.294555 
L 385.157803 163.894096 
L 386.316489 154.711313 
L 389.792547 130.967907 
L 390.951233 128.353378 
L 392.109919 124.399675 
L 393.268605 123.379362 
L 394.427291 116.683598 
L 395.585977 114.154097 
L 396.744663 116.619822 
L 399.062035 110.965624 
L 400.220721 107.585865 
L 401.379407 105.927852 
L 402.538093 107.670893 
L 403.696779 103.82347 
L 404.855465 102.909457 
L 406.014151 101.166416 
L 407.172837 99.062033 
L 408.331523 96.447504 
L 409.490209 97.276489 
L 410.648895 97.680377 
L 411.807581 97.000154 
L 412.966267 95.894833 
L 414.124953 95.916085 
L 415.283639 94.23682 
L 416.442325 94.917044 
L 417.601011 91.771096 
L 418.759697 92.770137 
L 419.918383 91.048369 
L 421.077069 90.750782 
L 422.235755 90.665754 
L 423.394441 89.284077 
L 424.553127 88.943986 
L 425.711813 88.285036 
L 426.870499 89.624188 
L 428.029185 86.159401 
L 429.187871 86.095625 
L 430.346557 85.266619 
L 431.505243 82.8859 
L 432.663929 84.820248 
L 433.822615 85.989345 
L 434.981301 82.290726 
L 436.139987 84.373857 
L 437.298673 83.65113 
L 438.457359 81.057853 
L 439.616045 79.803728 
L 440.774731 84.161298 
L 441.933417 82.652089 
L 443.092103 83.459823 
L 444.250789 79.867505 
L 445.409475 81.589272 
L 446.568161 81.546748 
L 447.726847 82.163195 
L 448.885532 81.631776 
L 451.202904 79.82498 
L 452.36159 80.441427 
L 453.520276 79.187281 
L 454.678962 76.849088 
L 455.837648 78.400799 
L 456.996334 78.039436 
L 458.15502 78.528352 
L 459.313706 77.614318 
L 460.472392 75.765019 
L 462.789764 76.381445 
L 463.94845 75.765019 
L 465.107136 76.253913 
L 467.424508 75.722494 
L 468.583194 74.383341 
L 469.74188 73.703139 
L 470.900566 74.936012 
L 472.059252 72.555294 
L 473.217938 74.723453 
L 474.376624 71.705036 
L 475.53531 73.766915 
L 476.693996 72.852881 
L 477.852682 73.214245 
L 479.011368 71.662511 
L 481.32874 72.555294 
L 482.487426 72.874133 
L 483.646112 71.896344 
L 484.804798 70.472163 
L 485.963484 71.917595 
L 487.12217 71.088589 
L 488.280856 70.833526 
L 489.439542 70.174576 
L 490.598228 72.576546 
L 492.9156 70.302107 
L 494.074286 69.685681 
L 495.232972 71.279896 
L 496.391658 69.196787 
L 497.550344 68.197724 
L 498.70903 69.89824 
L 499.867716 68.707871 
L 502.185088 69.940744 
L 503.343774 68.36778 
L 504.50246 67.496271 
L 505.661146 69.664408 
L 506.819832 68.282752 
L 507.978518 69.749436 
L 509.137204 68.325256 
L 510.29589 69.069234 
L 511.454576 68.537836 
L 512.613262 67.007376 
L 513.771948 68.197724 
L 516.08932 66.773544 
L 517.248006 67.007376 
L 518.406692 65.009273 
L 519.565378 65.817006 
L 520.724064 67.581298 
L 521.88275 67.921389 
L 523.041436 65.731978 
L 524.200122 66.603488 
L 526.517494 64.520357 
L 527.67618 65.030524 
L 528.834866 64.988 
L 529.993552 67.70883 
L 531.152238 66.688516 
L 532.310924 66.773544 
L 533.46961 66.603488 
L 534.628296 65.370615 
L 535.786982 65.583195 
L 536.945668 67.049879 
L 538.104354 65.817006 
L 539.26304 64.244043 
L 540.421726 64.244043 
L 541.580412 64.520357 
L 542.739098 64.499105 
L 543.897784 66.51846 
L 545.05647 62.734834 
L 546.215156 63.308757 
L 547.373842 64.137742 
L 548.532528 63.882679 
L 549.691214 64.031462 
L 550.8499 66.752292 
L 552.008586 64.095238 
L 553.167272 66.794795 
L 554.325958 64.073987 
L 555.484644 62.415974 
L 556.64333 62.777337 
L 557.802016 62.777337 
L 558.960702 62.054632 
L 560.119388 63.24498 
L 561.278074 61.990856 
L 562.43676 62.819862 
L 563.595446 61.672017 
L 564.754132 62.862365 
L 565.912818 63.372512 
L 567.071504 64.966748 
L 568.23019 63.925183 
L 569.388876 61.289402 
L 570.547562 61.140598 
L 571.706248 62.798589 
L 572.864934 61.225626 
L 574.02362 62.607282 
L 575.182306 63.181204 
L 576.340992 62.564778 
L 577.499678 61.331905 
L 578.658364 63.266232 
L 579.81705 61.650744 
L 582.134422 61.884576 
L 583.293108 61.693269 
L 584.451794 61.884576 
L 585.61048 61.71452 
L 586.769166 63.563819 
L 587.927852 62.798589 
L 589.086538 61.629492 
L 590.245224 58.696103 
L 591.40391 61.480709 
L 592.562595 61.757024 
L 593.721281 61.629492 
L 594.879967 60.94929 
L 596.038653 60.460396 
L 597.197339 60.247836 
L 598.356025 61.098094 
L 600.673397 61.480709 
L 601.832083 61.438185 
L 602.990769 60.247836 
L 604.149455 59.737669 
L 605.308141 60.354116 
L 607.625513 58.844907 
L 608.784199 59.31255 
L 608.784199 59.31255 
" clip-path="url(#p82236b85bf)" style="fill: none; stroke: #1f77b4; stroke-width: 1.5; stroke-linecap: square"/>
   </g>
   <g id="line2d_34">
    <path d="M 378.205687 258.675022 
L 379.364373 221.068099 
L 380.523059 204.035366 
L 381.681745 182.449335 
L 382.840431 171.150377 
L 383.999117 156.478617 
L 385.157803 150.407551 
L 386.316489 130.845212 
L 388.633861 116.679378 
L 389.792547 130.170651 
L 390.951233 112.463337 
L 392.109919 99.477989 
L 393.268605 100.658475 
L 394.427291 104.031299 
L 395.585977 101.670327 
L 396.744663 94.250119 
L 397.903349 94.418775 
L 399.062035 106.055002 
L 400.220721 96.442456 
L 401.379407 88.010418 
L 402.538093 95.599261 
L 403.696779 88.347688 
L 404.855465 92.057802 
L 406.014151 81.770696 
L 407.172837 87.167202 
L 408.331523 90.37139 
L 409.490209 85.649446 
L 410.648895 81.433427 
L 411.807581 92.057802 
L 412.966267 82.613913 
L 414.124953 87.673127 
L 415.283639 81.433427 
L 416.442325 83.794399 
L 417.601011 78.735163 
L 418.759697 80.421575 
L 419.918383 86.998567 
L 421.077069 79.409724 
L 422.235755 81.096136 
L 423.394441 77.723312 
L 424.553127 78.566529 
L 425.711813 78.397872 
L 426.870499 81.770696 
L 428.029185 76.880117 
L 429.187871 76.880117 
L 430.346557 70.809051 
L 431.505243 83.119838 
L 432.663929 75.69963 
L 433.822615 76.205556 
L 434.981301 84.131669 
L 436.139987 73.338658 
L 437.298673 74.856414 
L 438.457359 72.158172 
L 439.616045 73.675928 
L 440.774731 78.735163 
L 441.933417 92.900998 
L 443.092103 77.891968 
L 444.250789 69.459909 
L 445.409475 78.060603 
L 446.568161 77.217386 
L 447.726847 73.001367 
L 448.885532 81.602061 
L 450.044218 73.001367 
L 451.202904 70.303125 
L 452.36159 71.146321 
L 453.520276 74.350509 
L 454.678962 70.47176 
L 455.837648 73.170023 
L 456.996334 80.927501 
L 458.15502 73.338658 
L 459.313706 70.977686 
L 460.472392 74.350509 
L 462.789764 70.809051 
L 463.94845 67.098936 
L 466.265822 76.205556 
L 467.424508 69.122639 
L 468.583194 70.977686 
L 469.74188 70.303125 
L 470.900566 72.158172 
L 472.059252 63.557478 
L 473.217938 69.797199 
L 474.376624 68.953983 
L 475.53531 68.785348 
L 476.693996 72.495442 
L 477.852682 65.749815 
L 479.011368 67.098936 
L 480.170054 72.664098 
L 481.32874 67.942153 
L 482.487426 69.797199 
L 483.646112 66.087106 
L 484.804798 66.593011 
L 485.963484 65.24389 
L 487.12217 71.314955 
L 488.280856 69.797199 
L 489.439542 71.314955 
L 490.598228 67.604862 
L 491.756914 72.832732 
L 492.9156 65.58118 
L 494.074286 66.087106 
L 495.232972 66.761667 
L 496.391658 65.075255 
L 497.550344 65.24389 
L 498.70903 70.303125 
L 499.867716 70.134469 
L 501.026402 70.134469 
L 502.185088 65.749815 
L 503.343774 72.495442 
L 504.50246 71.652246 
L 505.661146 64.569329 
L 506.819832 64.063403 
L 507.978518 63.051552 
L 509.137204 66.593011 
L 511.454576 67.604862 
L 512.613262 67.942153 
L 513.771948 66.087106 
L 514.930634 66.761667 
L 516.08932 62.208357 
L 517.248006 66.087106 
L 518.406692 63.726112 
L 519.565378 62.039722 
L 520.724064 69.965834 
L 521.88275 68.448078 
L 523.041436 61.702431 
L 524.200122 67.942153 
L 525.358808 66.593011 
L 526.517494 62.545626 
L 527.67618 67.267592 
L 528.834866 68.110788 
L 529.993552 63.894769 
L 531.152238 77.554677 
L 532.310924 65.075255 
L 533.46961 65.58118 
L 534.628296 69.797199 
L 535.786982 69.291274 
L 536.945668 70.640395 
L 538.104354 62.208357 
L 539.26304 66.087106 
L 540.421726 66.087106 
L 541.580412 63.388843 
L 542.739098 62.376991 
L 543.897784 61.196505 
L 545.05647 61.702431 
L 546.215156 63.894769 
L 547.373842 65.749815 
L 548.532528 62.039722 
L 549.691214 64.737964 
L 550.8499 63.557478 
L 552.008586 67.942153 
L 553.167272 62.208357 
L 554.325958 60.521945 
L 555.484644 59.510093 
L 556.64333 61.533796 
L 557.802016 61.02787 
L 558.960702 61.871066 
L 560.119388 57.655047 
L 561.278074 61.196505 
L 562.43676 64.232038 
L 563.595446 63.388843 
L 564.754132 57.823682 
L 565.912818 59.847384 
L 568.23019 61.196505 
L 569.388876 56.811851 
L 570.547562 57.823682 
L 571.706248 59.847384 
L 572.864934 63.557478 
L 574.02362 63.220208 
L 575.182306 64.232038 
L 576.340992 63.051552 
L 577.499678 63.557478 
L 578.658364 77.554677 
L 579.81705 59.678749 
L 580.975736 55.8 
L 582.134422 60.35331 
L 583.293108 70.134469 
L 584.451794 61.702431 
L 585.61048 58.835533 
L 586.769166 60.859236 
L 587.927852 61.02787 
L 589.086538 59.847384 
L 590.245224 60.35331 
L 591.40391 58.498263 
L 592.562595 60.69058 
L 593.721281 63.220208 
L 594.879967 64.906599 
L 596.038653 58.160972 
L 597.197339 62.039722 
L 598.356025 62.208357 
L 599.514711 64.569329 
L 600.673397 64.400694 
L 601.832083 61.36514 
L 602.990769 60.859236 
L 604.149455 58.666898 
L 605.308141 58.498263 
L 606.466827 62.039722 
L 607.625513 62.376991 
L 608.784199 59.172824 
L 608.784199 59.172824 
" clip-path="url(#p82236b85bf)" style="fill: none; stroke: #ff7f0e; stroke-width: 1.5; stroke-linecap: square"/>
   </g>
   <g id="line2d_35">
    <path d="M 580.975736 55.8 
" clip-path="url(#p82236b85bf)" style="fill: none; stroke: #ff0000; stroke-width: 1.5; stroke-linecap: square"/>
    <g clip-path="url(#p82236b85bf)">
     <use xlink:href="#m0f917a6fed" x="580.975736" y="55.8" style="fill: #ff0000; stroke: #ff0000"/>
    </g>
   </g>
   <g id="patch_9">
    <path d="M 366.676761 320.4 
L 366.676761 43.2 
" style="fill: none; stroke: #000000; stroke-width: 0.8; stroke-linejoin: miter; stroke-linecap: square"/>
   </g>
   <g id="patch_10">
    <path d="M 620.313125 320.4 
L 620.313125 43.2 
" style="fill: none; stroke: #000000; stroke-width: 0.8; stroke-linejoin: miter; stroke-linecap: square"/>
   </g>
   <g id="patch_11">
    <path d="M 366.676761 320.4 
L 620.313125 320.4 
" style="fill: none; stroke: #000000; stroke-width: 0.8; stroke-linejoin: miter; stroke-linecap: square"/>
   </g>
   <g id="patch_12">
    <path d="M 366.676761 43.2 
L 620.313125 43.2 
" style="fill: none; stroke: #000000; stroke-width: 0.8; stroke-linejoin: miter; stroke-linecap: square"/>
   </g>
   <g id="text_33">
    <!-- Best epoch: 175 with accuracy: 87.0% -->
    <g transform="translate(378.480568 37.2)scale(0.12 -0.12)">
     <defs>
      <path id="DejaVuSans-25" d="M 4653 2053 
Q 4381 2053 4226 1822 
Q 4072 1591 4072 1178 
Q 4072 772 4226 539 
Q 4381 306 4653 306 
Q 4919 306 5073 539 
Q 5228 772 5228 1178 
Q 5228 1588 5073 1820 
Q 4919 2053 4653 2053 
z
M 4653 2450 
Q 5147 2450 5437 2106 
Q 5728 1763 5728 1178 
Q 5728 594 5436 251 
Q 5144 -91 4653 -91 
Q 4153 -91 3862 251 
Q 3572 594 3572 1178 
Q 3572 1766 3864 2108 
Q 4156 2450 4653 2450 
z
M 1428 4353 
Q 1159 4353 1004 4120 
Q 850 3888 850 3481 
Q 850 3069 1003 2837 
Q 1156 2606 1428 2606 
Q 1700 2606 1854 2837 
Q 2009 3069 2009 3481 
Q 2009 3884 1853 4118 
Q 1697 4353 1428 4353 
z
M 4250 4750 
L 4750 4750 
L 1831 -91 
L 1331 -91 
L 4250 4750 
z
M 1428 4750 
Q 1922 4750 2215 4408 
Q 2509 4066 2509 3481 
Q 2509 2891 2217 2550 
Q 1925 2209 1428 2209 
Q 931 2209 642 2551 
Q 353 2894 353 3481 
Q 353 4063 643 4406 
Q 934 4750 1428 4750 
z
" transform="scale(0.015625)"/>
     </defs>
     <use xlink:href="#DejaVuSans-42"/>
     <use xlink:href="#DejaVuSans-65" x="68.603516"/>
     <use xlink:href="#DejaVuSans-73" x="130.126953"/>
     <use xlink:href="#DejaVuSans-74" x="182.226562"/>
     <use xlink:href="#DejaVuSans-20" x="221.435547"/>
     <use xlink:href="#DejaVuSans-65" x="253.222656"/>
     <use xlink:href="#DejaVuSans-70" x="314.746094"/>
     <use xlink:href="#DejaVuSans-6f" x="378.222656"/>
     <use xlink:href="#DejaVuSans-63" x="439.404297"/>
     <use xlink:href="#DejaVuSans-68" x="494.384766"/>
     <use xlink:href="#DejaVuSans-3a" x="557.763672"/>
     <use xlink:href="#DejaVuSans-20" x="591.455078"/>
     <use xlink:href="#DejaVuSans-31" x="623.242188"/>
     <use xlink:href="#DejaVuSans-37" x="686.865234"/>
     <use xlink:href="#DejaVuSans-35" x="750.488281"/>
     <use xlink:href="#DejaVuSans-20" x="814.111328"/>
     <use xlink:href="#DejaVuSans-77" x="845.898438"/>
     <use xlink:href="#DejaVuSans-69" x="927.685547"/>
     <use xlink:href="#DejaVuSans-74" x="955.46875"/>
     <use xlink:href="#DejaVuSans-68" x="994.677734"/>
     <use xlink:href="#DejaVuSans-20" x="1058.056641"/>
     <use xlink:href="#DejaVuSans-61" x="1089.84375"/>
     <use xlink:href="#DejaVuSans-63" x="1151.123047"/>
     <use xlink:href="#DejaVuSans-63" x="1206.103516"/>
     <use xlink:href="#DejaVuSans-75" x="1261.083984"/>
     <use xlink:href="#DejaVuSans-72" x="1324.462891"/>
     <use xlink:href="#DejaVuSans-61" x="1365.576172"/>
     <use xlink:href="#DejaVuSans-63" x="1426.855469"/>
     <use xlink:href="#DejaVuSans-79" x="1481.835938"/>
     <use xlink:href="#DejaVuSans-3a" x="1533.765625"/>
     <use xlink:href="#DejaVuSans-20" x="1567.457031"/>
     <use xlink:href="#DejaVuSans-38" x="1599.244141"/>
     <use xlink:href="#DejaVuSans-37" x="1662.867188"/>
     <use xlink:href="#DejaVuSans-2e" x="1726.490234"/>
     <use xlink:href="#DejaVuSans-30" x="1758.277344"/>
     <use xlink:href="#DejaVuSans-25" x="1821.900391"/>
    </g>
   </g>
   <g id="legend_2">
    <g id="patch_13">
     <path d="M 483.0975 315.4 
L 613.313125 315.4 
Q 615.313125 315.4 615.313125 313.4 
L 615.313125 270.365625 
Q 615.313125 268.365625 613.313125 268.365625 
L 483.0975 268.365625 
Q 481.0975 268.365625 481.0975 270.365625 
L 481.0975 313.4 
Q 481.0975 315.4 483.0975 315.4 
z
" style="fill: #ffffff; opacity: 0.8; stroke: #cccccc; stroke-linejoin: miter"/>
    </g>
    <g id="line2d_36">
     <path d="M 485.0975 276.464062 
L 495.0975 276.464062 
L 505.0975 276.464062 
" style="fill: none; stroke: #1f77b4; stroke-width: 1.5; stroke-linecap: square"/>
    </g>
    <g id="text_34">
     <!-- Training Accuracy -->
     <g transform="translate(513.0975 279.964062)scale(0.1 -0.1)">
      <use xlink:href="#DejaVuSans-54"/>
      <use xlink:href="#DejaVuSans-72" x="46.333984"/>
      <use xlink:href="#DejaVuSans-61" x="87.447266"/>
      <use xlink:href="#DejaVuSans-69" x="148.726562"/>
      <use xlink:href="#DejaVuSans-6e" x="176.509766"/>
      <use xlink:href="#DejaVuSans-69" x="239.888672"/>
      <use xlink:href="#DejaVuSans-6e" x="267.671875"/>
      <use xlink:href="#DejaVuSans-67" x="331.050781"/>
      <use xlink:href="#DejaVuSans-20" x="394.527344"/>
      <use xlink:href="#DejaVuSans-41" x="426.314453"/>
      <use xlink:href="#DejaVuSans-63" x="492.972656"/>
      <use xlink:href="#DejaVuSans-63" x="547.953125"/>
      <use xlink:href="#DejaVuSans-75" x="602.933594"/>
      <use xlink:href="#DejaVuSans-72" x="666.3125"/>
      <use xlink:href="#DejaVuSans-61" x="707.425781"/>
      <use xlink:href="#DejaVuSans-63" x="768.705078"/>
      <use xlink:href="#DejaVuSans-79" x="823.685547"/>
     </g>
    </g>
    <g id="line2d_37">
     <path d="M 485.0975 291.142187 
L 495.0975 291.142187 
L 505.0975 291.142187 
" style="fill: none; stroke: #ff7f0e; stroke-width: 1.5; stroke-linecap: square"/>
    </g>
    <g id="text_35">
     <!-- Validation Accuracy -->
     <g transform="translate(513.0975 294.642187)scale(0.1 -0.1)">
      <use xlink:href="#DejaVuSans-56"/>
      <use xlink:href="#DejaVuSans-61" x="60.658203"/>
      <use xlink:href="#DejaVuSans-6c" x="121.9375"/>
      <use xlink:href="#DejaVuSans-69" x="149.720703"/>
      <use xlink:href="#DejaVuSans-64" x="177.503906"/>
      <use xlink:href="#DejaVuSans-61" x="240.980469"/>
      <use xlink:href="#DejaVuSans-74" x="302.259766"/>
      <use xlink:href="#DejaVuSans-69" x="341.46875"/>
      <use xlink:href="#DejaVuSans-6f" x="369.251953"/>
      <use xlink:href="#DejaVuSans-6e" x="430.433594"/>
      <use xlink:href="#DejaVuSans-20" x="493.8125"/>
      <use xlink:href="#DejaVuSans-41" x="525.599609"/>
      <use xlink:href="#DejaVuSans-63" x="592.257812"/>
      <use xlink:href="#DejaVuSans-63" x="647.238281"/>
      <use xlink:href="#DejaVuSans-75" x="702.21875"/>
      <use xlink:href="#DejaVuSans-72" x="765.597656"/>
      <use xlink:href="#DejaVuSans-61" x="806.710938"/>
      <use xlink:href="#DejaVuSans-63" x="867.990234"/>
      <use xlink:href="#DejaVuSans-79" x="922.970703"/>
     </g>
    </g>
    <g id="line2d_38">
     <path d="M 485.0975 305.820312 
L 495.0975 305.820312 
L 505.0975 305.820312 
" style="fill: none; stroke: #ff0000; stroke-width: 1.5; stroke-linecap: square"/>
     <g>
      <use xlink:href="#m0f917a6fed" x="495.0975" y="305.820312" style="fill: #ff0000; stroke: #ff0000"/>
     </g>
    </g>
    <g id="text_36">
     <!-- best model -->
     <g transform="translate(513.0975 309.320312)scale(0.1 -0.1)">
      <use xlink:href="#DejaVuSans-62"/>
      <use xlink:href="#DejaVuSans-65" x="63.476562"/>
      <use xlink:href="#DejaVuSans-73" x="125"/>
      <use xlink:href="#DejaVuSans-74" x="177.099609"/>
      <use xlink:href="#DejaVuSans-20" x="216.308594"/>
      <use xlink:href="#DejaVuSans-6d" x="248.095703"/>
      <use xlink:href="#DejaVuSans-6f" x="345.507812"/>
      <use xlink:href="#DejaVuSans-64" x="406.689453"/>
      <use xlink:href="#DejaVuSans-65" x="470.166016"/>
      <use xlink:href="#DejaVuSans-6c" x="531.689453"/>
     </g>
    </g>
   </g>
  </g>
  <g id="text_37">
   <!-- Optimizer : Adam -->
   <g transform="translate(288.534219 14.798437)scale(0.1 -0.1)">
    <defs>
     <path id="DejaVuSans-4f" d="M 2522 4238 
Q 1834 4238 1429 3725 
Q 1025 3213 1025 2328 
Q 1025 1447 1429 934 
Q 1834 422 2522 422 
Q 3209 422 3611 934 
Q 4013 1447 4013 2328 
Q 4013 3213 3611 3725 
Q 3209 4238 2522 4238 
z
M 2522 4750 
Q 3503 4750 4090 4092 
Q 4678 3434 4678 2328 
Q 4678 1225 4090 567 
Q 3503 -91 2522 -91 
Q 1538 -91 948 565 
Q 359 1222 359 2328 
Q 359 3434 948 4092 
Q 1538 4750 2522 4750 
z
" transform="scale(0.015625)"/>
     <path id="DejaVuSans-7a" d="M 353 3500 
L 3084 3500 
L 3084 2975 
L 922 459 
L 3084 459 
L 3084 0 
L 275 0 
L 275 525 
L 2438 3041 
L 353 3041 
L 353 3500 
z
" transform="scale(0.015625)"/>
    </defs>
    <use xlink:href="#DejaVuSans-4f"/>
    <use xlink:href="#DejaVuSans-70" x="78.710938"/>
    <use xlink:href="#DejaVuSans-74" x="142.1875"/>
    <use xlink:href="#DejaVuSans-69" x="181.396484"/>
    <use xlink:href="#DejaVuSans-6d" x="209.179688"/>
    <use xlink:href="#DejaVuSans-69" x="306.591797"/>
    <use xlink:href="#DejaVuSans-7a" x="334.375"/>
    <use xlink:href="#DejaVuSans-65" x="386.865234"/>
    <use xlink:href="#DejaVuSans-72" x="448.388672"/>
    <use xlink:href="#DejaVuSans-20" x="489.501953"/>
    <use xlink:href="#DejaVuSans-3a" x="521.289062"/>
    <use xlink:href="#DejaVuSans-20" x="554.980469"/>
    <use xlink:href="#DejaVuSans-41" x="586.767578"/>
    <use xlink:href="#DejaVuSans-64" x="653.425781"/>
    <use xlink:href="#DejaVuSans-61" x="716.902344"/>
    <use xlink:href="#DejaVuSans-6d" x="778.181641"/>
   </g>
  </g>
 </g>
 <defs>
  <clipPath id="pb21c8bcd5d">
   <rect x="62.313125" y="43.2" width="253.636364" height="277.2"/>
  </clipPath>
  <clipPath id="p82236b85bf">
   <rect x="366.676761" y="43.2" width="253.636364" height="277.2"/>
  </clipPath>
 </defs>
</svg>
