<?xml version="1.0" encoding="utf-8" standalone="no"?>
<!DOCTYPE svg PUBLIC "-//W3C//DTD SVG 1.1//EN"
  "http://www.w3.org/Graphics/SVG/1.1/DTD/svg11.dtd">
<svg xmlns:xlink="http://www.w3.org/1999/xlink" width="864pt" height="360pt" viewBox="0 0 864 360" xmlns="http://www.w3.org/2000/svg" version="1.1">
 <metadata>
  <rdf:RDF xmlns:dc="http://purl.org/dc/elements/1.1/" xmlns:cc="http://creativecommons.org/ns#" xmlns:rdf="http://www.w3.org/1999/02/22-rdf-syntax-ns#">
   <cc:Work>
    <dc:type rdf:resource="http://purl.org/dc/dcmitype/StillImage"/>
    <dc:date>2022-10-04T04:47:52.993756</dc:date>
    <dc:format>image/svg+xml</dc:format>
    <dc:creator>
     <cc:Agent>
      <dc:title>Matplotlib v3.5.3, https://matplotlib.org/</dc:title>
     </cc:Agent>
    </dc:creator>
   </cc:Work>
  </rdf:RDF>
 </metadata>
 <defs>
  <style type="text/css">*{stroke-linejoin: round; stroke-linecap: butt}</style>
 </defs>
 <g id="figure_1">
  <g id="patch_1">
   <path d="M 0 360 
L 864 360 
L 864 0 
L 0 0 
z
" style="fill: #ffffff"/>
  </g>
  <g id="axes_1">
   <g id="patch_2">
    <path d="M 108 320.4 
L 412.363636 320.4 
L 412.363636 43.2 
L 108 43.2 
z
" style="fill: #ffffff"/>
   </g>
   <g id="matplotlib.axis_1">
    <g id="xtick_1">
     <g id="line2d_1">
      <defs>
       <path id="m4e794f1fb1" d="M 0 0 
L 0 3.5 
" style="stroke: #000000; stroke-width: 0.8"/>
      </defs>
      <g>
       <use xlink:href="#m4e794f1fb1" x="121.834711" y="320.4" style="stroke: #000000; stroke-width: 0.8"/>
      </g>
     </g>
     <g id="text_1">
      <!-- 0 -->
      <g transform="translate(118.653461 334.998438)scale(0.1 -0.1)">
       <defs>
        <path id="DejaVuSans-30" d="M 2034 4250 
Q 1547 4250 1301 3770 
Q 1056 3291 1056 2328 
Q 1056 1369 1301 889 
Q 1547 409 2034 409 
Q 2525 409 2770 889 
Q 3016 1369 3016 2328 
Q 3016 3291 2770 3770 
Q 2525 4250 2034 4250 
z
M 2034 4750 
Q 2819 4750 3233 4129 
Q 3647 3509 3647 2328 
Q 3647 1150 3233 529 
Q 2819 -91 2034 -91 
Q 1250 -91 836 529 
Q 422 1150 422 2328 
Q 422 3509 836 4129 
Q 1250 4750 2034 4750 
z
" transform="scale(0.015625)"/>
       </defs>
       <use xlink:href="#DejaVuSans-30"/>
      </g>
     </g>
    </g>
    <g id="xtick_2">
     <g id="line2d_2">
      <g>
       <use xlink:href="#m4e794f1fb1" x="178.073372" y="320.4" style="stroke: #000000; stroke-width: 0.8"/>
      </g>
     </g>
     <g id="text_2">
      <!-- 100 -->
      <g transform="translate(168.529622 334.998438)scale(0.1 -0.1)">
       <defs>
        <path id="DejaVuSans-31" d="M 794 531 
L 1825 531 
L 1825 4091 
L 703 3866 
L 703 4441 
L 1819 4666 
L 2450 4666 
L 2450 531 
L 3481 531 
L 3481 0 
L 794 0 
L 794 531 
z
" transform="scale(0.015625)"/>
       </defs>
       <use xlink:href="#DejaVuSans-31"/>
       <use xlink:href="#DejaVuSans-30" x="63.623047"/>
       <use xlink:href="#DejaVuSans-30" x="127.246094"/>
      </g>
     </g>
    </g>
    <g id="xtick_3">
     <g id="line2d_3">
      <g>
       <use xlink:href="#m4e794f1fb1" x="234.312034" y="320.4" style="stroke: #000000; stroke-width: 0.8"/>
      </g>
     </g>
     <g id="text_3">
      <!-- 200 -->
      <g transform="translate(224.768284 334.998438)scale(0.1 -0.1)">
       <defs>
        <path id="DejaVuSans-32" d="M 1228 531 
L 3431 531 
L 3431 0 
L 469 0 
L 469 531 
Q 828 903 1448 1529 
Q 2069 2156 2228 2338 
Q 2531 2678 2651 2914 
Q 2772 3150 2772 3378 
Q 2772 3750 2511 3984 
Q 2250 4219 1831 4219 
Q 1534 4219 1204 4116 
Q 875 4013 500 3803 
L 500 4441 
Q 881 4594 1212 4672 
Q 1544 4750 1819 4750 
Q 2544 4750 2975 4387 
Q 3406 4025 3406 3419 
Q 3406 3131 3298 2873 
Q 3191 2616 2906 2266 
Q 2828 2175 2409 1742 
Q 1991 1309 1228 531 
z
" transform="scale(0.015625)"/>
       </defs>
       <use xlink:href="#DejaVuSans-32"/>
       <use xlink:href="#DejaVuSans-30" x="63.623047"/>
       <use xlink:href="#DejaVuSans-30" x="127.246094"/>
      </g>
     </g>
    </g>
    <g id="xtick_4">
     <g id="line2d_4">
      <g>
       <use xlink:href="#m4e794f1fb1" x="290.550695" y="320.4" style="stroke: #000000; stroke-width: 0.8"/>
      </g>
     </g>
     <g id="text_4">
      <!-- 300 -->
      <g transform="translate(281.006945 334.998438)scale(0.1 -0.1)">
       <defs>
        <path id="DejaVuSans-33" d="M 2597 2516 
Q 3050 2419 3304 2112 
Q 3559 1806 3559 1356 
Q 3559 666 3084 287 
Q 2609 -91 1734 -91 
Q 1441 -91 1130 -33 
Q 819 25 488 141 
L 488 750 
Q 750 597 1062 519 
Q 1375 441 1716 441 
Q 2309 441 2620 675 
Q 2931 909 2931 1356 
Q 2931 1769 2642 2001 
Q 2353 2234 1838 2234 
L 1294 2234 
L 1294 2753 
L 1863 2753 
Q 2328 2753 2575 2939 
Q 2822 3125 2822 3475 
Q 2822 3834 2567 4026 
Q 2313 4219 1838 4219 
Q 1578 4219 1281 4162 
Q 984 4106 628 3988 
L 628 4550 
Q 988 4650 1302 4700 
Q 1616 4750 1894 4750 
Q 2613 4750 3031 4423 
Q 3450 4097 3450 3541 
Q 3450 3153 3228 2886 
Q 3006 2619 2597 2516 
z
" transform="scale(0.015625)"/>
       </defs>
       <use xlink:href="#DejaVuSans-33"/>
       <use xlink:href="#DejaVuSans-30" x="63.623047"/>
       <use xlink:href="#DejaVuSans-30" x="127.246094"/>
      </g>
     </g>
    </g>
    <g id="xtick_5">
     <g id="line2d_5">
      <g>
       <use xlink:href="#m4e794f1fb1" x="346.789357" y="320.4" style="stroke: #000000; stroke-width: 0.8"/>
      </g>
     </g>
     <g id="text_5">
      <!-- 400 -->
      <g transform="translate(337.245607 334.998438)scale(0.1 -0.1)">
       <defs>
        <path id="DejaVuSans-34" d="M 2419 4116 
L 825 1625 
L 2419 1625 
L 2419 4116 
z
M 2253 4666 
L 3047 4666 
L 3047 1625 
L 3713 1625 
L 3713 1100 
L 3047 1100 
L 3047 0 
L 2419 0 
L 2419 1100 
L 313 1100 
L 313 1709 
L 2253 4666 
z
" transform="scale(0.015625)"/>
       </defs>
       <use xlink:href="#DejaVuSans-34"/>
       <use xlink:href="#DejaVuSans-30" x="63.623047"/>
       <use xlink:href="#DejaVuSans-30" x="127.246094"/>
      </g>
     </g>
    </g>
    <g id="xtick_6">
     <g id="line2d_6">
      <g>
       <use xlink:href="#m4e794f1fb1" x="403.028019" y="320.4" style="stroke: #000000; stroke-width: 0.8"/>
      </g>
     </g>
     <g id="text_6">
      <!-- 500 -->
      <g transform="translate(393.484269 334.998438)scale(0.1 -0.1)">
       <defs>
        <path id="DejaVuSans-35" d="M 691 4666 
L 3169 4666 
L 3169 4134 
L 1269 4134 
L 1269 2991 
Q 1406 3038 1543 3061 
Q 1681 3084 1819 3084 
Q 2600 3084 3056 2656 
Q 3513 2228 3513 1497 
Q 3513 744 3044 326 
Q 2575 -91 1722 -91 
Q 1428 -91 1123 -41 
Q 819 9 494 109 
L 494 744 
Q 775 591 1075 516 
Q 1375 441 1709 441 
Q 2250 441 2565 725 
Q 2881 1009 2881 1497 
Q 2881 1984 2565 2268 
Q 2250 2553 1709 2553 
Q 1456 2553 1204 2497 
Q 953 2441 691 2322 
L 691 4666 
z
" transform="scale(0.015625)"/>
       </defs>
       <use xlink:href="#DejaVuSans-35"/>
       <use xlink:href="#DejaVuSans-30" x="63.623047"/>
       <use xlink:href="#DejaVuSans-30" x="127.246094"/>
      </g>
     </g>
    </g>
   </g>
   <g id="matplotlib.axis_2">
    <g id="ytick_1">
     <g id="line2d_7">
      <defs>
       <path id="m11fe5ff87c" d="M 0 0 
L -3.5 0 
" style="stroke: #000000; stroke-width: 0.8"/>
      </defs>
      <g>
       <use xlink:href="#m11fe5ff87c" x="108" y="287.517196" style="stroke: #000000; stroke-width: 0.8"/>
      </g>
     </g>
     <g id="text_7">
      <!-- 0.2 -->
      <g transform="translate(85.096875 291.316415)scale(0.1 -0.1)">
       <defs>
        <path id="DejaVuSans-2e" d="M 684 794 
L 1344 794 
L 1344 0 
L 684 0 
L 684 794 
z
" transform="scale(0.015625)"/>
       </defs>
       <use xlink:href="#DejaVuSans-30"/>
       <use xlink:href="#DejaVuSans-2e" x="63.623047"/>
       <use xlink:href="#DejaVuSans-32" x="95.410156"/>
      </g>
     </g>
    </g>
    <g id="ytick_2">
     <g id="line2d_8">
      <g>
       <use xlink:href="#m11fe5ff87c" x="108" y="251.07787" style="stroke: #000000; stroke-width: 0.8"/>
      </g>
     </g>
     <g id="text_8">
      <!-- 0.3 -->
      <g transform="translate(85.096875 254.877089)scale(0.1 -0.1)">
       <use xlink:href="#DejaVuSans-30"/>
       <use xlink:href="#DejaVuSans-2e" x="63.623047"/>
       <use xlink:href="#DejaVuSans-33" x="95.410156"/>
      </g>
     </g>
    </g>
    <g id="ytick_3">
     <g id="line2d_9">
      <g>
       <use xlink:href="#m11fe5ff87c" x="108" y="214.638545" style="stroke: #000000; stroke-width: 0.8"/>
      </g>
     </g>
     <g id="text_9">
      <!-- 0.4 -->
      <g transform="translate(85.096875 218.437764)scale(0.1 -0.1)">
       <use xlink:href="#DejaVuSans-30"/>
       <use xlink:href="#DejaVuSans-2e" x="63.623047"/>
       <use xlink:href="#DejaVuSans-34" x="95.410156"/>
      </g>
     </g>
    </g>
    <g id="ytick_4">
     <g id="line2d_10">
      <g>
       <use xlink:href="#m11fe5ff87c" x="108" y="178.199219" style="stroke: #000000; stroke-width: 0.8"/>
      </g>
     </g>
     <g id="text_10">
      <!-- 0.5 -->
      <g transform="translate(85.096875 181.998438)scale(0.1 -0.1)">
       <use xlink:href="#DejaVuSans-30"/>
       <use xlink:href="#DejaVuSans-2e" x="63.623047"/>
       <use xlink:href="#DejaVuSans-35" x="95.410156"/>
      </g>
     </g>
    </g>
    <g id="ytick_5">
     <g id="line2d_11">
      <g>
       <use xlink:href="#m11fe5ff87c" x="108" y="141.759894" style="stroke: #000000; stroke-width: 0.8"/>
      </g>
     </g>
     <g id="text_11">
      <!-- 0.6 -->
      <g transform="translate(85.096875 145.559113)scale(0.1 -0.1)">
       <defs>
        <path id="DejaVuSans-36" d="M 2113 2584 
Q 1688 2584 1439 2293 
Q 1191 2003 1191 1497 
Q 1191 994 1439 701 
Q 1688 409 2113 409 
Q 2538 409 2786 701 
Q 3034 994 3034 1497 
Q 3034 2003 2786 2293 
Q 2538 2584 2113 2584 
z
M 3366 4563 
L 3366 3988 
Q 3128 4100 2886 4159 
Q 2644 4219 2406 4219 
Q 1781 4219 1451 3797 
Q 1122 3375 1075 2522 
Q 1259 2794 1537 2939 
Q 1816 3084 2150 3084 
Q 2853 3084 3261 2657 
Q 3669 2231 3669 1497 
Q 3669 778 3244 343 
Q 2819 -91 2113 -91 
Q 1303 -91 875 529 
Q 447 1150 447 2328 
Q 447 3434 972 4092 
Q 1497 4750 2381 4750 
Q 2619 4750 2861 4703 
Q 3103 4656 3366 4563 
z
" transform="scale(0.015625)"/>
       </defs>
       <use xlink:href="#DejaVuSans-30"/>
       <use xlink:href="#DejaVuSans-2e" x="63.623047"/>
       <use xlink:href="#DejaVuSans-36" x="95.410156"/>
      </g>
     </g>
    </g>
    <g id="ytick_6">
     <g id="line2d_12">
      <g>
       <use xlink:href="#m11fe5ff87c" x="108" y="105.320569" style="stroke: #000000; stroke-width: 0.8"/>
      </g>
     </g>
     <g id="text_12">
      <!-- 0.7 -->
      <g transform="translate(85.096875 109.119787)scale(0.1 -0.1)">
       <defs>
        <path id="DejaVuSans-37" d="M 525 4666 
L 3525 4666 
L 3525 4397 
L 1831 0 
L 1172 0 
L 2766 4134 
L 525 4134 
L 525 4666 
z
" transform="scale(0.015625)"/>
       </defs>
       <use xlink:href="#DejaVuSans-30"/>
       <use xlink:href="#DejaVuSans-2e" x="63.623047"/>
       <use xlink:href="#DejaVuSans-37" x="95.410156"/>
      </g>
     </g>
    </g>
    <g id="ytick_7">
     <g id="line2d_13">
      <g>
       <use xlink:href="#m11fe5ff87c" x="108" y="68.881243" style="stroke: #000000; stroke-width: 0.8"/>
      </g>
     </g>
     <g id="text_13">
      <!-- 0.8 -->
      <g transform="translate(85.096875 72.680462)scale(0.1 -0.1)">
       <defs>
        <path id="DejaVuSans-38" d="M 2034 2216 
Q 1584 2216 1326 1975 
Q 1069 1734 1069 1313 
Q 1069 891 1326 650 
Q 1584 409 2034 409 
Q 2484 409 2743 651 
Q 3003 894 3003 1313 
Q 3003 1734 2745 1975 
Q 2488 2216 2034 2216 
z
M 1403 2484 
Q 997 2584 770 2862 
Q 544 3141 544 3541 
Q 544 4100 942 4425 
Q 1341 4750 2034 4750 
Q 2731 4750 3128 4425 
Q 3525 4100 3525 3541 
Q 3525 3141 3298 2862 
Q 3072 2584 2669 2484 
Q 3125 2378 3379 2068 
Q 3634 1759 3634 1313 
Q 3634 634 3220 271 
Q 2806 -91 2034 -91 
Q 1263 -91 848 271 
Q 434 634 434 1313 
Q 434 1759 690 2068 
Q 947 2378 1403 2484 
z
M 1172 3481 
Q 1172 3119 1398 2916 
Q 1625 2713 2034 2713 
Q 2441 2713 2670 2916 
Q 2900 3119 2900 3481 
Q 2900 3844 2670 4047 
Q 2441 4250 2034 4250 
Q 1625 4250 1398 4047 
Q 1172 3844 1172 3481 
z
" transform="scale(0.015625)"/>
       </defs>
       <use xlink:href="#DejaVuSans-30"/>
       <use xlink:href="#DejaVuSans-2e" x="63.623047"/>
       <use xlink:href="#DejaVuSans-38" x="95.410156"/>
      </g>
     </g>
    </g>
    <g id="text_14">
     <!-- Loss -->
     <g transform="translate(77.769375 199.3475)rotate(-90)scale(0.16 -0.16)">
      <defs>
       <path id="DejaVuSans-4c" d="M 628 4666 
L 1259 4666 
L 1259 531 
L 3531 531 
L 3531 0 
L 628 0 
L 628 4666 
z
" transform="scale(0.015625)"/>
       <path id="DejaVuSans-6f" d="M 1959 3097 
Q 1497 3097 1228 2736 
Q 959 2375 959 1747 
Q 959 1119 1226 758 
Q 1494 397 1959 397 
Q 2419 397 2687 759 
Q 2956 1122 2956 1747 
Q 2956 2369 2687 2733 
Q 2419 3097 1959 3097 
z
M 1959 3584 
Q 2709 3584 3137 3096 
Q 3566 2609 3566 1747 
Q 3566 888 3137 398 
Q 2709 -91 1959 -91 
Q 1206 -91 779 398 
Q 353 888 353 1747 
Q 353 2609 779 3096 
Q 1206 3584 1959 3584 
z
" transform="scale(0.015625)"/>
       <path id="DejaVuSans-73" d="M 2834 3397 
L 2834 2853 
Q 2591 2978 2328 3040 
Q 2066 3103 1784 3103 
Q 1356 3103 1142 2972 
Q 928 2841 928 2578 
Q 928 2378 1081 2264 
Q 1234 2150 1697 2047 
L 1894 2003 
Q 2506 1872 2764 1633 
Q 3022 1394 3022 966 
Q 3022 478 2636 193 
Q 2250 -91 1575 -91 
Q 1294 -91 989 -36 
Q 684 19 347 128 
L 347 722 
Q 666 556 975 473 
Q 1284 391 1588 391 
Q 1994 391 2212 530 
Q 2431 669 2431 922 
Q 2431 1156 2273 1281 
Q 2116 1406 1581 1522 
L 1381 1569 
Q 847 1681 609 1914 
Q 372 2147 372 2553 
Q 372 3047 722 3315 
Q 1072 3584 1716 3584 
Q 2034 3584 2315 3537 
Q 2597 3491 2834 3397 
z
" transform="scale(0.015625)"/>
      </defs>
      <use xlink:href="#DejaVuSans-4c"/>
      <use xlink:href="#DejaVuSans-6f" x="53.962891"/>
      <use xlink:href="#DejaVuSans-73" x="115.144531"/>
      <use xlink:href="#DejaVuSans-73" x="167.244141"/>
     </g>
    </g>
   </g>
   <g id="line2d_14">
    <path d="M 121.834711 55.8 
L 122.397097 143.995802 
L 122.959484 163.565968 
L 123.521871 174.305125 
L 124.084257 182.624574 
L 125.20903 192.735385 
L 125.771417 196.814421 
L 126.89619 203.079419 
L 128.58335 210.156967 
L 129.145737 211.375781 
L 129.708123 213.20513 
L 130.27051 214.525677 
L 130.832897 214.706188 
L 131.395283 217.545854 
L 131.95767 218.3427 
L 132.520056 219.544496 
L 133.082443 219.557843 
L 133.64483 221.449603 
L 134.207216 222.736355 
L 135.33199 224.506258 
L 135.894376 225.72835 
L 136.456763 225.608545 
L 137.581536 227.541877 
L 138.143923 228.184113 
L 138.706309 228.526315 
L 139.268696 229.040068 
L 139.831082 229.979395 
L 140.393469 229.616939 
L 140.955856 231.1227 
L 141.518242 231.304601 
L 142.643016 232.646977 
L 143.205402 232.97 
L 143.767789 233.833927 
L 144.330175 233.313223 
L 144.892562 234.900845 
L 145.454949 233.842311 
L 146.017335 235.020519 
L 146.579722 235.681575 
L 147.142108 235.569437 
L 147.704495 236.52641 
L 148.829268 236.79077 
L 149.391655 237.20027 
L 149.954042 237.982596 
L 150.516428 237.226192 
L 151.078815 238.294272 
L 151.641201 238.466138 
L 152.203588 239.022484 
L 152.765975 238.994042 
L 153.328361 239.38861 
L 153.890748 240.073014 
L 154.453134 240.101076 
L 155.015521 240.562268 
L 155.577908 240.728075 
L 156.140294 240.662982 
L 156.702681 240.913995 
L 157.265068 241.547912 
L 157.827454 241.880731 
L 158.389841 242.000058 
L 158.952227 241.603611 
L 159.514614 242.38559 
L 160.077001 242.802204 
L 160.639387 242.949907 
L 161.201774 243.285452 
L 161.76416 243.101998 
L 162.326547 243.940991 
L 162.888934 243.666207 
L 163.45132 243.83273 
L 164.013707 244.326491 
L 165.700867 244.991185 
L 166.263253 244.743256 
L 166.82564 245.217122 
L 167.388027 245.423577 
L 167.950413 245.396091 
L 168.5128 245.979543 
L 169.075186 245.676718 
L 169.637573 246.016129 
L 170.19996 245.935289 
L 170.762346 247.365216 
L 171.324733 246.190179 
L 171.88712 246.771795 
L 172.449506 247.528775 
L 173.011893 247.203004 
L 173.574279 247.29339 
L 174.136666 247.97357 
L 175.261439 248.126942 
L 176.948599 247.582748 
L 177.510986 248.388152 
L 178.073372 248.696504 
L 179.198146 248.835672 
L 179.760532 248.502201 
L 180.322919 249.332517 
L 180.885305 249.249592 
L 181.447692 248.946062 
L 182.572465 249.118612 
L 183.134852 250.059937 
L 183.697238 249.774749 
L 184.259625 249.951155 
L 184.822012 250.58669 
L 185.384398 250.056103 
L 185.946785 250.260604 
L 186.509172 250.665086 
L 187.633945 250.89868 
L 188.196331 250.71642 
L 188.758718 250.65137 
L 189.321105 251.298569 
L 189.883491 251.415083 
L 190.445878 250.777007 
L 191.008264 251.6357 
L 191.570651 251.34734 
L 192.133038 252.442884 
L 192.695424 251.660742 
L 193.257811 252.167567 
L 193.820198 252.431699 
L 194.382584 252.088237 
L 194.944971 252.185475 
L 195.507357 252.516861 
L 196.069744 252.156241 
L 196.632131 253.044352 
L 197.194517 252.554305 
L 197.756904 253.007288 
L 198.31929 252.723435 
L 198.881677 253.115212 
L 199.444064 253.121478 
L 200.00645 252.889134 
L 200.568837 253.473498 
L 201.131224 253.082503 
L 201.69361 254.204631 
L 202.818383 253.306116 
L 203.38077 253.657723 
L 203.943157 253.475333 
L 204.505543 254.323491 
L 205.06793 253.80598 
L 205.630316 254.779786 
L 206.192703 253.767786 
L 206.75509 254.859747 
L 207.879863 254.240349 
L 208.44225 255.064019 
L 209.004636 255.124193 
L 209.567023 254.060533 
L 210.129409 255.173637 
L 210.691796 255.271842 
L 211.254183 255.226557 
L 211.816569 254.861799 
L 212.378956 255.453211 
L 212.941342 255.049391 
L 213.503729 255.417515 
L 214.066116 255.436552 
L 214.628502 256.286101 
L 215.753276 255.228859 
L 216.315662 256.296613 
L 216.878049 255.711359 
L 217.440435 255.526145 
L 218.565209 256.453917 
L 219.127595 255.924384 
L 219.689982 257.520389 
L 220.252368 255.946505 
L 220.814755 256.185789 
L 221.939528 256.958223 
L 222.501915 256.203393 
L 223.064302 257.144359 
L 223.626688 256.601306 
L 224.189075 256.530978 
L 224.751461 257.104536 
L 225.313848 256.426974 
L 225.876235 257.039855 
L 226.438621 256.842762 
L 227.001008 257.289619 
L 227.563394 257.504523 
L 229.250554 257.549178 
L 229.812941 257.532563 
L 230.375328 257.642486 
L 230.937714 257.582637 
L 231.500101 258.360381 
L 232.062487 257.446554 
L 232.624874 257.755221 
L 233.187261 258.538188 
L 233.749647 258.147964 
L 234.87442 257.96741 
L 235.436807 258.054603 
L 235.999194 257.469555 
L 236.56158 258.539763 
L 237.123967 258.310307 
L 237.686354 258.773682 
L 238.24874 258.655995 
L 239.373513 258.658341 
L 239.9359 259.069665 
L 240.498287 258.080829 
L 241.060673 258.648154 
L 241.62306 258.578195 
L 242.185446 258.282137 
L 242.747833 259.588794 
L 243.31022 258.937067 
L 243.872606 260.002399 
L 244.434993 258.9702 
L 244.99738 259.452461 
L 245.559766 258.840513 
L 246.122153 259.65177 
L 247.246926 259.215142 
L 247.809313 259.672002 
L 248.371699 258.813928 
L 248.934086 259.993342 
L 249.496472 259.764625 
L 250.058859 259.356526 
L 250.621246 259.7585 
L 251.183632 259.696654 
L 251.746019 259.956441 
L 252.308406 259.930139 
L 252.870792 260.328572 
L 253.433179 259.686185 
L 253.995565 260.418079 
L 254.557952 259.353974 
L 255.682725 260.514969 
L 256.245112 260.451559 
L 256.807498 260.522647 
L 257.369885 259.831923 
L 257.932272 260.944517 
L 258.494658 260.82987 
L 259.057045 261.031568 
L 259.619432 260.313553 
L 260.181818 259.952944 
L 260.744205 260.796476 
L 261.306591 260.849266 
L 261.868978 260.776809 
L 262.431365 261.301206 
L 262.993751 260.919202 
L 263.556138 260.694514 
L 264.118524 260.874927 
L 264.680911 260.728635 
L 265.243298 261.060173 
L 265.805684 261.105317 
L 266.930458 261.478524 
L 267.492844 261.309861 
L 268.055231 261.356721 
L 268.617617 261.79173 
L 269.180004 261.305886 
L 269.742391 261.622242 
L 270.867164 261.609265 
L 271.42955 262.340453 
L 271.991937 261.284536 
L 272.554324 261.713388 
L 273.11671 261.724834 
L 273.679097 261.892259 
L 274.241484 261.771347 
L 274.80387 261.370773 
L 275.366257 261.964444 
L 275.928643 262.053147 
L 276.49103 261.888274 
L 277.053417 262.014649 
L 277.615803 261.834605 
L 278.17819 262.064929 
L 278.740576 261.802015 
L 279.302963 261.955202 
L 279.86535 261.794195 
L 280.427736 262.379048 
L 280.990123 262.258852 
L 281.55251 262.548308 
L 282.114896 262.044296 
L 282.677283 262.866956 
L 283.239669 262.4786 
L 283.802056 262.251446 
L 284.364443 262.226251 
L 284.926829 263.220658 
L 286.051602 262.309361 
L 286.613989 262.277596 
L 287.176376 262.953997 
L 287.738762 262.959231 
L 288.301149 262.480967 
L 288.863536 262.84187 
L 289.425922 262.696653 
L 289.988309 262.390549 
L 290.550695 263.334881 
L 291.113082 262.792479 
L 291.675469 263.556887 
L 292.237855 262.991702 
L 292.800242 262.806032 
L 293.362629 263.337705 
L 293.925015 263.429318 
L 294.487402 263.118946 
L 295.049788 263.179391 
L 295.612175 263.428699 
L 296.174562 263.335989 
L 296.736948 262.884288 
L 297.299335 263.335316 
L 297.861721 263.614564 
L 298.986495 263.162374 
L 299.548881 263.422878 
L 300.673655 263.631516 
L 301.236041 263.13428 
L 301.798428 264.48808 
L 302.923201 263.146866 
L 304.047974 264.002779 
L 305.172747 264.268626 
L 305.735134 263.98789 
L 306.297521 264.099409 
L 306.859907 264.441546 
L 307.422294 264.036835 
L 307.984681 264.517151 
L 308.547067 263.928671 
L 309.109454 264.135094 
L 309.67184 264.022033 
L 310.234227 264.555627 
L 310.796614 264.283102 
L 311.359 264.611946 
L 311.921387 264.20565 
L 312.483773 264.350867 
L 313.04616 263.917366 
L 313.608547 264.047836 
L 314.170933 264.365538 
L 314.73332 264.24266 
L 315.295707 264.378374 
L 315.858093 264.020947 
L 316.42048 265.019231 
L 316.982866 264.987868 
L 317.545253 264.180998 
L 318.10764 264.840197 
L 318.670026 264.527099 
L 319.232413 264.569311 
L 319.794799 264.970438 
L 320.357186 264.92146 
L 320.919573 264.528543 
L 321.481959 265.138384 
L 322.044346 264.477339 
L 322.606733 264.982025 
L 323.169119 264.990203 
L 323.731506 265.117696 
L 324.293892 264.925174 
L 324.856279 265.139231 
L 325.418666 264.81081 
L 325.981052 265.093316 
L 326.543439 265.195213 
L 327.668212 264.898633 
L 328.230599 265.692591 
L 328.792985 265.075191 
L 329.355372 265.532702 
L 329.917759 265.076733 
L 331.042532 265.310197 
L 331.604918 264.969808 
L 332.167305 265.075126 
L 332.729692 265.3912 
L 333.292078 265.485039 
L 333.854465 265.399431 
L 334.416851 265.868714 
L 334.979238 265.307286 
L 336.104011 265.72328 
L 336.666398 265.540782 
L 337.228785 266.138286 
L 337.791171 265.111865 
L 338.353558 266.201979 
L 338.915944 265.598773 
L 339.478331 265.792218 
L 340.040718 265.636532 
L 340.603104 265.730828 
L 341.165491 266.284589 
L 341.727877 266.609285 
L 342.290264 265.454262 
L 342.852651 265.821148 
L 343.415037 266.740069 
L 343.977424 266.150949 
L 344.539811 265.878749 
L 345.102197 266.934969 
L 345.664584 265.854792 
L 346.22697 266.42203 
L 346.789357 265.42152 
L 347.91413 266.670111 
L 348.476517 265.787809 
L 349.038903 266.775103 
L 349.60129 265.677007 
L 350.163677 266.331612 
L 350.726063 266.810777 
L 351.28845 266.84113 
L 351.850837 266.163796 
L 352.413223 266.229454 
L 352.97561 266.820432 
L 353.537996 266.625977 
L 354.100383 266.551522 
L 354.66277 266.974684 
L 355.225156 266.253921 
L 355.787543 266.221787 
L 356.349929 266.795747 
L 356.912316 266.18545 
L 357.474703 267.070076 
L 358.037089 266.556105 
L 358.599476 267.379644 
L 359.161863 266.870419 
L 359.724249 267.376354 
L 360.286636 266.647229 
L 360.849022 267.087614 
L 361.411409 266.172875 
L 361.973796 267.649184 
L 362.536182 267.018687 
L 363.660955 267.358479 
L 364.223342 266.699769 
L 364.785729 267.088559 
L 365.348115 267.100103 
L 365.910502 266.7642 
L 366.472889 267.713017 
L 367.035275 266.776656 
L 367.597662 267.463102 
L 368.722435 267.349487 
L 369.284822 267.007415 
L 369.847208 267.421541 
L 370.409595 267.546743 
L 370.971981 266.732902 
L 371.534368 267.311966 
L 372.096755 267.149624 
L 372.659141 267.867259 
L 373.221528 267.003592 
L 373.783915 267.27842 
L 374.346301 267.379492 
L 374.908688 267.717133 
L 375.471074 267.17206 
L 376.033461 267.990821 
L 376.595848 267.379872 
L 377.720621 267.946763 
L 378.283007 268.024627 
L 378.845394 267.43896 
L 379.407781 267.610631 
L 379.970167 266.952877 
L 380.532554 267.568626 
L 381.094941 268.506899 
L 381.657327 268.366895 
L 382.219714 267.873329 
L 383.344487 267.731544 
L 383.906874 268.094619 
L 384.46926 268.200925 
L 385.031647 267.420119 
L 385.594033 267.832735 
L 386.15642 267.250478 
L 386.718807 268.097464 
L 387.281193 268.296154 
L 388.405967 267.547764 
L 388.968353 268.678364 
L 389.53074 268.157399 
L 390.093126 268.26427 
L 390.655513 267.796562 
L 391.2179 267.970242 
L 391.780286 268.479033 
L 392.342673 268.735312 
L 392.905059 268.094847 
L 393.467446 268.77558 
L 394.029833 267.34826 
L 395.154606 269.198145 
L 395.716993 268.042991 
L 396.279379 268.280918 
L 396.841766 269.014408 
L 397.404152 267.758183 
L 397.966539 268.258688 
L 398.528926 268.356513 
L 398.528926 268.356513 
" clip-path="url(#p66d0190f1d)" style="fill: none; stroke: #1f77b4; stroke-width: 1.5; stroke-linecap: square"/>
   </g>
   <g id="line2d_15">
    <path d="M 121.834711 185.000028 
L 122.397097 209.109869 
L 122.959484 225.914541 
L 123.521871 228.025897 
L 125.20903 241.92038 
L 125.771417 249.407026 
L 126.333804 247.307855 
L 126.89619 250.98861 
L 127.458577 256.20651 
L 128.020964 256.90287 
L 128.58335 257.918628 
L 129.145737 259.709989 
L 129.708123 260.453981 
L 130.27051 258.918551 
L 130.832897 262.341441 
L 131.395283 261.705211 
L 133.082443 266.761235 
L 133.64483 264.973251 
L 134.769603 271.115338 
L 135.33199 268.396086 
L 135.894376 269.412924 
L 136.456763 270.942668 
L 137.019149 267.163578 
L 137.581536 270.406826 
L 138.143923 271.83571 
L 138.706309 272.209275 
L 139.268696 271.914927 
L 139.831082 272.902318 
L 140.393469 276.31709 
L 140.955856 275.019619 
L 141.518242 275.355268 
L 142.080629 274.763546 
L 142.643016 275.838695 
L 143.205402 275.553355 
L 143.767789 278.674044 
L 144.330175 275.519815 
L 145.454949 279.225547 
L 146.017335 278.37312 
L 146.579722 278.248032 
L 147.142108 276.545053 
L 147.704495 281.35601 
L 148.266882 278.997508 
L 148.829268 280.427658 
L 149.391655 279.744014 
L 150.516428 278.140363 
L 151.078815 281.961067 
L 151.641201 279.783152 
L 152.203588 280.343359 
L 152.765975 279.509779 
L 153.328361 279.674669 
L 153.890748 282.448997 
L 154.453134 283.708197 
L 155.015521 282.051964 
L 155.577908 284.447134 
L 156.140294 283.606398 
L 156.702681 283.395338 
L 157.265068 281.749709 
L 157.827454 283.086014 
L 158.389841 282.861972 
L 158.952227 284.91747 
L 159.514614 279.932968 
L 160.077001 283.154995 
L 160.639387 283.346225 
L 161.201774 282.815769 
L 161.76416 285.108162 
L 162.326547 282.166616 
L 162.888934 285.892221 
L 163.45132 285.173435 
L 164.013707 284.91576 
L 164.576094 282.871805 
L 165.13848 284.717759 
L 165.700867 282.121455 
L 166.263253 287.625923 
L 166.82564 283.224883 
L 167.388027 287.571184 
L 167.950413 285.681004 
L 168.5128 285.568882 
L 169.075186 286.548026 
L 169.637573 286.064544 
L 170.19996 286.89278 
L 170.762346 288.817896 
L 171.324733 285.654316 
L 171.88712 285.228152 
L 172.449506 286.588147 
L 173.011893 287.45682 
L 173.574279 288.56981 
L 174.136666 285.380889 
L 174.699053 288.154223 
L 175.261439 289.659321 
L 175.823826 287.522994 
L 176.386212 290.15198 
L 176.948599 289.360102 
L 178.073372 290.608421 
L 178.635759 290.192677 
L 179.760532 288.03678 
L 180.322919 289.790388 
L 180.885305 290.668302 
L 181.447692 289.279767 
L 182.010079 289.722666 
L 182.572465 288.255903 
L 183.134852 291.866715 
L 183.697238 289.61762 
L 184.259625 289.554438 
L 184.822012 291.181584 
L 185.384398 289.952209 
L 185.946785 290.679689 
L 186.509172 293.426471 
L 187.071558 288.560449 
L 188.196331 292.88244 
L 188.758718 288.742725 
L 189.321105 290.709189 
L 189.883491 294.323906 
L 190.445878 292.084057 
L 191.008264 292.060611 
L 191.570651 293.310983 
L 192.133038 288.88085 
L 192.695424 292.064292 
L 193.257811 290.643428 
L 193.820198 292.700202 
L 194.944971 293.169355 
L 195.507357 292.770117 
L 196.069744 293.372199 
L 196.632131 293.491146 
L 197.194517 294.497249 
L 197.756904 291.384813 
L 198.31929 291.777345 
L 198.881677 293.850398 
L 199.444064 291.302366 
L 200.00645 291.902444 
L 200.568837 292.893224 
L 201.131224 292.615496 
L 201.69361 295.887554 
L 202.255997 292.019588 
L 202.818383 285.825661 
L 203.38077 292.54209 
L 203.943157 292.051956 
L 204.505543 292.988469 
L 205.06793 295.725228 
L 205.630316 292.470811 
L 206.192703 295.449455 
L 206.75509 295.146696 
L 207.317476 293.950726 
L 207.879863 293.324096 
L 208.44225 293.929908 
L 209.567023 296.333999 
L 210.129409 294.283947 
L 210.691796 293.768754 
L 211.254183 295.640201 
L 211.816569 294.938813 
L 212.378956 296.085718 
L 212.941342 294.224376 
L 213.503729 293.500089 
L 214.066116 296.58878 
L 214.628502 294.834847 
L 215.190889 293.701304 
L 216.315662 295.788144 
L 216.878049 294.665793 
L 217.440435 296.006213 
L 218.002822 296.038386 
L 218.565209 297.087439 
L 219.127595 295.417848 
L 219.689982 296.655997 
L 220.252368 293.661411 
L 220.814755 296.676641 
L 221.377142 294.829824 
L 221.939528 292.577199 
L 222.501915 293.508815 
L 223.064302 295.048377 
L 223.626688 295.421361 
L 224.751461 295.674697 
L 225.313848 294.858125 
L 225.876235 297.69722 
L 226.438621 298.598483 
L 227.001008 295.318313 
L 227.563394 297.719749 
L 228.125781 297.22639 
L 228.688168 295.315717 
L 229.250554 298.010003 
L 229.812941 296.478744 
L 230.375328 295.501832 
L 230.937714 296.581417 
L 231.500101 295.443553 
L 232.062487 297.405217 
L 232.624874 297.802858 
L 233.187261 296.241919 
L 233.749647 296.924743 
L 234.312034 297.812013 
L 234.87442 266.677723 
L 235.436807 295.820886 
L 235.999194 295.588601 
L 236.56158 298.167986 
L 237.123967 298.103641 
L 237.686354 297.611238 
L 238.24874 295.088509 
L 238.811127 297.761662 
L 239.373513 294.026467 
L 239.9359 298.69627 
L 240.498287 299.738753 
L 241.060673 297.816042 
L 241.62306 298.029724 
L 242.185446 297.244743 
L 242.747833 299.418688 
L 243.31022 296.075521 
L 244.434993 296.650713 
L 244.99738 297.836377 
L 245.559766 293.343551 
L 246.122153 300.06763 
L 246.684539 299.204496 
L 247.246926 299.885077 
L 247.809313 297.838609 
L 248.371699 298.711017 
L 248.934086 298.730076 
L 249.496472 298.311524 
L 250.058859 298.71011 
L 250.621246 299.492079 
L 251.746019 299.909599 
L 252.308406 299.90191 
L 252.870792 299.508662 
L 253.433179 298.394482 
L 253.995565 297.033585 
L 254.557952 296.687311 
L 255.120339 290.694963 
L 255.682725 299.647596 
L 256.807498 297.288192 
L 257.369885 299.078979 
L 257.932272 297.868419 
L 258.494658 299.070497 
L 259.057045 299.842594 
L 259.619432 299.876536 
L 260.181818 298.06782 
L 260.744205 297.648053 
L 261.868978 301.296955 
L 262.431365 298.124525 
L 262.993751 300.471407 
L 263.556138 300.579684 
L 264.118524 299.693582 
L 264.680911 299.266804 
L 265.805684 300.63615 
L 266.368071 300.471733 
L 266.930458 300.526026 
L 267.492844 298.998263 
L 268.055231 299.423168 
L 268.617617 298.646217 
L 269.180004 300.778081 
L 269.742391 300.089979 
L 270.304777 298.092336 
L 270.867164 300.07199 
L 271.42955 300.75962 
L 271.991937 299.843104 
L 272.554324 300.590924 
L 273.11671 297.620214 
L 273.679097 299.645163 
L 274.241484 300.298145 
L 274.80387 301.822313 
L 275.366257 300.58955 
L 275.928643 298.358748 
L 276.49103 300.1652 
L 277.053417 298.40627 
L 278.17819 300.468638 
L 278.740576 299.502591 
L 279.302963 299.997709 
L 279.86535 296.710762 
L 280.990123 302.205695 
L 281.55251 301.401464 
L 282.114896 301.764506 
L 282.677283 299.955139 
L 283.239669 299.361267 
L 283.802056 298.587124 
L 284.364443 301.737666 
L 284.926829 301.476055 
L 285.489216 297.881005 
L 286.051602 300.949329 
L 286.613989 300.978965 
L 287.176376 299.913329 
L 287.738762 302.261444 
L 288.301149 298.775193 
L 288.863536 297.652809 
L 289.425922 301.960161 
L 289.988309 300.416136 
L 290.550695 300.758794 
L 291.113082 299.634722 
L 291.675469 302.488288 
L 292.237855 302.379669 
L 292.800242 299.832722 
L 293.362629 300.841084 
L 293.925015 300.153916 
L 294.487402 299.736923 
L 295.049788 300.965152 
L 295.612175 303.527274 
L 296.174562 299.975485 
L 296.736948 301.348718 
L 297.299335 300.039845 
L 297.861721 302.968023 
L 298.424108 301.628347 
L 298.986495 303.191029 
L 299.548881 299.963116 
L 300.111268 303.225975 
L 300.673655 301.339336 
L 301.798428 302.53511 
L 302.360814 299.344169 
L 302.923201 301.175359 
L 303.485588 300.463452 
L 304.047974 303.643544 
L 304.610361 303.015714 
L 305.172747 304.020899 
L 305.735134 300.621082 
L 306.859907 302.895632 
L 307.422294 299.865437 
L 307.984681 301.097825 
L 308.547067 302.665671 
L 309.109454 302.307245 
L 309.67184 304.123312 
L 310.234227 303.250269 
L 310.796614 298.681593 
L 311.359 300.711196 
L 311.921387 303.488787 
L 312.483773 300.801918 
L 313.04616 301.281958 
L 313.608547 303.331283 
L 314.170933 301.541284 
L 314.73332 302.155865 
L 315.295707 304.765972 
L 315.858093 298.918439 
L 316.42048 301.219167 
L 316.982866 303.032976 
L 317.545253 300.925687 
L 318.10764 303.225937 
L 318.670026 302.233496 
L 319.232413 302.333357 
L 319.794799 299.851819 
L 320.357186 303.634715 
L 320.919573 301.69186 
L 321.481959 302.543548 
L 322.044346 301.053018 
L 322.606733 303.52274 
L 323.169119 303.695753 
L 323.731506 303.129671 
L 324.293892 303.623633 
L 324.856279 302.223255 
L 325.418666 301.365953 
L 325.981052 303.265532 
L 326.543439 304.022507 
L 327.105825 302.08128 
L 327.668212 303.310334 
L 328.230599 303.146395 
L 328.792985 303.283999 
L 329.917759 304.100301 
L 330.480145 305.453275 
L 331.042532 305.380461 
L 331.604918 303.459547 
L 332.167305 303.768969 
L 332.729692 303.149105 
L 333.292078 302.136589 
L 333.854465 303.36504 
L 334.416851 302.551638 
L 334.979238 301.527416 
L 335.541625 302.283044 
L 336.104011 305.257848 
L 336.666398 303.933125 
L 337.228785 304.701611 
L 337.791171 302.464174 
L 338.353558 304.570165 
L 338.915944 304.657504 
L 339.478331 303.625311 
L 340.040718 304.600735 
L 340.603104 302.753635 
L 341.165491 304.992099 
L 341.727877 304.614831 
L 342.290264 301.675798 
L 342.852651 305.279964 
L 343.415037 302.14469 
L 343.977424 303.306104 
L 344.539811 303.394894 
L 345.102197 302.834269 
L 345.664584 304.386303 
L 346.22697 304.113283 
L 346.789357 303.982266 
L 347.351744 305.444034 
L 347.91413 303.82512 
L 348.476517 304.565223 
L 349.038903 304.567509 
L 350.163677 302.315314 
L 350.726063 302.808608 
L 351.28845 302.573678 
L 351.850837 304.276207 
L 352.413223 301.10761 
L 352.97561 303.991502 
L 353.537996 301.402165 
L 354.100383 302.58987 
L 354.66277 305.170514 
L 355.225156 304.392189 
L 355.787543 305.017679 
L 356.349929 305.460513 
L 356.912316 303.912997 
L 357.474703 305.779106 
L 358.037089 304.827574 
L 358.599476 304.481826 
L 359.161863 305.288163 
L 359.724249 304.994999 
L 360.286636 303.547072 
L 360.849022 304.405558 
L 361.411409 302.634862 
L 361.973796 305.780046 
L 362.536182 304.129953 
L 363.098569 304.741038 
L 363.660955 304.273416 
L 364.223342 303.123856 
L 364.785729 305.99805 
L 365.348115 304.520123 
L 365.910502 304.22888 
L 366.472889 305.799604 
L 367.035275 304.283157 
L 367.597662 303.112181 
L 368.160048 304.779899 
L 369.284822 302.813239 
L 369.847208 303.836093 
L 370.409595 306.352382 
L 370.971981 304.918665 
L 371.534368 304.904488 
L 372.096755 302.608978 
L 373.221528 304.717249 
L 373.783915 304.85109 
L 374.346301 304.079721 
L 375.471074 307.055384 
L 376.033461 304.443735 
L 376.595848 306.4366 
L 377.158234 303.657733 
L 377.720621 305.765781 
L 378.283007 305.74833 
L 378.845394 300.500571 
L 379.407781 304.294506 
L 379.970167 302.557888 
L 380.532554 303.727968 
L 381.094941 306.597308 
L 381.657327 305.203148 
L 382.219714 306.024439 
L 382.7821 305.609846 
L 383.344487 302.531705 
L 383.906874 307.079916 
L 384.46926 306.653377 
L 385.031647 303.740576 
L 385.594033 304.915788 
L 386.15642 304.870844 
L 386.718807 303.536147 
L 387.281193 306.43262 
L 387.84358 307.030244 
L 388.405967 306.445972 
L 388.968353 306.30896 
L 389.53074 303.58248 
L 390.093126 302.573537 
L 390.655513 300.993729 
L 391.2179 303.544558 
L 391.780286 305.394263 
L 392.342673 306.15505 
L 392.905059 303.677362 
L 393.467446 306.431572 
L 394.029833 302.309699 
L 394.592219 306.53664 
L 395.154606 306.425724 
L 395.716993 305.221718 
L 396.841766 307.8 
L 397.404152 306.547288 
L 397.966539 305.598411 
L 398.528926 306.53923 
L 398.528926 306.53923 
" clip-path="url(#p66d0190f1d)" style="fill: none; stroke: #ff7f0e; stroke-width: 1.5; stroke-linecap: square"/>
   </g>
   <g id="line2d_16">
    <path d="M 396.841766 307.8 
" clip-path="url(#p66d0190f1d)" style="fill: none; stroke: #ff0000; stroke-width: 1.5; stroke-linecap: square"/>
    <defs>
     <path id="me5ae8f0078" d="M -3 3 
L 3 -3 
M -3 -3 
L 3 3 
" style="stroke: #ff0000"/>
    </defs>
    <g clip-path="url(#p66d0190f1d)">
     <use xlink:href="#me5ae8f0078" x="396.841766" y="307.8" style="fill: #ff0000; stroke: #ff0000"/>
    </g>
   </g>
   <g id="patch_3">
    <path d="M 108 320.4 
L 108 43.2 
" style="fill: none; stroke: #000000; stroke-width: 0.8; stroke-linejoin: miter; stroke-linecap: square"/>
   </g>
   <g id="patch_4">
    <path d="M 412.363636 320.4 
L 412.363636 43.2 
" style="fill: none; stroke: #000000; stroke-width: 0.8; stroke-linejoin: miter; stroke-linecap: square"/>
   </g>
   <g id="patch_5">
    <path d="M 108 320.4 
L 412.363636 320.4 
" style="fill: none; stroke: #000000; stroke-width: 0.8; stroke-linejoin: miter; stroke-linecap: square"/>
   </g>
   <g id="patch_6">
    <path d="M 108 43.2 
L 412.363636 43.2 
" style="fill: none; stroke: #000000; stroke-width: 0.8; stroke-linejoin: miter; stroke-linecap: square"/>
   </g>
   <g id="text_15">
    <!-- Best epoch: 489 with loss: 0.144 -->
    <g transform="translate(162.097756 37.2)scale(0.12 -0.12)">
     <defs>
      <path id="DejaVuSans-42" d="M 1259 2228 
L 1259 519 
L 2272 519 
Q 2781 519 3026 730 
Q 3272 941 3272 1375 
Q 3272 1813 3026 2020 
Q 2781 2228 2272 2228 
L 1259 2228 
z
M 1259 4147 
L 1259 2741 
L 2194 2741 
Q 2656 2741 2882 2914 
Q 3109 3088 3109 3444 
Q 3109 3797 2882 3972 
Q 2656 4147 2194 4147 
L 1259 4147 
z
M 628 4666 
L 2241 4666 
Q 2963 4666 3353 4366 
Q 3744 4066 3744 3513 
Q 3744 3084 3544 2831 
Q 3344 2578 2956 2516 
Q 3422 2416 3680 2098 
Q 3938 1781 3938 1306 
Q 3938 681 3513 340 
Q 3088 0 2303 0 
L 628 0 
L 628 4666 
z
" transform="scale(0.015625)"/>
      <path id="DejaVuSans-65" d="M 3597 1894 
L 3597 1613 
L 953 1613 
Q 991 1019 1311 708 
Q 1631 397 2203 397 
Q 2534 397 2845 478 
Q 3156 559 3463 722 
L 3463 178 
Q 3153 47 2828 -22 
Q 2503 -91 2169 -91 
Q 1331 -91 842 396 
Q 353 884 353 1716 
Q 353 2575 817 3079 
Q 1281 3584 2069 3584 
Q 2775 3584 3186 3129 
Q 3597 2675 3597 1894 
z
M 3022 2063 
Q 3016 2534 2758 2815 
Q 2500 3097 2075 3097 
Q 1594 3097 1305 2825 
Q 1016 2553 972 2059 
L 3022 2063 
z
" transform="scale(0.015625)"/>
      <path id="DejaVuSans-74" d="M 1172 4494 
L 1172 3500 
L 2356 3500 
L 2356 3053 
L 1172 3053 
L 1172 1153 
Q 1172 725 1289 603 
Q 1406 481 1766 481 
L 2356 481 
L 2356 0 
L 1766 0 
Q 1100 0 847 248 
Q 594 497 594 1153 
L 594 3053 
L 172 3053 
L 172 3500 
L 594 3500 
L 594 4494 
L 1172 4494 
z
" transform="scale(0.015625)"/>
      <path id="DejaVuSans-20" transform="scale(0.015625)"/>
      <path id="DejaVuSans-70" d="M 1159 525 
L 1159 -1331 
L 581 -1331 
L 581 3500 
L 1159 3500 
L 1159 2969 
Q 1341 3281 1617 3432 
Q 1894 3584 2278 3584 
Q 2916 3584 3314 3078 
Q 3713 2572 3713 1747 
Q 3713 922 3314 415 
Q 2916 -91 2278 -91 
Q 1894 -91 1617 61 
Q 1341 213 1159 525 
z
M 3116 1747 
Q 3116 2381 2855 2742 
Q 2594 3103 2138 3103 
Q 1681 3103 1420 2742 
Q 1159 2381 1159 1747 
Q 1159 1113 1420 752 
Q 1681 391 2138 391 
Q 2594 391 2855 752 
Q 3116 1113 3116 1747 
z
" transform="scale(0.015625)"/>
      <path id="DejaVuSans-63" d="M 3122 3366 
L 3122 2828 
Q 2878 2963 2633 3030 
Q 2388 3097 2138 3097 
Q 1578 3097 1268 2742 
Q 959 2388 959 1747 
Q 959 1106 1268 751 
Q 1578 397 2138 397 
Q 2388 397 2633 464 
Q 2878 531 3122 666 
L 3122 134 
Q 2881 22 2623 -34 
Q 2366 -91 2075 -91 
Q 1284 -91 818 406 
Q 353 903 353 1747 
Q 353 2603 823 3093 
Q 1294 3584 2113 3584 
Q 2378 3584 2631 3529 
Q 2884 3475 3122 3366 
z
" transform="scale(0.015625)"/>
      <path id="DejaVuSans-68" d="M 3513 2113 
L 3513 0 
L 2938 0 
L 2938 2094 
Q 2938 2591 2744 2837 
Q 2550 3084 2163 3084 
Q 1697 3084 1428 2787 
Q 1159 2491 1159 1978 
L 1159 0 
L 581 0 
L 581 4863 
L 1159 4863 
L 1159 2956 
Q 1366 3272 1645 3428 
Q 1925 3584 2291 3584 
Q 2894 3584 3203 3211 
Q 3513 2838 3513 2113 
z
" transform="scale(0.015625)"/>
      <path id="DejaVuSans-3a" d="M 750 794 
L 1409 794 
L 1409 0 
L 750 0 
L 750 794 
z
M 750 3309 
L 1409 3309 
L 1409 2516 
L 750 2516 
L 750 3309 
z
" transform="scale(0.015625)"/>
      <path id="DejaVuSans-39" d="M 703 97 
L 703 672 
Q 941 559 1184 500 
Q 1428 441 1663 441 
Q 2288 441 2617 861 
Q 2947 1281 2994 2138 
Q 2813 1869 2534 1725 
Q 2256 1581 1919 1581 
Q 1219 1581 811 2004 
Q 403 2428 403 3163 
Q 403 3881 828 4315 
Q 1253 4750 1959 4750 
Q 2769 4750 3195 4129 
Q 3622 3509 3622 2328 
Q 3622 1225 3098 567 
Q 2575 -91 1691 -91 
Q 1453 -91 1209 -44 
Q 966 3 703 97 
z
M 1959 2075 
Q 2384 2075 2632 2365 
Q 2881 2656 2881 3163 
Q 2881 3666 2632 3958 
Q 2384 4250 1959 4250 
Q 1534 4250 1286 3958 
Q 1038 3666 1038 3163 
Q 1038 2656 1286 2365 
Q 1534 2075 1959 2075 
z
" transform="scale(0.015625)"/>
      <path id="DejaVuSans-77" d="M 269 3500 
L 844 3500 
L 1563 769 
L 2278 3500 
L 2956 3500 
L 3675 769 
L 4391 3500 
L 4966 3500 
L 4050 0 
L 3372 0 
L 2619 2869 
L 1863 0 
L 1184 0 
L 269 3500 
z
" transform="scale(0.015625)"/>
      <path id="DejaVuSans-69" d="M 603 3500 
L 1178 3500 
L 1178 0 
L 603 0 
L 603 3500 
z
M 603 4863 
L 1178 4863 
L 1178 4134 
L 603 4134 
L 603 4863 
z
" transform="scale(0.015625)"/>
      <path id="DejaVuSans-6c" d="M 603 4863 
L 1178 4863 
L 1178 0 
L 603 0 
L 603 4863 
z
" transform="scale(0.015625)"/>
     </defs>
     <use xlink:href="#DejaVuSans-42"/>
     <use xlink:href="#DejaVuSans-65" x="68.603516"/>
     <use xlink:href="#DejaVuSans-73" x="130.126953"/>
     <use xlink:href="#DejaVuSans-74" x="182.226562"/>
     <use xlink:href="#DejaVuSans-20" x="221.435547"/>
     <use xlink:href="#DejaVuSans-65" x="253.222656"/>
     <use xlink:href="#DejaVuSans-70" x="314.746094"/>
     <use xlink:href="#DejaVuSans-6f" x="378.222656"/>
     <use xlink:href="#DejaVuSans-63" x="439.404297"/>
     <use xlink:href="#DejaVuSans-68" x="494.384766"/>
     <use xlink:href="#DejaVuSans-3a" x="557.763672"/>
     <use xlink:href="#DejaVuSans-20" x="591.455078"/>
     <use xlink:href="#DejaVuSans-34" x="623.242188"/>
     <use xlink:href="#DejaVuSans-38" x="686.865234"/>
     <use xlink:href="#DejaVuSans-39" x="750.488281"/>
     <use xlink:href="#DejaVuSans-20" x="814.111328"/>
     <use xlink:href="#DejaVuSans-77" x="845.898438"/>
     <use xlink:href="#DejaVuSans-69" x="927.685547"/>
     <use xlink:href="#DejaVuSans-74" x="955.46875"/>
     <use xlink:href="#DejaVuSans-68" x="994.677734"/>
     <use xlink:href="#DejaVuSans-20" x="1058.056641"/>
     <use xlink:href="#DejaVuSans-6c" x="1089.84375"/>
     <use xlink:href="#DejaVuSans-6f" x="1117.626953"/>
     <use xlink:href="#DejaVuSans-73" x="1178.808594"/>
     <use xlink:href="#DejaVuSans-73" x="1230.908203"/>
     <use xlink:href="#DejaVuSans-3a" x="1283.007812"/>
     <use xlink:href="#DejaVuSans-20" x="1316.699219"/>
     <use xlink:href="#DejaVuSans-30" x="1348.486328"/>
     <use xlink:href="#DejaVuSans-2e" x="1412.109375"/>
     <use xlink:href="#DejaVuSans-31" x="1443.896484"/>
     <use xlink:href="#DejaVuSans-34" x="1507.519531"/>
     <use xlink:href="#DejaVuSans-34" x="1571.142578"/>
    </g>
   </g>
   <g id="legend_1">
    <g id="patch_7">
     <path d="M 298.869886 95.234375 
L 405.363636 95.234375 
Q 407.363636 95.234375 407.363636 93.234375 
L 407.363636 50.2 
Q 407.363636 48.2 405.363636 48.2 
L 298.869886 48.2 
Q 296.869886 48.2 296.869886 50.2 
L 296.869886 93.234375 
Q 296.869886 95.234375 298.869886 95.234375 
z
" style="fill: #ffffff; opacity: 0.8; stroke: #cccccc; stroke-linejoin: miter"/>
    </g>
    <g id="line2d_17">
     <path d="M 300.869886 56.298437 
L 310.869886 56.298437 
L 320.869886 56.298437 
" style="fill: none; stroke: #1f77b4; stroke-width: 1.5; stroke-linecap: square"/>
    </g>
    <g id="text_16">
     <!-- Training Loss -->
     <g transform="translate(328.869886 59.798437)scale(0.1 -0.1)">
      <defs>
       <path id="DejaVuSans-54" d="M -19 4666 
L 3928 4666 
L 3928 4134 
L 2272 4134 
L 2272 0 
L 1638 0 
L 1638 4134 
L -19 4134 
L -19 4666 
z
" transform="scale(0.015625)"/>
       <path id="DejaVuSans-72" d="M 2631 2963 
Q 2534 3019 2420 3045 
Q 2306 3072 2169 3072 
Q 1681 3072 1420 2755 
Q 1159 2438 1159 1844 
L 1159 0 
L 581 0 
L 581 3500 
L 1159 3500 
L 1159 2956 
Q 1341 3275 1631 3429 
Q 1922 3584 2338 3584 
Q 2397 3584 2469 3576 
Q 2541 3569 2628 3553 
L 2631 2963 
z
" transform="scale(0.015625)"/>
       <path id="DejaVuSans-61" d="M 2194 1759 
Q 1497 1759 1228 1600 
Q 959 1441 959 1056 
Q 959 750 1161 570 
Q 1363 391 1709 391 
Q 2188 391 2477 730 
Q 2766 1069 2766 1631 
L 2766 1759 
L 2194 1759 
z
M 3341 1997 
L 3341 0 
L 2766 0 
L 2766 531 
Q 2569 213 2275 61 
Q 1981 -91 1556 -91 
Q 1019 -91 701 211 
Q 384 513 384 1019 
Q 384 1609 779 1909 
Q 1175 2209 1959 2209 
L 2766 2209 
L 2766 2266 
Q 2766 2663 2505 2880 
Q 2244 3097 1772 3097 
Q 1472 3097 1187 3025 
Q 903 2953 641 2809 
L 641 3341 
Q 956 3463 1253 3523 
Q 1550 3584 1831 3584 
Q 2591 3584 2966 3190 
Q 3341 2797 3341 1997 
z
" transform="scale(0.015625)"/>
       <path id="DejaVuSans-6e" d="M 3513 2113 
L 3513 0 
L 2938 0 
L 2938 2094 
Q 2938 2591 2744 2837 
Q 2550 3084 2163 3084 
Q 1697 3084 1428 2787 
Q 1159 2491 1159 1978 
L 1159 0 
L 581 0 
L 581 3500 
L 1159 3500 
L 1159 2956 
Q 1366 3272 1645 3428 
Q 1925 3584 2291 3584 
Q 2894 3584 3203 3211 
Q 3513 2838 3513 2113 
z
" transform="scale(0.015625)"/>
       <path id="DejaVuSans-67" d="M 2906 1791 
Q 2906 2416 2648 2759 
Q 2391 3103 1925 3103 
Q 1463 3103 1205 2759 
Q 947 2416 947 1791 
Q 947 1169 1205 825 
Q 1463 481 1925 481 
Q 2391 481 2648 825 
Q 2906 1169 2906 1791 
z
M 3481 434 
Q 3481 -459 3084 -895 
Q 2688 -1331 1869 -1331 
Q 1566 -1331 1297 -1286 
Q 1028 -1241 775 -1147 
L 775 -588 
Q 1028 -725 1275 -790 
Q 1522 -856 1778 -856 
Q 2344 -856 2625 -561 
Q 2906 -266 2906 331 
L 2906 616 
Q 2728 306 2450 153 
Q 2172 0 1784 0 
Q 1141 0 747 490 
Q 353 981 353 1791 
Q 353 2603 747 3093 
Q 1141 3584 1784 3584 
Q 2172 3584 2450 3431 
Q 2728 3278 2906 2969 
L 2906 3500 
L 3481 3500 
L 3481 434 
z
" transform="scale(0.015625)"/>
      </defs>
      <use xlink:href="#DejaVuSans-54"/>
      <use xlink:href="#DejaVuSans-72" x="46.333984"/>
      <use xlink:href="#DejaVuSans-61" x="87.447266"/>
      <use xlink:href="#DejaVuSans-69" x="148.726562"/>
      <use xlink:href="#DejaVuSans-6e" x="176.509766"/>
      <use xlink:href="#DejaVuSans-69" x="239.888672"/>
      <use xlink:href="#DejaVuSans-6e" x="267.671875"/>
      <use xlink:href="#DejaVuSans-67" x="331.050781"/>
      <use xlink:href="#DejaVuSans-20" x="394.527344"/>
      <use xlink:href="#DejaVuSans-4c" x="426.314453"/>
      <use xlink:href="#DejaVuSans-6f" x="480.277344"/>
      <use xlink:href="#DejaVuSans-73" x="541.458984"/>
      <use xlink:href="#DejaVuSans-73" x="593.558594"/>
     </g>
    </g>
    <g id="line2d_18">
     <path d="M 300.869886 70.976562 
L 310.869886 70.976562 
L 320.869886 70.976562 
" style="fill: none; stroke: #ff7f0e; stroke-width: 1.5; stroke-linecap: square"/>
    </g>
    <g id="text_17">
     <!-- Validation Loss -->
     <g transform="translate(328.869886 74.476562)scale(0.1 -0.1)">
      <defs>
       <path id="DejaVuSans-56" d="M 1831 0 
L 50 4666 
L 709 4666 
L 2188 738 
L 3669 4666 
L 4325 4666 
L 2547 0 
L 1831 0 
z
" transform="scale(0.015625)"/>
       <path id="DejaVuSans-64" d="M 2906 2969 
L 2906 4863 
L 3481 4863 
L 3481 0 
L 2906 0 
L 2906 525 
Q 2725 213 2448 61 
Q 2172 -91 1784 -91 
Q 1150 -91 751 415 
Q 353 922 353 1747 
Q 353 2572 751 3078 
Q 1150 3584 1784 3584 
Q 2172 3584 2448 3432 
Q 2725 3281 2906 2969 
z
M 947 1747 
Q 947 1113 1208 752 
Q 1469 391 1925 391 
Q 2381 391 2643 752 
Q 2906 1113 2906 1747 
Q 2906 2381 2643 2742 
Q 2381 3103 1925 3103 
Q 1469 3103 1208 2742 
Q 947 2381 947 1747 
z
" transform="scale(0.015625)"/>
      </defs>
      <use xlink:href="#DejaVuSans-56"/>
      <use xlink:href="#DejaVuSans-61" x="60.658203"/>
      <use xlink:href="#DejaVuSans-6c" x="121.9375"/>
      <use xlink:href="#DejaVuSans-69" x="149.720703"/>
      <use xlink:href="#DejaVuSans-64" x="177.503906"/>
      <use xlink:href="#DejaVuSans-61" x="240.980469"/>
      <use xlink:href="#DejaVuSans-74" x="302.259766"/>
      <use xlink:href="#DejaVuSans-69" x="341.46875"/>
      <use xlink:href="#DejaVuSans-6f" x="369.251953"/>
      <use xlink:href="#DejaVuSans-6e" x="430.433594"/>
      <use xlink:href="#DejaVuSans-20" x="493.8125"/>
      <use xlink:href="#DejaVuSans-4c" x="525.599609"/>
      <use xlink:href="#DejaVuSans-6f" x="579.5625"/>
      <use xlink:href="#DejaVuSans-73" x="640.744141"/>
      <use xlink:href="#DejaVuSans-73" x="692.84375"/>
     </g>
    </g>
    <g id="line2d_19">
     <path d="M 300.869886 85.654687 
L 310.869886 85.654687 
L 320.869886 85.654687 
" style="fill: none; stroke: #ff0000; stroke-width: 1.5; stroke-linecap: square"/>
     <g>
      <use xlink:href="#me5ae8f0078" x="310.869886" y="85.654687" style="fill: #ff0000; stroke: #ff0000"/>
     </g>
    </g>
    <g id="text_18">
     <!-- best model -->
     <g transform="translate(328.869886 89.154687)scale(0.1 -0.1)">
      <defs>
       <path id="DejaVuSans-62" d="M 3116 1747 
Q 3116 2381 2855 2742 
Q 2594 3103 2138 3103 
Q 1681 3103 1420 2742 
Q 1159 2381 1159 1747 
Q 1159 1113 1420 752 
Q 1681 391 2138 391 
Q 2594 391 2855 752 
Q 3116 1113 3116 1747 
z
M 1159 2969 
Q 1341 3281 1617 3432 
Q 1894 3584 2278 3584 
Q 2916 3584 3314 3078 
Q 3713 2572 3713 1747 
Q 3713 922 3314 415 
Q 2916 -91 2278 -91 
Q 1894 -91 1617 61 
Q 1341 213 1159 525 
L 1159 0 
L 581 0 
L 581 4863 
L 1159 4863 
L 1159 2969 
z
" transform="scale(0.015625)"/>
       <path id="DejaVuSans-6d" d="M 3328 2828 
Q 3544 3216 3844 3400 
Q 4144 3584 4550 3584 
Q 5097 3584 5394 3201 
Q 5691 2819 5691 2113 
L 5691 0 
L 5113 0 
L 5113 2094 
Q 5113 2597 4934 2840 
Q 4756 3084 4391 3084 
Q 3944 3084 3684 2787 
Q 3425 2491 3425 1978 
L 3425 0 
L 2847 0 
L 2847 2094 
Q 2847 2600 2669 2842 
Q 2491 3084 2119 3084 
Q 1678 3084 1418 2786 
Q 1159 2488 1159 1978 
L 1159 0 
L 581 0 
L 581 3500 
L 1159 3500 
L 1159 2956 
Q 1356 3278 1631 3431 
Q 1906 3584 2284 3584 
Q 2666 3584 2933 3390 
Q 3200 3197 3328 2828 
z
" transform="scale(0.015625)"/>
      </defs>
      <use xlink:href="#DejaVuSans-62"/>
      <use xlink:href="#DejaVuSans-65" x="63.476562"/>
      <use xlink:href="#DejaVuSans-73" x="125"/>
      <use xlink:href="#DejaVuSans-74" x="177.099609"/>
      <use xlink:href="#DejaVuSans-20" x="216.308594"/>
      <use xlink:href="#DejaVuSans-6d" x="248.095703"/>
      <use xlink:href="#DejaVuSans-6f" x="345.507812"/>
      <use xlink:href="#DejaVuSans-64" x="406.689453"/>
      <use xlink:href="#DejaVuSans-65" x="470.166016"/>
      <use xlink:href="#DejaVuSans-6c" x="531.689453"/>
     </g>
    </g>
   </g>
  </g>
  <g id="axes_2">
   <g id="patch_8">
    <path d="M 473.236364 320.4 
L 777.6 320.4 
L 777.6 43.2 
L 473.236364 43.2 
z
" style="fill: #ffffff"/>
   </g>
   <g id="matplotlib.axis_3">
    <g id="xtick_7">
     <g id="line2d_20">
      <g>
       <use xlink:href="#m4e794f1fb1" x="487.071074" y="320.4" style="stroke: #000000; stroke-width: 0.8"/>
      </g>
     </g>
     <g id="text_19">
      <!-- 0 -->
      <g transform="translate(483.889824 334.998438)scale(0.1 -0.1)">
       <use xlink:href="#DejaVuSans-30"/>
      </g>
     </g>
    </g>
    <g id="xtick_8">
     <g id="line2d_21">
      <g>
       <use xlink:href="#m4e794f1fb1" x="543.309736" y="320.4" style="stroke: #000000; stroke-width: 0.8"/>
      </g>
     </g>
     <g id="text_20">
      <!-- 100 -->
      <g transform="translate(533.765986 334.998438)scale(0.1 -0.1)">
       <use xlink:href="#DejaVuSans-31"/>
       <use xlink:href="#DejaVuSans-30" x="63.623047"/>
       <use xlink:href="#DejaVuSans-30" x="127.246094"/>
      </g>
     </g>
    </g>
    <g id="xtick_9">
     <g id="line2d_22">
      <g>
       <use xlink:href="#m4e794f1fb1" x="599.548398" y="320.4" style="stroke: #000000; stroke-width: 0.8"/>
      </g>
     </g>
     <g id="text_21">
      <!-- 200 -->
      <g transform="translate(590.004648 334.998438)scale(0.1 -0.1)">
       <use xlink:href="#DejaVuSans-32"/>
       <use xlink:href="#DejaVuSans-30" x="63.623047"/>
       <use xlink:href="#DejaVuSans-30" x="127.246094"/>
      </g>
     </g>
    </g>
    <g id="xtick_10">
     <g id="line2d_23">
      <g>
       <use xlink:href="#m4e794f1fb1" x="655.787059" y="320.4" style="stroke: #000000; stroke-width: 0.8"/>
      </g>
     </g>
     <g id="text_22">
      <!-- 300 -->
      <g transform="translate(646.243309 334.998438)scale(0.1 -0.1)">
       <use xlink:href="#DejaVuSans-33"/>
       <use xlink:href="#DejaVuSans-30" x="63.623047"/>
       <use xlink:href="#DejaVuSans-30" x="127.246094"/>
      </g>
     </g>
    </g>
    <g id="xtick_11">
     <g id="line2d_24">
      <g>
       <use xlink:href="#m4e794f1fb1" x="712.025721" y="320.4" style="stroke: #000000; stroke-width: 0.8"/>
      </g>
     </g>
     <g id="text_23">
      <!-- 400 -->
      <g transform="translate(702.481971 334.998438)scale(0.1 -0.1)">
       <use xlink:href="#DejaVuSans-34"/>
       <use xlink:href="#DejaVuSans-30" x="63.623047"/>
       <use xlink:href="#DejaVuSans-30" x="127.246094"/>
      </g>
     </g>
    </g>
    <g id="xtick_12">
     <g id="line2d_25">
      <g>
       <use xlink:href="#m4e794f1fb1" x="768.264382" y="320.4" style="stroke: #000000; stroke-width: 0.8"/>
      </g>
     </g>
     <g id="text_24">
      <!-- 500 -->
      <g transform="translate(758.720632 334.998438)scale(0.1 -0.1)">
       <use xlink:href="#DejaVuSans-35"/>
       <use xlink:href="#DejaVuSans-30" x="63.623047"/>
       <use xlink:href="#DejaVuSans-30" x="127.246094"/>
      </g>
     </g>
    </g>
   </g>
   <g id="matplotlib.axis_4">
    <g id="ytick_8">
     <g id="line2d_26">
      <g>
       <use xlink:href="#m11fe5ff87c" x="473.236364" y="293.683848" style="stroke: #000000; stroke-width: 0.8"/>
      </g>
     </g>
     <g id="text_25">
      <!-- 0.75 -->
      <g transform="translate(443.970739 297.483067)scale(0.1 -0.1)">
       <use xlink:href="#DejaVuSans-30"/>
       <use xlink:href="#DejaVuSans-2e" x="63.623047"/>
       <use xlink:href="#DejaVuSans-37" x="95.410156"/>
       <use xlink:href="#DejaVuSans-35" x="159.033203"/>
      </g>
     </g>
    </g>
    <g id="ytick_9">
     <g id="line2d_27">
      <g>
       <use xlink:href="#m11fe5ff87c" x="473.236364" y="235.663511" style="stroke: #000000; stroke-width: 0.8"/>
      </g>
     </g>
     <g id="text_26">
      <!-- 0.80 -->
      <g transform="translate(443.970739 239.462729)scale(0.1 -0.1)">
       <use xlink:href="#DejaVuSans-30"/>
       <use xlink:href="#DejaVuSans-2e" x="63.623047"/>
       <use xlink:href="#DejaVuSans-38" x="95.410156"/>
       <use xlink:href="#DejaVuSans-30" x="159.033203"/>
      </g>
     </g>
    </g>
    <g id="ytick_10">
     <g id="line2d_28">
      <g>
       <use xlink:href="#m11fe5ff87c" x="473.236364" y="177.643173" style="stroke: #000000; stroke-width: 0.8"/>
      </g>
     </g>
     <g id="text_27">
      <!-- 0.85 -->
      <g transform="translate(443.970739 181.442392)scale(0.1 -0.1)">
       <use xlink:href="#DejaVuSans-30"/>
       <use xlink:href="#DejaVuSans-2e" x="63.623047"/>
       <use xlink:href="#DejaVuSans-38" x="95.410156"/>
       <use xlink:href="#DejaVuSans-35" x="159.033203"/>
      </g>
     </g>
    </g>
    <g id="ytick_11">
     <g id="line2d_29">
      <g>
       <use xlink:href="#m11fe5ff87c" x="473.236364" y="119.622836" style="stroke: #000000; stroke-width: 0.8"/>
      </g>
     </g>
     <g id="text_28">
      <!-- 0.90 -->
      <g transform="translate(443.970739 123.422055)scale(0.1 -0.1)">
       <use xlink:href="#DejaVuSans-30"/>
       <use xlink:href="#DejaVuSans-2e" x="63.623047"/>
       <use xlink:href="#DejaVuSans-39" x="95.410156"/>
       <use xlink:href="#DejaVuSans-30" x="159.033203"/>
      </g>
     </g>
    </g>
    <g id="ytick_12">
     <g id="line2d_30">
      <g>
       <use xlink:href="#m11fe5ff87c" x="473.236364" y="61.602499" style="stroke: #000000; stroke-width: 0.8"/>
      </g>
     </g>
     <g id="text_29">
      <!-- 0.95 -->
      <g transform="translate(443.970739 65.401717)scale(0.1 -0.1)">
       <use xlink:href="#DejaVuSans-30"/>
       <use xlink:href="#DejaVuSans-2e" x="63.623047"/>
       <use xlink:href="#DejaVuSans-39" x="95.410156"/>
       <use xlink:href="#DejaVuSans-35" x="159.033203"/>
      </g>
     </g>
    </g>
    <g id="text_30">
     <!-- Accuracy -->
     <g transform="translate(436.643239 218.325)rotate(-90)scale(0.16 -0.16)">
      <defs>
       <path id="DejaVuSans-41" d="M 2188 4044 
L 1331 1722 
L 3047 1722 
L 2188 4044 
z
M 1831 4666 
L 2547 4666 
L 4325 0 
L 3669 0 
L 3244 1197 
L 1141 1197 
L 716 0 
L 50 0 
L 1831 4666 
z
" transform="scale(0.015625)"/>
       <path id="DejaVuSans-75" d="M 544 1381 
L 544 3500 
L 1119 3500 
L 1119 1403 
Q 1119 906 1312 657 
Q 1506 409 1894 409 
Q 2359 409 2629 706 
Q 2900 1003 2900 1516 
L 2900 3500 
L 3475 3500 
L 3475 0 
L 2900 0 
L 2900 538 
Q 2691 219 2414 64 
Q 2138 -91 1772 -91 
Q 1169 -91 856 284 
Q 544 659 544 1381 
z
M 1991 3584 
L 1991 3584 
z
" transform="scale(0.015625)"/>
       <path id="DejaVuSans-79" d="M 2059 -325 
Q 1816 -950 1584 -1140 
Q 1353 -1331 966 -1331 
L 506 -1331 
L 506 -850 
L 844 -850 
Q 1081 -850 1212 -737 
Q 1344 -625 1503 -206 
L 1606 56 
L 191 3500 
L 800 3500 
L 1894 763 
L 2988 3500 
L 3597 3500 
L 2059 -325 
z
" transform="scale(0.015625)"/>
      </defs>
      <use xlink:href="#DejaVuSans-41"/>
      <use xlink:href="#DejaVuSans-63" x="66.658203"/>
      <use xlink:href="#DejaVuSans-63" x="121.638672"/>
      <use xlink:href="#DejaVuSans-75" x="176.619141"/>
      <use xlink:href="#DejaVuSans-72" x="239.998047"/>
      <use xlink:href="#DejaVuSans-61" x="281.111328"/>
      <use xlink:href="#DejaVuSans-63" x="342.390625"/>
      <use xlink:href="#DejaVuSans-79" x="397.371094"/>
     </g>
    </g>
   </g>
   <g id="line2d_31">
    <path d="M 487.071074 307.8 
L 487.633461 221.496577 
L 488.195848 202.167342 
L 488.758234 191.535132 
L 489.320621 183.716165 
L 489.883007 177.967187 
L 491.007781 170.032851 
L 491.570167 167.366862 
L 492.132554 163.187598 
L 492.694941 161.411839 
L 493.257327 158.485856 
L 494.3821 155.24351 
L 494.944487 154.517478 
L 495.506874 152.050133 
L 496.06926 152.258598 
L 496.631647 149.560723 
L 497.194033 148.704729 
L 497.75642 147.125263 
L 498.318807 146.902065 
L 498.881193 144.630943 
L 499.44358 143.811745 
L 500.005967 143.478159 
L 500.568353 141.869228 
L 501.13074 140.956864 
L 501.693126 141.572508 
L 502.255513 140.105781 
L 502.8179 139.249857 
L 503.380286 139.09043 
L 505.067446 136.797174 
L 505.629833 137.162645 
L 506.192219 135.202975 
L 506.754606 135.561046 
L 507.316993 134.906186 
L 507.879379 133.814752 
L 508.441766 134.327408 
L 509.004152 132.718477 
L 509.566539 133.814752 
L 510.128926 131.619642 
L 510.691312 132.760114 
L 511.816085 130.913323 
L 512.378472 131.433241 
L 512.940859 130.167717 
L 513.503245 130.157896 
L 515.190405 128.93401 
L 515.752792 129.549653 
L 517.439952 127.616958 
L 518.002338 127.766563 
L 519.127111 126.483818 
L 519.689498 126.687441 
L 520.814271 126.454422 
L 521.376658 126.265531 
L 521.939045 125.814294 
L 522.501431 125.633564 
L 523.063818 124.742504 
L 523.626204 124.372122 
L 524.188591 124.936237 
L 527.000524 123.447446 
L 527.562911 122.39772 
L 528.125297 123.660891 
L 529.250071 121.973458 
L 530.374844 121.463292 
L 530.93723 121.784566 
L 531.499617 122.275089 
L 532.062004 121.44856 
L 532.62439 121.475534 
L 533.749163 120.997323 
L 534.31155 120.582813 
L 534.873937 120.759393 
L 535.436323 120.224743 
L 535.99871 119.263271 
L 536.561097 120.847718 
L 537.123483 120.408654 
L 537.68587 118.971392 
L 538.248256 120.148661 
L 539.37303 118.745774 
L 541.060189 118.637876 
L 541.622576 119.030252 
L 542.184963 118.878226 
L 542.747349 118.473538 
L 543.309736 117.838321 
L 544.434509 117.703379 
L 544.996896 118.385214 
L 545.559282 116.827811 
L 546.121669 116.87934 
L 546.684056 118.046786 
L 547.808829 117.421321 
L 548.371215 116.535932 
L 548.933602 116.545754 
L 550.058375 115.957154 
L 550.620762 116.300492 
L 551.183149 116.030677 
L 551.745535 116.160709 
L 552.307922 116.065053 
L 552.870308 115.432256 
L 553.432695 115.954664 
L 553.995082 115.709403 
L 554.557468 115.025147 
L 555.119855 115.196816 
L 555.682241 115.778084 
L 556.244628 114.762664 
L 556.807015 115.802638 
L 557.369401 114.03428 
L 557.931788 114.613058 
L 558.494175 114.544654 
L 559.056561 114.254988 
L 560.181334 114.537045 
L 560.743721 114.436479 
L 561.306108 114.176485 
L 561.868494 113.529026 
L 562.430881 113.923892 
L 562.993267 113.212593 
L 563.555654 113.661478 
L 564.680427 113.180707 
L 565.242814 113.104694 
L 565.805201 112.658299 
L 566.367587 112.937936 
L 566.929974 112.410617 
L 567.49236 112.48172 
L 568.617134 112.417949 
L 569.17952 112.709828 
L 569.741907 110.880189 
L 570.304293 112.680432 
L 570.86668 111.115629 
L 571.429067 112.415528 
L 571.991453 111.520317 
L 572.55384 111.83177 
L 573.116227 112.550401 
L 573.678613 110.951292 
L 574.241 111.142604 
L 574.803386 111.59882 
L 575.365773 110.835992 
L 575.92816 111.257903 
L 576.490546 111.282387 
L 577.052933 111.579177 
L 577.615319 110.620196 
L 578.177706 111.333916 
L 578.740093 110.735426 
L 579.302479 110.728094 
L 579.864866 110.060992 
L 580.427253 110.350381 
L 580.989639 111.213706 
L 581.552026 110.159068 
L 582.114412 110.480412 
L 582.676799 110.450947 
L 583.239186 109.474813 
L 583.801572 110.048749 
L 584.363959 110.181132 
L 584.926345 108.606577 
L 585.488732 109.975157 
L 586.051119 109.285922 
L 586.613505 109.406131 
L 587.175892 109.057882 
L 587.738279 109.401221 
L 588.300665 109.165781 
L 588.863052 109.266348 
L 589.987825 109.097099 
L 590.550212 109.597444 
L 591.112598 108.633551 
L 591.674985 109.39631 
L 592.237371 108.937673 
L 592.799758 108.780736 
L 593.362145 108.432418 
L 594.486918 108.461813 
L 596.174078 108.528074 
L 596.736464 107.483258 
L 597.298851 108.493768 
L 597.861238 108.704654 
L 598.423624 107.620621 
L 598.986011 107.941895 
L 600.673171 107.708876 
L 601.235557 108.483946 
L 601.797944 107.402334 
L 603.485104 107.566671 
L 604.609877 107.009888 
L 605.73465 107.753073 
L 606.297037 107.789869 
L 606.859424 107.488168 
L 607.42181 107.348385 
L 607.984197 106.36976 
L 608.546583 107.164404 
L 609.10897 106.411467 
L 609.671357 106.931385 
L 610.233743 106.732741 
L 610.79613 107.149672 
L 611.358516 106.455595 
L 611.920903 106.668971 
L 612.48329 106.740142 
L 613.045676 106.421289 
L 613.608063 107.20369 
L 614.17045 106.19318 
L 615.295223 106.860283 
L 615.857609 106.730321 
L 616.982383 105.589848 
L 617.544769 106.239798 
L 618.107156 105.454906 
L 618.669542 106.561072 
L 619.231929 105.749275 
L 619.794316 106.460505 
L 620.356702 105.866995 
L 620.919089 105.015912 
L 621.481476 105.675683 
L 622.043862 104.888371 
L 622.606249 106.043575 
L 623.168635 104.724033 
L 623.731022 105.636397 
L 624.293409 105.089504 
L 624.855795 105.756607 
L 626.542955 104.682326 
L 627.105342 105.047797 
L 627.667728 104.630867 
L 628.230115 105.023244 
L 628.792502 104.858906 
L 629.354888 105.148364 
L 629.917275 104.829511 
L 630.479661 105.059832 
L 631.042048 105.077193 
L 631.604435 104.370873 
L 632.729208 104.540122 
L 633.291594 104.307103 
L 633.853981 103.762631 
L 634.416368 104.947231 
L 634.978754 104.383116 
L 635.541141 104.319345 
L 636.103528 104.545032 
L 636.665914 103.703771 
L 637.228301 104.250663 
L 637.790687 103.929389 
L 638.915461 103.613026 
L 639.477847 103.620357 
L 640.040234 104.196714 
L 640.60262 104.16974 
L 641.165007 103.919568 
L 641.727394 103.929389 
L 642.28978 103.534523 
L 643.414554 103.973517 
L 643.97694 103.57865 
L 644.539327 103.431535 
L 645.101713 104.059351 
L 645.6641 103.142077 
L 646.226487 103.28186 
L 646.788873 103.083217 
L 647.35126 103.394739 
L 647.913646 102.987561 
L 648.476033 102.889484 
L 649.03842 104.056931 
L 649.600806 103.446198 
L 650.163193 102.600026 
L 650.72558 102.980229 
L 651.287966 103.573739 
L 651.850353 103.58114 
L 652.412739 102.766853 
L 652.975126 102.872331 
L 653.537513 103.39716 
L 654.099899 103.259797 
L 655.224672 103.429045 
L 655.787059 102.516681 
L 656.349446 102.705503 
L 656.911832 102.661376 
L 658.036606 103.10037 
L 658.598992 102.141388 
L 659.161379 102.857599 
L 659.723765 102.526503 
L 660.286152 102.376897 
L 660.848539 102.497038 
L 661.410925 102.448 
L 661.973312 102.681019 
L 662.535698 102.604936 
L 663.098085 102.058044 
L 664.222858 102.44551 
L 664.785245 102.072707 
L 665.347632 102.421025 
L 665.910018 102.141388 
L 666.472405 102.123889 
L 667.034791 101.354145 
L 667.597178 101.550299 
L 668.159565 102.700593 
L 668.721951 101.935413 
L 669.284338 102.028579 
L 669.846724 101.314859 
L 670.409111 101.344324 
L 670.971498 101.542967 
L 671.533884 101.876553 
L 672.096271 101.724458 
L 672.658658 101.425247 
L 673.221044 101.268241 
L 673.783431 101.785808 
L 674.345817 101.636203 
L 674.908204 101.942745 
L 675.470591 100.915082 
L 676.032977 101.758833 
L 676.595364 101.106394 
L 677.15775 101.783318 
L 677.720137 101.113725 
L 678.282524 101.685241 
L 678.84491 101.329591 
L 679.407297 101.324681 
L 679.969684 101.018139 
L 680.53207 101.574853 
L 681.094457 101.73919 
L 681.656843 99.764788 
L 682.781617 101.898617 
L 683.344003 100.701706 
L 683.90639 101.515993 
L 685.031163 100.72377 
L 686.155936 101.243757 
L 686.718323 100.745833 
L 687.28071 100.704196 
L 687.843096 100.471177 
L 688.405483 101.035292 
L 688.967869 100.858712 
L 689.530256 100.8464 
L 690.092643 100.625693 
L 690.655029 101.106394 
L 691.217416 100.225915 
L 691.779802 100.493241 
L 692.342189 100.331393 
L 692.904576 100.861133 
L 693.466962 100.2504 
L 694.591736 100.270043 
L 695.154122 100.086132 
L 696.278895 100.583986 
L 696.841282 100.343635 
L 697.403669 100.988674 
L 697.966055 100.179298 
L 698.528442 100.603629 
L 699.090828 100.19154 
L 699.653215 100.024782 
L 700.215602 99.985565 
L 701.340375 100.233247 
L 701.902762 100.019871 
L 702.465148 99.558329 
L 703.027535 100.238158 
L 703.589921 99.12715 
L 704.152308 99.965922 
L 704.714695 99.902151 
L 705.277081 100.512884 
L 706.401854 99.291419 
L 706.964241 99.058469 
L 707.526628 99.848202 
L 708.089014 99.365011 
L 708.651401 99.212985 
L 709.213788 99.374832 
L 709.776174 99.850623 
L 710.338561 98.82545 
L 710.900947 99.406718 
L 711.463334 99.217895 
L 712.025721 100.358368 
L 712.588107 99.315972 
L 713.150494 99.173699 
L 713.71288 99.860444 
L 714.275267 98.83036 
L 714.837654 99.921794 
L 715.40004 99.230138 
L 716.524814 99.087864 
L 717.0872 98.928437 
L 717.649587 99.492552 
L 718.211973 98.624316 
L 719.336747 99.009361 
L 719.899133 98.298131 
L 721.023906 99.416539 
L 721.586293 98.997119 
L 722.14868 98.803386 
L 722.711066 98.35457 
L 723.273453 99.156546 
L 723.83584 98.496775 
L 724.398226 99.041246 
L 724.960613 98.52866 
L 725.522999 98.793564 
L 726.085386 98.435494 
L 726.647773 99.502374 
L 727.210159 97.920417 
L 727.772546 98.040627 
L 728.334932 98.59001 
L 728.897319 98.195143 
L 730.584479 98.719972 
L 731.146866 98.553214 
L 731.709252 97.812519 
L 732.271639 98.278488 
L 732.834025 97.648181 
L 733.396412 98.364322 
L 733.958799 98.609584 
L 734.521185 98.459978 
L 735.083572 98.658691 
L 735.645958 97.93515 
L 736.208345 98.553214 
L 736.770732 98.104398 
L 737.333118 98.008742 
L 737.895505 97.770812 
L 738.457892 98.319711 
L 739.020278 98.263825 
L 739.582665 98.477201 
L 740.145051 98.143615 
L 740.707438 98.094576 
L 741.269825 97.46178 
L 741.832211 98.180411 
L 742.394598 97.82234 
L 742.956984 97.971946 
L 743.519371 97.427474 
L 744.081758 97.790455 
L 744.644144 97.908175 
L 745.206531 98.325105 
L 746.331304 97.277799 
L 746.893691 97.096309 
L 748.018464 97.812519 
L 748.580851 97.675156 
L 749.143237 97.16748 
L 749.705624 97.493665 
L 750.26801 97.442137 
L 751.392784 97.714373 
L 751.95517 97.434805 
L 752.517557 97.513308 
L 753.079944 98.065112 
L 753.64233 97.589321 
L 754.767103 97.098799 
L 755.32949 97.390678 
L 755.891877 97.505908 
L 756.454263 97.846825 
L 757.01665 96.895244 
L 757.579036 97.292532 
L 758.141423 97.361213 
L 758.70381 96.421875 
L 759.266196 97.925328 
L 760.39097 96.313976 
L 760.953356 97.606475 
L 761.515743 97.34406 
L 762.078129 96.684289 
L 762.640516 97.331818 
L 763.202903 97.52313 
L 763.765289 98.357544 
L 763.765289 98.357544 
" clip-path="url(#pa46b603df7)" style="fill: none; stroke: #1f77b4; stroke-width: 1.5; stroke-linecap: square"/>
   </g>
   <g id="line2d_32">
    <path d="M 487.071074 178.684157 
L 487.633461 153.04342 
L 488.195848 138.81854 
L 488.758234 139.4162 
L 489.320621 132.761982 
L 490.445394 124.474072 
L 491.007781 114.49271 
L 491.570167 118.118649 
L 492.132554 114.612228 
L 492.694941 109.073652 
L 493.257327 108.535751 
L 493.819714 108.436153 
L 494.3821 106.22472 
L 494.944487 104.610947 
L 495.506874 106.304399 
L 496.06926 102.359675 
L 496.631647 101.682336 
L 497.194033 101.46315 
L 497.75642 99.172039 
L 498.318807 96.342957 
L 498.881193 99.331396 
L 499.44358 98.673977 
L 500.005967 93.832729 
L 500.568353 96.14376 
L 501.13074 96.442624 
L 501.693126 94.490148 
L 502.255513 101.363552 
L 502.8179 93.314678 
L 503.380286 92.238876 
L 503.942673 91.820493 
L 504.505059 94.251111 
L 505.067446 92.218956 
L 505.629833 88.871893 
L 506.192219 90.565344 
L 506.754606 89.170757 
L 507.316993 92.736937 
L 507.879379 90.824369 
L 508.441766 90.346227 
L 509.004152 86.939405 
L 509.566539 89.947764 
L 510.691312 85.46507 
L 511.253699 87.556985 
L 511.816085 85.106516 
L 512.378472 90.306319 
L 512.940859 83.413064 
L 513.503245 85.624497 
L 514.065632 83.931046 
L 515.190405 88.333992 
L 515.752792 88.951572 
L 516.315178 80.544143 
L 516.877565 84.409188 
L 517.439952 86.082719 
L 518.002338 86.481183 
L 518.564725 86.0628 
L 519.127111 83.09428 
L 519.689498 81.34107 
L 520.251885 83.71186 
L 520.814271 81.28131 
L 521.376658 81.082044 
L 521.939045 81.161792 
L 522.501431 82.616138 
L 523.063818 81.620015 
L 523.626204 81.958649 
L 524.188591 80.464464 
L 524.750978 86.222157 
L 525.313364 81.32115 
L 525.875751 82.217675 
L 526.438137 82.197755 
L 527.000524 78.37255 
L 527.562911 83.054441 
L 528.125297 78.412389 
L 528.687684 79.468341 
L 529.250071 80.026162 
L 529.812457 82.297354 
L 530.374844 80.862928 
L 530.93723 85.963201 
L 531.499617 76.639259 
L 532.062004 82.317273 
L 532.62439 77.017803 
L 533.186777 80.544143 
L 533.749163 79.229235 
L 534.31155 78.452229 
L 534.873937 80.085921 
L 535.436323 79.926563 
L 535.99871 75.842333 
L 536.561097 80.225359 
L 537.123483 81.460588 
L 537.68587 77.934247 
L 538.248256 78.253032 
L 538.810643 76.699018 
L 539.37303 79.866804 
L 539.935416 78.013926 
L 540.497803 75.125154 
L 541.060189 76.858445 
L 541.622576 73.65082 
L 542.184963 74.905968 
L 542.747349 73.531301 
L 543.309736 73.252356 
L 543.872123 75.682975 
L 544.434509 75.862252 
L 544.996896 76.699018 
L 545.559282 74.14895 
L 546.121669 73.511382 
L 546.684056 76.220876 
L 547.246442 75.443869 
L 547.808829 77.097481 
L 548.371215 71.060843 
L 548.933602 74.387987 
L 549.495989 75.224753 
L 550.058375 71.539055 
L 550.620762 74.607173 
L 551.183149 74.78645 
L 551.745535 72.714455 
L 552.307922 76.200956 
L 552.870308 75.96192 
L 553.432695 70.742128 
L 553.995082 77.615463 
L 555.119855 70.303826 
L 555.682241 71.638653 
L 556.244628 72.057036 
L 556.807015 71.738252 
L 557.369401 75.364191 
L 557.931788 71.419467 
L 558.494175 75.443869 
L 559.056561 72.555098 
L 559.618948 72.315992 
L 560.181334 71.180431 
L 560.743721 72.256233 
L 561.306108 72.515258 
L 561.868494 71.459307 
L 562.430881 69.905362 
L 563.555654 75.065395 
L 564.118041 70.303826 
L 564.680427 73.730568 
L 565.242814 73.152758 
L 565.805201 72.216394 
L 566.367587 74.368067 
L 566.929974 67.813448 
L 568.054747 80.085921 
L 568.617134 71.120672 
L 569.17952 74.308308 
L 569.741907 73.252356 
L 570.304293 68.690053 
L 570.86668 72.156634 
L 571.429067 68.510776 
L 571.991453 69.128356 
L 572.55384 71.080763 
L 573.116227 71.499146 
L 573.678613 70.582701 
L 574.241 68.749812 
L 574.803386 67.65409 
L 575.365773 71.379628 
L 575.92816 71.399547 
L 576.490546 68.112312 
L 577.052933 68.610374 
L 577.615319 68.610374 
L 578.177706 69.407301 
L 578.740093 71.040924 
L 579.302479 68.311509 
L 579.864866 70.742128 
L 580.427253 71.778091 
L 580.989639 69.666257 
L 581.552026 69.347541 
L 582.114412 70.403424 
L 582.676799 69.44714 
L 583.239186 69.486979 
L 583.801572 68.231831 
L 584.363959 68.431028 
L 584.926345 68.470936 
L 585.488732 72.694536 
L 586.051119 67.733769 
L 586.613505 69.825684 
L 587.175892 73.531301 
L 587.738279 70.124479 
L 588.300665 70.582701 
L 588.863052 70.244066 
L 589.425438 68.749812 
L 589.987825 69.686176 
L 590.550212 71.977357 
L 591.112598 67.036441 
L 591.674985 66.339182 
L 592.237371 70.622541 
L 592.799758 67.395065 
L 593.362145 68.630294 
L 593.924531 70.762048 
L 594.486918 66.897003 
L 595.049305 68.490856 
L 595.611691 71.20035 
L 596.174078 68.331429 
L 596.736464 69.387381 
L 597.298851 67.952886 
L 597.861238 65.980559 
L 598.423624 67.972805 
L 598.986011 67.255627 
L 599.548398 67.514583 
L 600.110784 99.05252 
L 600.673171 69.885443 
L 601.235557 68.829491 
L 601.797944 66.159836 
L 602.922717 67.255627 
L 603.485104 69.805764 
L 604.04749 68.590454 
L 604.609877 72.614857 
L 605.172264 64.924607 
L 605.73465 63.56986 
L 606.297037 66.637978 
L 606.859424 66.737646 
L 607.42181 67.63417 
L 607.984197 65.103953 
L 608.546583 68.86933 
L 609.10897 69.745936 
L 609.671357 70.184238 
L 610.233743 66.956762 
L 610.79613 71.738252 
L 611.358516 63.848805 
L 612.48329 65.86104 
L 613.045676 67.67401 
L 613.608063 65.442657 
L 614.17045 66.379022 
L 614.732836 66.159836 
L 615.295223 65.482497 
L 615.857609 64.326947 
L 616.419996 65.582095 
L 616.982383 65.542256 
L 617.544769 64.346866 
L 618.107156 64.944527 
L 619.231929 68.809571 
L 619.794316 66.637978 
L 620.356702 73.65082 
L 620.919089 64.904687 
L 621.481476 66.199675 
L 622.043862 66.279423 
L 622.606249 64.964446 
L 623.168635 68.191991 
L 623.731022 65.143793 
L 624.293409 65.641854 
L 624.855795 65.064114 
L 625.418182 66.51846 
L 625.980568 66.259434 
L 627.105342 62.693254 
L 627.667728 66.159836 
L 628.230115 64.466385 
L 628.792502 63.968323 
L 629.354888 64.287107 
L 629.917275 65.34299 
L 630.479661 64.645731 
L 631.042048 63.051878 
L 631.604435 64.884767 
L 632.166821 63.689447 
L 632.729208 66.100077 
L 633.291594 65.243391 
L 633.853981 65.960639 
L 634.416368 63.310903 
L 634.978754 63.868724 
L 635.541141 66.737646 
L 636.103528 65.920799 
L 636.665914 64.307027 
L 637.228301 66.179756 
L 637.790687 63.828885 
L 638.353074 67.255627 
L 638.915461 63.848805 
L 639.477847 63.091718 
L 640.040234 61.218989 
L 640.60262 63.789045 
L 641.165007 67.793528 
L 641.727394 66.319263 
L 642.28978 67.594331 
L 642.852167 64.765249 
L 643.414554 64.964446 
L 643.97694 66.060237 
L 644.539327 64.665651 
L 645.101713 68.590454 
L 645.6641 65.980559 
L 646.226487 61.358427 
L 646.788873 63.290984 
L 647.35126 61.976076 
L 647.913646 64.167589 
L 648.476033 66.817324 
L 649.03842 66.857164 
L 649.600806 63.131557 
L 650.163193 63.729286 
L 650.72558 68.072473 
L 651.287966 62.573736 
L 651.850353 62.633495 
L 652.412739 63.031958 
L 652.975126 61.338507 
L 654.099899 68.849411 
L 654.662286 62.454218 
L 655.224672 65.203552 
L 655.787059 63.948403 
L 656.349446 64.765249 
L 656.911832 62.772933 
L 657.474219 61.995996 
L 658.036606 64.426545 
L 658.598992 63.629619 
L 659.161379 63.450341 
L 659.723765 64.825008 
L 660.286152 63.888644 
L 660.848539 61.617452 
L 661.410925 65.024275 
L 661.973312 62.294791 
L 662.535698 64.326947 
L 663.098085 61.398266 
L 663.660472 63.031958 
L 664.222858 60.880285 
L 664.785245 64.924607 
L 665.347632 60.880285 
L 665.910018 64.585972 
L 667.034791 61.497934 
L 667.597178 67.275547 
L 668.159565 63.848805 
L 668.721951 63.53002 
L 669.284338 61.11939 
L 669.846724 60.083358 
L 670.409111 60.820526 
L 670.971498 66.080157 
L 671.533884 63.031958 
L 672.096271 62.892521 
L 672.658658 67.0962 
L 673.783431 62.035835 
L 674.345817 61.199069 
L 674.908204 60.740847 
L 675.470591 60.601409 
L 676.032977 66.598138 
L 676.595364 64.048002 
L 677.15775 62.215112 
L 677.720137 64.307027 
L 678.282524 64.12775 
L 678.84491 60.441982 
L 679.407297 65.103953 
L 680.53207 59.34626 
L 681.094457 65.641854 
L 681.656843 62.852681 
L 682.21923 59.36618 
L 682.781617 62.254952 
L 683.344003 60.740847 
L 683.90639 62.235032 
L 684.468776 61.916317 
L 685.031163 63.54994 
L 685.59355 60.740847 
L 686.155936 62.513977 
L 686.718323 62.454218 
L 687.28071 64.825008 
L 688.405483 60.262705 
L 688.967869 61.717051 
L 689.530256 61.238909 
L 690.092643 61.13931 
L 690.655029 64.008162 
L 691.217416 61.13931 
L 691.779802 60.183026 
L 692.342189 63.131557 
L 692.904576 61.677211 
L 693.466962 61.796729 
L 694.029349 60.999803 
L 694.591736 60.880285 
L 695.154122 61.079551 
L 695.716509 58.848129 
L 696.278895 59.565377 
L 696.841282 60.481822 
L 697.403669 60.920124 
L 697.966055 62.294791 
L 698.528442 63.231225 
L 699.090828 60.123198 
L 699.653215 61.517854 
L 700.215602 61.995996 
L 700.777988 61.617452 
L 701.340375 59.505618 
L 702.465148 60.023599 
L 703.027535 60.601409 
L 703.589921 58.947797 
L 704.714695 60.621329 
L 705.277081 59.844322 
L 705.839468 63.310903 
L 706.401854 58.78837 
L 707.526628 62.992119 
L 708.089014 59.146994 
L 708.651401 62.175273 
L 709.213788 62.533897 
L 709.776174 61.458025 
L 710.338561 62.95228 
L 710.900947 60.00368 
L 711.463334 60.123198 
L 712.025721 61.258828 
L 712.588107 60.103278 
L 713.150494 61.497934 
L 713.71288 59.266512 
L 714.275267 59.067315 
L 714.837654 62.235032 
L 715.40004 62.215112 
L 715.962427 61.099471 
L 716.524814 63.709367 
L 717.0872 60.521661 
L 717.649587 65.203552 
L 718.211973 60.720927 
L 719.336747 61.378347 
L 719.899133 59.704815 
L 720.46152 59.485698 
L 721.023906 59.465778 
L 721.586293 58.688772 
L 722.14868 59.98376 
L 722.711066 58.648932 
L 723.273453 60.302544 
L 724.398226 58.549334 
L 725.522999 62.055755 
L 726.085386 60.402143 
L 726.647773 62.115514 
L 727.210159 58.748531 
L 727.772546 60.222865 
L 728.334932 60.940044 
L 728.897319 57.652809 
L 729.459706 61.458025 
L 730.022092 58.130951 
L 730.584479 60.880285 
L 731.146866 61.458025 
L 731.709252 58.389907 
L 732.271639 61.059631 
L 732.834025 61.318587 
L 733.396412 60.322464 
L 733.958799 61.77681 
L 734.521185 61.896328 
L 735.645958 57.314105 
L 736.208345 59.96384 
L 736.770732 59.924001 
L 737.333118 61.876408 
L 737.895505 61.438106 
L 738.457892 60.601409 
L 739.020278 59.266512 
L 739.582665 61.956156 
L 740.145051 58.668852 
L 740.707438 56.855883 
L 741.269825 61.318587 
L 741.832211 58.17079 
L 742.394598 59.924001 
L 742.956984 58.290309 
L 743.519371 57.971524 
L 744.081758 66.179756 
L 744.644144 59.884161 
L 745.206531 62.892521 
L 745.768918 61.577613 
L 746.331304 57.832086 
L 746.893691 58.728611 
L 747.456077 57.891845 
L 748.018464 59.146994 
L 748.580851 63.031958 
L 749.143237 57.453543 
L 749.705624 58.011433 
L 750.26801 61.796729 
L 750.830397 59.127074 
L 751.392784 59.96384 
L 751.95517 61.13931 
L 752.517557 57.074999 
L 753.079944 56.357821 
L 753.64233 56.596857 
L 754.204717 57.772327 
L 754.767103 61.896328 
L 755.32949 63.928483 
L 755.891877 63.111637 
L 756.454263 61.77681 
L 757.579036 56.756284 
L 758.141423 61.11939 
L 758.70381 58.369987 
L 759.266196 62.254952 
L 759.828583 58.609093 
L 760.39097 59.306421 
L 760.953356 59.226673 
L 761.515743 57.732488 
L 762.078129 55.8 
L 762.640516 57.493382 
L 763.202903 59.924001 
L 763.765289 57.812167 
L 763.765289 57.812167 
" clip-path="url(#pa46b603df7)" style="fill: none; stroke: #ff7f0e; stroke-width: 1.5; stroke-linecap: square"/>
   </g>
   <g id="line2d_33">
    <path d="M 762.078129 55.8 
" clip-path="url(#pa46b603df7)" style="fill: none; stroke: #ff0000; stroke-width: 1.5; stroke-linecap: square"/>
    <g clip-path="url(#pa46b603df7)">
     <use xlink:href="#me5ae8f0078" x="762.078129" y="55.8" style="fill: #ff0000; stroke: #ff0000"/>
    </g>
   </g>
   <g id="patch_9">
    <path d="M 473.236364 320.4 
L 473.236364 43.2 
" style="fill: none; stroke: #000000; stroke-width: 0.8; stroke-linejoin: miter; stroke-linecap: square"/>
   </g>
   <g id="patch_10">
    <path d="M 777.6 320.4 
L 777.6 43.2 
" style="fill: none; stroke: #000000; stroke-width: 0.8; stroke-linejoin: miter; stroke-linecap: square"/>
   </g>
   <g id="patch_11">
    <path d="M 473.236364 320.4 
L 777.6 320.4 
" style="fill: none; stroke: #000000; stroke-width: 0.8; stroke-linejoin: miter; stroke-linecap: square"/>
   </g>
   <g id="patch_12">
    <path d="M 473.236364 43.2 
L 777.6 43.2 
" style="fill: none; stroke: #000000; stroke-width: 0.8; stroke-linejoin: miter; stroke-linecap: square"/>
   </g>
   <g id="text_31">
    <!-- Best epoch: 489 with accuracy: 95.5% -->
    <g transform="translate(510.403807 37.2)scale(0.12 -0.12)">
     <defs>
      <path id="DejaVuSans-25" d="M 4653 2053 
Q 4381 2053 4226 1822 
Q 4072 1591 4072 1178 
Q 4072 772 4226 539 
Q 4381 306 4653 306 
Q 4919 306 5073 539 
Q 5228 772 5228 1178 
Q 5228 1588 5073 1820 
Q 4919 2053 4653 2053 
z
M 4653 2450 
Q 5147 2450 5437 2106 
Q 5728 1763 5728 1178 
Q 5728 594 5436 251 
Q 5144 -91 4653 -91 
Q 4153 -91 3862 251 
Q 3572 594 3572 1178 
Q 3572 1766 3864 2108 
Q 4156 2450 4653 2450 
z
M 1428 4353 
Q 1159 4353 1004 4120 
Q 850 3888 850 3481 
Q 850 3069 1003 2837 
Q 1156 2606 1428 2606 
Q 1700 2606 1854 2837 
Q 2009 3069 2009 3481 
Q 2009 3884 1853 4118 
Q 1697 4353 1428 4353 
z
M 4250 4750 
L 4750 4750 
L 1831 -91 
L 1331 -91 
L 4250 4750 
z
M 1428 4750 
Q 1922 4750 2215 4408 
Q 2509 4066 2509 3481 
Q 2509 2891 2217 2550 
Q 1925 2209 1428 2209 
Q 931 2209 642 2551 
Q 353 2894 353 3481 
Q 353 4063 643 4406 
Q 934 4750 1428 4750 
z
" transform="scale(0.015625)"/>
     </defs>
     <use xlink:href="#DejaVuSans-42"/>
     <use xlink:href="#DejaVuSans-65" x="68.603516"/>
     <use xlink:href="#DejaVuSans-73" x="130.126953"/>
     <use xlink:href="#DejaVuSans-74" x="182.226562"/>
     <use xlink:href="#DejaVuSans-20" x="221.435547"/>
     <use xlink:href="#DejaVuSans-65" x="253.222656"/>
     <use xlink:href="#DejaVuSans-70" x="314.746094"/>
     <use xlink:href="#DejaVuSans-6f" x="378.222656"/>
     <use xlink:href="#DejaVuSans-63" x="439.404297"/>
     <use xlink:href="#DejaVuSans-68" x="494.384766"/>
     <use xlink:href="#DejaVuSans-3a" x="557.763672"/>
     <use xlink:href="#DejaVuSans-20" x="591.455078"/>
     <use xlink:href="#DejaVuSans-34" x="623.242188"/>
     <use xlink:href="#DejaVuSans-38" x="686.865234"/>
     <use xlink:href="#DejaVuSans-39" x="750.488281"/>
     <use xlink:href="#DejaVuSans-20" x="814.111328"/>
     <use xlink:href="#DejaVuSans-77" x="845.898438"/>
     <use xlink:href="#DejaVuSans-69" x="927.685547"/>
     <use xlink:href="#DejaVuSans-74" x="955.46875"/>
     <use xlink:href="#DejaVuSans-68" x="994.677734"/>
     <use xlink:href="#DejaVuSans-20" x="1058.056641"/>
     <use xlink:href="#DejaVuSans-61" x="1089.84375"/>
     <use xlink:href="#DejaVuSans-63" x="1151.123047"/>
     <use xlink:href="#DejaVuSans-63" x="1206.103516"/>
     <use xlink:href="#DejaVuSans-75" x="1261.083984"/>
     <use xlink:href="#DejaVuSans-72" x="1324.462891"/>
     <use xlink:href="#DejaVuSans-61" x="1365.576172"/>
     <use xlink:href="#DejaVuSans-63" x="1426.855469"/>
     <use xlink:href="#DejaVuSans-79" x="1481.835938"/>
     <use xlink:href="#DejaVuSans-3a" x="1533.765625"/>
     <use xlink:href="#DejaVuSans-20" x="1567.457031"/>
     <use xlink:href="#DejaVuSans-39" x="1599.244141"/>
     <use xlink:href="#DejaVuSans-35" x="1662.867188"/>
     <use xlink:href="#DejaVuSans-2e" x="1726.490234"/>
     <use xlink:href="#DejaVuSans-35" x="1758.277344"/>
     <use xlink:href="#DejaVuSans-25" x="1821.900391"/>
    </g>
   </g>
   <g id="legend_2">
    <g id="patch_13">
     <path d="M 640.384375 315.4 
L 770.6 315.4 
Q 772.6 315.4 772.6 313.4 
L 772.6 270.365625 
Q 772.6 268.365625 770.6 268.365625 
L 640.384375 268.365625 
Q 638.384375 268.365625 638.384375 270.365625 
L 638.384375 313.4 
Q 638.384375 315.4 640.384375 315.4 
z
" style="fill: #ffffff; opacity: 0.8; stroke: #cccccc; stroke-linejoin: miter"/>
    </g>
    <g id="line2d_34">
     <path d="M 642.384375 276.464063 
L 652.384375 276.464063 
L 662.384375 276.464063 
" style="fill: none; stroke: #1f77b4; stroke-width: 1.5; stroke-linecap: square"/>
    </g>
    <g id="text_32">
     <!-- Training Accuracy -->
     <g transform="translate(670.384375 279.964063)scale(0.1 -0.1)">
      <use xlink:href="#DejaVuSans-54"/>
      <use xlink:href="#DejaVuSans-72" x="46.333984"/>
      <use xlink:href="#DejaVuSans-61" x="87.447266"/>
      <use xlink:href="#DejaVuSans-69" x="148.726562"/>
      <use xlink:href="#DejaVuSans-6e" x="176.509766"/>
      <use xlink:href="#DejaVuSans-69" x="239.888672"/>
      <use xlink:href="#DejaVuSans-6e" x="267.671875"/>
      <use xlink:href="#DejaVuSans-67" x="331.050781"/>
      <use xlink:href="#DejaVuSans-20" x="394.527344"/>
      <use xlink:href="#DejaVuSans-41" x="426.314453"/>
      <use xlink:href="#DejaVuSans-63" x="492.972656"/>
      <use xlink:href="#DejaVuSans-63" x="547.953125"/>
      <use xlink:href="#DejaVuSans-75" x="602.933594"/>
      <use xlink:href="#DejaVuSans-72" x="666.3125"/>
      <use xlink:href="#DejaVuSans-61" x="707.425781"/>
      <use xlink:href="#DejaVuSans-63" x="768.705078"/>
      <use xlink:href="#DejaVuSans-79" x="823.685547"/>
     </g>
    </g>
    <g id="line2d_35">
     <path d="M 642.384375 291.142187 
L 652.384375 291.142187 
L 662.384375 291.142187 
" style="fill: none; stroke: #ff7f0e; stroke-width: 1.5; stroke-linecap: square"/>
    </g>
    <g id="text_33">
     <!-- Validation Accuracy -->
     <g transform="translate(670.384375 294.642187)scale(0.1 -0.1)">
      <use xlink:href="#DejaVuSans-56"/>
      <use xlink:href="#DejaVuSans-61" x="60.658203"/>
      <use xlink:href="#DejaVuSans-6c" x="121.9375"/>
      <use xlink:href="#DejaVuSans-69" x="149.720703"/>
      <use xlink:href="#DejaVuSans-64" x="177.503906"/>
      <use xlink:href="#DejaVuSans-61" x="240.980469"/>
      <use xlink:href="#DejaVuSans-74" x="302.259766"/>
      <use xlink:href="#DejaVuSans-69" x="341.46875"/>
      <use xlink:href="#DejaVuSans-6f" x="369.251953"/>
      <use xlink:href="#DejaVuSans-6e" x="430.433594"/>
      <use xlink:href="#DejaVuSans-20" x="493.8125"/>
      <use xlink:href="#DejaVuSans-41" x="525.599609"/>
      <use xlink:href="#DejaVuSans-63" x="592.257812"/>
      <use xlink:href="#DejaVuSans-63" x="647.238281"/>
      <use xlink:href="#DejaVuSans-75" x="702.21875"/>
      <use xlink:href="#DejaVuSans-72" x="765.597656"/>
      <use xlink:href="#DejaVuSans-61" x="806.710938"/>
      <use xlink:href="#DejaVuSans-63" x="867.990234"/>
      <use xlink:href="#DejaVuSans-79" x="922.970703"/>
     </g>
    </g>
    <g id="line2d_36">
     <path d="M 642.384375 305.820312 
L 652.384375 305.820312 
L 662.384375 305.820312 
" style="fill: none; stroke: #ff0000; stroke-width: 1.5; stroke-linecap: square"/>
     <g>
      <use xlink:href="#me5ae8f0078" x="652.384375" y="305.820312" style="fill: #ff0000; stroke: #ff0000"/>
     </g>
    </g>
    <g id="text_34">
     <!-- best model -->
     <g transform="translate(670.384375 309.320312)scale(0.1 -0.1)">
      <use xlink:href="#DejaVuSans-62"/>
      <use xlink:href="#DejaVuSans-65" x="63.476562"/>
      <use xlink:href="#DejaVuSans-73" x="125"/>
      <use xlink:href="#DejaVuSans-74" x="177.099609"/>
      <use xlink:href="#DejaVuSans-20" x="216.308594"/>
      <use xlink:href="#DejaVuSans-6d" x="248.095703"/>
      <use xlink:href="#DejaVuSans-6f" x="345.507812"/>
      <use xlink:href="#DejaVuSans-64" x="406.689453"/>
      <use xlink:href="#DejaVuSans-65" x="470.166016"/>
      <use xlink:href="#DejaVuSans-6c" x="531.689453"/>
     </g>
    </g>
   </g>
  </g>
  <g id="text_35">
   <!-- Optimizer : Adam -->
   <g transform="translate(388.221094 14.798437)scale(0.1 -0.1)">
    <defs>
     <path id="DejaVuSans-4f" d="M 2522 4238 
Q 1834 4238 1429 3725 
Q 1025 3213 1025 2328 
Q 1025 1447 1429 934 
Q 1834 422 2522 422 
Q 3209 422 3611 934 
Q 4013 1447 4013 2328 
Q 4013 3213 3611 3725 
Q 3209 4238 2522 4238 
z
M 2522 4750 
Q 3503 4750 4090 4092 
Q 4678 3434 4678 2328 
Q 4678 1225 4090 567 
Q 3503 -91 2522 -91 
Q 1538 -91 948 565 
Q 359 1222 359 2328 
Q 359 3434 948 4092 
Q 1538 4750 2522 4750 
z
" transform="scale(0.015625)"/>
     <path id="DejaVuSans-7a" d="M 353 3500 
L 3084 3500 
L 3084 2975 
L 922 459 
L 3084 459 
L 3084 0 
L 275 0 
L 275 525 
L 2438 3041 
L 353 3041 
L 353 3500 
z
" transform="scale(0.015625)"/>
    </defs>
    <use xlink:href="#DejaVuSans-4f"/>
    <use xlink:href="#DejaVuSans-70" x="78.710938"/>
    <use xlink:href="#DejaVuSans-74" x="142.1875"/>
    <use xlink:href="#DejaVuSans-69" x="181.396484"/>
    <use xlink:href="#DejaVuSans-6d" x="209.179688"/>
    <use xlink:href="#DejaVuSans-69" x="306.591797"/>
    <use xlink:href="#DejaVuSans-7a" x="334.375"/>
    <use xlink:href="#DejaVuSans-65" x="386.865234"/>
    <use xlink:href="#DejaVuSans-72" x="448.388672"/>
    <use xlink:href="#DejaVuSans-20" x="489.501953"/>
    <use xlink:href="#DejaVuSans-3a" x="521.289062"/>
    <use xlink:href="#DejaVuSans-20" x="554.980469"/>
    <use xlink:href="#DejaVuSans-41" x="586.767578"/>
    <use xlink:href="#DejaVuSans-64" x="653.425781"/>
    <use xlink:href="#DejaVuSans-61" x="716.902344"/>
    <use xlink:href="#DejaVuSans-6d" x="778.181641"/>
   </g>
  </g>
 </g>
 <defs>
  <clipPath id="p66d0190f1d">
   <rect x="108" y="43.2" width="304.363636" height="277.2"/>
  </clipPath>
  <clipPath id="pa46b603df7">
   <rect x="473.236364" y="43.2" width="304.363636" height="277.2"/>
  </clipPath>
 </defs>
</svg>
