<?xml version="1.0" encoding="utf-8" standalone="no"?>
<!DOCTYPE svg PUBLIC "-//W3C//DTD SVG 1.1//EN"
  "http://www.w3.org/Graphics/SVG/1.1/DTD/svg11.dtd">
<svg xmlns:xlink="http://www.w3.org/1999/xlink" width="720pt" height="360pt" viewBox="0 0 720 360" xmlns="http://www.w3.org/2000/svg" version="1.1">
 <metadata>
  <rdf:RDF xmlns:dc="http://purl.org/dc/elements/1.1/" xmlns:cc="http://creativecommons.org/ns#" xmlns:rdf="http://www.w3.org/1999/02/22-rdf-syntax-ns#">
   <cc:Work>
    <dc:type rdf:resource="http://purl.org/dc/dcmitype/StillImage"/>
    <dc:date>2022-09-15T23:20:51.322001</dc:date>
    <dc:format>image/svg+xml</dc:format>
    <dc:creator>
     <cc:Agent>
      <dc:title>Matplotlib v3.5.3, https://matplotlib.org/</dc:title>
     </cc:Agent>
    </dc:creator>
   </cc:Work>
  </rdf:RDF>
 </metadata>
 <defs>
  <style type="text/css">*{stroke-linejoin: round; stroke-linecap: butt}</style>
 </defs>
 <g id="figure_1">
  <g id="patch_1">
   <path d="M 0 360 
L 720 360 
L 720 0 
L 0 0 
z
" style="fill: #ffffff"/>
  </g>
  <g id="axes_1">
   <g id="patch_2">
    <path d="M 90 320.4 
L 343.636364 320.4 
L 343.636364 43.2 
L 90 43.2 
z
" style="fill: #ffffff"/>
   </g>
   <g id="matplotlib.axis_1">
    <g id="xtick_1">
     <g id="line2d_1">
      <defs>
       <path id="m1f22e7c56e" d="M 0 0 
L 0 3.5 
" style="stroke: #000000; stroke-width: 0.8"/>
      </defs>
      <g>
       <use xlink:href="#m1f22e7c56e" x="101.528926" y="320.4" style="stroke: #000000; stroke-width: 0.8"/>
      </g>
     </g>
     <g id="text_1">
      <!-- 0 -->
      <g transform="translate(98.347676 334.998438)scale(0.1 -0.1)">
       <defs>
        <path id="DejaVuSans-30" d="M 2034 4250 
Q 1547 4250 1301 3770 
Q 1056 3291 1056 2328 
Q 1056 1369 1301 889 
Q 1547 409 2034 409 
Q 2525 409 2770 889 
Q 3016 1369 3016 2328 
Q 3016 3291 2770 3770 
Q 2525 4250 2034 4250 
z
M 2034 4750 
Q 2819 4750 3233 4129 
Q 3647 3509 3647 2328 
Q 3647 1150 3233 529 
Q 2819 -91 2034 -91 
Q 1250 -91 836 529 
Q 422 1150 422 2328 
Q 422 3509 836 4129 
Q 1250 4750 2034 4750 
z
" transform="scale(0.015625)"/>
       </defs>
       <use xlink:href="#DejaVuSans-30"/>
      </g>
     </g>
    </g>
    <g id="xtick_2">
     <g id="line2d_2">
      <g>
       <use xlink:href="#m1f22e7c56e" x="159.463225" y="320.4" style="stroke: #000000; stroke-width: 0.8"/>
      </g>
     </g>
     <g id="text_2">
      <!-- 50 -->
      <g transform="translate(153.100725 334.998438)scale(0.1 -0.1)">
       <defs>
        <path id="DejaVuSans-35" d="M 691 4666 
L 3169 4666 
L 3169 4134 
L 1269 4134 
L 1269 2991 
Q 1406 3038 1543 3061 
Q 1681 3084 1819 3084 
Q 2600 3084 3056 2656 
Q 3513 2228 3513 1497 
Q 3513 744 3044 326 
Q 2575 -91 1722 -91 
Q 1428 -91 1123 -41 
Q 819 9 494 109 
L 494 744 
Q 775 591 1075 516 
Q 1375 441 1709 441 
Q 2250 441 2565 725 
Q 2881 1009 2881 1497 
Q 2881 1984 2565 2268 
Q 2250 2553 1709 2553 
Q 1456 2553 1204 2497 
Q 953 2441 691 2322 
L 691 4666 
z
" transform="scale(0.015625)"/>
       </defs>
       <use xlink:href="#DejaVuSans-35"/>
       <use xlink:href="#DejaVuSans-30" x="63.623047"/>
      </g>
     </g>
    </g>
    <g id="xtick_3">
     <g id="line2d_3">
      <g>
       <use xlink:href="#m1f22e7c56e" x="217.397525" y="320.4" style="stroke: #000000; stroke-width: 0.8"/>
      </g>
     </g>
     <g id="text_3">
      <!-- 100 -->
      <g transform="translate(207.853775 334.998438)scale(0.1 -0.1)">
       <defs>
        <path id="DejaVuSans-31" d="M 794 531 
L 1825 531 
L 1825 4091 
L 703 3866 
L 703 4441 
L 1819 4666 
L 2450 4666 
L 2450 531 
L 3481 531 
L 3481 0 
L 794 0 
L 794 531 
z
" transform="scale(0.015625)"/>
       </defs>
       <use xlink:href="#DejaVuSans-31"/>
       <use xlink:href="#DejaVuSans-30" x="63.623047"/>
       <use xlink:href="#DejaVuSans-30" x="127.246094"/>
      </g>
     </g>
    </g>
    <g id="xtick_4">
     <g id="line2d_4">
      <g>
       <use xlink:href="#m1f22e7c56e" x="275.331824" y="320.4" style="stroke: #000000; stroke-width: 0.8"/>
      </g>
     </g>
     <g id="text_4">
      <!-- 150 -->
      <g transform="translate(265.788074 334.998438)scale(0.1 -0.1)">
       <use xlink:href="#DejaVuSans-31"/>
       <use xlink:href="#DejaVuSans-35" x="63.623047"/>
       <use xlink:href="#DejaVuSans-30" x="127.246094"/>
      </g>
     </g>
    </g>
    <g id="xtick_5">
     <g id="line2d_5">
      <g>
       <use xlink:href="#m1f22e7c56e" x="333.266124" y="320.4" style="stroke: #000000; stroke-width: 0.8"/>
      </g>
     </g>
     <g id="text_5">
      <!-- 200 -->
      <g transform="translate(323.722374 334.998438)scale(0.1 -0.1)">
       <defs>
        <path id="DejaVuSans-32" d="M 1228 531 
L 3431 531 
L 3431 0 
L 469 0 
L 469 531 
Q 828 903 1448 1529 
Q 2069 2156 2228 2338 
Q 2531 2678 2651 2914 
Q 2772 3150 2772 3378 
Q 2772 3750 2511 3984 
Q 2250 4219 1831 4219 
Q 1534 4219 1204 4116 
Q 875 4013 500 3803 
L 500 4441 
Q 881 4594 1212 4672 
Q 1544 4750 1819 4750 
Q 2544 4750 2975 4387 
Q 3406 4025 3406 3419 
Q 3406 3131 3298 2873 
Q 3191 2616 2906 2266 
Q 2828 2175 2409 1742 
Q 1991 1309 1228 531 
z
" transform="scale(0.015625)"/>
       </defs>
       <use xlink:href="#DejaVuSans-32"/>
       <use xlink:href="#DejaVuSans-30" x="63.623047"/>
       <use xlink:href="#DejaVuSans-30" x="127.246094"/>
      </g>
     </g>
    </g>
   </g>
   <g id="matplotlib.axis_2">
    <g id="ytick_1">
     <g id="line2d_6">
      <defs>
       <path id="mc51e0d8510" d="M 0 0 
L -3.5 0 
" style="stroke: #000000; stroke-width: 0.8"/>
      </defs>
      <g>
       <use xlink:href="#mc51e0d8510" x="90" y="315.566362" style="stroke: #000000; stroke-width: 0.8"/>
      </g>
     </g>
     <g id="text_6">
      <!-- 0.010 -->
      <g transform="translate(54.371875 319.36558)scale(0.1 -0.1)">
       <defs>
        <path id="DejaVuSans-2e" d="M 684 794 
L 1344 794 
L 1344 0 
L 684 0 
L 684 794 
z
" transform="scale(0.015625)"/>
       </defs>
       <use xlink:href="#DejaVuSans-30"/>
       <use xlink:href="#DejaVuSans-2e" x="63.623047"/>
       <use xlink:href="#DejaVuSans-30" x="95.410156"/>
       <use xlink:href="#DejaVuSans-31" x="159.033203"/>
       <use xlink:href="#DejaVuSans-30" x="222.65625"/>
      </g>
     </g>
    </g>
    <g id="ytick_2">
     <g id="line2d_7">
      <g>
       <use xlink:href="#mc51e0d8510" x="90" y="280.856514" style="stroke: #000000; stroke-width: 0.8"/>
      </g>
     </g>
     <g id="text_7">
      <!-- 0.011 -->
      <g transform="translate(54.371875 284.655733)scale(0.1 -0.1)">
       <use xlink:href="#DejaVuSans-30"/>
       <use xlink:href="#DejaVuSans-2e" x="63.623047"/>
       <use xlink:href="#DejaVuSans-30" x="95.410156"/>
       <use xlink:href="#DejaVuSans-31" x="159.033203"/>
       <use xlink:href="#DejaVuSans-31" x="222.65625"/>
      </g>
     </g>
    </g>
    <g id="ytick_3">
     <g id="line2d_8">
      <g>
       <use xlink:href="#mc51e0d8510" x="90" y="246.146667" style="stroke: #000000; stroke-width: 0.8"/>
      </g>
     </g>
     <g id="text_8">
      <!-- 0.012 -->
      <g transform="translate(54.371875 249.945886)scale(0.1 -0.1)">
       <use xlink:href="#DejaVuSans-30"/>
       <use xlink:href="#DejaVuSans-2e" x="63.623047"/>
       <use xlink:href="#DejaVuSans-30" x="95.410156"/>
       <use xlink:href="#DejaVuSans-31" x="159.033203"/>
       <use xlink:href="#DejaVuSans-32" x="222.65625"/>
      </g>
     </g>
    </g>
    <g id="ytick_4">
     <g id="line2d_9">
      <g>
       <use xlink:href="#mc51e0d8510" x="90" y="211.43682" style="stroke: #000000; stroke-width: 0.8"/>
      </g>
     </g>
     <g id="text_9">
      <!-- 0.013 -->
      <g transform="translate(54.371875 215.236039)scale(0.1 -0.1)">
       <defs>
        <path id="DejaVuSans-33" d="M 2597 2516 
Q 3050 2419 3304 2112 
Q 3559 1806 3559 1356 
Q 3559 666 3084 287 
Q 2609 -91 1734 -91 
Q 1441 -91 1130 -33 
Q 819 25 488 141 
L 488 750 
Q 750 597 1062 519 
Q 1375 441 1716 441 
Q 2309 441 2620 675 
Q 2931 909 2931 1356 
Q 2931 1769 2642 2001 
Q 2353 2234 1838 2234 
L 1294 2234 
L 1294 2753 
L 1863 2753 
Q 2328 2753 2575 2939 
Q 2822 3125 2822 3475 
Q 2822 3834 2567 4026 
Q 2313 4219 1838 4219 
Q 1578 4219 1281 4162 
Q 984 4106 628 3988 
L 628 4550 
Q 988 4650 1302 4700 
Q 1616 4750 1894 4750 
Q 2613 4750 3031 4423 
Q 3450 4097 3450 3541 
Q 3450 3153 3228 2886 
Q 3006 2619 2597 2516 
z
" transform="scale(0.015625)"/>
       </defs>
       <use xlink:href="#DejaVuSans-30"/>
       <use xlink:href="#DejaVuSans-2e" x="63.623047"/>
       <use xlink:href="#DejaVuSans-30" x="95.410156"/>
       <use xlink:href="#DejaVuSans-31" x="159.033203"/>
       <use xlink:href="#DejaVuSans-33" x="222.65625"/>
      </g>
     </g>
    </g>
    <g id="ytick_5">
     <g id="line2d_10">
      <g>
       <use xlink:href="#mc51e0d8510" x="90" y="176.726973" style="stroke: #000000; stroke-width: 0.8"/>
      </g>
     </g>
     <g id="text_10">
      <!-- 0.014 -->
      <g transform="translate(54.371875 180.526191)scale(0.1 -0.1)">
       <defs>
        <path id="DejaVuSans-34" d="M 2419 4116 
L 825 1625 
L 2419 1625 
L 2419 4116 
z
M 2253 4666 
L 3047 4666 
L 3047 1625 
L 3713 1625 
L 3713 1100 
L 3047 1100 
L 3047 0 
L 2419 0 
L 2419 1100 
L 313 1100 
L 313 1709 
L 2253 4666 
z
" transform="scale(0.015625)"/>
       </defs>
       <use xlink:href="#DejaVuSans-30"/>
       <use xlink:href="#DejaVuSans-2e" x="63.623047"/>
       <use xlink:href="#DejaVuSans-30" x="95.410156"/>
       <use xlink:href="#DejaVuSans-31" x="159.033203"/>
       <use xlink:href="#DejaVuSans-34" x="222.65625"/>
      </g>
     </g>
    </g>
    <g id="ytick_6">
     <g id="line2d_11">
      <g>
       <use xlink:href="#mc51e0d8510" x="90" y="142.017125" style="stroke: #000000; stroke-width: 0.8"/>
      </g>
     </g>
     <g id="text_11">
      <!-- 0.015 -->
      <g transform="translate(54.371875 145.816344)scale(0.1 -0.1)">
       <use xlink:href="#DejaVuSans-30"/>
       <use xlink:href="#DejaVuSans-2e" x="63.623047"/>
       <use xlink:href="#DejaVuSans-30" x="95.410156"/>
       <use xlink:href="#DejaVuSans-31" x="159.033203"/>
       <use xlink:href="#DejaVuSans-35" x="222.65625"/>
      </g>
     </g>
    </g>
    <g id="ytick_7">
     <g id="line2d_12">
      <g>
       <use xlink:href="#mc51e0d8510" x="90" y="107.307278" style="stroke: #000000; stroke-width: 0.8"/>
      </g>
     </g>
     <g id="text_12">
      <!-- 0.016 -->
      <g transform="translate(54.371875 111.106497)scale(0.1 -0.1)">
       <defs>
        <path id="DejaVuSans-36" d="M 2113 2584 
Q 1688 2584 1439 2293 
Q 1191 2003 1191 1497 
Q 1191 994 1439 701 
Q 1688 409 2113 409 
Q 2538 409 2786 701 
Q 3034 994 3034 1497 
Q 3034 2003 2786 2293 
Q 2538 2584 2113 2584 
z
M 3366 4563 
L 3366 3988 
Q 3128 4100 2886 4159 
Q 2644 4219 2406 4219 
Q 1781 4219 1451 3797 
Q 1122 3375 1075 2522 
Q 1259 2794 1537 2939 
Q 1816 3084 2150 3084 
Q 2853 3084 3261 2657 
Q 3669 2231 3669 1497 
Q 3669 778 3244 343 
Q 2819 -91 2113 -91 
Q 1303 -91 875 529 
Q 447 1150 447 2328 
Q 447 3434 972 4092 
Q 1497 4750 2381 4750 
Q 2619 4750 2861 4703 
Q 3103 4656 3366 4563 
z
" transform="scale(0.015625)"/>
       </defs>
       <use xlink:href="#DejaVuSans-30"/>
       <use xlink:href="#DejaVuSans-2e" x="63.623047"/>
       <use xlink:href="#DejaVuSans-30" x="95.410156"/>
       <use xlink:href="#DejaVuSans-31" x="159.033203"/>
       <use xlink:href="#DejaVuSans-36" x="222.65625"/>
      </g>
     </g>
    </g>
    <g id="ytick_8">
     <g id="line2d_13">
      <g>
       <use xlink:href="#mc51e0d8510" x="90" y="72.597431" style="stroke: #000000; stroke-width: 0.8"/>
      </g>
     </g>
     <g id="text_13">
      <!-- 0.017 -->
      <g transform="translate(54.371875 76.39665)scale(0.1 -0.1)">
       <defs>
        <path id="DejaVuSans-37" d="M 525 4666 
L 3525 4666 
L 3525 4397 
L 1831 0 
L 1172 0 
L 2766 4134 
L 525 4134 
L 525 4666 
z
" transform="scale(0.015625)"/>
       </defs>
       <use xlink:href="#DejaVuSans-30"/>
       <use xlink:href="#DejaVuSans-2e" x="63.623047"/>
       <use xlink:href="#DejaVuSans-30" x="95.410156"/>
       <use xlink:href="#DejaVuSans-31" x="159.033203"/>
       <use xlink:href="#DejaVuSans-37" x="222.65625"/>
      </g>
     </g>
    </g>
    <g id="text_14">
     <!-- Loss -->
     <g transform="translate(47.044375 199.3475)rotate(-90)scale(0.16 -0.16)">
      <defs>
       <path id="DejaVuSans-4c" d="M 628 4666 
L 1259 4666 
L 1259 531 
L 3531 531 
L 3531 0 
L 628 0 
L 628 4666 
z
" transform="scale(0.015625)"/>
       <path id="DejaVuSans-6f" d="M 1959 3097 
Q 1497 3097 1228 2736 
Q 959 2375 959 1747 
Q 959 1119 1226 758 
Q 1494 397 1959 397 
Q 2419 397 2687 759 
Q 2956 1122 2956 1747 
Q 2956 2369 2687 2733 
Q 2419 3097 1959 3097 
z
M 1959 3584 
Q 2709 3584 3137 3096 
Q 3566 2609 3566 1747 
Q 3566 888 3137 398 
Q 2709 -91 1959 -91 
Q 1206 -91 779 398 
Q 353 888 353 1747 
Q 353 2609 779 3096 
Q 1206 3584 1959 3584 
z
" transform="scale(0.015625)"/>
       <path id="DejaVuSans-73" d="M 2834 3397 
L 2834 2853 
Q 2591 2978 2328 3040 
Q 2066 3103 1784 3103 
Q 1356 3103 1142 2972 
Q 928 2841 928 2578 
Q 928 2378 1081 2264 
Q 1234 2150 1697 2047 
L 1894 2003 
Q 2506 1872 2764 1633 
Q 3022 1394 3022 966 
Q 3022 478 2636 193 
Q 2250 -91 1575 -91 
Q 1294 -91 989 -36 
Q 684 19 347 128 
L 347 722 
Q 666 556 975 473 
Q 1284 391 1588 391 
Q 1994 391 2212 530 
Q 2431 669 2431 922 
Q 2431 1156 2273 1281 
Q 2116 1406 1581 1522 
L 1381 1569 
Q 847 1681 609 1914 
Q 372 2147 372 2553 
Q 372 3047 722 3315 
Q 1072 3584 1716 3584 
Q 2034 3584 2315 3537 
Q 2597 3491 2834 3397 
z
" transform="scale(0.015625)"/>
      </defs>
      <use xlink:href="#DejaVuSans-4c"/>
      <use xlink:href="#DejaVuSans-6f" x="53.962891"/>
      <use xlink:href="#DejaVuSans-73" x="115.144531"/>
      <use xlink:href="#DejaVuSans-73" x="167.244141"/>
     </g>
    </g>
   </g>
   <g id="line2d_14">
    <path d="M 101.528926 60.596929 
L 102.687612 55.8 
L 103.846298 59.72794 
L 105.004984 86.813174 
L 106.16367 70.236174 
L 107.322356 56.6205 
L 108.481042 87.619321 
L 109.639728 72.037511 
L 110.798414 75.931186 
L 111.9571 72.196556 
L 113.115786 86.356212 
L 114.274472 76.706688 
L 115.433158 76.119711 
L 116.591844 77.938053 
L 117.75053 74.783287 
L 118.909215 76.607188 
L 120.067901 83.390619 
L 121.226587 78.692155 
L 122.385273 95.942248 
L 123.543959 82.73996 
L 124.702645 56.151837 
L 125.861331 62.772926 
L 127.020017 87.113677 
L 128.178703 78.90861 
L 129.337389 79.968129 
L 130.496075 78.685237 
L 131.654761 60.854309 
L 132.813447 73.223555 
L 133.972133 76.560057 
L 135.130819 64.968706 
L 136.289505 72.539406 
L 137.448191 70.956205 
L 138.606877 78.845962 
L 139.765563 82.396981 
L 140.924249 66.549515 
L 142.082935 85.575796 
L 143.241621 77.549881 
L 144.400307 75.71014 
L 145.558993 91.733459 
L 146.717679 84.638858 
L 147.876365 84.833719 
L 149.035051 88.628153 
L 150.193737 68.570929 
L 151.352423 75.48069 
L 152.511109 81.375089 
L 153.669795 84.70726 
L 154.828481 92.538637 
L 155.987167 81.892177 
L 157.145853 82.930813 
L 158.304539 96.701717 
L 159.463225 88.440856 
L 160.621911 84.124162 
L 161.780597 86.406835 
L 164.097969 96.151462 
L 165.256655 93.981995 
L 166.415341 100.808614 
L 167.574027 99.067467 
L 168.732713 87.85 
L 169.891399 80.593962 
L 171.050085 90.585625 
L 172.208771 97.299296 
L 173.367457 70.512303 
L 174.526143 85.887549 
L 175.684829 92.407328 
L 176.843515 108.914568 
L 178.002201 89.990761 
L 179.160887 97.514006 
L 180.319573 99.711467 
L 181.478259 104.625158 
L 182.636945 94.999426 
L 183.795631 105.449408 
L 184.954317 104.075292 
L 186.113003 98.253756 
L 187.271689 104.816593 
L 188.430375 108.017585 
L 189.589061 103.123031 
L 190.747747 121.265355 
L 191.906433 100.223965 
L 193.065119 106.05397 
L 194.223805 108.2963 
L 195.382491 104.869414 
L 196.541177 84.895656 
L 197.699863 121.354963 
L 198.858549 74.415611 
L 200.017235 106.335724 
L 201.175921 114.262011 
L 202.334607 111.740771 
L 203.493293 111.468004 
L 204.651979 104.003787 
L 205.810665 113.881016 
L 206.969351 101.955736 
L 208.128037 106.92574 
L 209.286723 97.507282 
L 210.445409 99.555074 
L 211.604095 95.814754 
L 212.762781 120.800894 
L 213.921467 104.091778 
L 215.080153 97.782829 
L 216.238839 106.181529 
L 217.397525 106.054487 
L 218.556211 104.07943 
L 219.714897 117.466817 
L 220.873583 107.780247 
L 222.032269 95.821284 
L 223.190955 103.50881 
L 224.349641 114.52133 
L 225.508327 106.050867 
L 226.667013 107.421363 
L 227.825699 90.09414 
L 228.984385 102.396211 
L 230.143071 101.898713 
L 231.301757 116.227371 
L 232.460443 120.751274 
L 233.619129 121.52377 
L 234.777815 95.985953 
L 235.936501 112.643638 
L 237.095187 122.58303 
L 238.253873 89.558044 
L 239.412559 121.940388 
L 240.571245 111.69267 
L 241.729931 112.017095 
L 242.888617 120.255392 
L 244.047303 123.753719 
L 245.205989 118.95957 
L 246.364675 127.741462 
L 247.523361 108.393408 
L 248.682047 124.999921 
L 249.840733 119.898965 
L 250.999419 124.849863 
L 252.158105 109.708884 
L 253.316791 128.306198 
L 254.475477 129.247533 
L 255.634163 94.293295 
L 256.792849 103.780478 
L 257.951535 119.335651 
L 259.110221 116.57591 
L 260.268907 131.036619 
L 261.427593 127.88958 
L 262.586278 132.953717 
L 263.744964 113.12465 
L 264.90365 122.074541 
L 266.062336 122.074541 
L 267.221022 118.60547 
L 268.379708 111.562849 
L 269.538394 123.645006 
L 270.69708 120.129967 
L 271.855766 138.160056 
L 273.014452 129.824295 
L 274.173138 133.270124 
L 275.331824 115.191062 
L 276.49051 129.435057 
L 277.649196 122.403588 
L 278.807882 121.383927 
L 279.966568 115.043913 
L 281.125254 132.016099 
L 282.28394 126.912913 
L 283.442626 128.024121 
L 284.601312 144.231505 
L 285.759998 129.290236 
L 286.918684 127.361857 
L 288.07737 131.402744 
L 289.236056 132.098207 
L 290.394742 132.095557 
L 291.553428 142.72692 
L 292.712114 140.21525 
L 293.8708 128.923271 
L 295.029486 137.16674 
L 296.188172 127.529177 
L 297.346858 142.308072 
L 298.505544 136.416388 
L 299.66423 125.517332 
L 300.822916 123.248721 
L 303.140288 123.7939 
L 304.298974 121.485884 
L 305.45766 115.394845 
L 306.616346 121.812054 
L 307.775032 138.88028 
L 308.933718 124.692694 
L 310.092404 124.012974 
L 311.25109 124.936691 
L 312.409776 126.545592 
L 313.568462 106.713099 
L 314.727148 117.809796 
L 315.885834 116.693254 
L 317.04452 120.145742 
L 318.203206 134.080086 
L 319.361892 136.158587 
L 320.520578 133.431787 
L 321.679264 139.810431 
L 322.83795 119.017045 
L 323.996636 136.242506 
L 325.155322 127.977281 
L 326.314008 121.708028 
L 327.472694 145.248806 
L 328.63138 134.023322 
L 329.790066 121.02249 
L 330.948752 143.398268 
L 332.107438 131.949928 
L 332.107438 131.949928 
" clip-path="url(#pc10e55fffa)" style="fill: none; stroke: #1f77b4; stroke-width: 1.5; stroke-linecap: square"/>
   </g>
   <g id="line2d_15">
    <path d="M 101.528926 229.223936 
L 102.687612 207.892161 
L 103.846298 232.218655 
L 105.004984 225.867166 
L 106.16367 233.029296 
L 108.481042 244.761847 
L 109.639728 224.886328 
L 110.798414 234.975293 
L 111.9571 259.375006 
L 113.115786 268.840175 
L 114.274472 262.104684 
L 115.433158 260.714146 
L 116.591844 248.362292 
L 117.75053 228.674361 
L 118.909215 216.681747 
L 120.067901 243.305364 
L 121.226587 215.691179 
L 122.385273 261.98831 
L 123.543959 253.84754 
L 124.702645 209.467798 
L 125.861331 236.38555 
L 127.020017 238.076138 
L 128.178703 234.905695 
L 129.337389 260.214579 
L 130.496075 222.915376 
L 131.654761 245.31139 
L 132.813447 199.200555 
L 133.972133 230.713263 
L 135.130819 219.392966 
L 136.289505 245.984936 
L 137.448191 227.996904 
L 138.606877 215.373058 
L 139.765563 247.675977 
L 140.924249 196.161226 
L 142.082935 191.424197 
L 143.241621 253.940057 
L 144.400307 244.846865 
L 145.558993 239.583309 
L 146.717679 239.753893 
L 147.876365 243.505721 
L 149.035051 242.491879 
L 150.193737 235.614088 
L 151.352423 259.840631 
L 152.511109 242.267568 
L 153.669795 271.800208 
L 154.828481 240.445736 
L 155.987167 253.295282 
L 157.145853 267.956639 
L 158.304539 231.413639 
L 159.463225 242.394028 
L 160.621911 231.353093 
L 161.780597 234.75554 
L 162.939283 213.183937 
L 164.097969 252.980393 
L 165.256655 236.670989 
L 166.415341 255.790563 
L 167.574027 229.977716 
L 168.732713 247.646625 
L 169.891399 195.550069 
L 171.050085 254.981118 
L 172.208771 228.205956 
L 173.367457 238.004536 
L 175.684829 259.693418 
L 176.843515 265.369099 
L 178.002201 255.101242 
L 179.160887 247.905169 
L 180.319573 258.531942 
L 181.478259 232.234948 
L 182.636945 209.479888 
L 183.795631 261.439704 
L 184.954317 270.042187 
L 186.113003 233.339174 
L 188.430375 219.842719 
L 189.589061 258.79915 
L 190.747747 246.641414 
L 191.906433 277.643403 
L 193.065119 275.0108 
L 194.223805 253.987803 
L 195.382491 235.205778 
L 196.541177 239.613566 
L 197.699863 233.262949 
L 198.858549 255.673833 
L 200.017235 249.138053 
L 201.175921 216.466003 
L 202.334607 273.906833 
L 203.493293 194.883344 
L 204.651979 224.468481 
L 205.810665 201.273755 
L 206.969351 235.631544 
L 208.128037 257.865896 
L 209.286723 244.701688 
L 210.445409 253.399501 
L 211.604095 251.337486 
L 212.762781 258.779463 
L 213.921467 275.589049 
L 215.080153 239.429857 
L 216.238839 242.173532 
L 217.397525 271.329217 
L 218.556211 227.562409 
L 219.714897 231.282331 
L 220.873583 225.473499 
L 222.032269 278.943525 
L 223.190955 211.590198 
L 224.349641 252.326146 
L 225.508327 211.468037 
L 226.667013 275.423054 
L 227.825699 248.826526 
L 228.984385 263.180075 
L 230.143071 244.349561 
L 231.301757 288.877777 
L 232.460443 256.728601 
L 233.619129 253.476081 
L 234.777815 251.346311 
L 235.936501 206.361457 
L 237.095187 263.230116 
L 238.253873 231.627606 
L 239.412559 252.140433 
L 240.571245 266.843782 
L 241.729931 244.521568 
L 242.888617 257.546547 
L 244.047303 254.635262 
L 245.205989 281.397881 
L 246.364675 254.505214 
L 247.523361 257.683448 
L 248.682047 239.023195 
L 249.840733 286.902977 
L 250.999419 266.299702 
L 252.158105 230.397049 
L 253.316791 241.841123 
L 254.475477 242.335873 
L 255.634163 248.707567 
L 256.792849 270.050398 
L 257.951535 176.842814 
L 259.110221 245.919734 
L 260.268907 246.005075 
L 261.427593 261.555108 
L 262.586278 264.620427 
L 263.744964 275.48845 
L 264.90365 212.333891 
L 266.062336 283.760658 
L 267.221022 278.366666 
L 268.379708 277.246632 
L 269.538394 269.134924 
L 270.69708 217.874029 
L 271.855766 246.53241 
L 273.014452 237.033817 
L 274.173138 249.863126 
L 275.331824 259.498039 
L 276.49051 262.363874 
L 277.649196 286.892083 
L 278.807882 260.538389 
L 279.966568 268.391069 
L 281.125254 286.296799 
L 282.28394 206.734887 
L 283.442626 271.731871 
L 284.601312 233.738498 
L 285.759998 307.8 
L 286.918684 283.740615 
L 288.07737 269.308385 
L 289.236056 274.127555 
L 290.394742 275.684508 
L 291.553428 247.678984 
L 292.712114 251.584813 
L 293.8708 272.783405 
L 295.029486 256.607152 
L 296.188172 260.996352 
L 297.346858 255.909749 
L 298.505544 236.08815 
L 299.66423 249.326514 
L 300.822916 258.303785 
L 301.981602 257.828172 
L 303.140288 266.080305 
L 304.298974 224.127151 
L 305.45766 284.02502 
L 306.616346 268.488661 
L 307.775032 244.408329 
L 308.933718 295.539241 
L 310.092404 242.091359 
L 311.25109 274.582868 
L 312.409776 274.902637 
L 313.568462 232.212222 
L 314.727148 253.482385 
L 315.885834 259.389973 
L 317.04452 230.150272 
L 318.203206 252.636347 
L 319.361892 234.939508 
L 320.520578 268.446637 
L 321.679264 243.537627 
L 322.83795 228.982008 
L 323.996636 204.300153 
L 325.155322 275.047717 
L 326.314008 279.757753 
L 327.472694 241.058379 
L 328.63138 265.356556 
L 329.790066 253.829276 
L 330.948752 234.510412 
L 332.107438 248.893344 
L 332.107438 248.893344 
" clip-path="url(#pc10e55fffa)" style="fill: none; stroke: #ff7f0e; stroke-width: 1.5; stroke-linecap: square"/>
   </g>
   <g id="line2d_16">
    <path d="M 285.759998 307.8 
" clip-path="url(#pc10e55fffa)" style="fill: none; stroke: #ff0000; stroke-width: 1.5; stroke-linecap: square"/>
    <defs>
     <path id="ma082c491c8" d="M -3 3 
L 3 -3 
M -3 -3 
L 3 3 
" style="stroke: #ff0000"/>
    </defs>
    <g clip-path="url(#pc10e55fffa)">
     <use xlink:href="#ma082c491c8" x="285.759998" y="307.8" style="fill: #ff0000; stroke: #ff0000"/>
    </g>
   </g>
   <g id="patch_3">
    <path d="M 90 320.4 
L 90 43.2 
" style="fill: none; stroke: #000000; stroke-width: 0.8; stroke-linejoin: miter; stroke-linecap: square"/>
   </g>
   <g id="patch_4">
    <path d="M 343.636364 320.4 
L 343.636364 43.2 
" style="fill: none; stroke: #000000; stroke-width: 0.8; stroke-linejoin: miter; stroke-linecap: square"/>
   </g>
   <g id="patch_5">
    <path d="M 90 320.4 
L 343.636364 320.4 
" style="fill: none; stroke: #000000; stroke-width: 0.8; stroke-linejoin: miter; stroke-linecap: square"/>
   </g>
   <g id="patch_6">
    <path d="M 90 43.2 
L 343.636364 43.2 
" style="fill: none; stroke: #000000; stroke-width: 0.8; stroke-linejoin: miter; stroke-linecap: square"/>
   </g>
   <g id="text_15">
    <!-- Best epoch: 159 with loss: 0.010 -->
    <g transform="translate(118.734119 37.2)scale(0.12 -0.12)">
     <defs>
      <path id="DejaVuSans-42" d="M 1259 2228 
L 1259 519 
L 2272 519 
Q 2781 519 3026 730 
Q 3272 941 3272 1375 
Q 3272 1813 3026 2020 
Q 2781 2228 2272 2228 
L 1259 2228 
z
M 1259 4147 
L 1259 2741 
L 2194 2741 
Q 2656 2741 2882 2914 
Q 3109 3088 3109 3444 
Q 3109 3797 2882 3972 
Q 2656 4147 2194 4147 
L 1259 4147 
z
M 628 4666 
L 2241 4666 
Q 2963 4666 3353 4366 
Q 3744 4066 3744 3513 
Q 3744 3084 3544 2831 
Q 3344 2578 2956 2516 
Q 3422 2416 3680 2098 
Q 3938 1781 3938 1306 
Q 3938 681 3513 340 
Q 3088 0 2303 0 
L 628 0 
L 628 4666 
z
" transform="scale(0.015625)"/>
      <path id="DejaVuSans-65" d="M 3597 1894 
L 3597 1613 
L 953 1613 
Q 991 1019 1311 708 
Q 1631 397 2203 397 
Q 2534 397 2845 478 
Q 3156 559 3463 722 
L 3463 178 
Q 3153 47 2828 -22 
Q 2503 -91 2169 -91 
Q 1331 -91 842 396 
Q 353 884 353 1716 
Q 353 2575 817 3079 
Q 1281 3584 2069 3584 
Q 2775 3584 3186 3129 
Q 3597 2675 3597 1894 
z
M 3022 2063 
Q 3016 2534 2758 2815 
Q 2500 3097 2075 3097 
Q 1594 3097 1305 2825 
Q 1016 2553 972 2059 
L 3022 2063 
z
" transform="scale(0.015625)"/>
      <path id="DejaVuSans-74" d="M 1172 4494 
L 1172 3500 
L 2356 3500 
L 2356 3053 
L 1172 3053 
L 1172 1153 
Q 1172 725 1289 603 
Q 1406 481 1766 481 
L 2356 481 
L 2356 0 
L 1766 0 
Q 1100 0 847 248 
Q 594 497 594 1153 
L 594 3053 
L 172 3053 
L 172 3500 
L 594 3500 
L 594 4494 
L 1172 4494 
z
" transform="scale(0.015625)"/>
      <path id="DejaVuSans-20" transform="scale(0.015625)"/>
      <path id="DejaVuSans-70" d="M 1159 525 
L 1159 -1331 
L 581 -1331 
L 581 3500 
L 1159 3500 
L 1159 2969 
Q 1341 3281 1617 3432 
Q 1894 3584 2278 3584 
Q 2916 3584 3314 3078 
Q 3713 2572 3713 1747 
Q 3713 922 3314 415 
Q 2916 -91 2278 -91 
Q 1894 -91 1617 61 
Q 1341 213 1159 525 
z
M 3116 1747 
Q 3116 2381 2855 2742 
Q 2594 3103 2138 3103 
Q 1681 3103 1420 2742 
Q 1159 2381 1159 1747 
Q 1159 1113 1420 752 
Q 1681 391 2138 391 
Q 2594 391 2855 752 
Q 3116 1113 3116 1747 
z
" transform="scale(0.015625)"/>
      <path id="DejaVuSans-63" d="M 3122 3366 
L 3122 2828 
Q 2878 2963 2633 3030 
Q 2388 3097 2138 3097 
Q 1578 3097 1268 2742 
Q 959 2388 959 1747 
Q 959 1106 1268 751 
Q 1578 397 2138 397 
Q 2388 397 2633 464 
Q 2878 531 3122 666 
L 3122 134 
Q 2881 22 2623 -34 
Q 2366 -91 2075 -91 
Q 1284 -91 818 406 
Q 353 903 353 1747 
Q 353 2603 823 3093 
Q 1294 3584 2113 3584 
Q 2378 3584 2631 3529 
Q 2884 3475 3122 3366 
z
" transform="scale(0.015625)"/>
      <path id="DejaVuSans-68" d="M 3513 2113 
L 3513 0 
L 2938 0 
L 2938 2094 
Q 2938 2591 2744 2837 
Q 2550 3084 2163 3084 
Q 1697 3084 1428 2787 
Q 1159 2491 1159 1978 
L 1159 0 
L 581 0 
L 581 4863 
L 1159 4863 
L 1159 2956 
Q 1366 3272 1645 3428 
Q 1925 3584 2291 3584 
Q 2894 3584 3203 3211 
Q 3513 2838 3513 2113 
z
" transform="scale(0.015625)"/>
      <path id="DejaVuSans-3a" d="M 750 794 
L 1409 794 
L 1409 0 
L 750 0 
L 750 794 
z
M 750 3309 
L 1409 3309 
L 1409 2516 
L 750 2516 
L 750 3309 
z
" transform="scale(0.015625)"/>
      <path id="DejaVuSans-39" d="M 703 97 
L 703 672 
Q 941 559 1184 500 
Q 1428 441 1663 441 
Q 2288 441 2617 861 
Q 2947 1281 2994 2138 
Q 2813 1869 2534 1725 
Q 2256 1581 1919 1581 
Q 1219 1581 811 2004 
Q 403 2428 403 3163 
Q 403 3881 828 4315 
Q 1253 4750 1959 4750 
Q 2769 4750 3195 4129 
Q 3622 3509 3622 2328 
Q 3622 1225 3098 567 
Q 2575 -91 1691 -91 
Q 1453 -91 1209 -44 
Q 966 3 703 97 
z
M 1959 2075 
Q 2384 2075 2632 2365 
Q 2881 2656 2881 3163 
Q 2881 3666 2632 3958 
Q 2384 4250 1959 4250 
Q 1534 4250 1286 3958 
Q 1038 3666 1038 3163 
Q 1038 2656 1286 2365 
Q 1534 2075 1959 2075 
z
" transform="scale(0.015625)"/>
      <path id="DejaVuSans-77" d="M 269 3500 
L 844 3500 
L 1563 769 
L 2278 3500 
L 2956 3500 
L 3675 769 
L 4391 3500 
L 4966 3500 
L 4050 0 
L 3372 0 
L 2619 2869 
L 1863 0 
L 1184 0 
L 269 3500 
z
" transform="scale(0.015625)"/>
      <path id="DejaVuSans-69" d="M 603 3500 
L 1178 3500 
L 1178 0 
L 603 0 
L 603 3500 
z
M 603 4863 
L 1178 4863 
L 1178 4134 
L 603 4134 
L 603 4863 
z
" transform="scale(0.015625)"/>
      <path id="DejaVuSans-6c" d="M 603 4863 
L 1178 4863 
L 1178 0 
L 603 0 
L 603 4863 
z
" transform="scale(0.015625)"/>
     </defs>
     <use xlink:href="#DejaVuSans-42"/>
     <use xlink:href="#DejaVuSans-65" x="68.603516"/>
     <use xlink:href="#DejaVuSans-73" x="130.126953"/>
     <use xlink:href="#DejaVuSans-74" x="182.226562"/>
     <use xlink:href="#DejaVuSans-20" x="221.435547"/>
     <use xlink:href="#DejaVuSans-65" x="253.222656"/>
     <use xlink:href="#DejaVuSans-70" x="314.746094"/>
     <use xlink:href="#DejaVuSans-6f" x="378.222656"/>
     <use xlink:href="#DejaVuSans-63" x="439.404297"/>
     <use xlink:href="#DejaVuSans-68" x="494.384766"/>
     <use xlink:href="#DejaVuSans-3a" x="557.763672"/>
     <use xlink:href="#DejaVuSans-20" x="591.455078"/>
     <use xlink:href="#DejaVuSans-31" x="623.242188"/>
     <use xlink:href="#DejaVuSans-35" x="686.865234"/>
     <use xlink:href="#DejaVuSans-39" x="750.488281"/>
     <use xlink:href="#DejaVuSans-20" x="814.111328"/>
     <use xlink:href="#DejaVuSans-77" x="845.898438"/>
     <use xlink:href="#DejaVuSans-69" x="927.685547"/>
     <use xlink:href="#DejaVuSans-74" x="955.46875"/>
     <use xlink:href="#DejaVuSans-68" x="994.677734"/>
     <use xlink:href="#DejaVuSans-20" x="1058.056641"/>
     <use xlink:href="#DejaVuSans-6c" x="1089.84375"/>
     <use xlink:href="#DejaVuSans-6f" x="1117.626953"/>
     <use xlink:href="#DejaVuSans-73" x="1178.808594"/>
     <use xlink:href="#DejaVuSans-73" x="1230.908203"/>
     <use xlink:href="#DejaVuSans-3a" x="1283.007812"/>
     <use xlink:href="#DejaVuSans-20" x="1316.699219"/>
     <use xlink:href="#DejaVuSans-30" x="1348.486328"/>
     <use xlink:href="#DejaVuSans-2e" x="1412.109375"/>
     <use xlink:href="#DejaVuSans-30" x="1443.896484"/>
     <use xlink:href="#DejaVuSans-31" x="1507.519531"/>
     <use xlink:href="#DejaVuSans-30" x="1571.142578"/>
    </g>
   </g>
   <g id="legend_1">
    <g id="patch_7">
     <path d="M 230.142614 95.234375 
L 336.636364 95.234375 
Q 338.636364 95.234375 338.636364 93.234375 
L 338.636364 50.2 
Q 338.636364 48.2 336.636364 48.2 
L 230.142614 48.2 
Q 228.142614 48.2 228.142614 50.2 
L 228.142614 93.234375 
Q 228.142614 95.234375 230.142614 95.234375 
z
" style="fill: #ffffff; opacity: 0.8; stroke: #cccccc; stroke-linejoin: miter"/>
    </g>
    <g id="line2d_17">
     <path d="M 232.142614 56.298437 
L 242.142614 56.298437 
L 252.142614 56.298437 
" style="fill: none; stroke: #1f77b4; stroke-width: 1.5; stroke-linecap: square"/>
    </g>
    <g id="text_16">
     <!-- Training Loss -->
     <g transform="translate(260.142614 59.798437)scale(0.1 -0.1)">
      <defs>
       <path id="DejaVuSans-54" d="M -19 4666 
L 3928 4666 
L 3928 4134 
L 2272 4134 
L 2272 0 
L 1638 0 
L 1638 4134 
L -19 4134 
L -19 4666 
z
" transform="scale(0.015625)"/>
       <path id="DejaVuSans-72" d="M 2631 2963 
Q 2534 3019 2420 3045 
Q 2306 3072 2169 3072 
Q 1681 3072 1420 2755 
Q 1159 2438 1159 1844 
L 1159 0 
L 581 0 
L 581 3500 
L 1159 3500 
L 1159 2956 
Q 1341 3275 1631 3429 
Q 1922 3584 2338 3584 
Q 2397 3584 2469 3576 
Q 2541 3569 2628 3553 
L 2631 2963 
z
" transform="scale(0.015625)"/>
       <path id="DejaVuSans-61" d="M 2194 1759 
Q 1497 1759 1228 1600 
Q 959 1441 959 1056 
Q 959 750 1161 570 
Q 1363 391 1709 391 
Q 2188 391 2477 730 
Q 2766 1069 2766 1631 
L 2766 1759 
L 2194 1759 
z
M 3341 1997 
L 3341 0 
L 2766 0 
L 2766 531 
Q 2569 213 2275 61 
Q 1981 -91 1556 -91 
Q 1019 -91 701 211 
Q 384 513 384 1019 
Q 384 1609 779 1909 
Q 1175 2209 1959 2209 
L 2766 2209 
L 2766 2266 
Q 2766 2663 2505 2880 
Q 2244 3097 1772 3097 
Q 1472 3097 1187 3025 
Q 903 2953 641 2809 
L 641 3341 
Q 956 3463 1253 3523 
Q 1550 3584 1831 3584 
Q 2591 3584 2966 3190 
Q 3341 2797 3341 1997 
z
" transform="scale(0.015625)"/>
       <path id="DejaVuSans-6e" d="M 3513 2113 
L 3513 0 
L 2938 0 
L 2938 2094 
Q 2938 2591 2744 2837 
Q 2550 3084 2163 3084 
Q 1697 3084 1428 2787 
Q 1159 2491 1159 1978 
L 1159 0 
L 581 0 
L 581 3500 
L 1159 3500 
L 1159 2956 
Q 1366 3272 1645 3428 
Q 1925 3584 2291 3584 
Q 2894 3584 3203 3211 
Q 3513 2838 3513 2113 
z
" transform="scale(0.015625)"/>
       <path id="DejaVuSans-67" d="M 2906 1791 
Q 2906 2416 2648 2759 
Q 2391 3103 1925 3103 
Q 1463 3103 1205 2759 
Q 947 2416 947 1791 
Q 947 1169 1205 825 
Q 1463 481 1925 481 
Q 2391 481 2648 825 
Q 2906 1169 2906 1791 
z
M 3481 434 
Q 3481 -459 3084 -895 
Q 2688 -1331 1869 -1331 
Q 1566 -1331 1297 -1286 
Q 1028 -1241 775 -1147 
L 775 -588 
Q 1028 -725 1275 -790 
Q 1522 -856 1778 -856 
Q 2344 -856 2625 -561 
Q 2906 -266 2906 331 
L 2906 616 
Q 2728 306 2450 153 
Q 2172 0 1784 0 
Q 1141 0 747 490 
Q 353 981 353 1791 
Q 353 2603 747 3093 
Q 1141 3584 1784 3584 
Q 2172 3584 2450 3431 
Q 2728 3278 2906 2969 
L 2906 3500 
L 3481 3500 
L 3481 434 
z
" transform="scale(0.015625)"/>
      </defs>
      <use xlink:href="#DejaVuSans-54"/>
      <use xlink:href="#DejaVuSans-72" x="46.333984"/>
      <use xlink:href="#DejaVuSans-61" x="87.447266"/>
      <use xlink:href="#DejaVuSans-69" x="148.726562"/>
      <use xlink:href="#DejaVuSans-6e" x="176.509766"/>
      <use xlink:href="#DejaVuSans-69" x="239.888672"/>
      <use xlink:href="#DejaVuSans-6e" x="267.671875"/>
      <use xlink:href="#DejaVuSans-67" x="331.050781"/>
      <use xlink:href="#DejaVuSans-20" x="394.527344"/>
      <use xlink:href="#DejaVuSans-4c" x="426.314453"/>
      <use xlink:href="#DejaVuSans-6f" x="480.277344"/>
      <use xlink:href="#DejaVuSans-73" x="541.458984"/>
      <use xlink:href="#DejaVuSans-73" x="593.558594"/>
     </g>
    </g>
    <g id="line2d_18">
     <path d="M 232.142614 70.976562 
L 242.142614 70.976562 
L 252.142614 70.976562 
" style="fill: none; stroke: #ff7f0e; stroke-width: 1.5; stroke-linecap: square"/>
    </g>
    <g id="text_17">
     <!-- Validation Loss -->
     <g transform="translate(260.142614 74.476562)scale(0.1 -0.1)">
      <defs>
       <path id="DejaVuSans-56" d="M 1831 0 
L 50 4666 
L 709 4666 
L 2188 738 
L 3669 4666 
L 4325 4666 
L 2547 0 
L 1831 0 
z
" transform="scale(0.015625)"/>
       <path id="DejaVuSans-64" d="M 2906 2969 
L 2906 4863 
L 3481 4863 
L 3481 0 
L 2906 0 
L 2906 525 
Q 2725 213 2448 61 
Q 2172 -91 1784 -91 
Q 1150 -91 751 415 
Q 353 922 353 1747 
Q 353 2572 751 3078 
Q 1150 3584 1784 3584 
Q 2172 3584 2448 3432 
Q 2725 3281 2906 2969 
z
M 947 1747 
Q 947 1113 1208 752 
Q 1469 391 1925 391 
Q 2381 391 2643 752 
Q 2906 1113 2906 1747 
Q 2906 2381 2643 2742 
Q 2381 3103 1925 3103 
Q 1469 3103 1208 2742 
Q 947 2381 947 1747 
z
" transform="scale(0.015625)"/>
      </defs>
      <use xlink:href="#DejaVuSans-56"/>
      <use xlink:href="#DejaVuSans-61" x="60.658203"/>
      <use xlink:href="#DejaVuSans-6c" x="121.9375"/>
      <use xlink:href="#DejaVuSans-69" x="149.720703"/>
      <use xlink:href="#DejaVuSans-64" x="177.503906"/>
      <use xlink:href="#DejaVuSans-61" x="240.980469"/>
      <use xlink:href="#DejaVuSans-74" x="302.259766"/>
      <use xlink:href="#DejaVuSans-69" x="341.46875"/>
      <use xlink:href="#DejaVuSans-6f" x="369.251953"/>
      <use xlink:href="#DejaVuSans-6e" x="430.433594"/>
      <use xlink:href="#DejaVuSans-20" x="493.8125"/>
      <use xlink:href="#DejaVuSans-4c" x="525.599609"/>
      <use xlink:href="#DejaVuSans-6f" x="579.5625"/>
      <use xlink:href="#DejaVuSans-73" x="640.744141"/>
      <use xlink:href="#DejaVuSans-73" x="692.84375"/>
     </g>
    </g>
    <g id="line2d_19">
     <path d="M 232.142614 85.654687 
L 242.142614 85.654687 
L 252.142614 85.654687 
" style="fill: none; stroke: #ff0000; stroke-width: 1.5; stroke-linecap: square"/>
     <g>
      <use xlink:href="#ma082c491c8" x="242.142614" y="85.654687" style="fill: #ff0000; stroke: #ff0000"/>
     </g>
    </g>
    <g id="text_18">
     <!-- best model -->
     <g transform="translate(260.142614 89.154687)scale(0.1 -0.1)">
      <defs>
       <path id="DejaVuSans-62" d="M 3116 1747 
Q 3116 2381 2855 2742 
Q 2594 3103 2138 3103 
Q 1681 3103 1420 2742 
Q 1159 2381 1159 1747 
Q 1159 1113 1420 752 
Q 1681 391 2138 391 
Q 2594 391 2855 752 
Q 3116 1113 3116 1747 
z
M 1159 2969 
Q 1341 3281 1617 3432 
Q 1894 3584 2278 3584 
Q 2916 3584 3314 3078 
Q 3713 2572 3713 1747 
Q 3713 922 3314 415 
Q 2916 -91 2278 -91 
Q 1894 -91 1617 61 
Q 1341 213 1159 525 
L 1159 0 
L 581 0 
L 581 4863 
L 1159 4863 
L 1159 2969 
z
" transform="scale(0.015625)"/>
       <path id="DejaVuSans-6d" d="M 3328 2828 
Q 3544 3216 3844 3400 
Q 4144 3584 4550 3584 
Q 5097 3584 5394 3201 
Q 5691 2819 5691 2113 
L 5691 0 
L 5113 0 
L 5113 2094 
Q 5113 2597 4934 2840 
Q 4756 3084 4391 3084 
Q 3944 3084 3684 2787 
Q 3425 2491 3425 1978 
L 3425 0 
L 2847 0 
L 2847 2094 
Q 2847 2600 2669 2842 
Q 2491 3084 2119 3084 
Q 1678 3084 1418 2786 
Q 1159 2488 1159 1978 
L 1159 0 
L 581 0 
L 581 3500 
L 1159 3500 
L 1159 2956 
Q 1356 3278 1631 3431 
Q 1906 3584 2284 3584 
Q 2666 3584 2933 3390 
Q 3200 3197 3328 2828 
z
" transform="scale(0.015625)"/>
      </defs>
      <use xlink:href="#DejaVuSans-62"/>
      <use xlink:href="#DejaVuSans-65" x="63.476562"/>
      <use xlink:href="#DejaVuSans-73" x="125"/>
      <use xlink:href="#DejaVuSans-74" x="177.099609"/>
      <use xlink:href="#DejaVuSans-20" x="216.308594"/>
      <use xlink:href="#DejaVuSans-6d" x="248.095703"/>
      <use xlink:href="#DejaVuSans-6f" x="345.507812"/>
      <use xlink:href="#DejaVuSans-64" x="406.689453"/>
      <use xlink:href="#DejaVuSans-65" x="470.166016"/>
      <use xlink:href="#DejaVuSans-6c" x="531.689453"/>
     </g>
    </g>
   </g>
  </g>
  <g id="axes_2">
   <g id="patch_8">
    <path d="M 394.363636 320.4 
L 648 320.4 
L 648 43.2 
L 394.363636 43.2 
z
" style="fill: #ffffff"/>
   </g>
   <g id="matplotlib.axis_3">
    <g id="xtick_6">
     <g id="line2d_20">
      <g>
       <use xlink:href="#m1f22e7c56e" x="405.892562" y="320.4" style="stroke: #000000; stroke-width: 0.8"/>
      </g>
     </g>
     <g id="text_19">
      <!-- 0 -->
      <g transform="translate(402.711312 334.998438)scale(0.1 -0.1)">
       <use xlink:href="#DejaVuSans-30"/>
      </g>
     </g>
    </g>
    <g id="xtick_7">
     <g id="line2d_21">
      <g>
       <use xlink:href="#m1f22e7c56e" x="463.826862" y="320.4" style="stroke: #000000; stroke-width: 0.8"/>
      </g>
     </g>
     <g id="text_20">
      <!-- 50 -->
      <g transform="translate(457.464362 334.998438)scale(0.1 -0.1)">
       <use xlink:href="#DejaVuSans-35"/>
       <use xlink:href="#DejaVuSans-30" x="63.623047"/>
      </g>
     </g>
    </g>
    <g id="xtick_8">
     <g id="line2d_22">
      <g>
       <use xlink:href="#m1f22e7c56e" x="521.761161" y="320.4" style="stroke: #000000; stroke-width: 0.8"/>
      </g>
     </g>
     <g id="text_21">
      <!-- 100 -->
      <g transform="translate(512.217411 334.998438)scale(0.1 -0.1)">
       <use xlink:href="#DejaVuSans-31"/>
       <use xlink:href="#DejaVuSans-30" x="63.623047"/>
       <use xlink:href="#DejaVuSans-30" x="127.246094"/>
      </g>
     </g>
    </g>
    <g id="xtick_9">
     <g id="line2d_23">
      <g>
       <use xlink:href="#m1f22e7c56e" x="579.695461" y="320.4" style="stroke: #000000; stroke-width: 0.8"/>
      </g>
     </g>
     <g id="text_22">
      <!-- 150 -->
      <g transform="translate(570.151711 334.998438)scale(0.1 -0.1)">
       <use xlink:href="#DejaVuSans-31"/>
       <use xlink:href="#DejaVuSans-35" x="63.623047"/>
       <use xlink:href="#DejaVuSans-30" x="127.246094"/>
      </g>
     </g>
    </g>
    <g id="xtick_10">
     <g id="line2d_24">
      <g>
       <use xlink:href="#m1f22e7c56e" x="637.62976" y="320.4" style="stroke: #000000; stroke-width: 0.8"/>
      </g>
     </g>
     <g id="text_23">
      <!-- 200 -->
      <g transform="translate(628.08601 334.998438)scale(0.1 -0.1)">
       <use xlink:href="#DejaVuSans-32"/>
       <use xlink:href="#DejaVuSans-30" x="63.623047"/>
       <use xlink:href="#DejaVuSans-30" x="127.246094"/>
      </g>
     </g>
    </g>
   </g>
   <g id="matplotlib.axis_4">
    <g id="ytick_9">
     <g id="line2d_25">
      <g>
       <use xlink:href="#mc51e0d8510" x="394.363636" y="304.867636" style="stroke: #000000; stroke-width: 0.8"/>
      </g>
     </g>
     <g id="text_24">
      <!-- 0.76 -->
      <g transform="translate(365.098011 308.666855)scale(0.1 -0.1)">
       <use xlink:href="#DejaVuSans-30"/>
       <use xlink:href="#DejaVuSans-2e" x="63.623047"/>
       <use xlink:href="#DejaVuSans-37" x="95.410156"/>
       <use xlink:href="#DejaVuSans-36" x="159.033203"/>
      </g>
     </g>
    </g>
    <g id="ytick_10">
     <g id="line2d_26">
      <g>
       <use xlink:href="#mc51e0d8510" x="394.363636" y="256.741922" style="stroke: #000000; stroke-width: 0.8"/>
      </g>
     </g>
     <g id="text_25">
      <!-- 0.78 -->
      <g transform="translate(365.098011 260.541141)scale(0.1 -0.1)">
       <defs>
        <path id="DejaVuSans-38" d="M 2034 2216 
Q 1584 2216 1326 1975 
Q 1069 1734 1069 1313 
Q 1069 891 1326 650 
Q 1584 409 2034 409 
Q 2484 409 2743 651 
Q 3003 894 3003 1313 
Q 3003 1734 2745 1975 
Q 2488 2216 2034 2216 
z
M 1403 2484 
Q 997 2584 770 2862 
Q 544 3141 544 3541 
Q 544 4100 942 4425 
Q 1341 4750 2034 4750 
Q 2731 4750 3128 4425 
Q 3525 4100 3525 3541 
Q 3525 3141 3298 2862 
Q 3072 2584 2669 2484 
Q 3125 2378 3379 2068 
Q 3634 1759 3634 1313 
Q 3634 634 3220 271 
Q 2806 -91 2034 -91 
Q 1263 -91 848 271 
Q 434 634 434 1313 
Q 434 1759 690 2068 
Q 947 2378 1403 2484 
z
M 1172 3481 
Q 1172 3119 1398 2916 
Q 1625 2713 2034 2713 
Q 2441 2713 2670 2916 
Q 2900 3119 2900 3481 
Q 2900 3844 2670 4047 
Q 2441 4250 2034 4250 
Q 1625 4250 1398 4047 
Q 1172 3844 1172 3481 
z
" transform="scale(0.015625)"/>
       </defs>
       <use xlink:href="#DejaVuSans-30"/>
       <use xlink:href="#DejaVuSans-2e" x="63.623047"/>
       <use xlink:href="#DejaVuSans-37" x="95.410156"/>
       <use xlink:href="#DejaVuSans-38" x="159.033203"/>
      </g>
     </g>
    </g>
    <g id="ytick_11">
     <g id="line2d_27">
      <g>
       <use xlink:href="#mc51e0d8510" x="394.363636" y="208.616208" style="stroke: #000000; stroke-width: 0.8"/>
      </g>
     </g>
     <g id="text_26">
      <!-- 0.80 -->
      <g transform="translate(365.098011 212.415427)scale(0.1 -0.1)">
       <use xlink:href="#DejaVuSans-30"/>
       <use xlink:href="#DejaVuSans-2e" x="63.623047"/>
       <use xlink:href="#DejaVuSans-38" x="95.410156"/>
       <use xlink:href="#DejaVuSans-30" x="159.033203"/>
      </g>
     </g>
    </g>
    <g id="ytick_12">
     <g id="line2d_28">
      <g>
       <use xlink:href="#mc51e0d8510" x="394.363636" y="160.490494" style="stroke: #000000; stroke-width: 0.8"/>
      </g>
     </g>
     <g id="text_27">
      <!-- 0.82 -->
      <g transform="translate(365.098011 164.289713)scale(0.1 -0.1)">
       <use xlink:href="#DejaVuSans-30"/>
       <use xlink:href="#DejaVuSans-2e" x="63.623047"/>
       <use xlink:href="#DejaVuSans-38" x="95.410156"/>
       <use xlink:href="#DejaVuSans-32" x="159.033203"/>
      </g>
     </g>
    </g>
    <g id="ytick_13">
     <g id="line2d_29">
      <g>
       <use xlink:href="#mc51e0d8510" x="394.363636" y="112.36478" style="stroke: #000000; stroke-width: 0.8"/>
      </g>
     </g>
     <g id="text_28">
      <!-- 0.84 -->
      <g transform="translate(365.098011 116.163998)scale(0.1 -0.1)">
       <use xlink:href="#DejaVuSans-30"/>
       <use xlink:href="#DejaVuSans-2e" x="63.623047"/>
       <use xlink:href="#DejaVuSans-38" x="95.410156"/>
       <use xlink:href="#DejaVuSans-34" x="159.033203"/>
      </g>
     </g>
    </g>
    <g id="ytick_14">
     <g id="line2d_30">
      <g>
       <use xlink:href="#mc51e0d8510" x="394.363636" y="64.239065" style="stroke: #000000; stroke-width: 0.8"/>
      </g>
     </g>
     <g id="text_29">
      <!-- 0.86 -->
      <g transform="translate(365.098011 68.038284)scale(0.1 -0.1)">
       <use xlink:href="#DejaVuSans-30"/>
       <use xlink:href="#DejaVuSans-2e" x="63.623047"/>
       <use xlink:href="#DejaVuSans-38" x="95.410156"/>
       <use xlink:href="#DejaVuSans-36" x="159.033203"/>
      </g>
     </g>
    </g>
    <g id="text_30">
     <!-- Accuracy -->
     <g transform="translate(357.770511 218.325)rotate(-90)scale(0.16 -0.16)">
      <defs>
       <path id="DejaVuSans-41" d="M 2188 4044 
L 1331 1722 
L 3047 1722 
L 2188 4044 
z
M 1831 4666 
L 2547 4666 
L 4325 0 
L 3669 0 
L 3244 1197 
L 1141 1197 
L 716 0 
L 50 0 
L 1831 4666 
z
" transform="scale(0.015625)"/>
       <path id="DejaVuSans-75" d="M 544 1381 
L 544 3500 
L 1119 3500 
L 1119 1403 
Q 1119 906 1312 657 
Q 1506 409 1894 409 
Q 2359 409 2629 706 
Q 2900 1003 2900 1516 
L 2900 3500 
L 3475 3500 
L 3475 0 
L 2900 0 
L 2900 538 
Q 2691 219 2414 64 
Q 2138 -91 1772 -91 
Q 1169 -91 856 284 
Q 544 659 544 1381 
z
M 1991 3584 
L 1991 3584 
z
" transform="scale(0.015625)"/>
       <path id="DejaVuSans-79" d="M 2059 -325 
Q 1816 -950 1584 -1140 
Q 1353 -1331 966 -1331 
L 506 -1331 
L 506 -850 
L 844 -850 
Q 1081 -850 1212 -737 
Q 1344 -625 1503 -206 
L 1606 56 
L 191 3500 
L 800 3500 
L 1894 763 
L 2988 3500 
L 3597 3500 
L 2059 -325 
z
" transform="scale(0.015625)"/>
      </defs>
      <use xlink:href="#DejaVuSans-41"/>
      <use xlink:href="#DejaVuSans-63" x="66.658203"/>
      <use xlink:href="#DejaVuSans-63" x="121.638672"/>
      <use xlink:href="#DejaVuSans-75" x="176.619141"/>
      <use xlink:href="#DejaVuSans-72" x="239.998047"/>
      <use xlink:href="#DejaVuSans-61" x="281.111328"/>
      <use xlink:href="#DejaVuSans-63" x="342.390625"/>
      <use xlink:href="#DejaVuSans-79" x="397.371094"/>
     </g>
    </g>
   </g>
   <g id="line2d_31">
    <path d="M 405.892562 306.793868 
L 407.051248 307.656287 
L 408.209934 306.362587 
L 409.36862 273.157505 
L 410.527306 292.850585 
L 411.685992 307.8 
L 412.844678 275.888762 
L 414.003364 301.619065 
L 415.16205 287.675782 
L 416.320736 288.82577 
L 417.479422 276.751182 
L 418.638108 285.807087 
L 419.796794 287.388357 
L 420.95548 278.907302 
L 422.114166 286.525794 
L 423.272852 290.694465 
L 424.431538 278.476164 
L 425.590224 292.56316 
L 426.74891 268.845265 
L 427.907596 282.069697 
L 429.066282 307.081293 
L 430.224968 293.85686 
L 431.383654 274.020068 
L 432.54234 285.232093 
L 433.701026 285.519662 
L 434.859712 283.650967 
L 436.018398 305.068886 
L 437.177084 290.550609 
L 438.33577 286.094512 
L 439.494456 291.413171 
L 440.653142 291.700597 
L 441.811828 290.406896 
L 442.970514 283.938392 
L 444.1292 285.807087 
L 445.287886 295.725412 
L 446.446572 278.332308 
L 447.605258 282.788404 
L 448.763944 294.000573 
L 449.92263 266.545288 
L 451.081316 272.438798 
L 452.240002 280.919709 
L 453.398688 276.894894 
L 454.557374 302.481484 
L 455.71606 293.281866 
L 456.874746 279.051158 
L 458.033432 281.638559 
L 459.192118 267.695276 
L 460.350804 280.632284 
L 461.50949 280.632284 
L 462.668176 265.107875 
L 463.826862 276.032475 
L 464.985548 277.757457 
L 466.144234 276.176188 
L 467.30292 273.732499 
L 468.461606 272.582654 
L 469.620292 270.857672 
L 470.778978 260.939204 
L 471.937664 264.245456 
L 473.09635 273.732499 
L 474.255036 281.638559 
L 475.413722 274.451206 
L 476.572407 262.520473 
L 477.731093 290.550609 
L 478.889779 277.326176 
L 480.048465 265.539156 
L 481.207151 250.589598 
L 482.365837 274.882487 
L 483.524523 262.089192 
L 484.683209 265.3953 
L 485.841895 253.895849 
L 487.000581 260.076784 
L 488.159267 260.076784 
L 489.317953 256.770676 
L 490.476639 268.27027 
L 491.635325 260.364353 
L 492.794011 254.758269 
L 493.952697 260.076784 
L 495.111383 244.696088 
L 496.270069 261.370485 
L 497.428755 264.532881 
L 498.587441 253.751993 
L 499.746127 257.201958 
L 500.904813 276.463756 
L 502.063499 241.38998 
L 503.222185 284.513386 
L 504.380871 257.489383 
L 505.539557 258.351802 
L 506.698243 257.633096 
L 507.856929 249.727178 
L 509.015615 256.05197 
L 510.174301 250.014604 
L 511.332987 255.908257 
L 512.491673 255.476975 
L 513.650359 264.101599 
L 514.809045 264.820306 
L 515.967731 265.107875 
L 517.126417 239.377572 
L 518.285103 262.232905 
L 519.443789 267.263995 
L 520.602475 257.34567 
L 521.761161 250.302172 
L 522.919847 254.4707 
L 524.078533 243.977381 
L 525.237219 257.633096 
L 526.395905 262.089192 
L 527.554591 255.476975 
L 528.713277 250.014604 
L 529.871963 252.602005 
L 531.030649 260.651779 
L 532.189335 273.013792 
L 533.348021 258.926796 
L 534.506707 260.220497 
L 535.665393 244.983657 
L 536.824079 251.308304 
L 537.982765 245.414795 
L 539.141451 267.838989 
L 540.300137 251.883299 
L 541.458823 238.802578 
L 542.617509 277.182463 
L 543.776195 241.677549 
L 544.934881 252.602005 
L 546.093567 249.295897 
L 547.252253 242.827393 
L 548.410939 237.940159 
L 549.569625 238.515153 
L 550.728311 232.334074 
L 551.886997 253.751993 
L 553.045683 237.365165 
L 554.204369 241.821261 
L 555.363055 236.790171 
L 556.521741 253.320855 
L 557.680427 238.083872 
L 558.839113 236.071464 
L 559.997799 266.114007 
L 561.156485 258.639371 
L 562.315171 239.23386 
L 563.473857 249.295897 
L 564.632543 225.578145 
L 565.791229 230.177954 
L 566.949915 228.884254 
L 568.108601 253.464568 
L 569.267287 242.396255 
L 570.425973 240.671273 
L 571.584659 240.52756 
L 572.743345 250.589598 
L 573.902031 231.471655 
L 575.060717 242.108686 
L 576.219403 220.403342 
L 577.378089 227.734265 
L 578.536775 228.165547 
L 579.695461 242.683681 
L 580.854147 232.6215 
L 582.012833 235.49647 
L 583.171519 240.239992 
L 584.330205 246.42107 
L 585.488891 228.30926 
L 586.647577 233.484063 
L 587.806263 237.65259 
L 588.964949 214.509689 
L 590.123635 234.634051 
L 591.282321 235.208901 
L 592.441007 228.452972 
L 593.599693 232.6215 
L 595.917065 216.234671 
L 597.075751 218.534647 
L 598.234437 233.627775 
L 599.393123 220.547055 
L 600.551809 234.059057 
L 601.710495 219.828348 
L 602.869181 221.840756 
L 604.027867 230.609092 
L 605.186553 237.940159 
L 606.345239 239.664998 
L 607.503925 234.777763 
L 608.662611 243.689956 
L 609.821297 247.139777 
L 610.979983 240.383848 
L 612.138669 220.259486 
L 613.297355 237.940159 
L 614.456041 235.208901 
L 615.614727 241.38998 
L 616.773413 234.346482 
L 617.932099 253.033287 
L 619.090785 241.821261 
L 620.24947 250.302172 
L 621.408156 243.689956 
L 622.566842 226.584277 
L 623.725528 226.296852 
L 624.884214 224.140588 
L 626.0429 223.709451 
L 627.201586 242.396255 
L 628.360272 226.296852 
L 629.518958 238.083872 
L 630.677644 241.38998 
L 631.83633 214.365976 
L 632.995016 227.302984 
L 634.153702 242.252399 
L 635.312388 214.078551 
L 636.471074 223.996876 
L 636.471074 223.996876 
" clip-path="url(#p6fdcbca891)" style="fill: none; stroke: #1f77b4; stroke-width: 1.5; stroke-linecap: square"/>
   </g>
   <g id="line2d_32">
    <path d="M 405.892562 120.803874 
L 407.051248 141.331405 
L 408.209934 125.365531 
L 409.36862 139.050648 
L 410.527306 136.769747 
L 411.685992 127.646432 
L 412.844678 111.680558 
L 414.003364 141.331405 
L 415.16205 142.471927 
L 416.320736 113.961315 
L 417.479422 96.855063 
L 418.638108 108.259279 
L 419.796794 118.523116 
L 420.95548 124.225153 
L 422.114166 132.20809 
L 423.272852 137.910126 
L 424.431538 110.54018 
L 425.590224 151.595243 
L 426.74891 78.608289 
L 429.066282 164.139837 
L 430.224968 129.927189 
L 431.383654 144.752684 
L 432.54234 144.752684 
L 433.701026 105.978378 
L 434.859712 150.454864 
L 436.018398 118.523116 
L 437.177084 192.650306 
L 438.33577 149.314342 
L 439.494456 145.893063 
L 440.653142 108.259279 
L 441.811828 136.769747 
L 442.970514 152.735621 
L 444.1292 124.225153 
L 445.287886 172.122774 
L 446.446572 168.701495 
L 447.605258 105.978378 
L 448.763944 113.961315 
L 449.92263 119.663495 
L 451.081316 118.523116 
L 452.240002 143.612306 
L 453.398688 135.629369 
L 454.557374 128.786811 
L 455.71606 94.574162 
L 456.874746 113.961315 
L 458.033432 95.714684 
L 459.192118 124.225153 
L 461.50949 88.872126 
L 462.668176 132.20809 
L 463.826862 140.191027 
L 464.985548 129.927189 
L 466.144234 139.050648 
L 467.30292 153.876 
L 468.461606 113.961315 
L 469.620292 135.629369 
L 470.778978 105.978378 
L 471.937664 142.471927 
L 473.09635 126.506053 
L 474.255036 167.561116 
L 475.413722 110.54018 
L 476.572407 134.48899 
L 477.731093 123.084774 
L 478.889779 140.191027 
L 480.048465 126.506053 
L 481.207151 104.838 
L 482.365837 101.416721 
L 483.524523 121.944252 
L 484.683209 97.995442 
L 485.841895 116.242216 
L 487.000581 159.578179 
L 488.159267 104.838 
L 489.317953 94.574162 
L 490.476639 131.067711 
L 491.635325 153.876 
L 492.794011 153.876 
L 493.952697 107.1189 
L 495.111383 121.944252 
L 496.270069 86.591226 
L 497.428755 72.906252 
L 498.587441 121.944252 
L 499.746127 127.646432 
L 500.904813 126.506053 
L 502.063499 132.20809 
L 503.222185 103.697621 
L 505.539557 151.595243 
L 506.698243 93.433784 
L 507.856929 178.965332 
L 509.015615 135.629369 
L 510.174301 151.595243 
L 511.332987 153.876 
L 512.491673 97.995442 
L 513.650359 123.084774 
L 514.809045 118.523116 
L 515.967731 127.646432 
L 517.126417 119.663495 
L 518.285103 94.574162 
L 519.443789 147.033585 
L 520.602475 127.646432 
L 521.761161 78.608289 
L 522.919847 157.297279 
L 524.078533 145.893063 
L 525.237219 141.331405 
L 526.395905 72.906252 
L 527.554591 155.016522 
L 528.713277 92.293405 
L 529.871963 156.1569 
L 531.030649 83.17009 
L 532.189335 116.242216 
L 533.348021 112.820937 
L 534.506707 113.961315 
L 535.665393 71.765874 
L 537.982765 125.365531 
L 539.141451 112.820937 
L 540.300137 150.454864 
L 541.458823 95.714684 
L 542.617509 142.471927 
L 543.776195 110.54018 
L 544.934881 88.872126 
L 546.093567 115.101837 
L 547.252253 120.803874 
L 548.410939 113.961315 
L 549.569625 84.310468 
L 550.728311 107.1189 
L 551.886997 108.259279 
L 553.045683 121.944252 
L 554.204369 64.923315 
L 555.363055 91.153027 
L 556.521741 143.612306 
L 557.680427 109.399658 
L 558.839113 141.331405 
L 561.156485 101.416721 
L 562.315171 190.369548 
L 563.473857 118.523116 
L 564.632543 136.769747 
L 565.791229 96.855063 
L 566.949915 90.012505 
L 568.108601 92.293405 
L 569.267287 170.982396 
L 570.425973 79.748811 
L 571.584659 86.591226 
L 572.743345 94.574162 
L 573.902031 83.17009 
L 575.060717 145.893063 
L 576.219403 132.20809 
L 577.378089 123.084774 
L 578.536775 124.225153 
L 579.695461 97.995442 
L 580.854147 115.101837 
L 582.012833 88.872126 
L 583.171519 105.978378 
L 584.330205 93.433784 
L 585.488891 68.344595 
L 586.647577 161.858937 
L 587.806263 95.714684 
L 588.964949 131.067711 
L 590.123635 55.8 
L 591.282321 93.433784 
L 592.441007 99.135964 
L 593.599693 100.276342 
L 594.758379 85.450847 
L 595.917065 117.382594 
L 597.075751 112.820937 
L 598.234437 100.276342 
L 599.393123 110.54018 
L 600.551809 97.995442 
L 601.710495 107.1189 
L 602.869181 127.646432 
L 604.027867 112.820937 
L 605.186553 112.820937 
L 606.345239 109.399658 
L 607.503925 103.697621 
L 608.662611 131.067711 
L 609.821297 91.153027 
L 610.979983 94.574162 
L 612.138669 119.663495 
L 613.297355 69.484973 
L 614.456041 123.084774 
L 616.773413 77.46791 
L 617.932099 137.910126 
L 619.090785 109.399658 
L 620.24947 102.557099 
L 621.408156 128.786811 
L 622.566842 103.697621 
L 623.725528 117.382594 
L 624.884214 102.557099 
L 626.0429 125.365531 
L 627.201586 143.612306 
L 628.360272 170.982396 
L 629.518958 92.293405 
L 630.677644 76.327531 
L 631.83633 124.225153 
L 632.995016 91.153027 
L 634.153702 103.697621 
L 635.312388 127.646432 
L 636.471074 110.54018 
L 636.471074 110.54018 
" clip-path="url(#p6fdcbca891)" style="fill: none; stroke: #ff7f0e; stroke-width: 1.5; stroke-linecap: square"/>
   </g>
   <g id="line2d_33">
    <path d="M 590.123635 55.8 
" clip-path="url(#p6fdcbca891)" style="fill: none; stroke: #ff0000; stroke-width: 1.5; stroke-linecap: square"/>
    <g clip-path="url(#p6fdcbca891)">
     <use xlink:href="#ma082c491c8" x="590.123635" y="55.8" style="fill: #ff0000; stroke: #ff0000"/>
    </g>
   </g>
   <g id="patch_9">
    <path d="M 394.363636 320.4 
L 394.363636 43.2 
" style="fill: none; stroke: #000000; stroke-width: 0.8; stroke-linejoin: miter; stroke-linecap: square"/>
   </g>
   <g id="patch_10">
    <path d="M 648 320.4 
L 648 43.2 
" style="fill: none; stroke: #000000; stroke-width: 0.8; stroke-linejoin: miter; stroke-linecap: square"/>
   </g>
   <g id="patch_11">
    <path d="M 394.363636 320.4 
L 648 320.4 
" style="fill: none; stroke: #000000; stroke-width: 0.8; stroke-linejoin: miter; stroke-linecap: square"/>
   </g>
   <g id="patch_12">
    <path d="M 394.363636 43.2 
L 648 43.2 
" style="fill: none; stroke: #000000; stroke-width: 0.8; stroke-linejoin: miter; stroke-linecap: square"/>
   </g>
   <g id="text_31">
    <!-- Best epoch: 159 with accuracy: 86.4% -->
    <g transform="translate(406.167443 37.2)scale(0.12 -0.12)">
     <defs>
      <path id="DejaVuSans-25" d="M 4653 2053 
Q 4381 2053 4226 1822 
Q 4072 1591 4072 1178 
Q 4072 772 4226 539 
Q 4381 306 4653 306 
Q 4919 306 5073 539 
Q 5228 772 5228 1178 
Q 5228 1588 5073 1820 
Q 4919 2053 4653 2053 
z
M 4653 2450 
Q 5147 2450 5437 2106 
Q 5728 1763 5728 1178 
Q 5728 594 5436 251 
Q 5144 -91 4653 -91 
Q 4153 -91 3862 251 
Q 3572 594 3572 1178 
Q 3572 1766 3864 2108 
Q 4156 2450 4653 2450 
z
M 1428 4353 
Q 1159 4353 1004 4120 
Q 850 3888 850 3481 
Q 850 3069 1003 2837 
Q 1156 2606 1428 2606 
Q 1700 2606 1854 2837 
Q 2009 3069 2009 3481 
Q 2009 3884 1853 4118 
Q 1697 4353 1428 4353 
z
M 4250 4750 
L 4750 4750 
L 1831 -91 
L 1331 -91 
L 4250 4750 
z
M 1428 4750 
Q 1922 4750 2215 4408 
Q 2509 4066 2509 3481 
Q 2509 2891 2217 2550 
Q 1925 2209 1428 2209 
Q 931 2209 642 2551 
Q 353 2894 353 3481 
Q 353 4063 643 4406 
Q 934 4750 1428 4750 
z
" transform="scale(0.015625)"/>
     </defs>
     <use xlink:href="#DejaVuSans-42"/>
     <use xlink:href="#DejaVuSans-65" x="68.603516"/>
     <use xlink:href="#DejaVuSans-73" x="130.126953"/>
     <use xlink:href="#DejaVuSans-74" x="182.226562"/>
     <use xlink:href="#DejaVuSans-20" x="221.435547"/>
     <use xlink:href="#DejaVuSans-65" x="253.222656"/>
     <use xlink:href="#DejaVuSans-70" x="314.746094"/>
     <use xlink:href="#DejaVuSans-6f" x="378.222656"/>
     <use xlink:href="#DejaVuSans-63" x="439.404297"/>
     <use xlink:href="#DejaVuSans-68" x="494.384766"/>
     <use xlink:href="#DejaVuSans-3a" x="557.763672"/>
     <use xlink:href="#DejaVuSans-20" x="591.455078"/>
     <use xlink:href="#DejaVuSans-31" x="623.242188"/>
     <use xlink:href="#DejaVuSans-35" x="686.865234"/>
     <use xlink:href="#DejaVuSans-39" x="750.488281"/>
     <use xlink:href="#DejaVuSans-20" x="814.111328"/>
     <use xlink:href="#DejaVuSans-77" x="845.898438"/>
     <use xlink:href="#DejaVuSans-69" x="927.685547"/>
     <use xlink:href="#DejaVuSans-74" x="955.46875"/>
     <use xlink:href="#DejaVuSans-68" x="994.677734"/>
     <use xlink:href="#DejaVuSans-20" x="1058.056641"/>
     <use xlink:href="#DejaVuSans-61" x="1089.84375"/>
     <use xlink:href="#DejaVuSans-63" x="1151.123047"/>
     <use xlink:href="#DejaVuSans-63" x="1206.103516"/>
     <use xlink:href="#DejaVuSans-75" x="1261.083984"/>
     <use xlink:href="#DejaVuSans-72" x="1324.462891"/>
     <use xlink:href="#DejaVuSans-61" x="1365.576172"/>
     <use xlink:href="#DejaVuSans-63" x="1426.855469"/>
     <use xlink:href="#DejaVuSans-79" x="1481.835938"/>
     <use xlink:href="#DejaVuSans-3a" x="1533.765625"/>
     <use xlink:href="#DejaVuSans-20" x="1567.457031"/>
     <use xlink:href="#DejaVuSans-38" x="1599.244141"/>
     <use xlink:href="#DejaVuSans-36" x="1662.867188"/>
     <use xlink:href="#DejaVuSans-2e" x="1726.490234"/>
     <use xlink:href="#DejaVuSans-34" x="1758.277344"/>
     <use xlink:href="#DejaVuSans-25" x="1821.900391"/>
    </g>
   </g>
   <g id="legend_2">
    <g id="patch_13">
     <path d="M 510.784375 315.4 
L 641 315.4 
Q 643 315.4 643 313.4 
L 643 270.365625 
Q 643 268.365625 641 268.365625 
L 510.784375 268.365625 
Q 508.784375 268.365625 508.784375 270.365625 
L 508.784375 313.4 
Q 508.784375 315.4 510.784375 315.4 
z
" style="fill: #ffffff; opacity: 0.8; stroke: #cccccc; stroke-linejoin: miter"/>
    </g>
    <g id="line2d_34">
     <path d="M 512.784375 276.464063 
L 522.784375 276.464063 
L 532.784375 276.464063 
" style="fill: none; stroke: #1f77b4; stroke-width: 1.5; stroke-linecap: square"/>
    </g>
    <g id="text_32">
     <!-- Training Accuracy -->
     <g transform="translate(540.784375 279.964063)scale(0.1 -0.1)">
      <use xlink:href="#DejaVuSans-54"/>
      <use xlink:href="#DejaVuSans-72" x="46.333984"/>
      <use xlink:href="#DejaVuSans-61" x="87.447266"/>
      <use xlink:href="#DejaVuSans-69" x="148.726562"/>
      <use xlink:href="#DejaVuSans-6e" x="176.509766"/>
      <use xlink:href="#DejaVuSans-69" x="239.888672"/>
      <use xlink:href="#DejaVuSans-6e" x="267.671875"/>
      <use xlink:href="#DejaVuSans-67" x="331.050781"/>
      <use xlink:href="#DejaVuSans-20" x="394.527344"/>
      <use xlink:href="#DejaVuSans-41" x="426.314453"/>
      <use xlink:href="#DejaVuSans-63" x="492.972656"/>
      <use xlink:href="#DejaVuSans-63" x="547.953125"/>
      <use xlink:href="#DejaVuSans-75" x="602.933594"/>
      <use xlink:href="#DejaVuSans-72" x="666.3125"/>
      <use xlink:href="#DejaVuSans-61" x="707.425781"/>
      <use xlink:href="#DejaVuSans-63" x="768.705078"/>
      <use xlink:href="#DejaVuSans-79" x="823.685547"/>
     </g>
    </g>
    <g id="line2d_35">
     <path d="M 512.784375 291.142187 
L 522.784375 291.142187 
L 532.784375 291.142187 
" style="fill: none; stroke: #ff7f0e; stroke-width: 1.5; stroke-linecap: square"/>
    </g>
    <g id="text_33">
     <!-- Validation Accuracy -->
     <g transform="translate(540.784375 294.642187)scale(0.1 -0.1)">
      <use xlink:href="#DejaVuSans-56"/>
      <use xlink:href="#DejaVuSans-61" x="60.658203"/>
      <use xlink:href="#DejaVuSans-6c" x="121.9375"/>
      <use xlink:href="#DejaVuSans-69" x="149.720703"/>
      <use xlink:href="#DejaVuSans-64" x="177.503906"/>
      <use xlink:href="#DejaVuSans-61" x="240.980469"/>
      <use xlink:href="#DejaVuSans-74" x="302.259766"/>
      <use xlink:href="#DejaVuSans-69" x="341.46875"/>
      <use xlink:href="#DejaVuSans-6f" x="369.251953"/>
      <use xlink:href="#DejaVuSans-6e" x="430.433594"/>
      <use xlink:href="#DejaVuSans-20" x="493.8125"/>
      <use xlink:href="#DejaVuSans-41" x="525.599609"/>
      <use xlink:href="#DejaVuSans-63" x="592.257812"/>
      <use xlink:href="#DejaVuSans-63" x="647.238281"/>
      <use xlink:href="#DejaVuSans-75" x="702.21875"/>
      <use xlink:href="#DejaVuSans-72" x="765.597656"/>
      <use xlink:href="#DejaVuSans-61" x="806.710938"/>
      <use xlink:href="#DejaVuSans-63" x="867.990234"/>
      <use xlink:href="#DejaVuSans-79" x="922.970703"/>
     </g>
    </g>
    <g id="line2d_36">
     <path d="M 512.784375 305.820312 
L 522.784375 305.820312 
L 532.784375 305.820312 
" style="fill: none; stroke: #ff0000; stroke-width: 1.5; stroke-linecap: square"/>
     <g>
      <use xlink:href="#ma082c491c8" x="522.784375" y="305.820312" style="fill: #ff0000; stroke: #ff0000"/>
     </g>
    </g>
    <g id="text_34">
     <!-- best model -->
     <g transform="translate(540.784375 309.320312)scale(0.1 -0.1)">
      <use xlink:href="#DejaVuSans-62"/>
      <use xlink:href="#DejaVuSans-65" x="63.476562"/>
      <use xlink:href="#DejaVuSans-73" x="125"/>
      <use xlink:href="#DejaVuSans-74" x="177.099609"/>
      <use xlink:href="#DejaVuSans-20" x="216.308594"/>
      <use xlink:href="#DejaVuSans-6d" x="248.095703"/>
      <use xlink:href="#DejaVuSans-6f" x="345.507812"/>
      <use xlink:href="#DejaVuSans-64" x="406.689453"/>
      <use xlink:href="#DejaVuSans-65" x="470.166016"/>
      <use xlink:href="#DejaVuSans-6c" x="531.689453"/>
     </g>
    </g>
   </g>
  </g>
  <g id="text_35">
   <!-- Optimizer : Adam -->
   <g transform="translate(316.221094 14.798437)scale(0.1 -0.1)">
    <defs>
     <path id="DejaVuSans-4f" d="M 2522 4238 
Q 1834 4238 1429 3725 
Q 1025 3213 1025 2328 
Q 1025 1447 1429 934 
Q 1834 422 2522 422 
Q 3209 422 3611 934 
Q 4013 1447 4013 2328 
Q 4013 3213 3611 3725 
Q 3209 4238 2522 4238 
z
M 2522 4750 
Q 3503 4750 4090 4092 
Q 4678 3434 4678 2328 
Q 4678 1225 4090 567 
Q 3503 -91 2522 -91 
Q 1538 -91 948 565 
Q 359 1222 359 2328 
Q 359 3434 948 4092 
Q 1538 4750 2522 4750 
z
" transform="scale(0.015625)"/>
     <path id="DejaVuSans-7a" d="M 353 3500 
L 3084 3500 
L 3084 2975 
L 922 459 
L 3084 459 
L 3084 0 
L 275 0 
L 275 525 
L 2438 3041 
L 353 3041 
L 353 3500 
z
" transform="scale(0.015625)"/>
    </defs>
    <use xlink:href="#DejaVuSans-4f"/>
    <use xlink:href="#DejaVuSans-70" x="78.710938"/>
    <use xlink:href="#DejaVuSans-74" x="142.1875"/>
    <use xlink:href="#DejaVuSans-69" x="181.396484"/>
    <use xlink:href="#DejaVuSans-6d" x="209.179688"/>
    <use xlink:href="#DejaVuSans-69" x="306.591797"/>
    <use xlink:href="#DejaVuSans-7a" x="334.375"/>
    <use xlink:href="#DejaVuSans-65" x="386.865234"/>
    <use xlink:href="#DejaVuSans-72" x="448.388672"/>
    <use xlink:href="#DejaVuSans-20" x="489.501953"/>
    <use xlink:href="#DejaVuSans-3a" x="521.289062"/>
    <use xlink:href="#DejaVuSans-20" x="554.980469"/>
    <use xlink:href="#DejaVuSans-41" x="586.767578"/>
    <use xlink:href="#DejaVuSans-64" x="653.425781"/>
    <use xlink:href="#DejaVuSans-61" x="716.902344"/>
    <use xlink:href="#DejaVuSans-6d" x="778.181641"/>
   </g>
  </g>
 </g>
 <defs>
  <clipPath id="pc10e55fffa">
   <rect x="90" y="43.2" width="253.636364" height="277.2"/>
  </clipPath>
  <clipPath id="p6fdcbca891">
   <rect x="394.363636" y="43.2" width="253.636364" height="277.2"/>
  </clipPath>
 </defs>
</svg>
